<svg width="560" height="431" viewBox="0 0 560 431" fill="none" xmlns="http://www.w3.org/2000/svg">
<path fill-rule="evenodd" clip-rule="evenodd" d="M229.012 156.66C225.871 159.349 221.21 169.101 239.4 192.402L259.539 199.341L278.755 169.018L241.391 148.571C241.37 148.571 232.153 153.97 229.012 156.66Z" fill="#24245B" stroke="#24245B" stroke-width="4.1667" stroke-miterlimit="12.5" stroke-linecap="round" stroke-linejoin="round"/>
<path fill-rule="evenodd" clip-rule="evenodd" d="M0.393528 188.624C3.08291 185.647 21.3338 191.868 37.8191 206.67C54.3044 221.492 62.8036 239.332 60.1143 242.309C57.4249 245.307 41.8634 235.678 25.3781 220.876C8.91333 206.074 -2.27533 191.622 0.393528 188.624Z" fill="#C57DBA"/>
<path fill-rule="evenodd" clip-rule="evenodd" d="M381.793 359.882C381.793 359.882 395.343 369.306 401.091 375.629C408.892 384.231 400.516 429.889 391.524 430.587C382.532 431.285 343.588 430.587 343.588 430.587C343.588 430.587 342.541 410.632 366.519 408.764V382.137L381.793 359.882Z" fill="#EFC2E9"/>
<mask id="mask0_14_204" style="mask-type:luminance" maskUnits="userSpaceOnUse" x="343" y="359" width="62" height="72">
<path d="M381.793 359.882C381.793 359.882 395.343 369.306 401.091 375.629C408.892 384.231 400.516 429.889 391.524 430.587C382.532 431.285 343.588 430.587 343.588 430.587C343.588 430.587 342.541 410.632 366.519 408.764V382.137L381.793 359.882Z" fill="white"/>
</mask>
<g mask="url(#mask0_14_204)">
<path fill-rule="evenodd" clip-rule="evenodd" d="M366.519 408.784C366.519 408.784 373.417 408.024 384.236 409.708C384.236 409.708 381.65 404.042 366.519 404.329C364.323 405.664 364.056 407.121 366.519 408.784ZM384.893 362.1C384.893 362.1 386.084 382.486 364.774 391.026L361.757 375.649L381.793 356.269L384.893 362.1Z" fill="#C57DBA"/>
</g>
<path fill-rule="evenodd" clip-rule="evenodd" d="M270.605 169.429C270.605 169.429 262.167 179.879 255.187 190.8C255.187 190.8 188.897 166.473 166.54 169.018C144.163 171.564 73.479 192.648 73.479 192.648L83.169 232.106L166.54 212.562C166.54 212.562 253.996 247.955 263.871 253.518C273.725 259.082 281.383 256.659 281.383 256.659L309.221 190.78L270.605 169.429Z" fill="#FFEBE2"/>
<mask id="mask1_14_204" style="mask-type:luminance" maskUnits="userSpaceOnUse" x="73" y="168" width="237" height="90">
<path d="M270.605 169.429C270.605 169.429 262.167 179.879 255.187 190.8C255.187 190.8 188.897 166.473 166.54 169.018C144.163 171.564 73.479 192.648 73.479 192.648L83.169 232.106L166.54 212.562C166.54 212.562 253.996 247.955 263.871 253.518C273.725 259.082 281.383 256.659 281.383 256.659L309.221 190.78L270.605 169.429Z" fill="white"/>
</mask>
<g mask="url(#mask1_14_204)">
<path fill-rule="evenodd" clip-rule="evenodd" d="M262.885 217.571C262.885 217.571 256.85 233.502 254.653 249.207L252.395 258.322H276.866L262.885 217.571Z" fill="#24245B"/>
</g>
<path fill-rule="evenodd" clip-rule="evenodd" d="M263.851 199.341C263.851 199.341 258.02 295.789 263.851 312.233C269.681 328.677 359.56 387.146 359.56 387.146C359.56 387.146 383.415 382.342 384.236 357.809L312.752 292.319L334.863 200.449L273.15 177.867L263.851 199.341Z" fill="#FFEBE2"/>
<path fill-rule="evenodd" clip-rule="evenodd" d="M248.884 182.896C262.495 180.371 272.144 195.748 292.941 204.658C320.451 216.442 336.382 209.256 339.03 207.902L335.335 183.902L261.038 159.308C261.038 159.328 231.927 186.037 248.884 182.896ZM73.5612 192.627C76.0658 192.012 80.2744 200.367 82.9432 211.248C85.6121 222.149 85.7353 231.49 83.2101 232.106C80.7055 232.722 76.4969 224.366 73.8281 213.486C71.1592 202.605 71.0566 193.223 73.5612 192.627Z" fill="#24245B"/>
<path fill-rule="evenodd" clip-rule="evenodd" d="M80.7056 230.505C70.7692 236.109 61.4693 241.591 59.8885 242.535L60.1348 242.33C62.8242 239.353 51.615 224.88 35.1297 210.057C18.7471 195.337 3.28825 185.75 0.455162 188.563C18.9729 164.83 57.7534 200.408 57.7534 200.408L77.5645 196.446C79.4738 199.813 81.4651 205.11 82.9638 211.227C84.6267 218.043 85.3042 224.264 84.9552 228.103L80.7056 230.505Z" fill="#EFC2E9"/>
<mask id="mask2_14_204" style="mask-type:luminance" maskUnits="userSpaceOnUse" x="0" y="180" width="86" height="63">
<path d="M80.7055 230.505C70.7692 236.109 61.4693 241.591 59.8885 242.535L60.1348 242.33C62.8242 239.353 51.615 224.88 35.1297 210.057C18.7471 195.337 3.28825 185.75 0.455162 188.563C18.9729 164.83 57.7534 200.408 57.7534 200.408L77.5645 196.446C79.4738 199.813 81.4651 205.11 82.9638 211.227C84.6267 218.043 85.3042 224.264 84.9552 228.103L80.7055 230.505Z" fill="white"/>
</mask>
<g mask="url(#mask2_14_204)">
<path fill-rule="evenodd" clip-rule="evenodd" d="M57.7534 200.429C57.7534 200.429 60.566 203.015 63.5222 206.67C63.5222 206.67 63.4196 202.276 59.4369 197.657L57.7534 200.429ZM75.5731 196.857C78.5705 196.754 82.5738 225.146 78.4062 231.798L83.9492 235.637L91.8326 228.021L81.8142 192.381C81.8142 192.402 73.3354 196.939 75.5731 196.857Z" fill="#C57DBA"/>
</g>
<path fill-rule="evenodd" clip-rule="evenodd" d="M222.894 53.5802C222.894 53.5802 219.671 48.1193 215.729 45.8405C211.787 43.5617 208.646 39.1889 208.03 36.3969C207.414 33.6254 201.317 32.7426 201.235 39.5174C201.132 46.3127 203.534 46.9081 203.534 46.9081C203.534 46.9081 197.704 47.2365 191.36 50.0081C191.36 50.0081 174.259 49.9259 167.546 53.5597C164.241 55.3457 164.754 57.8709 166.54 58.8152C166.643 58.8563 164.898 61.8742 171.96 62.5311C168.942 65.7132 174.588 67.0682 181.239 63.0444C181.239 63.0444 194.214 63.9887 206.675 68.6284L222.894 53.5802Z" fill="#F99382"/>
<path d="M196.328 50.0286H191.36M181.219 63.0649C181.219 63.0649 177.236 62.5722 171.939 62.5516M209.508 54.3398C209.508 54.3398 197.704 47.8113 191.442 55.1199C191.442 55.1199 167.464 52.6358 166.54 58.8152" stroke="#24245B" stroke-width="4.1667" stroke-miterlimit="12.5" stroke-linecap="round" stroke-linejoin="round"/>
<path fill-rule="evenodd" clip-rule="evenodd" d="M513.039 64.7894C515.77 65.3847 516.344 73.4118 514.312 82.6912C512.3 91.9706 508.441 99.0328 505.71 98.4374C502.98 97.8421 502.405 89.815 504.437 80.5356C506.47 71.2562 510.309 64.194 513.039 64.7894Z" fill="#24245B" stroke="#24245B" stroke-width="4.1667" stroke-miterlimit="12.5" stroke-linecap="round" stroke-linejoin="round"/>
<path fill-rule="evenodd" clip-rule="evenodd" d="M504.253 67.7046C504.253 67.7046 511.561 65.2616 523.14 67.7046C523.14 67.7046 536.997 65.0357 543.403 63.8245C544.983 63.7013 548.289 71.3383 537.326 73.8019C537.326 73.8019 541.801 75.6906 545.086 78.5442C545.086 78.5442 560.976 83.0607 560.34 88.3574C560.011 91.0878 557.178 90.2667 557.178 90.2667C557.301 92.7918 556.726 95.2143 552.189 94.4958C547.652 93.7772 514.99 89.5276 485.653 95.7891L504.253 67.7046Z" fill="#F99382"/>
<path fill-rule="evenodd" clip-rule="evenodd" d="M505.731 98.4375H505.751C501.44 98.8275 457.568 103.139 378.077 126.85C378.077 126.85 357.897 164.933 341.206 206.67C341.206 206.67 309.857 218.639 278.529 187.146C247.201 155.654 234.308 151.958 228.991 156.639C228.991 156.639 258.677 129.93 300.024 109.133L208.585 71.9748C201.769 69.2854 213.984 48.4272 228.991 52.1021L344.347 82.1369L380.418 78.9959C380.418 78.9959 451.635 66.9861 512.464 64.7894C509.796 65.2 506.326 71.9132 504.458 80.5561C502.425 89.8355 503 97.8421 505.731 98.4375Z" fill="#37B7C3"/>
<mask id="mask3_14_204" style="mask-type:luminance" maskUnits="userSpaceOnUse" x="206" y="51" width="307" height="158">
<path d="M505.731 98.4375H505.751C501.44 98.8275 457.568 103.139 378.077 126.85C378.077 126.85 357.897 164.933 341.206 206.67C341.206 206.67 309.857 218.639 278.529 187.146C247.201 155.654 234.308 151.958 228.991 156.639C228.991 156.639 258.677 129.93 300.024 109.133L208.585 71.9748C201.769 69.2854 213.984 48.4272 228.991 52.1021L344.347 82.1369L380.418 78.9959C380.418 78.9959 451.635 66.9861 512.464 64.7894C509.796 65.2 506.326 71.9132 504.458 80.5561C502.425 89.8355 503 97.8421 505.731 98.4375Z" fill="white"/>
</mask>
<g mask="url(#mask3_14_204)">
<path fill-rule="evenodd" clip-rule="evenodd" d="M300.024 109.154C300.024 109.154 307.435 105.664 312.731 103.755C312.731 103.755 302.282 103.324 292.941 106.28C292.941 106.259 293.393 110.098 300.024 109.154Z" fill="#24245B"/>
</g>
<path d="M545.065 78.5443C540.467 77.1893 535.93 76.1628 531.454 75.4032M529.956 72.0774C529.956 72.0774 534.021 72.3853 537.326 73.8019M512.916 76.9635C512.916 76.9635 521.128 74.3767 529.032 80.433C529.032 80.433 556.87 84.4157 557.137 90.2462" stroke="#24245B" stroke-width="4.1667" stroke-miterlimit="12.5" stroke-linecap="round" stroke-linejoin="round"/>
<path fill-rule="evenodd" clip-rule="evenodd" d="M386.72 18.9877C386.72 18.9877 373.212 18.4745 362.105 30.8744C362.105 30.8744 350.773 33.5843 352.641 37.7724C353.36 39.3942 355.064 40.5439 355.064 40.5439C351.43 46.1279 346.647 60.704 359.437 64.7688C359.437 64.7688 352.58 74.2741 343.259 83.2661C332.83 93.3256 365.287 86.0376 380.459 79.0164C380.459 79.0164 385.756 68.1357 388.527 64.7688L408.01 50.9319V33.0916L386.72 18.9877Z" fill="#F99382"/>
<mask id="mask4_14_204" style="mask-type:luminance" maskUnits="userSpaceOnUse" x="341" y="18" width="68" height="71">
<path d="M386.72 18.9877C386.72 18.9877 373.212 18.4745 362.105 30.8744C362.105 30.8744 350.773 33.5843 352.641 37.7724C353.36 39.3942 355.064 40.5439 355.064 40.5439C351.43 46.1279 346.647 60.704 359.437 64.7688C359.437 64.7688 352.58 74.2741 343.259 83.2661C332.83 93.3256 365.287 86.0376 380.459 79.0164C380.459 79.0164 385.756 68.1357 388.527 64.7688L408.01 50.9319V33.0916L386.72 18.9877Z" fill="white"/>
</mask>
<g mask="url(#mask4_14_204)">
<path fill-rule="evenodd" clip-rule="evenodd" d="M359.395 64.7483C359.395 64.7483 363.932 65.7132 368.901 64.5841C368.901 64.5841 364.959 68.9774 354.612 68.649L359.395 64.7483Z" fill="#24245B"/>
</g>
<path fill-rule="evenodd" clip-rule="evenodd" d="M390.785 40.7287C390.785 40.7287 385.509 35.4731 390.108 26.9943C390.108 26.9943 387.09 20.3838 380.438 20.1785C379.535 20.1374 378.652 20.2606 377.81 20.5275C376.455 20.9586 373.561 22.0056 370.338 23.9765C362.598 10.858 370.687 3.52893 376.25 5.74613C379.987 7.2448 378.857 11.2276 381.896 14.6355C397.601 -6.14052 415.831 -2.54783 406.737 11.4329C403.103 17.0169 422.257 8.41499 437.1 25.5162C444.799 34.3645 439.748 44.6909 429.217 46.7438C425.419 47.4829 419.239 46.128 414.908 47.9756C419.527 48.9816 422.298 55.2636 416.714 58.5894C411.582 61.6278 398.915 59.4722 388.527 64.7483C388.527 64.7483 387.665 59.0822 389.225 56.0643C392.818 57.5014 403.452 53.7445 403.945 44.5677C404.273 38.2856 396.841 36.7459 390.785 40.7287Z" fill="#24245B"/>
<path d="M397.293 43.3359C397.293 43.3359 393.577 45.0604 391.545 50.9113M393.372 47.1133C393.372 47.1133 396.082 46.2922 398.525 47.9756" stroke="#24245B" stroke-width="4.1667" stroke-miterlimit="12.5" stroke-linecap="round" stroke-linejoin="round"/>
<path fill-rule="evenodd" clip-rule="evenodd" d="M356.48 46.7028C356.48 46.7028 362.742 47.1955 368.326 45.0809C368.326 45.0809 368.49 52.9438 361.325 52.8206C356.295 52.759 356.254 48.4067 356.48 46.7028Z" fill="white"/>
<path d="M375.737 26.2758C375.737 26.2758 380.808 27.3638 380.603 33.2353" stroke="#24245B" stroke-width="4.1667" stroke-miterlimit="12.5" stroke-linecap="round" stroke-linejoin="round"/>
<path fill-rule="evenodd" clip-rule="evenodd" d="M372.616 30.1559C373.294 30.7718 373.089 32.0857 372.165 33.0711C371.241 34.077 369.968 34.385 369.291 33.7896C368.613 33.1737 368.818 31.8598 369.742 30.8744C370.666 29.889 371.959 29.54 372.616 30.1559Z" fill="#24245B"/>
</svg>
