<svg width="201" height="187" viewBox="0 0 201 187" fill="none" xmlns="http://www.w3.org/2000/svg">
<g clip-path="url(#clip0_131_2)">
<path d="M68.0413 84.0897C59.709 84.0897 51.5638 81.6238 44.6357 77.0039C37.7076 72.3839 32.3078 65.8174 29.1191 58.1347C25.9305 50.452 25.0962 41.9982 26.7217 33.8423C28.3473 25.6864 32.3597 18.1947 38.2516 12.3147C44.1434 6.43459 51.6501 2.43021 59.8224 0.807898C67.9946 -0.814411 76.4654 0.0182186 84.1634 3.20049C91.8615 6.38277 98.4412 11.7718 103.07 18.686C107.7 25.6002 110.17 33.7292 110.17 42.0449C110.158 53.192 105.715 63.8789 97.8171 71.7611C89.9191 79.6433 79.2108 84.0771 68.0413 84.0897ZM68.0413 0.662144C59.8402 0.662144 51.8233 3.0892 45.0043 7.63639C38.1853 12.1836 32.8705 18.6467 29.7321 26.2084C26.5937 33.7701 25.7725 42.0908 27.3725 50.1182C28.9724 58.1457 32.9216 65.5194 38.7207 71.3069C44.5198 77.0943 51.9082 81.0357 59.9518 82.6324C67.9953 84.2292 76.3327 83.4097 83.9095 80.2775C91.4864 77.1453 97.9624 71.8412 102.519 65.0359C107.075 58.2305 109.507 50.2296 109.507 42.0449C109.507 31.0695 105.138 20.5436 97.362 12.7829C89.5856 5.0221 79.0387 0.662144 68.0413 0.662144Z" fill="#F2F2F2"/>
<path d="M41.6233 43.5521C40.4525 39.2923 49.895 35.6395 52.3746 39.0699C52.7194 38.5822 53.9936 38.2859 54.5783 38.4356C55.1505 38.6252 55.6794 38.9262 56.1343 39.3212C56.7939 39.8269 57.4775 40.3505 57.8822 41.0776C58.29 41.8017 58.3529 42.7892 57.8043 43.4175C57.3695 43.9172 56.0863 44.2404 55.4327 44.372C54.977 44.4648 54.5932 44.5396 54.2635 44.5934C53.9639 44.1627 53.8259 43.6404 53.8737 43.1183C53.6517 43.2677 53.4656 43.4643 53.3288 43.694C53.1919 43.9237 53.1077 44.1808 53.0822 44.4468C53.0732 44.5575 56.7669 58.1209 56.7669 58.1209C56.3231 58.373 55.8563 58.5824 55.3728 58.7463C54.4162 57.2873 53.6836 55.6938 53.1991 54.0187C53.0877 55.1388 53.1018 56.2678 53.2411 57.3849C53.3151 58.0112 53.4212 58.6334 53.5589 59.249C49.1696 60.1945 42.5677 59.8833 39.6955 55.8619L39.694 55.8119C39.6918 55.6532 39.6343 55.5002 39.5315 55.3791C39.4286 55.2579 39.2867 55.1763 39.1302 55.1481C38.9737 55.1199 38.8122 55.1469 38.6734 55.2245C38.5346 55.302 38.4271 55.4253 38.3694 55.5733C38.2997 55.7507 38.2356 55.9043 38.1784 56.0264C37.3419 53.0402 38.4243 49.5843 41.6233 43.5521Z" fill="#2F2E41"/>
<path d="M62.3228 179.805L65.5933 179.778L67.041 166.895L62.2144 166.936L62.3228 179.805Z" fill="#A0616A"/>
<path d="M72.1575 183.8L66.9343 180.265L66.9146 177.929L65.7913 178.004L62.3097 178.244L61.4561 178.3L60.8365 186.555L63.29 186.533L63.7081 184.218L64.8464 186.521L71.3486 186.467C71.6603 186.464 71.963 186.362 72.2125 186.176C72.462 185.989 72.6452 185.728 72.7356 185.431C72.8259 185.133 72.8185 184.814 72.7145 184.521C72.6105 184.228 72.4154 183.975 72.1575 183.8Z" fill="#2F2E41"/>
<path d="M29.713 178.532L32.9463 179.023L36.4228 166.532L31.6506 165.809L29.713 178.532Z" fill="#A0616A"/>
<path d="M38.7884 184.034L34.193 179.716L34.5447 177.407L33.4237 177.303L29.9481 176.989L29.0963 176.909L27.1729 184.962L29.5988 185.328L30.3794 183.109L31.1374 185.563L37.5659 186.539C37.8741 186.585 38.1891 186.532 38.4651 186.388C38.7411 186.243 38.9635 186.014 39.1 185.735C39.2365 185.455 39.2799 185.139 39.2238 184.833C39.1677 184.527 39.0152 184.247 38.7884 184.034Z" fill="#2F2E41"/>
<path d="M60.8187 89.8018L70.0913 106.376C70.0913 106.376 69.7044 140.464 70.9367 141.728C72.169 142.992 73.2848 144.126 72.169 144.116C71.0533 144.106 69.7028 146.815 69.7028 146.815L67.395 172.428H61.5756C61.5756 172.428 57.4808 157.324 58.3536 148.71L51.4596 117.234C51.4596 117.234 46.5068 147.001 45.6142 147.892C44.7216 148.783 44.1832 148.776 45.1219 149.67C46.0605 150.564 45.1219 152.586 45.1219 152.586L35.3368 172.854L30.0292 172.186C30.0292 172.186 30.9493 155.64 34.1535 148.537V114.969C33.9122 117.847 45.201 88.717 38.2977 90.9034C40.4818 90.2117 60.8187 89.8018 60.8187 89.8018Z" fill="#2F2E41"/>
<path d="M52.9374 58.1978L43.5112 56.2023L41.6396 59.9621L35.3368 63.6037C35.3368 63.6037 39.3995 80.182 39.3764 82.5137C39.3175 88.4334 29.8268 101.704 36.9954 100.683C44.1641 99.6618 45.6203 95.3857 47.9216 96.0618C57.4162 98.8513 68.7001 98.5556 64.8603 94.7236C61.0206 90.8915 61.8786 65.3826 61.8786 65.3826L54.4414 61.8749L52.9374 58.1978Z" fill="#088395"/>
<path d="M35.1586 118.403C35.5373 117.952 35.7249 117.372 35.6814 116.785C35.6378 116.199 35.3667 115.652 34.9255 115.262C34.8346 115.184 34.7374 115.114 34.6349 115.052L36.2109 107.332L32.5674 105.156L31.554 115.964C31.3298 116.408 31.2592 116.914 31.3533 117.402C31.4474 117.891 31.7008 118.334 32.0741 118.664C32.5067 119.038 33.0706 119.226 33.6419 119.186C34.2132 119.145 34.745 118.88 35.1203 118.448C35.1333 118.433 35.146 118.418 35.1586 118.403Z" fill="#A0616A"/>
<path d="M33.146 82.2827L33.4491 68.2159C33.4682 67.3317 33.6643 66.4601 34.026 65.6527C34.3877 64.8453 34.9077 64.1182 35.5553 63.5144C36.2029 62.9106 36.965 62.4422 37.7967 62.1369C38.6285 61.8315 39.513 61.6954 40.3983 61.7365C43.2784 61.8708 42.5111 63.0193 43.2761 65.7938C44.5193 70.3037 44.9974 72.9107 44.6974 73.542C44.5958 73.7558 44.4888 73.9606 44.3859 74.1576C43.8556 75.1725 43.4725 75.9058 44.4461 76.6082C44.8312 76.8624 45.2507 77.0606 45.6917 77.1967C46.1312 77.3525 46.4488 77.4651 46.4711 77.7131C46.4925 77.9531 46.2211 78.202 45.4694 78.6312C43.451 79.7841 41.7008 86.6744 41.6837 86.7424L35.8268 111.262L31.161 111.031L33.146 82.2827Z" fill="#088395"/>
<path d="M91.8552 101.502C91.2716 101.419 90.7435 101.112 90.3832 100.647C90.0229 100.181 89.8589 99.5936 89.9259 99.0092C89.9415 98.8906 89.9668 98.7735 90.0016 98.6591L83.6616 93.9656L84.916 89.9171L92.9046 97.2836C93.3688 97.4647 93.7598 97.794 94.0167 98.2201C94.2737 98.6463 94.382 99.1453 94.3248 99.6394C94.2896 99.9202 94.1993 100.191 94.0591 100.437C93.9189 100.683 93.7315 100.899 93.5076 101.073C93.2837 101.247 93.0277 101.375 92.7543 101.45C92.4808 101.525 92.1953 101.545 91.9139 101.51C91.8943 101.508 91.8747 101.505 91.8552 101.502Z" fill="#A0616A"/>
<path d="M89.895 93.3509L86.5778 96.6336L65.8065 82.2929C65.7482 82.2536 59.8336 78.2933 57.56 78.7811C56.7133 78.9629 56.3448 78.9587 56.2 78.7658C56.0506 78.5664 56.2116 78.2709 56.4343 77.862C56.6714 77.4666 56.8508 77.0395 56.9672 76.5936C57.2215 75.4218 56.4456 75.1315 55.3717 74.7299C55.1632 74.6519 54.9465 74.5708 54.7278 74.4795C54.0819 74.2097 52.6927 71.951 50.5989 67.7663C49.3109 65.1917 47.9711 64.8486 50.0244 62.8285C50.6556 62.2077 51.405 61.7192 52.2283 61.3919C53.0516 61.0646 53.9323 60.905 54.8183 60.9226C55.7044 60.9401 56.578 61.1345 57.3876 61.4941C58.1973 61.8538 58.9266 62.3716 59.5327 63.0169L69.1743 73.2822L89.895 93.3509Z" fill="#088395"/>
<path d="M48.9605 56.0612C53.2078 56.0612 56.6509 52.625 56.6509 48.3862C56.6509 44.1474 53.2078 40.7112 48.9605 40.7112C44.7132 40.7112 41.2701 44.1474 41.2701 48.3862C41.2701 52.625 44.7132 56.0612 48.9605 56.0612Z" fill="#A0616A"/>
<path d="M37.4259 44.1505C36.2551 39.8907 45.6976 36.2378 48.1772 39.6683C48.522 39.1806 49.7962 38.8843 50.3809 39.034C50.9531 39.2236 51.482 39.5246 51.9369 39.9196C52.5965 40.4253 53.2801 40.9489 53.6848 41.676C54.0926 42.4001 54.1555 43.3876 53.6069 44.0159C53.1721 44.5156 51.8889 44.8387 51.2353 44.9704C50.7796 45.0631 50.3959 45.138 50.0661 45.1918C49.7665 44.7611 49.6285 44.2388 49.6763 43.7167C49.4543 43.8661 49.2682 44.0627 49.1314 44.2924C48.9945 44.5221 48.9103 44.7792 48.8848 45.0452C48.8758 45.1559 52.5695 58.7193 52.5695 58.7193C52.1257 58.9714 51.6589 59.1808 51.1754 59.3447C50.2188 57.8857 49.4862 56.2922 49.0017 54.6171C48.8904 55.7372 48.9044 56.8662 49.0437 57.9833C49.1177 58.6096 49.2238 59.2318 49.3615 59.8474C44.9722 60.7929 38.3703 60.4817 35.4981 56.4603L35.4966 56.4103C35.4944 56.2516 35.4369 56.0986 35.334 55.9775C35.2312 55.8564 35.0894 55.7747 34.9328 55.7465C34.7763 55.7183 34.6148 55.7453 34.476 55.8229C34.3372 55.9004 34.2298 56.0238 34.172 56.1717C34.1024 56.3491 34.0382 56.5027 33.981 56.6248C33.1445 53.6386 34.2269 50.1827 37.4259 44.1505Z" fill="#2F2E41"/>
<path d="M17.999 181.144C17.8448 181.151 17.6922 181.111 17.5618 181.029C17.4314 180.946 17.3295 180.826 17.2699 180.684C17.2104 180.542 17.196 180.385 17.2289 180.234C17.2617 180.084 17.3401 179.947 17.4534 179.842L17.505 179.638C17.4982 179.621 17.4914 179.605 17.4845 179.588C17.3292 179.222 17.0689 178.91 16.7363 178.691C16.4038 178.472 16.0138 178.356 15.6154 178.357C15.217 178.359 14.8279 178.478 14.4969 178.699C14.166 178.921 13.9081 179.235 13.7555 179.602C13.1456 181.068 12.3691 182.537 12.1779 184.087C12.0936 184.772 12.1292 185.466 12.2828 186.14C10.8503 183.021 10.1065 179.631 10.1017 176.201C10.1014 175.34 10.1493 174.48 10.2452 173.624C10.3245 172.923 10.4345 172.226 10.5752 171.535C11.343 167.784 12.9915 164.268 15.3853 161.276C16.5439 160.645 17.4808 159.675 18.0699 158.496C18.2833 158.072 18.4342 157.62 18.5177 157.153C18.387 157.17 18.0249 155.184 18.1235 155.062C17.9414 154.786 17.6154 154.649 17.4164 154.38C16.4271 153.041 15.0641 153.275 14.3526 155.094C12.8325 155.859 12.8178 157.129 13.7505 158.35C14.3439 159.127 14.4254 160.179 14.946 161.01C14.8925 161.079 14.8368 161.145 14.7832 161.214C13.804 162.47 12.9506 163.819 12.2352 165.242C12.4092 163.648 12.2016 162.036 11.6294 160.538C11.0494 159.142 9.96246 157.966 9.00526 156.759C8.75209 156.435 8.40829 156.193 8.0173 156.063C7.62632 155.934 7.20571 155.923 6.80864 156.033C6.41157 156.142 6.05587 156.366 5.7865 156.677C5.51713 156.988 5.34617 157.372 5.29525 157.78C5.29329 157.797 5.29138 157.815 5.28951 157.833C5.43168 157.913 5.57086 157.998 5.70703 158.088C5.8781 158.202 6.01065 158.365 6.08732 158.555C6.16399 158.746 6.18119 158.955 6.13669 159.156C6.09219 159.356 5.98806 159.538 5.83793 159.679C5.68779 159.819 5.49867 159.911 5.29534 159.942L5.27452 159.946C5.32516 160.457 5.4147 160.964 5.54233 161.462C4.31436 166.201 6.96546 167.927 10.7509 168.005C10.8345 168.048 10.9159 168.09 10.9995 168.131C10.2807 170.164 9.82981 172.281 9.6582 174.43C9.56105 175.698 9.56679 176.972 9.67535 178.239L9.66892 178.194C9.39465 176.785 8.64164 175.514 7.53704 174.595C5.89647 173.25 3.57863 172.755 1.80874 171.674C1.62064 171.553 1.40192 171.489 1.17839 171.488C0.954858 171.488 0.735838 171.551 0.547152 171.67C0.358466 171.79 0.207993 171.961 0.113474 172.163C0.0189551 172.365 -0.0156682 172.59 0.0136972 172.811L0.0209355 172.859C0.28477 172.966 0.541657 173.089 0.790094 173.229C0.932272 173.309 1.07144 173.394 1.20762 173.483C1.37868 173.598 1.51123 173.76 1.5879 173.951C1.66457 174.142 1.68178 174.351 1.63727 174.551C1.59277 174.752 1.48864 174.934 1.33851 175.074C1.18838 175.215 0.999249 175.307 0.795915 175.338L0.775081 175.341C0.760087 175.343 0.747213 175.345 0.732249 175.348C1.18305 176.422 1.81578 177.411 2.6027 178.271C3.37052 182.408 6.66832 182.8 10.196 181.596H10.1981C10.5852 183.274 11.1459 184.908 11.8715 186.471H17.8492C17.8706 186.405 17.8899 186.336 17.9092 186.27C17.3559 186.305 16.8004 186.272 16.2551 186.172C16.6986 185.628 17.1422 185.081 17.5857 184.538C17.5956 184.528 17.6049 184.517 17.6135 184.506C17.8385 184.228 18.0656 183.952 18.2906 183.674L18.2907 183.674C18.3027 182.822 18.2045 181.971 17.999 181.144Z" fill="#F2F2F2"/>
<path d="M0.221437 186.606C0.221283 186.658 0.231385 186.709 0.25117 186.757C0.270955 186.805 0.300034 186.848 0.336723 186.885C0.373413 186.922 0.416991 186.951 0.464957 186.97C0.512923 186.99 0.564326 187 0.616211 187H84.6388C84.7435 187 84.8439 186.959 84.918 186.885C84.992 186.811 85.0336 186.711 85.0336 186.606C85.0336 186.502 84.992 186.401 84.918 186.328C84.8439 186.254 84.7435 186.212 84.6388 186.212H0.616211C0.564327 186.212 0.512922 186.222 0.464957 186.242C0.416991 186.262 0.373412 186.291 0.336723 186.327C0.300034 186.364 0.270955 186.407 0.25117 186.455C0.231384 186.503 0.221284 186.554 0.221437 186.606Z" fill="#CCCCCC"/>
<path d="M183.823 18.9104H99.0597C98.0536 18.9104 97.0573 19.1082 96.1278 19.4924C95.1983 19.8767 94.3537 20.4399 93.6423 21.1499C92.9309 21.8599 92.3665 22.7028 91.9815 23.6304C91.5965 24.5581 91.3983 25.5524 91.3983 26.5565V154.283C91.3983 156.311 92.2055 158.256 93.6423 159.69C95.0791 161.124 97.0278 161.929 99.0597 161.929H183.823C185.855 161.929 187.804 161.123 189.241 159.69C190.677 158.256 191.484 156.311 191.484 154.283C202.729 110.876 203.075 68.2751 191.484 26.5565C191.484 24.5286 190.677 22.5838 189.241 21.1499C187.804 19.716 185.855 18.9104 183.823 18.9104ZM101.634 144.233C101.634 144.561 101.504 144.876 101.271 145.108C101.039 145.34 100.723 145.471 100.394 145.471H97.188C96.8591 145.471 96.5436 145.34 96.311 145.108C96.0784 144.876 95.9477 144.561 95.9477 144.233V141.033C95.9477 140.705 96.0784 140.39 96.311 140.158C96.5436 139.926 96.8591 139.795 97.188 139.795H100.394C100.723 139.795 101.039 139.926 101.271 140.158C101.504 140.39 101.634 140.705 101.634 141.033V144.233ZM101.634 131.605C101.634 131.933 101.504 132.248 101.271 132.48C101.039 132.713 100.723 132.843 100.394 132.843H97.188C96.8591 132.843 96.5436 132.713 96.311 132.48C96.0784 132.248 95.9477 131.933 95.9477 131.605V128.405C95.9477 128.243 95.9798 128.082 96.0421 127.932C96.1045 127.782 96.1958 127.645 96.311 127.53C96.4262 127.415 96.5629 127.324 96.7134 127.262C96.8638 127.2 97.0251 127.168 97.188 127.168H100.394C100.557 127.168 100.718 127.2 100.869 127.262C101.019 127.324 101.156 127.415 101.271 127.53C101.386 127.645 101.478 127.782 101.54 127.932C101.602 128.082 101.634 128.243 101.634 128.405V131.605ZM101.634 118.977C101.634 119.306 101.504 119.621 101.271 119.853C101.039 120.085 100.723 120.215 100.394 120.215H97.188C96.8591 120.215 96.5436 120.085 96.311 119.853C96.0784 119.621 95.9477 119.306 95.9477 118.977V115.778C95.9477 115.449 96.0784 115.135 96.311 114.903C96.5436 114.67 96.8591 114.54 97.188 114.54H100.394C100.723 114.54 101.039 114.67 101.271 114.903C101.504 115.135 101.634 115.449 101.634 115.778V118.977ZM101.634 106.35C101.634 106.678 101.504 106.993 101.271 107.225C101.039 107.457 100.723 107.588 100.394 107.588H97.188C96.8591 107.588 96.5436 107.457 96.311 107.225C96.0784 106.993 95.9477 106.678 95.9477 106.35V103.15C95.9477 102.822 96.0784 102.507 96.311 102.275C96.5436 102.043 96.8591 101.912 97.188 101.912H100.394C100.723 101.912 101.039 102.043 101.271 102.275C101.504 102.507 101.634 102.822 101.634 103.15V106.35ZM101.634 93.7222C101.634 94.0505 101.504 94.3653 101.271 94.5975C101.039 94.8296 100.723 94.96 100.394 94.96H97.188C96.8591 94.96 96.5436 94.8296 96.311 94.5975C96.0784 94.3653 95.9477 94.0505 95.9477 93.7222V90.5225C95.9477 90.1942 96.0784 89.8794 96.311 89.6472C96.5436 89.4151 96.8591 89.2847 97.188 89.2847H100.394C100.723 89.2847 101.039 89.4151 101.271 89.6472C101.504 89.8794 101.634 90.1942 101.634 90.5225V93.7222ZM101.634 81.0945C101.634 81.4228 101.504 81.7377 101.271 81.9698C101.039 82.202 100.723 82.3324 100.394 82.3324H97.188C96.8591 82.3324 96.5436 82.202 96.311 81.9698C96.0784 81.7377 95.9477 81.4228 95.9477 81.0945V77.8949C95.9477 77.5666 96.0784 77.2517 96.311 77.0196C96.5436 76.7874 96.8591 76.657 97.188 76.657H100.394C100.723 76.657 101.039 76.7874 101.271 77.0196C101.504 77.2517 101.634 77.5666 101.634 77.8949V81.0945ZM101.634 68.4669C101.634 68.7952 101.504 69.11 101.271 69.3422C101.039 69.5743 100.723 69.7047 100.394 69.7047H97.188C96.8591 69.7047 96.5436 69.5743 96.311 69.3422C96.0784 69.11 95.9477 68.7952 95.9477 68.4669V65.2672C95.9477 64.9389 96.0784 64.6241 96.311 64.3919C96.5436 64.1598 96.8591 64.0294 97.188 64.0294H100.394C100.723 64.0294 101.039 64.1598 101.271 64.3919C101.504 64.6241 101.634 64.9389 101.634 65.2672V68.4669ZM101.634 55.8392C101.634 56.1675 101.504 56.4824 101.271 56.7145C101.039 56.9467 100.723 57.0771 100.394 57.0771H97.188C96.8591 57.0771 96.5436 56.9467 96.311 56.7145C96.0784 56.4824 95.9477 56.1675 95.9477 55.8392V52.6396C95.9477 52.3113 96.0784 51.9964 96.311 51.7643C96.5436 51.5322 96.8591 51.4018 97.188 51.4018H100.394C100.723 51.4018 101.039 51.5322 101.271 51.7643C101.504 51.9964 101.634 52.3113 101.634 52.6396V55.8392ZM101.634 43.2116C101.634 43.5399 101.504 43.8547 101.271 44.0869C101.039 44.319 100.723 44.4494 100.394 44.4494H97.188C96.8591 44.4494 96.5436 44.319 96.311 44.0869C96.0784 43.8547 95.9477 43.5399 95.9477 43.2116V40.0119C95.9477 39.6837 96.0784 39.3688 96.311 39.1367C96.5436 38.9045 96.8591 38.7741 97.188 38.7741H100.394C100.723 38.7741 101.039 38.9045 101.271 39.1367C101.504 39.3688 101.634 39.6837 101.634 40.0119V43.2116Z" fill="#F2F2F2"/>
<path d="M100.911 25.7208H96.6712C96.2716 25.7208 95.9477 26.0441 95.9477 26.4429V30.6741C95.9477 31.0729 96.2716 31.3962 96.6712 31.3962H100.911C101.31 31.3962 101.634 31.0729 101.634 30.6741V26.4429C101.634 26.0441 101.31 25.7208 100.911 25.7208Z" fill="#088395"/>
<path d="M174.993 41.9428H113.088C113 41.9428 112.916 41.9079 112.854 41.8458C112.792 41.7837 112.757 41.6995 112.757 41.6117C112.757 41.5239 112.792 41.4397 112.854 41.3776C112.916 41.3155 113 41.2806 113.088 41.2806H174.993C175.081 41.2806 175.165 41.3155 175.228 41.3776C175.29 41.4397 175.325 41.5239 175.325 41.6117C175.325 41.6995 175.29 41.7837 175.228 41.8458C175.165 41.9079 175.081 41.9428 174.993 41.9428Z" fill="#E6E6E6"/>
<path d="M174.993 29.457H157.364C157.276 29.457 157.192 29.4221 157.13 29.36C157.067 29.2979 157.032 29.2137 157.032 29.1259C157.032 29.0381 157.067 28.9539 157.13 28.8918C157.192 28.8297 157.276 28.7949 157.364 28.7949H174.993C175.081 28.7949 175.165 28.8297 175.228 28.8918C175.29 28.9539 175.325 29.0381 175.325 29.1259C175.325 29.2137 175.29 29.2979 175.228 29.36C175.165 29.4221 175.081 29.457 174.993 29.457Z" fill="#E6E6E6"/>
<path d="M174.993 54.4285H113.088C113 54.4285 112.916 54.3937 112.854 54.3316C112.792 54.2695 112.757 54.1853 112.757 54.0975C112.757 54.0097 112.792 53.9255 112.854 53.8634C112.916 53.8013 113 53.7664 113.088 53.7664H174.993C175.081 53.7664 175.165 53.8013 175.228 53.8634C175.29 53.9255 175.325 54.0097 175.325 54.0975C175.325 54.1853 175.29 54.2695 175.228 54.3316C175.165 54.3937 175.081 54.4285 174.993 54.4285Z" fill="#E6E6E6"/>
<path d="M174.993 66.9143H113.088C113 66.9143 112.916 66.8794 112.854 66.8174C112.792 66.7553 112.757 66.6711 112.757 66.5833C112.757 66.4955 112.792 66.4113 112.854 66.3492C112.916 66.2871 113 66.2522 113.088 66.2522H174.993C175.081 66.2522 175.165 66.2871 175.228 66.3492C175.29 66.4113 175.325 66.4955 175.325 66.5833C175.325 66.6711 175.29 66.7553 175.228 66.8174C175.165 66.8794 175.081 66.9143 174.993 66.9143Z" fill="#E6E6E6"/>
<path d="M174.993 79.4001H113.088C113 79.4001 112.916 79.3652 112.854 79.3031C112.792 79.2411 112.757 79.1568 112.757 79.069C112.757 78.9812 112.792 78.897 112.854 78.8349C112.916 78.7729 113 78.738 113.088 78.738H174.993C175.081 78.738 175.165 78.7729 175.228 78.8349C175.29 78.897 175.325 78.9812 175.325 79.069C175.325 79.1568 175.29 79.2411 175.228 79.3031C175.165 79.3652 175.081 79.4001 174.993 79.4001Z" fill="#E6E6E6"/>
<path d="M174.993 91.8859H113.088C113 91.8859 112.916 91.851 112.854 91.7889C112.792 91.7268 112.757 91.6426 112.757 91.5548C112.757 91.467 112.792 91.3828 112.854 91.3207C112.916 91.2586 113 91.2238 113.088 91.2238H174.993C175.081 91.2238 175.165 91.2586 175.228 91.3207C175.29 91.3828 175.325 91.467 175.325 91.5548C175.325 91.6426 175.29 91.7268 175.228 91.7889C175.165 91.851 175.081 91.8859 174.993 91.8859Z" fill="#E6E6E6"/>
<path d="M174.993 104.372H113.088C113 104.372 112.916 104.337 112.854 104.275C112.792 104.212 112.757 104.128 112.757 104.04C112.757 103.953 112.792 103.868 112.854 103.806C112.916 103.744 113 103.709 113.088 103.709H174.993C175.081 103.709 175.165 103.744 175.228 103.806C175.29 103.868 175.325 103.953 175.325 104.04C175.325 104.128 175.29 104.212 175.228 104.275C175.165 104.337 175.081 104.372 174.993 104.372Z" fill="#E6E6E6"/>
<path d="M174.993 116.857H113.088C113 116.857 112.916 116.823 112.854 116.76C112.792 116.698 112.757 116.614 112.757 116.526C112.757 116.439 112.792 116.354 112.854 116.292C112.916 116.23 113 116.195 113.088 116.195H174.993C175.081 116.195 175.165 116.23 175.228 116.292C175.29 116.354 175.325 116.439 175.325 116.526C175.325 116.614 175.29 116.698 175.228 116.76C175.165 116.823 175.081 116.857 174.993 116.857Z" fill="#E6E6E6"/>
<path d="M174.993 129.343H113.088C113 129.343 112.916 129.308 112.854 129.246C112.792 129.184 112.757 129.1 112.757 129.012C112.757 128.924 112.792 128.84 112.854 128.778C112.916 128.716 113 128.681 113.088 128.681H174.993C175.081 128.681 175.165 128.716 175.228 128.778C175.29 128.84 175.325 128.924 175.325 129.012C175.325 129.1 175.29 129.184 175.228 129.246C175.165 129.308 175.081 129.343 174.993 129.343Z" fill="#E6E6E6"/>
<path d="M174.993 141.829H113.088C113 141.829 112.916 141.794 112.854 141.732C112.792 141.67 112.757 141.586 112.757 141.498C112.757 141.41 112.792 141.326 112.854 141.264C112.916 141.202 113 141.167 113.088 141.167H174.993C175.081 141.167 175.165 141.202 175.228 141.264C175.29 141.326 175.325 141.41 175.325 141.498C175.325 141.586 175.29 141.67 175.228 141.732C175.165 141.794 175.081 141.829 174.993 141.829Z" fill="#E6E6E6"/>
<path d="M165.816 39.028H123.122C122.956 39.0283 122.791 38.9958 122.638 38.9325C122.484 38.8692 122.344 38.7763 122.227 38.6591C122.109 38.5419 122.016 38.4027 121.952 38.2494C121.888 38.0962 121.856 37.9319 121.856 37.766C121.856 37.6001 121.888 37.4358 121.952 37.2826C122.016 37.1293 122.109 36.9901 122.227 36.8729C122.344 36.7557 122.484 36.6628 122.638 36.5995C122.791 36.5362 122.956 36.5037 123.122 36.504H165.816C166.151 36.5045 166.472 36.6377 166.708 36.8743C166.945 37.1109 167.078 37.4316 167.078 37.766C167.078 38.1004 166.945 38.421 166.708 38.6577C166.472 38.8943 166.151 39.0275 165.816 39.028Z" fill="#CCCCCC"/>
<path d="M165.816 51.5137H123.122C122.787 51.5137 122.465 51.3808 122.228 51.1441C121.991 50.9074 121.858 50.5864 121.858 50.2517C121.858 49.917 121.991 49.596 122.228 49.3593C122.465 49.1226 122.787 48.9897 123.122 48.9897H165.816C166.151 48.9897 166.473 49.1226 166.71 49.3593C166.947 49.596 167.08 49.917 167.08 50.2517C167.08 50.5864 166.947 50.9074 166.71 51.1441C166.473 51.3808 166.151 51.5137 165.816 51.5137Z" fill="#CCCCCC"/>
<path d="M165.816 63.9995H123.122C122.956 63.9998 122.791 63.9673 122.638 63.904C122.484 63.8407 122.344 63.7478 122.227 63.6306C122.109 63.5134 122.016 63.3742 121.952 63.2209C121.888 63.0677 121.856 62.9034 121.856 62.7375C121.856 62.5716 121.888 62.4073 121.952 62.2541C122.016 62.1008 122.109 61.9616 122.227 61.8444C122.344 61.7272 122.484 61.6342 122.638 61.5709C122.791 61.5076 122.956 61.4752 123.122 61.4755H165.816C166.151 61.476 166.472 61.6092 166.708 61.8458C166.945 62.0824 167.078 62.4031 167.078 62.7375C167.078 63.0718 166.945 63.3925 166.708 63.6292C166.472 63.8658 166.151 63.999 165.816 63.9995Z" fill="#CCCCCC"/>
<path d="M165.816 76.4853H123.122C122.787 76.4853 122.465 76.3523 122.228 76.1157C121.991 75.879 121.858 75.558 121.858 75.2233C121.858 74.8886 121.991 74.5676 122.228 74.3309C122.465 74.0942 122.787 73.9612 123.122 73.9612H165.816C166.151 73.9612 166.473 74.0942 166.71 74.3309C166.947 74.5676 167.08 74.8886 167.08 75.2233C167.08 75.558 166.947 75.879 166.71 76.1157C166.473 76.3523 166.151 76.4853 165.816 76.4853Z" fill="#CCCCCC"/>
<path d="M165.816 88.971H123.122C122.956 88.9713 122.791 88.9388 122.638 88.8755C122.484 88.8122 122.344 88.7193 122.227 88.6021C122.109 88.4849 122.016 88.3457 121.952 88.1924C121.888 88.0392 121.856 87.8749 121.856 87.709C121.856 87.5431 121.888 87.3788 121.952 87.2256C122.016 87.0723 122.109 86.9331 122.227 86.8159C122.344 86.6987 122.484 86.6057 122.638 86.5424C122.791 86.4791 122.956 86.4467 123.122 86.447H165.816C166.151 86.4475 166.472 86.5807 166.708 86.8173C166.945 87.0539 167.078 87.3746 167.078 87.709C167.078 88.0433 166.945 88.364 166.708 88.6007C166.472 88.8373 166.151 88.9705 165.816 88.971Z" fill="#CCCCCC"/>
<path d="M165.816 101.457H123.122C122.956 101.457 122.791 101.425 122.638 101.361C122.484 101.298 122.344 101.205 122.227 101.088C122.109 100.971 122.016 100.831 121.952 100.678C121.888 100.525 121.856 100.361 121.856 100.195C121.856 100.029 121.888 99.8646 121.952 99.7113C122.016 99.5581 122.109 99.4189 122.227 99.3017C122.344 99.1844 122.484 99.0915 122.638 99.0282C122.791 98.9649 122.956 98.9325 123.122 98.9327H165.816C166.151 98.9333 166.472 99.0665 166.708 99.3031C166.945 99.5397 167.078 99.8604 167.078 100.195C167.078 100.529 166.945 100.85 166.708 101.086C166.472 101.323 166.151 101.456 165.816 101.457Z" fill="#CCCCCC"/>
<path d="M165.816 113.943H123.122C122.787 113.943 122.465 113.81 122.228 113.573C121.991 113.336 121.858 113.015 121.858 112.68C121.858 112.346 121.991 112.025 122.228 111.788C122.465 111.551 122.787 111.418 123.122 111.418H165.816C166.151 111.418 166.473 111.551 166.71 111.788C166.947 112.025 167.08 112.346 167.08 112.68C167.08 113.015 166.947 113.336 166.71 113.573C166.473 113.81 166.151 113.943 165.816 113.943Z" fill="#CCCCCC"/>
<path d="M165.816 126.428H123.122C122.956 126.429 122.791 126.396 122.638 126.333C122.484 126.27 122.344 126.177 122.227 126.059C122.109 125.942 122.016 125.803 121.952 125.65C121.888 125.496 121.856 125.332 121.856 125.166C121.856 125 121.888 124.836 121.952 124.683C122.016 124.53 122.109 124.39 122.227 124.273C122.344 124.156 122.484 124.063 122.638 124C122.791 123.936 122.956 123.904 123.122 123.904H165.816C166.151 123.905 166.472 124.038 166.708 124.275C166.945 124.511 167.078 124.832 167.078 125.166C167.078 125.501 166.945 125.821 166.708 126.058C166.472 126.295 166.151 126.428 165.816 126.428Z" fill="#CCCCCC"/>
<path d="M165.816 138.914H123.122C122.956 138.914 122.792 138.881 122.638 138.818C122.485 138.755 122.345 138.662 122.228 138.544C122.111 138.427 122.017 138.288 121.954 138.135C121.89 137.982 121.858 137.818 121.858 137.652C121.858 137.486 121.89 137.322 121.954 137.169C122.017 137.016 122.111 136.877 122.228 136.76C122.345 136.642 122.485 136.55 122.638 136.486C122.792 136.423 122.956 136.39 123.122 136.39H165.816C166.151 136.39 166.473 136.523 166.71 136.76C166.947 136.996 167.08 137.317 167.08 137.652C167.08 137.987 166.947 138.308 166.71 138.544C166.473 138.781 166.151 138.914 165.816 138.914Z" fill="#CCCCCC"/>
<path d="M127.248 29.5826H116.199C116.111 29.5826 116.027 29.6175 115.965 29.6795C115.903 29.7416 115.868 29.8258 115.868 29.9136C115.868 30.0014 115.903 30.0856 115.965 30.1477C116.027 30.2098 116.111 30.2447 116.199 30.2447H121.392V41.0498C121.392 41.1376 121.427 41.2218 121.489 41.2839C121.551 41.346 121.636 41.3809 121.724 41.3809C121.812 41.3809 121.896 41.346 121.958 41.2839C122.02 41.2218 122.055 41.1376 122.055 41.0498V35.4269C122.055 34.0525 122.603 32.7344 123.576 31.7625C124.55 30.7907 125.871 30.2447 127.248 30.2447C127.336 30.2447 127.42 30.2098 127.483 30.1477C127.545 30.0857 127.58 30.0014 127.58 29.9136C127.58 29.8258 127.545 29.7416 127.483 29.6796C127.42 29.6175 127.336 29.5826 127.248 29.5826Z" fill="#3F3D56"/>
<path d="M167.363 141.545C167.18 141.545 164.855 141.397 164.855 141.214L167.032 130.188C167.032 130.1 167.067 130.016 167.129 129.954C167.191 129.892 167.275 129.857 167.363 129.857C167.451 129.857 167.536 129.892 167.598 129.954C167.66 130.016 167.695 130.1 167.695 130.188V141.214C167.695 141.302 167.66 141.386 167.598 141.448C167.536 141.51 167.451 141.545 167.363 141.545Z" fill="#3F3D56"/>
<path d="M192.437 26.5565C192.437 24.5286 191.629 22.5838 190.193 21.1499C188.756 19.716 186.807 18.9104 184.775 18.9104H99.028C102.495 18.9104 144.153 21.3552 170.693 24.4412C175.118 24.9552 179.269 26.844 182.559 29.8406C185.85 32.8373 188.113 36.7902 189.03 41.1408C196.833 78.1903 195.408 115.922 185.47 154.283C185.47 156.311 184.663 158.256 183.226 159.69C181.79 161.123 179.841 161.929 177.809 161.929H184.775C186.807 161.929 188.756 161.123 190.193 159.69C191.629 158.256 192.437 156.311 192.437 154.283C203.681 110.876 204.027 68.2751 192.437 26.5565Z" fill="#E6E6E6"/>
<path d="M189.203 158.156L188.561 157.991C199.904 114.202 199.908 71.2996 188.573 30.4726C187.393 28.3379 185.695 26.5324 183.635 25.2215C181.576 23.9106 179.22 23.1361 176.782 22.9688L142.792 20.5649L142.839 19.9044L176.829 22.3083C179.384 22.4837 181.853 23.2972 184.009 24.674C186.166 26.0507 187.942 27.9465 189.172 30.187L189.202 30.2583C194.932 50.8773 197.817 72.1802 197.776 93.5777C197.734 114.632 194.849 136.36 189.203 158.156Z" fill="white"/>
</g>
<defs>
<clipPath id="clip0_131_2">
<rect width="201" height="187" fill="white"/>
</clipPath>
</defs>
</svg>
