<svg width="225" height="170" viewBox="0 0 225 170" fill="none" xmlns="http://www.w3.org/2000/svg">
<g clip-path="url(#clip0_14_2151)">
<path d="M169.332 40.3983H168.4V14.8099C168.4 10.8821 166.844 7.11512 164.075 4.33773C161.305 1.56033 157.549 4.95616e-06 153.633 0H99.5751C97.6358 -5.21473e-06 95.7155 0.38306 93.9238 1.12732C92.1321 1.87158 90.5041 2.96247 89.1328 4.33769C87.7615 5.71291 86.6738 7.34554 85.9316 9.14236C85.1895 10.9392 84.8075 12.865 84.8075 14.8099V155.19C84.8075 157.135 85.1895 159.061 85.9316 160.858C86.6738 162.654 87.7615 164.287 89.1328 165.662C90.5041 167.038 92.1321 168.128 93.9238 168.873C95.7154 169.617 97.6357 170 99.575 170H153.633C157.549 170 161.305 168.44 164.075 165.662C166.844 162.885 168.4 159.118 168.4 155.19V58.6126H169.332L169.332 40.3983Z" fill="#3F3D56"/>
<path d="M154.228 3.85303H147.172C147.497 4.65088 147.621 5.51652 147.533 6.37369C147.445 7.23086 147.149 8.05325 146.669 8.76842C146.19 9.48359 145.543 10.0696 144.785 10.4748C144.026 10.88 143.18 11.092 142.321 11.092H111.352C110.493 11.092 109.647 10.88 108.889 10.4748C108.13 10.0696 107.483 9.4836 107.004 8.76843C106.525 8.05326 106.228 7.23087 106.14 6.37369C106.053 5.51652 106.177 4.65088 106.501 3.85303H99.9106C96.9857 3.85303 94.1806 5.01826 92.1124 7.09238C90.0442 9.1665 88.8823 11.9796 88.8823 14.9129V155.087C88.8823 156.54 89.1676 157.978 89.7218 159.32C90.276 160.661 91.0884 161.881 92.1124 162.908C93.1365 163.935 94.3522 164.749 95.6902 165.305C97.0282 165.861 98.4623 166.147 99.9106 166.147H154.228C155.677 166.147 157.111 165.861 158.449 165.305C159.787 164.749 161.003 163.935 162.027 162.908C163.051 161.881 163.863 160.661 164.417 159.32C164.971 157.978 165.257 156.54 165.257 155.087V14.9129C165.257 13.4605 164.971 12.0223 164.417 10.6804C163.863 9.33861 163.051 8.11938 162.027 7.09237C161.003 6.06537 159.787 5.25071 158.449 4.6949C157.111 4.1391 155.677 3.85303 154.228 3.85303Z" fill="white"/>
<path d="M138.321 64.6355C143.724 64.6355 148.104 64.2172 148.104 63.7012C148.104 63.1852 143.724 62.7668 138.321 62.7668C132.918 62.7668 128.539 63.1852 128.539 63.7012C128.539 64.2172 132.918 64.6355 138.321 64.6355Z" fill="#E6E6E6"/>
<path d="M225 23.3279H134.941V52.9774H138.352V60.7321L146.085 52.9774H225V23.3279Z" fill="#088395"/>
<path d="M185.917 33.3684H144.965V34.6148H185.917V33.3684Z" fill="white"/>
<path d="M216.341 37.6799H144.965V38.9263H216.341V37.6799Z" fill="white"/>
<path d="M216.271 41.9915H144.965V43.2378H216.271V41.9915Z" fill="white"/>
<path d="M201.992 112.755H130.104V136.422H132.827V142.612L138.999 136.422H201.992V112.755Z" fill="#088395"/>
<path d="M170.795 120.769H138.105V121.764H170.795V120.769Z" fill="white"/>
<path d="M195.08 124.211H138.105V125.206H195.08V124.211Z" fill="white"/>
<path d="M195.025 127.653H138.105V128.647H195.025V127.653Z" fill="white"/>
<path d="M132.802 145.728C137.115 145.728 140.611 145.394 140.611 144.982C140.611 144.57 137.115 144.236 132.802 144.236C128.49 144.236 124.993 144.57 124.993 144.982C124.993 145.394 128.49 145.728 132.802 145.728Z" fill="#E6E6E6"/>
<path d="M111.303 99.2066C116.705 99.2066 121.085 98.7883 121.085 98.2722C121.085 97.7562 116.705 97.3379 111.303 97.3379C105.9 97.3379 101.52 97.7562 101.52 98.2722C101.52 98.7883 105.9 99.2066 111.303 99.2066Z" fill="#E6E6E6"/>
<path d="M51.3436 69.8179H114.676V90.6686H112.277V96.1217L106.84 90.6686H51.3436V69.8179Z" fill="#088395"/>
<path d="M86.7117 76.7185H57.9128V77.595H86.7117V76.7185Z" fill="white"/>
<path d="M108.107 79.7505H57.9128V80.627H108.107V79.7505Z" fill="white"/>
<path d="M108.058 82.7825H57.9128V83.659H108.058V82.7825Z" fill="white"/>
<path d="M20.4932 120.678C20.7969 121.203 21.2958 121.585 21.8803 121.74C22.4648 121.896 23.0869 121.812 23.6098 121.507C24.1327 121.203 24.5135 120.702 24.6685 120.116C24.8235 119.53 24.74 118.906 24.4364 118.382C24.3726 118.275 24.3008 118.173 24.2216 118.076L26.1396 104.367L26.197 103.956L26.5866 101.159L26.644 100.756L26.4317 100.766L22.7158 100.936L21.7194 100.981L21.5945 103.533L20.8878 117.881C20.5185 118.235 20.2789 118.704 20.2073 119.211C20.1357 119.719 20.2364 120.235 20.4932 120.678Z" fill="#A0616A"/>
<path d="M26.186 104.081L21.4675 103.647C21.2228 103.624 20.9971 103.504 20.8397 103.315C20.6824 103.126 20.606 102.882 20.6274 102.636L21.5026 92.7957C21.545 92.3177 21.6826 91.8532 21.9072 91.4295C22.1318 91.0058 22.4389 90.6316 22.8102 90.329C23.1816 90.0265 23.6097 89.8017 24.0692 89.668C24.5287 89.5343 25.0103 89.4944 25.4855 89.5506C25.9606 89.6069 26.4197 89.7581 26.8356 89.9955C27.2514 90.2328 27.6155 90.5514 27.9065 90.9323C28.1974 91.3133 28.4091 91.7489 28.5292 92.2134C28.6492 92.6779 28.6752 93.1618 28.6055 93.6365L27.1906 103.289C27.1581 103.51 27.0475 103.712 26.8789 103.858C26.7103 104.004 26.4949 104.085 26.272 104.085C26.2436 104.085 26.2148 104.084 26.186 104.081Z" fill="#CCCCCC"/>
<path d="M22.61 96.1308C22.1328 94.7751 22.1107 93.3001 22.5471 91.9306C22.9834 90.5612 23.8543 89.3724 25.027 88.5455C26.8063 87.3246 29.2411 86.8863 31.8632 90.0168C37.1074 96.2778 38.4809 103.165 38.4809 103.165L27.7428 104.918C27.7428 104.918 24.0906 100.441 22.61 96.1308Z" fill="#CCCCCC"/>
<path d="M39.9772 166.656H43.0387L44.4951 154.813L39.9767 154.814L39.9772 166.656Z" fill="#A0616A"/>
<path d="M48.9433 169.507L39.3212 169.508L39.321 165.779L45.9741 165.779C46.364 165.779 46.75 165.856 47.1103 166.006C47.4705 166.155 47.7978 166.374 48.0735 166.651C48.3492 166.927 48.568 167.256 48.7172 167.617C48.8664 167.978 48.9432 168.365 48.9432 168.756L48.9433 169.507Z" fill="#2F2E41"/>
<path d="M14.8065 163.979L17.7133 164.942L22.8026 154.156L18.5125 152.734L14.8065 163.979Z" fill="#A0616A"/>
<path d="M22.4273 169.508L13.2913 166.479L14.458 162.939L20.7749 165.033C21.1451 165.156 21.4876 165.351 21.7828 165.606C22.078 165.861 22.3201 166.173 22.4954 166.522C22.6706 166.871 22.7756 167.252 22.8042 167.642C22.8328 168.032 22.7846 168.424 22.6622 168.795L22.4273 169.508Z" fill="#2F2E41"/>
<path d="M32.2923 84.6867C35.2646 83.0572 36.3569 79.3198 34.7321 76.339C33.1073 73.3581 29.3806 72.2626 26.4083 73.8921C23.4359 75.5216 22.3436 79.259 23.9684 82.2398C25.5932 85.2207 29.3199 86.3162 32.2923 84.6867Z" fill="#A0616A"/>
<path d="M34.7206 163.359L31.8773 144.54C31.847 144.339 31.748 144.155 31.5974 144.019C31.4467 143.884 31.2537 143.805 31.0513 143.796C30.8489 143.787 30.6497 143.849 30.4878 143.971C30.3259 144.093 30.2114 144.268 30.1637 144.465L25.834 162.4C25.7658 162.675 25.5976 162.914 25.3625 163.071C25.1275 163.227 24.8425 163.291 24.5634 163.247L12.6203 161.322C12.462 161.297 12.3109 161.238 12.1773 161.149C12.0436 161.06 11.9305 160.943 11.8455 160.807C11.7605 160.67 11.7056 160.517 11.6845 160.358C11.6634 160.198 11.6766 160.036 11.7232 159.882L27.2962 108.393C27.3405 108.246 27.3457 108.091 27.3115 107.942L26.7929 105.688C26.736 105.444 26.7623 105.188 26.8676 104.96C26.9729 104.733 27.1512 104.547 27.374 104.433C29.4945 103.348 34.8645 101.092 38.919 103.563C39.0506 103.643 39.1645 103.75 39.2538 103.876C39.3431 104.002 39.4058 104.145 39.4383 104.296L51.6039 161.638C51.637 161.794 51.6367 161.955 51.6031 162.111C51.5695 162.267 51.5033 162.414 51.4089 162.542C51.3145 162.67 51.194 162.777 51.0554 162.855C50.9169 162.933 50.7633 162.981 50.605 162.995L35.9319 164.313C35.8981 164.316 35.8645 164.317 35.8312 164.317C35.5626 164.317 35.3029 164.22 35.0993 164.044C34.8956 163.869 34.7613 163.626 34.7206 163.359Z" fill="#2F2E41"/>
<path d="M25.2832 74.9435C25.7456 74.6646 26.1559 74.307 26.4957 73.8867C26.6633 73.6744 26.7736 73.4224 26.816 73.1549C26.8584 72.8875 26.8315 72.6137 26.7378 72.3597C26.4279 71.6741 25.5071 71.4569 24.7936 71.6907C24.0801 71.9244 23.5288 72.485 23.0074 73.0264C22.548 73.5033 22.0756 74.001 21.8577 74.6271C21.6398 75.2531 21.7517 76.0467 22.2937 76.4265C22.8255 76.7992 23.5902 76.6466 24.1017 76.2463C24.6132 75.846 24.9299 75.252 25.2318 74.6761L25.2832 74.9435Z" fill="#2F2E41"/>
<path d="M23.2059 73.1908C23.1719 71.4577 21.202 70.215 19.5008 70.5221C17.7996 70.8292 16.4919 72.2839 15.8373 73.8883C14.4543 77.2781 15.4925 81.1459 16.8251 84.556C18.1577 87.9661 19.8067 91.4278 19.6124 95.0852C19.481 97.0622 18.8196 98.967 17.6981 100.598C16.5766 102.229 15.0365 103.527 13.2407 104.353C15.1607 105.225 17.4556 104.324 19.069 102.963C22.6521 99.9416 24.0351 94.562 22.3556 90.1796C21.5272 88.0181 20.0674 86.1689 18.9277 84.155C17.7879 82.1411 16.9517 79.7678 17.5401 77.5285C18.1286 75.2893 20.6327 73.4757 22.7737 74.3432L23.2059 73.1908Z" fill="#2F2E41"/>
<path d="M29.7181 82.0189C29.1835 81.1128 28.6436 79.9232 29.6212 79.1311C29.8337 78.9667 30.0768 78.8466 30.3363 78.7778C30.5958 78.709 30.8664 78.6929 31.1321 78.7305C32.234 78.8637 33.4339 78.9186 34.5003 78.5171C34.9003 78.3791 35.2685 78.1618 35.5832 77.8783C35.8978 77.5947 36.1524 77.2507 36.3319 76.8666C36.8825 75.5583 36.1931 73.9685 35.042 73.1415C34.3379 72.6539 33.5058 72.3857 32.6503 72.3706C31.7948 72.3554 30.9538 72.5939 30.2329 73.0562C28.7421 72.3959 26.9332 72.6895 25.5789 73.5985C24.2245 74.5076 23.2977 75.9634 22.7942 77.5178C22.3305 78.8558 22.2506 80.2975 22.5638 81.6788C22.8158 82.6397 23.295 83.5256 23.9608 84.2614C24.6267 84.9973 25.4595 85.5613 26.3888 85.9059C26.7508 86.049 27.144 86.0942 27.5289 86.0369C27.9138 85.9796 28.2769 85.8219 28.5819 85.5796C28.5819 85.5796 29.4273 84.8395 29.6918 83.9481C29.895 83.2635 30.0037 82.5031 29.7181 82.0189Z" fill="#2F2E41"/>
<path d="M47.9135 87.5073C47.8829 87.6425 47.8629 87.7798 47.8538 87.9181L37.1263 94.1245L34.5188 92.6191L31.7391 96.2686L36.0968 99.3835C36.4489 99.6351 36.8728 99.7655 37.305 99.7549C37.7372 99.7444 38.1543 99.5935 38.4937 99.3249L49.5557 90.5731C50.0549 90.7584 50.5985 90.7869 51.1143 90.6548C51.6301 90.5227 52.0935 90.2363 52.443 89.8336C52.7925 89.4309 53.0114 88.931 53.0707 88.4005C53.13 87.87 53.0269 87.3339 52.775 86.8636C52.5231 86.3933 52.1343 86.0111 51.6605 85.7677C51.1867 85.5244 50.6503 85.4315 50.1225 85.5014C49.5948 85.5713 49.1008 85.8006 48.7062 86.159C48.3116 86.5173 48.0351 86.9876 47.9135 87.5073Z" fill="#A0616A"/>
<path d="M36.7676 94.4185L33.3005 98.9249C33.2019 99.0531 33.0768 99.1585 32.9339 99.2339C32.791 99.3093 32.6335 99.3529 32.4723 99.3617C32.311 99.3706 32.1498 99.3445 31.9995 99.2852C31.8492 99.2259 31.7134 99.1349 31.6014 99.0182L27.6764 94.9307C27.025 94.4209 26.6018 93.6728 26.4996 92.8505C26.3974 92.0282 26.6245 91.1988 27.1312 90.5442C27.6379 89.8896 28.3828 89.4632 29.2025 89.3586C30.0222 89.2539 30.8498 89.4796 31.5038 89.986L36.4267 92.7466C36.5676 92.8256 36.6899 92.9343 36.7851 93.065C36.8804 93.1957 36.9465 93.3456 36.9789 93.5042C37.0112 93.6629 37.0091 93.8267 36.9727 93.9845C36.9362 94.1422 36.8663 94.2903 36.7676 94.4185Z" fill="#CCCCCC"/>
<path d="M72.0358 170H0.291651C0.214303 170 0.140122 169.969 0.085428 169.914C0.0307342 169.859 7.62939e-06 169.785 7.62939e-06 169.708C7.62939e-06 169.63 0.0307342 169.556 0.085428 169.501C0.140122 169.446 0.214303 169.415 0.291651 169.415H72.0358C72.1131 169.415 72.1873 169.446 72.242 169.501C72.2967 169.556 72.3274 169.63 72.3274 169.708C72.3274 169.785 72.2967 169.859 72.242 169.914C72.1873 169.969 72.1131 170 72.0358 170Z" fill="#CCCCCC"/>
</g>
<defs>
<clipPath id="clip0_14_2151">
<rect width="225" height="170" fill="white"/>
</clipPath>
</defs>
</svg>
