<svg width="185" height="180" viewBox="0 0 185 180" fill="none" xmlns="http://www.w3.org/2000/svg">
<g clip-path="url(#clip0_14_2225)">
<path d="M166.601 174.384C167.301 174.429 167.689 173.546 167.159 173.032L167.106 172.819C167.113 172.802 167.12 172.785 167.127 172.768C167.835 171.055 170.236 171.067 170.939 172.782C171.562 174.305 172.356 175.83 172.551 177.44C172.639 178.151 172.6 178.875 172.444 179.572C173.905 176.336 174.674 172.803 174.674 169.25C174.674 168.357 174.626 167.464 174.527 166.574C174.446 165.845 174.334 165.121 174.19 164.404C173.408 160.526 171.715 156.833 169.273 153.748C168.099 153.098 167.12 152.081 166.528 150.861C166.316 150.422 166.149 149.949 166.071 149.467C166.204 149.485 166.574 147.421 166.474 147.295C166.66 147.008 166.993 146.866 167.196 146.586C168.208 145.196 169.601 145.439 170.328 147.328C171.882 148.123 171.897 149.442 170.944 150.71C170.337 151.517 170.254 152.609 169.722 153.473C169.776 153.544 169.833 153.613 169.888 153.684C170.892 154.99 171.761 156.394 172.493 157.868C172.286 156.229 172.591 154.255 173.112 152.982C173.705 151.532 174.816 150.311 175.795 149.057C176.97 147.552 179.38 148.209 179.587 150.118C179.589 150.136 179.591 150.155 179.593 150.173C179.448 150.256 179.305 150.344 179.166 150.438C178.373 150.97 178.647 152.217 179.587 152.364L179.608 152.367C179.556 152.898 179.466 153.424 179.334 153.942C180.59 158.864 177.88 160.657 174.01 160.737C173.925 160.782 173.841 160.826 173.756 160.868C174.148 161.988 174.461 163.136 174.693 164.3C174.901 165.328 175.046 166.367 175.127 167.411C175.228 168.728 175.219 170.051 175.11 171.366L175.116 171.32C175.394 169.872 176.17 168.519 177.295 167.582C178.972 166.185 181.342 165.671 183.151 164.548C184.022 164.007 185.138 164.706 184.986 165.73L184.979 165.779C184.709 165.89 184.446 166.018 184.192 166.163C184.047 166.246 183.905 166.334 183.766 166.428C182.972 166.96 183.246 168.207 184.186 168.354L184.208 168.357C184.223 168.359 184.236 168.361 184.251 168.364C183.789 169.476 183.145 170.509 182.339 171.399C181.555 175.696 178.183 176.104 174.577 174.853H174.575C174.181 176.594 173.605 178.295 172.865 179.916H166.754C166.732 179.847 166.712 179.776 166.693 179.708C167.258 179.743 167.827 179.71 168.383 179.605C167.93 179.041 167.477 178.473 167.023 177.909C167.012 177.898 167.004 177.886 166.995 177.875C166.765 177.587 166.533 177.3 166.303 177.011L166.303 177.011C166.288 176.125 166.393 175.241 166.601 174.384Z" fill="#F2F2F2"/>
<path d="M54.1721 179.591C54.1721 179.818 54.3518 180 54.5756 180H184.549C184.773 180 184.952 179.818 184.952 179.591C184.952 179.364 184.773 179.182 184.549 179.182H54.5756C54.3518 179.182 54.1721 179.364 54.1721 179.591Z" fill="#CCCCCC"/>
<path d="M73.8943 179.826H14.0688C6.77416 179.826 0.839447 173.808 0.839447 166.411V36.0449C0.839447 28.6483 6.77416 22.6306 14.0688 22.6306H73.8943C81.1889 22.6306 87.1236 28.6483 87.1236 36.0449V166.411C87.1236 173.808 81.1889 179.826 73.8943 179.826Z" fill="#3F3D56"/>
<path d="M87.1236 70.5837C86.815 70.5837 86.564 70.8383 86.564 71.1512V89.3109C86.564 89.6239 86.815 89.8784 87.1236 89.8784C87.4323 89.8784 87.6833 89.6239 87.6833 89.3109V71.1512C87.6833 70.8383 87.4323 70.5837 87.1236 70.5837Z" fill="#3F3D56"/>
<path d="M85.8644 36.0451V166.409C85.8644 172.847 80.9226 178.114 74.6739 178.522H74.6711C74.5787 178.528 74.4864 178.534 74.3913 178.536C74.2261 178.545 74.0611 178.548 73.8932 178.548C73.8932 178.548 73.2775 178.502 72.1526 178.417C71.0165 178.332 69.3626 178.204 67.3003 178.037C66.6818 177.989 66.0298 177.935 65.3414 177.878C63.9702 177.765 62.4647 177.64 60.8501 177.498C60.2065 177.444 59.5405 177.384 58.8605 177.325C55.385 177.021 51.4925 176.666 47.3873 176.264C46.6933 176.198 45.9937 176.13 45.2885 176.059C45.1039 176.039 44.9164 176.022 44.7289 176.003C41.8018 175.71 2.09882 167.93 2.09882 166.409V36.0451C2.09882 29.3402 7.45765 23.9065 14.0701 23.9065H21.2171C22.3588 23.9065 23.2766 24.8088 23.3746 25.9637C23.383 26.0403 23.3914 26.1169 23.4054 26.1935C23.6124 27.354 24.6618 28.1627 25.8259 28.1627H62.1373C63.3014 28.1627 64.3508 27.354 64.5579 26.1935C64.5719 26.1169 64.5803 26.0403 64.5887 25.9637C64.6866 24.8088 65.6045 23.9065 66.7462 23.9065H73.8932C80.5056 23.9065 85.8644 29.3402 85.8644 36.0451Z" fill="white"/>
<path d="M0.559666 56.9639C0.251001 56.9639 0 57.2184 0 57.5314V62.0713C0 62.3843 0.251005 62.6388 0.559666 62.6388C0.868328 62.6388 1.11933 62.3843 1.11933 62.0713V57.5314C1.11933 57.2184 0.868328 56.9639 0.559666 56.9639Z" fill="#3F3D56"/>
<path d="M0.559666 70.5837C0.251001 70.5837 0 70.8383 0 71.1512V79.9473C0 80.2603 0.251005 80.5148 0.559666 80.5148C0.868328 80.5148 1.11933 80.2603 1.11933 79.9473V71.1512C1.11933 70.8383 0.868328 70.5837 0.559666 70.5837Z" fill="#3F3D56"/>
<path d="M0.559666 83.0684C0.251001 83.0684 0 83.3229 0 83.6358V92.432C0 92.7449 0.251005 92.9994 0.559666 92.9994C0.868328 92.9994 1.11933 92.7449 1.11933 92.432V83.6358C1.11933 83.3229 0.868328 83.0684 0.559666 83.0684Z" fill="#3F3D56"/>
<path d="M21.0223 25.8938H10.3191C10.261 25.8938 10.2139 25.9416 10.2139 26.0005V27.2059C10.2139 27.2648 10.261 27.3125 10.3191 27.3125H21.0223C21.0803 27.3125 21.1274 27.2648 21.1274 27.2059V26.0005C21.1274 25.9416 21.0803 25.8938 21.0223 25.8938Z" fill="#E6E6E6"/>
<path d="M68.5147 27.3124C69.1329 27.3124 69.634 26.8043 69.634 26.1775C69.634 25.5506 69.1329 25.0425 68.5147 25.0425C67.8965 25.0425 67.3953 25.5506 67.3953 26.1775C67.3953 26.8043 67.8965 27.3124 68.5147 27.3124Z" fill="#E6E6E6"/>
<path d="M71.5928 27.3124C72.211 27.3124 72.7122 26.8043 72.7122 26.1775C72.7122 25.5506 72.211 25.0425 71.5928 25.0425C70.9747 25.0425 70.4735 25.5506 70.4735 26.1775C70.4735 26.8043 70.9747 27.3124 71.5928 27.3124Z" fill="#E6E6E6"/>
<path d="M74.671 27.3124C75.2892 27.3124 75.7904 26.8043 75.7904 26.1775C75.7904 25.5506 75.2892 25.0425 74.671 25.0425C74.0528 25.0425 73.5517 25.5506 73.5517 26.1775C73.5517 26.8043 74.0528 27.3124 74.671 27.3124Z" fill="#E6E6E6"/>
<path d="M67.5786 102.641H20.1047C19.3568 102.641 18.7483 102.024 18.7483 101.266C18.7483 100.508 19.3568 99.8906 20.1047 99.8906H67.5786C68.3265 99.8906 68.935 100.508 68.935 101.266C68.935 102.024 68.3265 102.641 67.5786 102.641Z" fill="#E6E6E6"/>
<path d="M44.0119 155.936C54.8741 155.936 63.6797 147.008 63.6797 135.994C63.6797 124.98 54.8741 116.051 44.0119 116.051C33.1497 116.051 24.3442 124.98 24.3442 135.994C24.3442 147.008 33.1497 155.936 44.0119 155.936Z" fill="#088395"/>
<path d="M148.215 0H51.2466C47.6894 0 44.7969 2.93294 44.7969 6.53981V73.9185C44.7969 77.5254 47.6894 80.4584 51.2466 80.4584H148.215C151.773 80.4584 154.665 77.5254 154.665 73.9185V6.53981C154.665 2.93294 151.773 0 148.215 0Z" fill="white"/>
<path d="M99.2851 40.0626C105.278 40.0626 110.136 35.1364 110.136 29.0597C110.136 22.983 105.278 18.0569 99.2851 18.0569C93.2921 18.0569 88.4339 22.983 88.4339 29.0597C88.4339 35.1364 93.2921 40.0626 99.2851 40.0626Z" fill="#088395"/>
<path d="M148.215 0H51.2466C47.6894 0 44.7969 2.93294 44.7969 6.53981V73.9185C44.7969 77.5254 47.6894 80.4584 51.2466 80.4584H148.215C151.773 80.4584 154.665 77.5254 154.665 73.9185V6.53981C154.665 2.93294 151.773 0 148.215 0ZM153.987 73.9185C153.987 77.1472 151.4 79.7707 148.215 79.7707H51.2466C48.0624 79.7707 45.4751 77.1472 45.4751 73.9185V6.53981C45.4751 3.31117 48.0624 0.687678 51.2466 0.687678H148.215C151.4 0.687678 153.987 3.31117 153.987 6.53981V73.9185Z" fill="#3F3D56"/>
<path d="M88.5509 6.65332H79.0357C78.5576 6.65332 78.1676 7.04874 78.1676 7.53355C78.1676 8.02179 78.5576 8.41722 79.0357 8.41722H88.5509C89.029 8.41722 89.419 8.0218 89.419 7.53355C89.419 7.04875 89.029 6.65332 88.5509 6.65332Z" fill="#E6E6E6"/>
<path d="M104.489 6.65332H94.9734C94.4953 6.65332 94.1053 7.04874 94.1053 7.53355C94.1053 8.02179 94.4953 8.41722 94.9734 8.41722H104.489C104.967 8.41722 105.357 8.0218 105.357 7.53355C105.357 7.04875 104.967 6.65332 104.489 6.65332Z" fill="#E6E6E6"/>
<path d="M120.426 6.65332H110.911C110.433 6.65332 110.043 7.04874 110.043 7.53355C110.043 8.02179 110.433 8.41722 110.911 8.41722H120.426C120.904 8.41722 121.294 8.0218 121.294 7.53355C121.294 7.04875 120.904 6.65332 120.426 6.65332Z" fill="#E6E6E6"/>
<path d="M136.12 46.2517H63.3422C60.3141 46.2517 57.8522 48.748 57.8522 51.8185V56.8454C57.8522 59.9159 60.3141 62.4121 63.3422 62.4121H136.12C139.148 62.4121 141.61 59.9159 141.61 56.8454V51.8185C141.61 48.748 139.148 46.2517 136.12 46.2517Z" fill="#088395"/>
<path d="M24.815 72.7191L22.0243 71.3786C23.1689 72.9984 24.1552 75.5281 24.6833 77.5411C25.5773 75.666 27.0185 73.3717 28.4451 72.0012L25.4956 72.7706C27.3131 63.7386 34.1491 57.2546 41.9773 57.2546V56.5669C33.8006 56.5669 26.6707 63.3225 24.815 72.7191Z" fill="#3F3D56"/>
<path d="M37.6598 86.4809H20.0267C19.2788 86.4809 18.6703 85.8639 18.6703 85.1056C18.6703 84.3472 19.2788 83.7302 20.0267 83.7302H37.6598C38.4077 83.7302 39.0162 84.3472 39.0162 85.1056C39.0162 85.8639 38.4077 86.4809 37.6598 86.4809Z" fill="#E6E6E6"/>
<path d="M154.961 82.0013L154.783 96.0433L151.337 108.561L148.583 107.519L149.806 96.0454L149.645 80.5186L154.961 82.0013Z" fill="#FFB6B6"/>
<path d="M151.326 110.58C151.649 108.78 151.056 107.163 150.002 106.968C148.948 106.774 147.832 108.075 147.509 109.875C147.186 111.675 147.778 113.292 148.832 113.486C149.886 113.681 151.002 112.38 151.326 110.58Z" fill="#FFB6B6"/>
<path d="M150.78 65.2817C150.78 65.2817 156.683 65.3641 156.678 68.5436C156.675 70.3387 156.295 86.6375 155.236 96.5389C154.42 104.174 152.863 106.166 152.863 106.166L149.133 97.5704L150.78 65.2817Z" fill="#E6E6E6"/>
<path d="M150.628 93.9707H130.693C132.364 90.1901 133.391 86.5895 131.785 83.7255L150.628 82.6179C149.686 86.4842 149.571 90.2785 150.628 93.9707Z" fill="#FFB6B6"/>
<path d="M148.17 60.4661L140.251 59.9124L136.974 64.0658L135.313 64.3721C132.822 64.8312 131.049 67.0846 131.16 69.6486L131.807 84.5412L150.735 85.9407L155.27 66.5474L149.809 64.3427L148.17 60.4661Z" fill="#E6E6E6"/>
<path d="M99.8751 64.9587C100.437 65.4712 100.838 66.0699 101.05 66.6506L106.707 71.1902L104.497 73.8563L98.9972 68.9643C98.4054 68.8119 97.7759 68.4705 97.2141 67.958C95.9305 66.7871 95.4857 65.1666 96.2205 64.3383C96.9553 63.5101 98.5915 63.7878 99.8751 64.9587Z" fill="#FFB6B6"/>
<path d="M139.867 68.7803L118.193 83.6202L102.657 72.6572L104.99 68.373L117.217 75.5787L128.494 66.799C132.51 62.9744 137.543 63.7158 139.867 68.7803Z" fill="#E6E6E6"/>
<path d="M143.741 58.6686C146.986 58.6686 149.616 56.0014 149.616 52.7112C149.616 49.4211 146.986 46.7539 143.741 46.7539C140.496 46.7539 137.866 49.4211 137.866 52.7112C137.866 56.0014 140.496 58.6686 143.741 58.6686Z" fill="#FFB6B6"/>
<path d="M151.727 51.2477V52.403L145.101 50.5119L140.133 51.5674C140.075 50.8007 139.851 50.0477 139.478 49.3806C139.738 50.4505 139.767 51.2782 139.492 51.705L138.824 51.846C138.716 51.5468 138.505 51.2855 138.231 51.1273C138.203 51.1102 138.17 51.0964 138.139 51.1067C138.092 51.1239 138.088 51.1858 138.088 51.2339C138.095 51.4884 138.102 51.7428 138.112 51.9972L136.193 52.403V51.2477C134.351 47.0467 139.204 43.4115 143.961 43.3738C146.108 43.3568 148.048 44.254 149.455 45.6775C150.859 47.1044 151.727 49.0712 151.727 51.2477Z" fill="#2F2E41"/>
<path d="M155.454 64.7943L154.954 64.7523C154.99 64.5864 155.025 64.4226 155.058 64.2567C155.335 62.8643 154.725 61.0918 154.68 59.754C154.444 61.1674 154.847 62.9063 154.43 64.2483C154.384 64.3974 152.573 65.3597 152.524 65.5067C150.52 64.7636 148.433 62.3894 146.07 63.7761C144.673 64.5963 143.078 64.2368 141.491 63.8613C141.098 63.7683 141.044 61.8017 140.655 61.7244C139.959 61.5861 138.937 63.3738 138.281 63.4436L140.994 52.7846C140.994 46.9861 140.465 40.9024 147.708 42.9528C149.53 43.4684 151.334 43.8726 152.678 45.3974C154.023 46.9242 154.98 49.0579 155.319 51.4878C155.524 52.9537 156.8 57.931 155.454 64.7943Z" fill="#2F2E41"/>
<path d="M150.776 171.982L147.543 172.059L145.74 157.327L150.512 157.213L150.776 171.982Z" fill="#FFB7B7"/>
<path d="M139.682 178.823C139.682 179.377 140.069 179.826 140.547 179.826H146.966C146.966 179.826 147.598 177.251 150.173 176.143L150.351 179.826H153.662L153.261 173.904C153.261 173.904 154.147 170.736 152.307 169.117C150.468 167.497 151.958 167.723 151.958 167.723L151.234 164.058L146.231 164.654L146.194 170.407L143.765 176.118L140.204 177.902C139.887 178.061 139.682 178.423 139.682 178.823Z" fill="#2F2E41"/>
<path d="M140.938 169.581L137.829 170.488L132.399 156.702L136.986 155.364L140.938 169.581Z" fill="#FFB7B7"/>
<path d="M131.918 179.053C132.057 179.588 132.544 179.923 133.007 179.8L139.216 178.148C139.216 178.148 139.182 175.495 141.396 173.761L142.49 177.277L145.693 176.425L143.823 170.801C143.823 170.801 143.886 167.509 141.702 166.416C139.517 165.323 141.015 165.157 141.015 165.157L139.398 161.798L134.707 163.663L136.111 169.237L135.192 175.386L132.193 178.028C131.926 178.263 131.818 178.666 131.918 179.053Z" fill="#2F2E41"/>
<path d="M148.794 93.1003L150.828 93.788C154.009 99.7453 155.358 107.656 155.179 117.196L151.565 160.042H145.652L141.325 112.31L133.696 130.226L139.278 160.042L133.696 160.619L122.452 129.615L130.282 93.5799L148.794 93.1003Z" fill="#2F2E41"/>
<path d="M100.013 26.4316C100.013 24.3941 98.4724 22.7368 96.5792 22.7368H94.6716C94.2503 22.7368 93.9086 23.104 93.9086 23.5579V33.4105C93.9086 33.8644 94.2503 34.2316 94.6716 34.2316C95.093 34.2316 95.4346 33.8644 95.4346 33.4105V30.1263H96.444L97.778 33.7158C97.8977 34.0366 98.1839 34.2316 98.4867 34.2316C98.5809 34.2316 98.6767 34.2131 98.7699 34.173C99.1612 34.0047 99.3515 33.5267 99.1951 33.1059L97.9669 29.803C99.171 29.2283 100.013 27.9351 100.013 26.4316ZM96.5792 28.4842H95.4346V24.3789H96.5792C97.6307 24.3789 98.4867 25.3 98.4867 26.4316C98.4867 27.5631 97.6307 28.4842 96.5792 28.4842ZM103.255 26.021H101.539C101.117 26.021 100.776 26.3882 100.776 26.8421V34.2316C100.776 34.6854 101.117 35.0526 101.539 35.0526C101.96 35.0526 102.302 34.6854 102.302 34.2316V32.1789H103.255C104.833 32.1789 106.117 30.7975 106.117 29.1C106.117 27.4024 104.834 26.021 103.255 26.021ZM103.255 30.5368H102.302V27.6631H103.255C103.992 27.6631 104.591 28.3071 104.591 29.1C104.591 29.8928 103.992 30.5368 103.255 30.5368Z" fill="white"/>
<path d="M43.6675 132.347C43.6675 129.369 41.4163 126.947 38.6493 126.947H35.8614C35.2456 126.947 34.7462 127.484 34.7462 128.147V142.547C34.7462 143.211 35.2456 143.747 35.8614 143.747C36.4771 143.747 36.9765 143.211 36.9765 142.547V137.747H38.4517L40.4015 142.994C40.5764 143.462 40.9946 143.747 41.4372 143.747C41.5749 143.747 41.715 143.72 41.8512 143.662C42.4231 143.416 42.7012 142.717 42.4725 142.102L40.6775 137.275C42.4373 136.435 43.6675 134.545 43.6675 132.347ZM38.6493 135.347H36.9765V129.347H38.6493C40.1861 129.347 41.4372 130.694 41.4372 132.347C41.4372 134.001 40.1861 135.347 38.6493 135.347ZM48.407 131.747H45.8978C45.2821 131.747 44.7827 132.284 44.7827 132.947V143.747C44.7827 144.411 45.2821 144.947 45.8978 144.947C46.5136 144.947 47.013 144.411 47.013 143.747V140.747H48.407C50.7129 140.747 52.5888 138.728 52.5888 136.247C52.5888 133.766 50.714 131.747 48.407 131.747ZM48.407 138.347H47.013V134.147H48.407C49.4838 134.147 50.3585 135.089 50.3585 136.247C50.3585 137.406 49.4838 138.347 48.407 138.347Z" fill="white"/>
</g>
<defs>
<clipPath id="clip0_14_2225">
<rect width="185" height="180" fill="white"/>
</clipPath>
</defs>
</svg>
