<svg width="226" height="165" viewBox="0 0 226 165" fill="none" xmlns="http://www.w3.org/2000/svg">
<g clip-path="url(#clip0_14_2186)">
<path d="M60.2643 121.859C27.3101 121.859 0.5 95.0969 0.5 62.2021C0.5 29.3073 27.3101 2.54565 60.2643 2.54565C69.8395 2.55547 79.2728 4.85666 87.7733 9.25629C96.2738 13.6559 103.594 20.0257 109.119 27.8317L108.554 28.2304C103.092 20.5147 95.8571 14.2185 87.455 9.86974C79.0529 5.52095 69.7287 3.24632 60.2643 3.23659C27.692 3.23659 1.19219 29.6886 1.19219 62.2021C1.19219 94.7156 27.692 121.168 60.2643 121.168C69.3379 121.197 78.2948 119.126 86.4315 115.118C94.5681 111.109 101.663 105.272 107.159 98.0654L107.707 98.4858C102.148 105.777 94.9697 111.683 86.7378 115.738C78.5059 119.793 69.4441 121.889 60.2643 121.859Z" fill="#2F2E41"/>
<path d="M84.9718 52.212C84.3166 52.212 83.6761 52.0181 83.1313 51.6547C82.5865 51.2914 82.1619 50.7749 81.9112 50.1707C81.6604 49.5664 81.5948 48.9015 81.7227 48.2601C81.8505 47.6186 82.166 47.0294 82.6293 46.5669C83.0926 46.1045 83.6829 45.7895 84.3255 45.6619C84.9681 45.5343 85.6342 45.5998 86.2395 45.8501C86.8449 46.1004 87.3623 46.5242 87.7263 47.068C88.0903 47.6118 88.2846 48.2512 88.2846 48.9052C88.2846 49.7822 87.9356 50.6233 87.3143 51.2435C86.693 51.8636 85.8504 52.212 84.9718 52.212Z" fill="#2F2E41"/>
<path d="M86.1272 49.5973L85.434 48.9054L86.1272 48.2134C86.1577 48.1831 86.1819 48.1472 86.1985 48.1075C86.215 48.0679 86.2236 48.0254 86.2236 47.9825C86.2237 47.9396 86.2153 47.8971 86.1989 47.8574C86.1824 47.8177 86.1583 47.7817 86.1279 47.7513C86.0975 47.721 86.0614 47.6969 86.0217 47.6805C85.9819 47.6641 85.9393 47.6557 85.8963 47.6558C85.8533 47.6558 85.8107 47.6644 85.771 47.6809C85.7314 47.6974 85.6953 47.7216 85.665 47.7521L84.9718 48.444L84.2786 47.7521C84.2173 47.6909 84.1342 47.6565 84.0475 47.6565C83.9608 47.6565 83.8777 47.6909 83.8164 47.7521C83.7551 47.8132 83.7207 47.8962 83.7207 47.9827C83.7207 48.0692 83.7551 48.1522 83.8164 48.2134L84.5096 48.9053L83.8164 49.5973C83.7555 49.6586 83.7213 49.7414 83.7214 49.8278C83.7216 49.9141 83.756 49.9968 83.8172 50.0579C83.8783 50.1189 83.9612 50.1533 84.0477 50.1534C84.1342 50.1536 84.2172 50.1195 84.2786 50.0586L84.9718 49.3667L85.665 50.0586C85.6954 50.0889 85.7314 50.113 85.771 50.1294C85.8107 50.1457 85.8532 50.1542 85.8961 50.1542C85.939 50.1542 85.9815 50.1457 86.0212 50.1294C86.0608 50.113 86.0968 50.0889 86.1272 50.0586C86.1575 50.0284 86.1816 49.9924 86.198 49.9528C86.2144 49.9132 86.2229 49.8708 86.2229 49.828C86.2229 49.7851 86.2144 49.7427 86.198 49.7032C86.1816 49.6636 86.1575 49.6276 86.1272 49.5973Z" fill="white"/>
<path d="M68.4963 13.1615C72.1373 13.1615 75.0889 10.2152 75.0889 6.58075C75.0889 2.9463 72.1373 0 68.4963 0C64.8553 0 61.9036 2.9463 61.9036 6.58075C61.9036 10.2152 64.8553 13.1615 68.4963 13.1615Z" fill="#2F2E41"/>
<path d="M67.5969 10.0057C67.483 10.0057 67.3708 9.97925 67.2689 9.92842C67.1671 9.87758 67.0786 9.80378 67.0103 9.71285L65.2117 7.31904C65.1539 7.24213 65.1119 7.15462 65.088 7.0615C65.0641 6.96838 65.0588 6.87147 65.0724 6.77631C65.086 6.68115 65.1183 6.5896 65.1674 6.50689C65.2164 6.42417 65.2813 6.35191 65.3584 6.29424C65.4354 6.23656 65.5231 6.1946 65.6164 6.17075C65.7097 6.14689 65.8068 6.14162 65.9021 6.15521C65.9974 6.16881 66.0891 6.20102 66.172 6.25C66.2549 6.29898 66.3273 6.36377 66.385 6.44067L67.5617 8.00664L70.5839 3.48162C70.6924 3.32149 70.8599 3.2107 71.0499 3.17341C71.24 3.13613 71.4371 3.17539 71.5982 3.28262C71.7593 3.38985 71.8714 3.55634 71.91 3.74577C71.9486 3.9352 71.9106 4.13219 71.8043 4.29374L68.2071 9.67972C68.1421 9.77713 68.0545 9.85755 67.9519 9.91423C67.8493 9.97091 67.7345 10.0022 67.6173 10.0055L67.5969 10.0057Z" fill="white"/>
<path d="M76.5686 18.4531H60.715C59.746 18.4531 58.9604 19.2372 58.9604 20.2045V20.8348C58.9604 21.802 59.746 22.5861 60.715 22.5861H76.5686C77.5376 22.5861 78.3231 21.802 78.3231 20.8348V20.2045C78.3231 19.2372 77.5376 18.4531 76.5686 18.4531Z" fill="#2F2E41"/>
<path d="M86.4022 26.719H50.8813C49.9123 26.719 49.1268 27.5031 49.1268 28.4704V29.1006C49.1268 30.0679 49.9123 30.852 50.8813 30.852H86.4022C87.3712 30.852 88.1568 30.0679 88.1568 29.1006V28.4704C88.1568 27.5031 87.3712 26.719 86.4022 26.719Z" fill="#2F2E41"/>
<path d="M86.4022 34.9851H50.8813C49.9123 34.9851 49.1268 35.7692 49.1268 36.7365V37.3668C49.1268 38.334 49.9123 39.1181 50.8813 39.1181H86.4022C87.3712 39.1181 88.1568 38.334 88.1568 37.3668V36.7365C88.1568 35.7692 87.3712 34.9851 86.4022 34.9851Z" fill="#2F2E41"/>
<path d="M64.7968 123.119C64.1416 123.119 63.5011 122.925 62.9564 122.561C62.4116 122.198 61.987 121.681 61.7362 121.077C61.4855 120.473 61.4199 119.808 61.5477 119.167C61.6755 118.525 61.991 117.936 62.4543 117.473C62.9176 117.011 63.5079 116.696 64.1505 116.568C64.7932 116.441 65.4593 116.506 66.0646 116.757C66.6699 117.007 67.1873 117.431 67.5513 117.975C67.9154 118.518 68.1097 119.158 68.1097 119.812C68.1097 120.689 67.7606 121.53 67.1393 122.15C66.5181 122.77 65.6755 123.119 64.7968 123.119Z" fill="#2F2E41"/>
<path d="M65.9522 120.504L65.259 119.812L65.9522 119.12C66.0135 119.059 66.0479 118.976 66.0479 118.889C66.0479 118.803 66.0135 118.72 65.9522 118.659C65.8909 118.597 65.8078 118.563 65.7211 118.563C65.6345 118.563 65.5513 118.597 65.4901 118.659L64.7968 119.35L64.1036 118.659C64.0423 118.597 63.9592 118.563 63.8725 118.563C63.7859 118.563 63.7027 118.597 63.6415 118.659C63.5802 118.72 63.5457 118.803 63.5457 118.889C63.5457 118.976 63.5802 119.059 63.6415 119.12L64.3347 119.812L63.6415 120.504C63.5802 120.565 63.5457 120.648 63.5457 120.734C63.5457 120.821 63.5802 120.904 63.6415 120.965C63.7027 121.026 63.7859 121.061 63.8725 121.061C63.9592 121.061 64.0423 121.026 64.1036 120.965L64.7968 120.273L65.4901 120.965C65.5513 121.026 65.6345 121.061 65.7211 121.061C65.8078 121.061 65.8909 121.026 65.9522 120.965C66.0135 120.904 66.0479 120.821 66.0479 120.734C66.0479 120.648 66.0135 120.565 65.9522 120.504Z" fill="white"/>
<path d="M48.3213 84.068C51.9623 84.068 54.9139 81.1217 54.9139 77.4872C54.9139 73.8528 51.9623 70.9065 48.3213 70.9065C44.6803 70.9065 41.7286 73.8528 41.7286 77.4872C41.7286 81.1217 44.6803 84.068 48.3213 84.068Z" fill="#2F2E41"/>
<path d="M47.4219 80.9122C47.3081 80.9122 47.1958 80.8858 47.094 80.8349C46.9921 80.7841 46.9036 80.7103 46.8353 80.6194L45.0367 78.2256C44.979 78.1486 44.9369 78.0611 44.913 77.968C44.8891 77.8749 44.8838 77.778 44.8975 77.6828C44.9111 77.5877 44.9433 77.4961 44.9924 77.4134C45.0415 77.3307 45.1064 77.2584 45.1834 77.2008C45.2605 77.1431 45.3481 77.1011 45.4414 77.0773C45.5347 77.0534 45.6318 77.0481 45.7271 77.0617C45.8225 77.0753 45.9142 77.1075 45.997 77.1565C46.0799 77.2055 46.1523 77.2703 46.2101 77.3472L47.3868 78.9131L50.4089 74.3881C50.462 74.3075 50.5306 74.2381 50.6107 74.1839C50.6908 74.1298 50.7808 74.092 50.8756 74.0728C50.9704 74.0536 51.068 74.0532 51.1629 74.0718C51.2579 74.0904 51.3481 74.1275 51.4286 74.1811C51.5091 74.2346 51.5782 74.3035 51.6318 74.3838C51.6855 74.4641 51.7228 74.5542 51.7414 74.649C51.7601 74.7437 51.7598 74.8412 51.7405 74.9358C51.7213 75.0304 51.6835 75.1203 51.6293 75.2003L48.0322 80.5862C47.9671 80.6836 47.8796 80.7641 47.7769 80.8207C47.6743 80.8774 47.5596 80.9087 47.4423 80.912L47.4219 80.9122Z" fill="white"/>
<path d="M56.3936 89.3596H40.54C39.571 89.3596 38.7855 90.1437 38.7855 91.111V91.7413C38.7855 92.7085 39.571 93.4926 40.54 93.4926H56.3936C57.3626 93.4926 58.1482 92.7085 58.1482 91.7413V91.111C58.1482 90.1437 57.3626 89.3596 56.3936 89.3596Z" fill="#2F2E41"/>
<path d="M66.2273 97.6257H30.7064C29.7374 97.6257 28.9518 98.4098 28.9518 99.3771V100.007C28.9518 100.975 29.7374 101.759 30.7064 101.759H66.2273C67.1963 101.759 67.9818 100.975 67.9818 100.007V99.3771C67.9818 98.4098 67.1963 97.6257 66.2273 97.6257Z" fill="#2F2E41"/>
<path d="M66.2273 105.892H30.7064C29.7374 105.892 28.9518 106.676 28.9518 107.643V108.273C28.9518 109.241 29.7374 110.025 30.7064 110.025H66.2273C67.1963 110.025 67.9818 109.241 67.9818 108.273V107.643C67.9818 106.676 67.1963 105.892 66.2273 105.892Z" fill="#2F2E41"/>
<path d="M133.327 109.01C132.422 109.01 131.538 108.742 130.785 108.24C130.033 107.738 129.447 107.025 129.101 106.191C128.754 105.356 128.664 104.438 128.84 103.553C129.017 102.667 129.452 101.853 130.092 101.214C130.732 100.576 131.547 100.141 132.435 99.9647C133.322 99.7885 134.242 99.8789 135.078 100.225C135.914 100.57 136.628 101.155 137.131 101.906C137.633 102.657 137.902 103.54 137.902 104.443C137.902 105.654 137.42 106.816 136.562 107.672C135.704 108.529 134.54 109.01 133.327 109.01Z" fill="#2F2E41"/>
<path d="M134.922 105.399L133.965 104.443L134.922 103.488C135.007 103.403 135.055 103.289 135.055 103.169C135.055 103.05 135.007 102.935 134.922 102.851C134.838 102.766 134.723 102.719 134.603 102.719C134.484 102.719 134.369 102.766 134.284 102.851L133.327 103.806L132.37 102.851C132.285 102.766 132.17 102.719 132.051 102.719C131.931 102.719 131.816 102.766 131.731 102.851C131.647 102.935 131.599 103.05 131.599 103.169C131.599 103.289 131.647 103.403 131.731 103.488L132.689 104.443L131.731 105.399C131.647 105.483 131.599 105.598 131.599 105.717C131.599 105.837 131.647 105.951 131.731 106.036C131.816 106.12 131.931 106.168 132.051 106.168C132.17 106.168 132.285 106.12 132.37 106.036L133.327 105.08L134.284 106.036C134.369 106.12 134.484 106.168 134.603 106.168C134.723 106.168 134.838 106.12 134.922 106.036C135.007 105.951 135.055 105.837 135.055 105.717C135.055 105.598 135.007 105.483 134.922 105.399Z" fill="white"/>
<path d="M113.395 55.0847C118.423 55.0847 122.499 51.0161 122.499 45.9973C122.499 40.9785 118.423 36.9099 113.395 36.9099C108.368 36.9099 104.292 40.9785 104.292 45.9973C104.292 51.0161 108.368 55.0847 113.395 55.0847Z" fill="#088395"/>
<path d="M112.153 50.7269C111.996 50.7269 111.841 50.6903 111.701 50.6201C111.56 50.5499 111.438 50.448 111.343 50.3225L108.86 47.0168C108.78 46.9106 108.722 46.7898 108.689 46.6612C108.656 46.5326 108.649 46.3988 108.667 46.2674C108.686 46.136 108.731 46.0095 108.799 45.8953C108.866 45.7811 108.956 45.6813 109.062 45.6017C109.169 45.522 109.29 45.4641 109.419 45.4311C109.547 45.3982 109.682 45.3909 109.813 45.4097C109.945 45.4285 110.071 45.4729 110.186 45.5406C110.3 45.6082 110.4 45.6977 110.48 45.8039L112.105 47.9663L116.278 41.7177C116.352 41.6072 116.447 41.5123 116.557 41.4384C116.668 41.3645 116.792 41.313 116.922 41.287C117.053 41.2609 117.187 41.2608 117.318 41.2865C117.448 41.3123 117.572 41.3635 117.683 41.4371C117.793 41.5108 117.889 41.6055 117.963 41.7158C118.037 41.8261 118.088 41.9499 118.114 42.0801C118.14 42.2103 118.14 42.3443 118.114 42.4746C118.089 42.6048 118.037 42.7287 117.964 42.8392L112.996 50.2767C112.906 50.4112 112.785 50.5223 112.644 50.6005C112.502 50.6788 112.344 50.722 112.182 50.7265C112.172 50.7267 112.163 50.7269 112.153 50.7269Z" fill="white"/>
<path d="M125.211 62.3918H101.982C101.013 62.3918 100.227 63.176 100.227 64.1432V66.3478C100.227 67.315 101.013 68.0991 101.982 68.0991H125.211C126.18 68.0991 126.965 67.315 126.965 66.3478V64.1432C126.965 63.176 126.18 62.3918 125.211 62.3918Z" fill="#2F2E41"/>
<path d="M138.79 73.8064H88.4026C87.4336 73.8064 86.6481 74.5905 86.6481 75.5578V77.7623C86.6481 78.7296 87.4336 79.5137 88.4026 79.5137H138.79C139.759 79.5137 140.545 78.7296 140.545 77.7623V75.5578C140.545 74.5905 139.759 73.8064 138.79 73.8064Z" fill="#2F2E41"/>
<path d="M138.79 85.2209H88.4026C87.4336 85.2209 86.6481 86.0051 86.6481 86.9723V89.1769C86.6481 90.1441 87.4336 90.9282 88.4026 90.9282H138.79C139.759 90.9282 140.545 90.1441 140.545 89.1769V86.9723C140.545 86.0051 139.759 85.2209 138.79 85.2209Z" fill="#2F2E41"/>
<path d="M156.476 160.172L152.061 160.172L149.961 143.174L156.477 143.174L156.476 160.172Z" fill="#FFB6B6"/>
<path d="M156.358 158.733L151.644 156.819L151.509 156.764L148.907 158.733C147.437 158.733 146.028 159.316 144.989 160.353C143.95 161.39 143.366 162.797 143.366 164.264V164.443H157.601V158.733H156.358Z" fill="#2F2E41"/>
<path d="M193.792 156.481L189.576 157.788L182.516 142.178L188.739 140.248L193.792 156.481Z" fill="#FFB6B6"/>
<path d="M193.251 155.141L188.181 154.71L188.035 154.697L186.135 157.348C184.732 157.784 183.56 158.758 182.876 160.056C182.192 161.355 182.053 162.871 182.489 164.272L182.542 164.443L196.135 160.226L194.438 154.773L193.251 155.141Z" fill="#2F2E41"/>
<path d="M176.127 73.0964L177.923 78.194V80.9496L177.673 83.9798L180.452 94.0859L182.632 116.372L193.603 149.361L185.191 151.779L163.712 97.8779L156.928 152.397L149.235 152.193C149.235 152.193 147.919 149.015 148.265 147.288C148.611 145.561 148.611 147.634 148.611 145.561C148.611 143.488 147.111 144.388 148.207 142.729C149.303 141.07 149.167 139.617 149.235 138.616C149.303 137.615 148.611 97.1952 148.611 95.8133C148.611 94.4314 148.371 94.7341 148.491 93.3736C148.611 92.0131 150.132 92.5724 149.718 90.2199C149.303 87.8675 149.167 88.2787 149.235 86.5185C149.303 84.7583 150.257 74.4374 150.257 74.4374L176.127 73.0964Z" fill="#2F2E41"/>
<path d="M147.334 74.7546L162.757 59.9081L167.032 47.8264L160.726 45.0896C157.488 48.1864 153.987 57.8319 153.987 57.8319L143.374 71.3097C143.291 71.338 143.209 71.368 143.127 71.4039C142.649 71.6143 142.234 71.9442 141.921 72.3618C141.608 72.7794 141.408 73.2705 141.341 73.7876C141.274 74.3048 141.341 74.8305 141.537 75.314C141.733 75.7974 142.05 76.2223 142.459 76.5476C142.867 76.8728 143.352 77.0874 143.868 77.1706C144.384 77.2538 144.912 77.2028 145.403 77.0226C145.893 76.8423 146.328 76.5389 146.667 76.1416C147.005 75.7443 147.235 75.2666 147.334 74.7546Z" fill="#FFB8B8"/>
<path d="M158.952 46.4387L166.95 48.9731L166.98 48.9681C169.957 48.4704 172.427 43.6173 173.975 39.6338C174.484 38.3199 174.475 36.8619 173.948 35.5547C173.422 34.2475 172.418 33.1885 171.139 32.5919C170.193 32.1582 169.144 31.9972 168.111 32.1273C167.078 32.2574 166.102 32.6733 165.294 33.3281L161.187 36.6779L158.952 46.4387Z" fill="#6C63FF"/>
<path d="M177.486 79.6449L177.533 79.5829C180.028 76.2794 176.615 68.0987 176.099 66.9123L178.419 66.2262L178.015 61.8165L177.82 59.8502L179.624 58.1401L179.63 58.0965L180.871 49.2832L182.494 43.4501C183.106 41.245 183.119 38.917 182.532 36.7052C181.944 34.4934 180.778 32.4775 179.152 30.8643L175.834 27.5755L171.858 21.3637L165.192 21.1919L162.795 25.4424C160.566 25.8965 158.567 27.1169 157.146 28.8908C155.726 30.6648 154.974 32.88 155.021 35.1505L155.247 46.4662L152.855 60.4864L152.788 63.0331L150.441 65.5059L150.875 68.0059L149.119 68.7042L148.259 72.2566C147.931 72.6665 145.764 75.4007 145.744 76.1629C145.741 76.2774 145.823 76.3902 146.002 76.5176C147.404 77.5193 155.244 79.6899 158.773 78.385C162.531 76.9961 177.261 79.6045 177.409 79.6311L177.486 79.6449Z" fill="#088395"/>
<path d="M161.145 43.7735L157.74 36.9971C152.798 37.3341 142.988 43.0384 142.988 43.0384L124.429 46.9663C123.879 46.7554 123.283 46.6927 122.701 46.7846C122.119 46.8766 121.572 47.1199 121.115 47.4901C120.657 47.8602 120.305 48.3442 120.094 48.8933C119.884 49.4424 119.822 50.0371 119.914 50.6178C120.007 51.1984 120.252 51.7444 120.623 52.2008C120.994 52.6571 121.48 53.0078 122.03 53.2174C122.58 53.4271 123.176 53.4883 123.758 53.395C124.339 53.3017 124.886 53.0571 125.343 52.6858L148.952 50.9966L161.145 43.7735Z" fill="#FFB8B8"/>
<path d="M159.772 44.8861L168.665 38.2893L170.231 32.6545C170.535 31.5472 170.522 30.3772 170.194 29.2767C169.866 28.1763 169.237 27.1893 168.377 26.4272C167.204 25.4021 165.685 24.8597 164.126 24.9099C162.568 24.9601 161.087 25.5991 159.983 26.6976C156.636 30.0319 152.819 34.6835 153.639 37.909L153.647 37.9417L159.772 44.8861Z" fill="#088395"/>
<path d="M168.745 19.6518C173.112 19.6518 176.652 16.1177 176.652 11.7583C176.652 7.3988 173.112 3.86475 168.745 3.86475C164.377 3.86475 160.837 7.3988 160.837 11.7583C160.837 16.1177 164.377 19.6518 168.745 19.6518Z" fill="#FFB8B8"/>
<path d="M173.949 20.0135C172.626 19.3933 171.081 19.7702 169.621 19.8275C168.161 19.8849 166.391 19.3354 166.082 17.9099C165.852 16.8559 166.541 15.7006 166.107 14.7128C165.634 13.6356 164.214 13.4823 163.075 13.1807C161.647 12.7689 160.388 11.9137 159.481 10.7392C158.573 9.56473 158.064 8.13205 158.027 6.64916C157.948 7.23772 158.957 7.43104 159.289 6.93786C159.62 6.44469 159.392 5.76209 159.026 5.29347C158.661 4.82485 158.168 4.4506 157.892 3.92431C157.617 3.39802 157.67 2.61641 158.208 2.36314C158.484 2.91877 158.875 3.40974 159.354 3.80365C159.834 4.19756 160.392 4.48547 160.991 4.64837C160.747 3.90624 161.093 3.07189 161.65 2.52297C162.241 2.00867 162.923 1.60789 163.661 1.34077C165.484 0.552024 167.612 -0.23287 169.377 0.677164C169.833 0.916579 170.229 1.25567 170.535 1.66912C170.841 2.08257 171.049 2.55969 171.144 3.06483C174.41 3.34044 177.763 6.87118 177.577 10.137C177.377 13.6527 177.231 13.9371 174.299 19.8533" fill="#2F2E41"/>
<path d="M213.562 164.646H202.076L202.027 164.557C201.88 164.291 201.738 164.009 201.606 163.719C200.423 161.191 199.923 158.3 199.481 155.748L199.149 153.825C199.109 153.592 199.139 153.353 199.236 153.137C199.333 152.922 199.492 152.74 199.693 152.615C199.895 152.49 200.128 152.428 200.365 152.437C200.602 152.446 200.83 152.525 201.022 152.664C202.767 153.932 204.513 155.198 206.26 156.464C206.922 156.944 207.677 157.5 208.4 158.101C208.47 157.763 208.543 157.423 208.616 157.088C208.667 156.857 208.785 156.647 208.956 156.483C209.127 156.319 209.343 156.21 209.577 156.17C209.81 156.13 210.05 156.16 210.266 156.257C210.482 156.354 210.665 156.512 210.79 156.713L212.134 158.868C213.114 160.442 213.979 161.993 213.803 163.666C213.804 163.686 213.802 163.707 213.798 163.727C213.763 164.001 213.697 164.271 213.603 164.532L213.562 164.646Z" fill="#F0F0F0"/>
<path d="M225.09 164.894L115.947 165C115.838 164.999 115.734 164.956 115.657 164.879C115.58 164.802 115.537 164.697 115.537 164.589C115.537 164.48 115.58 164.376 115.657 164.298C115.734 164.221 115.838 164.178 115.947 164.177L225.09 164.071C225.199 164.072 225.303 164.115 225.38 164.192C225.457 164.269 225.5 164.374 225.5 164.482C225.5 164.591 225.457 164.695 225.38 164.773C225.303 164.85 225.199 164.893 225.09 164.894Z" fill="#CACACA"/>
</g>
<defs>
<clipPath id="clip0_14_2186">
<rect width="225" height="165" fill="white" transform="translate(0.5)"/>
</clipPath>
</defs>
</svg>
