<svg width="214" height="151" viewBox="0 0 214 151" fill="none" xmlns="http://www.w3.org/2000/svg">
<g clip-path="url(#clip0_14_2275)">
<path d="M207.673 44.2493H90.5695C88.9211 44.2507 87.3407 44.8967 86.1751 46.0455C85.0095 47.1942 84.354 48.7518 84.3525 50.3763V69.0798C84.354 70.7044 85.0095 72.262 86.1751 73.4107C87.3407 74.5594 88.9211 75.2054 90.5695 75.2069H207.673C209.321 75.2054 210.902 74.5594 212.067 73.4107C213.233 72.262 213.888 70.7044 213.89 69.0798V50.3763C213.888 48.7518 213.233 47.1942 212.067 46.0455C210.902 44.8967 209.321 44.2507 207.673 44.2493Z" fill="#F2F2F2"/>
<path d="M46.9616 151H0.372711C0.273862 151 0.179056 150.961 0.109159 150.892C0.0392617 150.824 0 150.73 0 150.633C0 150.535 0.0392617 150.442 0.109159 150.373C0.179056 150.304 0.273862 150.265 0.372711 150.265H46.9616C47.0605 150.265 47.1553 150.304 47.2252 150.373C47.2951 150.442 47.3344 150.535 47.3344 150.633C47.3344 150.73 47.2951 150.824 47.2252 150.892C47.1553 150.961 47.0605 151 46.9616 151Z" fill="#3F3D56"/>
<path d="M40.1211 35.9895C39.689 36.2583 39.322 36.6172 39.0459 37.0408C38.7698 37.4645 38.5913 37.9427 38.523 38.4417C38.4547 38.9408 38.4983 39.4485 38.6506 39.9291C38.8029 40.4098 39.0603 40.8516 39.4047 41.2236L36.0177 48.3517L39.911 51.4367L44.5506 41.3043C45.1464 40.6927 45.4938 39.887 45.5271 39.0399C45.5604 38.1927 45.2772 37.363 44.7312 36.7079C44.1852 36.0527 43.4143 35.6178 42.5646 35.4854C41.715 35.353 40.8455 35.5324 40.1211 35.9895Z" fill="#FFB8B8"/>
<path d="M20.6574 38.882C21.7294 38.2475 23.008 38.0439 24.2281 38.3134C25.4483 38.583 26.5163 39.3051 27.2108 40.3299L34.1413 50.5569L36.5473 45.3294C36.6975 45.003 36.9637 44.742 37.2956 44.5955C37.6275 44.4489 38.0024 44.4271 38.3495 44.5339L41.981 45.6519C42.1707 45.7103 42.3466 45.8055 42.4985 45.9319C42.6503 46.0583 42.775 46.2134 42.8651 46.388C42.9553 46.5625 43.0091 46.7531 43.0234 46.9485C43.0377 47.1439 43.0123 47.3401 42.9485 47.5256L40.4627 54.7598C40.1482 55.6749 39.6228 56.5057 38.9278 57.187C38.2327 57.8683 37.3868 58.3816 36.4566 58.6865C35.5264 58.9914 34.5371 59.0797 33.5665 58.9444C32.5958 58.8092 31.6702 58.454 30.8622 57.9068C30.4847 57.6511 30.1363 57.3559 29.8233 57.0263L19.6101 46.2714C19.1141 45.7491 18.743 45.1241 18.5238 44.4422C18.3046 43.7603 18.243 43.0387 18.3434 42.3302C18.4438 41.6218 18.7037 40.9445 19.1041 40.3478C19.5045 39.7512 20.0352 39.2504 20.6574 38.882Z" fill="#CCCCCC"/>
<path d="M43.0772 28.3149C43.2632 28.3195 43.4398 28.3967 43.5681 28.5295C43.6963 28.6624 43.7658 28.84 43.7612 29.0233L43.7014 31.3972L43.8221 31.408L43.7788 33.0203L43.6608 33.0058L43.4465 41.5102C43.4391 41.8013 43.3246 42.0798 43.1242 42.2937C42.9238 42.5077 42.6513 42.6425 42.3575 42.673L36.8705 43.2423C36.7369 43.2561 36.6019 43.241 36.4748 43.198C36.3478 43.155 36.2318 43.0851 36.1351 42.9933C36.0384 42.9014 35.9632 42.7898 35.9148 42.6663C35.8665 42.5428 35.8461 42.4104 35.8552 42.2783L36.6874 30.1686C36.7049 29.9143 36.8096 29.6734 36.9845 29.4855C37.1593 29.2976 37.3938 29.1739 37.6494 29.1348L42.9463 28.3238C42.9896 28.3168 43.0334 28.3138 43.0772 28.3149Z" fill="#3F3D56"/>
<path d="M38.8307 29.5754L41.6153 29.1491C41.6655 29.1414 41.7116 29.1177 41.7467 29.0815C41.7817 29.0454 41.8037 28.9989 41.8092 28.9492C41.8155 28.8929 41.8404 28.8402 41.8801 28.7993C41.9197 28.7583 41.972 28.7314 42.0288 28.7227L42.6154 28.6329C42.6954 28.6207 42.7772 28.6259 42.855 28.6482C42.9327 28.6705 43.0046 28.7093 43.0655 28.762C43.1263 28.8147 43.1748 28.8798 43.2073 28.9529C43.2398 29.0261 43.2557 29.1053 43.2537 29.1851L42.9522 41.515C42.9485 41.668 42.8877 41.8143 42.7815 41.926C42.6753 42.0376 42.5311 42.1068 42.3764 42.1204L36.8934 42.6008C36.8235 42.607 36.753 42.5981 36.6869 42.575C36.6207 42.5518 36.5604 42.5148 36.51 42.4666C36.4597 42.4183 36.4205 42.36 36.3951 42.2954C36.3698 42.2309 36.3589 42.1617 36.3631 42.0926L37.1029 30.0949C37.1138 29.9181 37.1858 29.7503 37.3068 29.6194C37.4278 29.4885 37.5906 29.4022 37.7681 29.3751L38.3865 29.2804C38.4092 29.3757 38.4675 29.459 38.5499 29.5137C38.6323 29.5684 38.7326 29.5904 38.8307 29.5754Z" fill="white"/>
<path d="M25.9116 146.541L30.1725 146.541L32.1989 130.344L25.9102 130.344L25.9116 146.541Z" fill="#FFB8B8"/>
<path d="M38.3903 150.44L24.9988 150.441L24.9984 145.342L33.2158 145.341C33.8953 145.341 34.5681 145.473 35.1959 145.729C35.8236 145.985 36.394 146.361 36.8745 146.834C37.355 147.308 37.7362 147.87 37.9962 148.488C38.2563 149.107 38.3902 149.77 38.3903 150.44Z" fill="#2F2E41"/>
<path d="M12.8161 146.541L17.0769 146.541L19.1033 130.344L12.8146 130.344L12.8161 146.541Z" fill="#FFB8B8"/>
<path d="M25.2948 150.44L11.9034 150.441L11.9029 145.342L20.1204 145.341C21.4926 145.341 22.8087 145.878 23.7791 146.834C24.7494 147.79 25.2947 149.087 25.2948 150.44Z" fill="#2F2E41"/>
<path d="M25.2948 33.3773C30.3505 33.3773 34.449 29.3381 34.449 24.3555C34.449 19.3729 30.3505 15.3337 25.2948 15.3337C20.2391 15.3337 16.1406 19.3729 16.1406 24.3555C16.1406 29.3381 20.2391 33.3773 25.2948 33.3773Z" fill="#FFB8B8"/>
<path d="M30.0061 48.4931C29.9313 46.1736 29.2687 43.9094 28.0787 41.9069C26.8887 39.9044 25.2091 38.2272 23.1931 37.0282C20.8281 35.6547 18.2394 35.1191 16.1799 37.1488C14.9433 38.3981 13.953 39.863 13.2594 41.4689C11.3543 45.8451 11.2297 50.7757 12.9113 55.2399L17.813 68.5861L29.158 69.7974C29.3711 69.8202 29.5867 69.7974 29.79 69.7306C29.9934 69.6638 30.1797 69.5545 30.3363 69.4103C30.493 69.2661 30.6162 69.0903 30.6976 68.8949C30.7791 68.6995 30.8168 68.4891 30.8083 68.278L30.0061 48.4931Z" fill="#2F2E41"/>
<path d="M18.5323 66.9426C18.5323 66.9426 10.0564 70.0611 12.2724 83.2658C14.2609 95.115 12.6807 134.445 12.3352 142.395C12.3188 142.774 12.4518 143.144 12.7064 143.429C12.961 143.713 13.3174 143.889 13.701 143.92L18.6487 144.327C19.0362 144.359 19.421 144.24 19.7211 143.996C20.0211 143.752 20.2125 143.403 20.2546 143.022L22.8099 119.89C22.8199 119.799 22.8639 119.715 22.9332 119.655C23.0026 119.594 23.0923 119.561 23.185 119.562C23.2776 119.564 23.3665 119.599 23.4343 119.661C23.5022 119.723 23.544 119.808 23.5518 119.899L25.4559 142.157C25.488 142.532 25.6648 142.88 25.95 143.131C26.2352 143.381 26.607 143.514 26.9886 143.502L31.1444 143.372C31.3403 143.366 31.5329 143.322 31.7115 143.243C31.89 143.163 32.0509 143.05 32.1849 142.909C32.3189 142.768 32.4234 142.602 32.4925 142.422C32.5615 142.241 32.5938 142.049 32.5873 141.856L30.1393 68.485L18.5323 66.9426Z" fill="#2F2E41"/>
<path d="M27.132 23.761C30.1936 24.9985 34.1033 23.5529 35.5836 20.6362C37.0638 17.7195 35.8923 13.7693 33.0513 12.0973C30.2103 10.4252 26.1259 11.2823 24.2225 13.9499C22.6741 11.2006 18.6177 10.4997 15.8326 12.0337C13.0476 13.5678 11.5305 16.781 11.3506 19.9204C11.1707 23.0597 12.1391 26.1524 13.3205 29.0733C15.2315 33.798 21.3834 36.342 26.143 34.3757C23.9641 31.1773 24.3942 26.4969 27.132 23.761Z" fill="#2F2E41"/>
<path d="M39.4692 37.0835C39.3877 37.0836 39.3084 37.0576 39.2432 37.0095L39.2392 37.0065L38.388 36.3648C38.3486 36.335 38.3155 36.2979 38.2907 36.2555C38.2658 36.2131 38.2497 36.1663 38.2432 36.1178C38.2367 36.0693 38.2399 36.0199 38.2528 35.9727C38.2656 35.9254 38.2878 35.881 38.318 35.8422C38.3482 35.8033 38.3859 35.7707 38.4289 35.7462C38.4719 35.7217 38.5194 35.7058 38.5686 35.6994C38.6179 35.693 38.6679 35.6962 38.7159 35.7089C38.7639 35.7215 38.8089 35.7434 38.8483 35.7732L39.3996 36.1898L40.7023 34.5148C40.7325 34.476 40.7702 34.4434 40.8132 34.4189C40.8562 34.3944 40.9036 34.3785 40.9528 34.3721C41.0021 34.3657 41.0521 34.3689 41.1 34.3816C41.148 34.3942 41.193 34.416 41.2324 34.4458C41.3119 34.506 41.3642 34.5949 41.3773 34.6929C41.3904 34.7908 41.3636 34.8899 41.3026 34.9684L39.7703 36.9376C39.7349 36.983 39.6893 37.0197 39.6371 37.0449C39.585 37.0702 39.5276 37.0832 39.4695 37.083L39.4692 37.0835Z" fill="#6C63FF"/>
<path d="M207.783 0H90.6795C89.0311 0.00147155 87.4507 0.647473 86.2851 1.79619C85.1196 2.94491 84.4641 4.50249 84.4626 6.12702V24.8306C84.4641 26.4551 85.1196 28.0127 86.2851 29.1614C87.4507 30.3101 89.0311 30.9561 90.6795 30.9576H207.783C209.431 30.9561 211.012 30.3101 212.177 29.1614C213.343 28.0127 213.999 26.4551 214 24.8306V6.12702C213.999 4.50249 213.343 2.94491 212.177 1.79619C211.012 0.647468 209.431 0.00147155 207.783 0ZM213.346 24.8306C213.344 26.2839 212.757 27.6771 211.714 28.7047C210.671 29.7324 209.258 30.3106 207.783 30.3126H90.6795C89.2049 30.3106 87.7913 29.7324 86.7485 28.7047C85.7058 27.6771 85.1191 26.2839 85.117 24.8306V6.12702C85.1191 4.67372 85.7058 3.28053 86.7485 2.25288C87.7913 1.22524 89.2049 0.647004 90.6795 0.644947H207.783C209.258 0.647004 210.671 1.22524 211.714 2.25288C212.757 3.28053 213.344 4.67372 213.346 6.12702V24.8306Z" fill="#3F3D56"/>
<path d="M114.51 26.143C112.37 26.143 110.278 25.5176 108.499 24.3458C106.719 23.174 105.332 21.5085 104.513 19.5599C103.694 17.6113 103.48 15.4671 103.897 13.3984C104.315 11.3298 105.346 9.4296 106.859 7.93819C108.372 6.44677 110.3 5.4311 112.399 5.01962C114.498 4.60813 116.674 4.81931 118.651 5.62646C120.628 6.4336 122.318 7.80045 123.507 9.55416C124.696 11.3079 125.331 13.3697 125.331 15.4788C125.328 18.3062 124.187 21.0168 122.158 23.016C120.129 25.0152 117.379 26.1398 114.51 26.143Z" fill="#088395"/>
<path d="M191.805 24.1857H135.562C134.868 24.1857 134.202 23.9139 133.711 23.4301C133.22 22.9463 132.945 22.2901 132.945 21.6059C132.945 20.9217 133.22 20.2655 133.711 19.7817C134.202 19.2979 134.868 19.0261 135.562 19.0261H191.805C192.5 19.0261 193.165 19.2979 193.656 19.7817C194.147 20.2655 194.423 20.9217 194.423 21.6059C194.423 22.2901 194.147 22.9463 193.656 23.4301C193.165 23.9139 192.5 24.1857 191.805 24.1857Z" fill="#CCCCCC"/>
<path d="M154.176 13.2214H135.562C134.868 13.2214 134.202 12.9496 133.711 12.4658C133.22 11.982 132.945 11.3258 132.945 10.6416C132.945 9.95736 133.22 9.30119 133.711 8.81738C134.202 8.33358 134.868 8.06177 135.562 8.06177H154.176C154.871 8.06177 155.537 8.33358 156.027 8.81738C156.518 9.30119 156.794 9.95736 156.794 10.6416C156.794 11.3258 156.518 11.982 156.027 12.4658C155.537 12.9496 154.871 13.2214 154.176 13.2214Z" fill="#CCCCCC"/>
<path d="M113.958 19.23C113.689 19.2304 113.428 19.1449 113.213 18.9861L113.2 18.9763L110.395 16.8619C110.265 16.7639 110.156 16.6415 110.074 16.5018C109.991 16.3621 109.938 16.2078 109.916 16.0477C109.895 15.8877 109.905 15.725 109.948 15.569C109.99 15.413 110.063 15.2667 110.163 15.1386C110.262 15.0104 110.387 14.9029 110.529 14.8222C110.671 14.7414 110.827 14.6891 110.99 14.668C111.152 14.647 111.317 14.6578 111.475 14.6997C111.634 14.7416 111.782 14.8139 111.912 14.9123L113.728 16.2852L118.021 10.7659C118.12 10.638 118.245 10.5306 118.386 10.4499C118.528 10.3692 118.684 10.3168 118.847 10.2957C119.009 10.2746 119.174 10.2852 119.332 10.3269C119.49 10.3685 119.638 10.4405 119.768 10.5386L119.768 10.5388L119.741 10.5753L119.769 10.5388C120.031 10.7372 120.202 11.0299 120.245 11.3527C120.288 11.6755 120.2 12.002 119.999 12.2606L114.95 18.7495C114.833 18.899 114.683 19.02 114.511 19.1031C114.339 19.1862 114.15 19.2291 113.959 19.2286L113.958 19.23Z" fill="white"/>
<path d="M157.467 50.323H40.3635C38.7151 50.3245 37.1347 50.9705 35.9691 52.1192C34.8035 53.2679 34.148 54.8255 34.1465 56.45V75.1536C34.148 76.7781 34.8035 78.3357 35.9691 79.4844C37.1347 80.6331 38.7151 81.2791 40.3635 81.2806H157.467C159.115 81.2791 160.696 80.6331 161.861 79.4844C163.027 78.3357 163.682 76.7781 163.684 75.1536V56.45C163.682 54.8255 163.027 53.2679 161.861 52.1192C160.696 50.9705 159.115 50.3245 157.467 50.323Z" fill="white"/>
<path d="M157.467 50.323H40.3635C38.7151 50.3245 37.1347 50.9705 35.9691 52.1192C34.8035 53.2679 34.148 54.8255 34.1465 56.45V75.1536C34.148 76.7781 34.8035 78.3357 35.9691 79.4844C37.1347 80.6331 38.7151 81.2791 40.3635 81.2806H157.467C159.115 81.2791 160.696 80.6331 161.861 79.4844C163.027 78.3357 163.682 76.7781 163.684 75.1536V56.45C163.682 54.8255 163.027 53.2679 161.861 52.1192C160.696 50.9705 159.115 50.3245 157.467 50.323ZM163.03 75.1536C163.027 76.6069 162.441 78.0001 161.398 79.0277C160.355 80.0553 158.942 80.6336 157.467 80.6356H40.3635C38.8888 80.6336 37.4752 80.0553 36.4325 79.0277C35.3898 78.0001 34.803 76.6069 34.8009 75.1536V56.45C34.803 54.9967 35.3898 53.6035 36.4325 52.5759C37.4752 51.5482 38.8888 50.97 40.3635 50.968H157.467C158.942 50.97 160.355 51.5482 161.398 52.5759C162.441 53.6035 163.027 54.9967 163.03 56.45V75.1536Z" fill="#3F3D56"/>
<path d="M64.1942 76.466C62.0541 76.466 59.9621 75.8406 58.1826 74.6688C56.4031 73.497 55.0162 71.8315 54.1972 69.8829C53.3782 67.9343 53.1639 65.7901 53.5814 63.7214C53.9989 61.6528 55.0295 59.7526 56.5428 58.2612C58.0561 56.7698 59.9841 55.7541 62.0831 55.3426C64.1821 54.9311 66.3578 55.1423 68.335 55.9495C70.3122 56.7566 72.0022 58.1234 73.1912 59.8772C74.3802 61.6309 75.0148 63.6927 75.0148 65.8018C75.0115 68.6292 73.8705 71.3397 71.8419 73.339C69.8134 75.3382 67.063 76.4628 64.1942 76.466Z" fill="#088395"/>
<path d="M141.489 74.5087H85.2463C84.552 74.5087 83.8862 74.2369 83.3953 73.7531C82.9044 73.2693 82.6286 72.6131 82.6286 71.9289C82.6286 71.2447 82.9044 70.5885 83.3953 70.1047C83.8862 69.6209 84.552 69.3491 85.2463 69.3491H141.489C142.184 69.3491 142.849 69.6209 143.34 70.1047C143.831 70.5885 144.107 71.2447 144.107 71.9289C144.107 72.6131 143.831 73.2693 143.34 73.7531C142.849 74.2369 142.184 74.5087 141.489 74.5087Z" fill="#CCCCCC"/>
<path d="M103.86 63.5444H85.2463C84.9025 63.5444 84.5621 63.4776 84.2445 63.348C83.927 63.2183 83.6384 63.0283 83.3953 62.7888C83.1523 62.5492 82.9594 62.2648 82.8279 61.9518C82.6963 61.6388 82.6286 61.3033 82.6286 60.9646C82.6286 60.6258 82.6963 60.2903 82.8279 59.9773C82.9594 59.6643 83.1523 59.3799 83.3953 59.1404C83.6384 58.9008 83.927 58.7108 84.2445 58.5811C84.5621 58.4515 84.9025 58.3848 85.2463 58.3848H103.86C104.555 58.3848 105.221 58.6566 105.711 59.1404C106.202 59.6242 106.478 60.2804 106.478 60.9646C106.478 61.6488 106.202 62.305 105.711 62.7888C105.221 63.2726 104.555 63.5444 103.86 63.5444Z" fill="#CCCCCC"/>
<path d="M63.6416 69.553C63.3731 69.5534 63.1118 69.4678 62.897 69.3091L62.8837 69.2993L60.0791 67.1849C59.9489 67.0869 59.8396 66.9645 59.7575 66.8248C59.6753 66.6851 59.6219 66.5308 59.6003 66.3707C59.5788 66.2107 59.5894 66.048 59.6317 65.892C59.674 65.736 59.747 65.5897 59.8467 65.4616C59.9464 65.3334 60.0707 65.2259 60.2126 65.1452C60.3545 65.0644 60.5111 65.0121 60.6736 64.991C60.836 64.97 61.0011 64.9808 61.1593 65.0227C61.3175 65.0646 61.4658 65.1369 61.5957 65.2353L63.4123 66.6082L67.7049 61.0889C67.8044 60.961 67.9286 60.8536 68.0702 60.7729C68.2119 60.6922 68.3683 60.6398 68.5305 60.6187C68.6927 60.5976 68.8575 60.6082 69.0155 60.6499C69.1736 60.6915 69.3217 60.7635 69.4516 60.8616L69.4519 60.8618L69.4253 60.8983L69.4527 60.8618C69.7146 61.0602 69.886 61.3529 69.9292 61.6757C69.9724 61.9985 69.8839 62.325 69.6831 62.5836L64.634 69.0725C64.5172 69.222 64.367 69.343 64.1951 69.4261C64.0232 69.5092 63.8342 69.5521 63.6427 69.5515L63.6416 69.553Z" fill="white"/>
<path d="M36.5661 54.5421C36.0956 54.3459 35.5871 54.2539 35.0765 54.2723C34.5659 54.2908 34.0656 54.4194 33.6109 54.649C33.1562 54.8787 32.7581 55.2038 32.4447 55.6014C32.1313 55.9991 31.9101 56.4597 31.7968 56.9507L23.9251 58.2797L23.5778 63.1911L34.6676 61.1604C35.5171 61.2933 36.3867 61.1145 37.1114 60.6577C37.8361 60.201 38.3656 59.4982 38.5997 58.6824C38.8337 57.8666 38.7559 56.9945 38.3812 56.2314C38.0064 55.4683 37.3606 54.8673 36.5661 54.5421Z" fill="#FFB8B8"/>
<path d="M23.0443 40.4447C24.1849 40.9498 25.0845 41.8681 25.5566 43.0093C26.0286 44.1504 26.0368 45.4269 25.5796 46.5739L21.0166 58.0204L26.7451 56.9827C27.1028 56.9179 27.4722 56.9842 27.7837 57.1691C28.0953 57.3541 28.3275 57.6449 28.4367 57.9868L29.5786 61.5634C29.6383 61.7502 29.6594 61.9469 29.6408 62.142C29.6222 62.337 29.5642 62.5264 29.4702 62.699C29.3762 62.8716 29.2482 63.024 29.0936 63.1471C28.939 63.2702 28.761 63.3616 28.5701 63.416L21.1244 65.5347C20.1826 65.8027 19.1905 65.8519 18.2261 65.6785C17.2617 65.505 16.3512 65.1137 15.5661 64.5351C14.781 63.9565 14.1427 63.2065 13.7012 62.3438C13.2597 61.4812 13.0271 60.5295 13.0217 59.5633C13.0191 59.1119 13.0662 58.6615 13.1621 58.22L16.2906 43.816C16.4425 43.1165 16.7513 42.4594 17.1942 41.8927C17.6372 41.3261 18.2031 40.8642 18.8506 40.541C19.4981 40.2178 20.2108 40.0414 20.9364 40.0247C21.662 40.0081 22.3822 40.1516 23.0443 40.4447Z" fill="#CCCCCC"/>
</g>
<defs>
<clipPath id="clip0_14_2275">
<rect width="214" height="151" fill="white"/>
</clipPath>
</defs>
</svg>
