<svg width="249" height="204" viewBox="0 0 249 204" fill="none" xmlns="http://www.w3.org/2000/svg">
<g clip-path="url(#clip0_131_44)">
<path d="M123.566 204.075C183.99 204.075 232.974 201.035 232.974 197.285C232.974 193.535 183.99 190.495 123.566 190.495C63.1424 190.495 14.1591 193.535 14.1591 197.285C14.1591 201.035 63.1424 204.075 123.566 204.075Z" fill="#E6E6E6"/>
<path d="M119.437 198C163.298 198 198.853 162.449 198.853 118.595C198.853 74.7402 163.298 39.1891 119.437 39.1891C75.5772 39.1891 40.0215 74.7402 40.0215 118.595C40.0215 162.449 75.5772 198 119.437 198Z" fill="#3F3D56"/>
<path d="M119.437 191.427C159.667 191.427 192.279 158.819 192.279 118.595C192.279 78.3705 159.667 45.7623 119.437 45.7623C79.208 45.7623 46.5956 78.3705 46.5956 118.595C46.5956 158.819 79.208 191.427 119.437 191.427Z" fill="white"/>
<path d="M119.174 128.586C124.548 128.586 128.904 124.23 128.904 118.858C128.904 113.485 124.548 109.129 119.174 109.129C113.801 109.129 109.445 113.485 109.445 118.858C109.445 124.23 113.801 128.586 119.174 128.586Z" fill="#3F3D56"/>
<path d="M121.278 49.4434H117.071V57.3313H121.278V49.4434Z" fill="#3F3D56"/>
<path d="M121.278 180.384H117.071V188.272H121.278V180.384Z" fill="#3F3D56"/>
<path d="M57.6402 120.961V116.754H49.7512V120.961H57.6402Z" fill="#3F3D56"/>
<path d="M188.598 120.961V116.754H180.709V120.961H188.598Z" fill="#3F3D56"/>
<path d="M116.37 123.081L119.965 114.86L165.02 139.81L116.37 123.081Z" fill="#3F3D56"/>
<path d="M129.693 19.995H109.182V43.6589H129.693V19.995Z" fill="#3F3D56"/>
<path d="M119.437 26.5682C132.508 26.5682 143.104 23.6252 143.104 19.9949C143.104 16.3645 132.508 13.4216 119.437 13.4216C106.366 13.4216 95.7704 16.3645 95.7704 19.9949C95.7704 23.6252 106.366 26.5682 119.437 26.5682Z" fill="#3F3D56"/>
<path d="M163.747 132.662L162.432 134.502C162.432 134.502 156.384 141.601 156.121 138.183C155.858 134.765 160.592 132.399 160.592 132.399L163.221 130.821L163.747 132.662Z" fill="#FFB8B8"/>
<path d="M201.179 138.871L202.28 140.847C202.28 140.847 206.109 149.351 202.907 148.126C199.705 146.901 199.591 141.61 199.591 141.61L199.291 138.559L201.179 138.871Z" fill="#FFB8B8"/>
<path d="M195.26 103.835C199.682 103.835 203.267 100.251 203.267 95.8292C203.267 91.4075 199.682 87.8231 195.26 87.8231C190.837 87.8231 187.252 91.4075 187.252 95.8292C187.252 100.251 190.837 103.835 195.26 103.835Z" fill="#2F2E41"/>
<path d="M194.514 161.584L195.566 168.42V170.524H201.614V167.895C201.614 167.895 201.877 163.162 200.826 161.847C199.774 160.532 194.514 161.584 194.514 161.584Z" fill="#FFB8B8"/>
<path d="M183.733 161.584L184.785 168.42V170.524H190.833V167.895C190.833 167.895 191.096 163.162 190.044 161.847C188.992 160.532 183.733 161.584 183.733 161.584Z" fill="#FFB8B8"/>
<path d="M187.803 106.671C187.803 106.671 185.476 107.897 187.065 110.686C188.654 113.475 197.977 142.326 197.977 142.326L203.355 140.799L198.612 122.553L195.896 111.085L187.803 106.671Z" fill="#088395"/>
<path d="M194.383 104.133C197.723 104.133 200.431 101.426 200.431 98.086C200.431 94.746 197.723 92.0385 194.383 92.0385C191.043 92.0385 188.335 94.746 188.335 98.086C188.335 101.426 191.043 104.133 194.383 104.133Z" fill="#FFB8B8"/>
<path d="M197.144 99.0062L196.355 111.364L190.833 107.42C190.833 107.42 192.674 100.058 192.148 99.5321L197.144 99.0062Z" fill="#FFB8B8"/>
<path d="M197.144 110.312L191.195 105.907C191.195 105.907 188.466 104.791 187.677 106.105C186.888 107.42 182.944 126.877 185.048 130.558C185.048 130.558 196.355 132.924 198.722 131.61L199.774 124.774C199.774 124.774 201.089 120.567 198.985 117.937L197.144 110.312Z" fill="#088395"/>
<path d="M189.255 106.368C189.255 106.368 187.151 104.791 185.311 107.42C183.47 110.049 161.381 130.821 161.381 130.821L165.062 135.028L179.525 122.933L188.729 115.571L189.255 106.368Z" fill="#088395"/>
<path d="M198.853 131.478C198.853 131.478 185.836 128.981 184.522 130.821L184.259 133.713C184.259 133.713 181.366 139.235 182.944 148.175C184.522 157.114 183.47 162.636 183.47 162.636C183.47 162.636 190.57 161.847 195.829 162.636C201.089 163.425 201.877 162.636 201.877 162.636L198.853 131.478Z" fill="#2F2E41"/>
<path d="M202.14 169.472L194.514 169.735L197.144 189.455C197.144 189.455 195.04 197.869 197.407 198.395C199.052 198.727 200.725 198.903 202.403 198.92C202.403 198.92 204.77 201.287 207.4 201.024C209.146 200.801 210.838 200.267 212.396 199.446C212.396 199.446 212.922 197.869 211.081 197.343C209.241 196.817 204.244 195.239 203.192 189.718L202.14 169.472Z" fill="#2F2E41"/>
<path d="M191.359 169.472L183.733 169.735L186.362 189.455C186.362 189.455 184.259 197.869 186.625 198.395C188.271 198.727 189.943 198.903 191.622 198.92C191.622 198.92 193.988 201.287 196.618 201.024C198.365 200.801 200.057 200.267 201.615 199.446C201.615 199.446 202.14 197.869 200.3 197.343C198.459 196.817 193.463 195.239 192.411 189.718L191.359 169.472Z" fill="#2F2E41"/>
<path d="M198.061 90.7158C199.891 90.7158 201.374 89.2325 201.374 87.4029C201.374 85.5732 199.891 84.09 198.061 84.09C196.231 84.09 194.747 85.5732 194.747 87.4029C194.747 89.2325 196.231 90.7158 198.061 90.7158Z" fill="#2F2E41"/>
<path d="M202.478 85.6083C202.478 84.7894 202.175 83.9996 201.627 83.3911C201.079 82.7827 200.325 82.3987 199.51 82.3133C199.625 82.3014 199.74 82.2954 199.855 82.2954C200.734 82.2954 201.577 82.6444 202.198 83.2657C202.82 83.887 203.169 84.7297 203.169 85.6083C203.169 86.4869 202.82 87.3296 202.198 87.9509C201.577 88.5722 200.734 88.9212 199.855 88.9212C199.74 88.9212 199.625 88.9152 199.51 88.9033C200.325 88.8179 201.079 88.434 201.627 87.8255C202.175 87.217 202.478 86.4272 202.478 85.6083Z" fill="#2F2E41"/>
<path d="M194.328 97.4446C197.378 97.4446 199.85 95.9614 199.85 94.1317C199.85 92.3021 197.378 90.8188 194.328 90.8188C191.278 90.8188 188.806 92.3021 188.806 94.1317C188.806 95.9614 191.278 97.4446 194.328 97.4446Z" fill="#2F2E41"/>
</g>
<defs>
<clipPath id="clip0_131_44">
<rect width="249" height="204" fill="white"/>
</clipPath>
</defs>
</svg>
