<svg width="178" height="150" viewBox="0 0 178 150" fill="none" xmlns="http://www.w3.org/2000/svg">
<g clip-path="url(#clip0_14_1018)" filter="url(#filter0_d_14_1018)">
<path d="M83.8494 142C120.929 142 150.988 140.464 150.988 138.57C150.988 136.676 120.929 135.14 83.8494 135.14C46.77 135.14 16.7112 136.676 16.7112 138.57C16.7112 140.464 46.77 142 83.8494 142Z" fill="#F2F2F2"/>
<path d="M123.075 32.9558H122.312V12.0815C122.312 8.8773 121.038 5.80432 118.77 3.5386C116.502 1.27288 113.426 3.53769e-06 110.219 0H65.9522C62.7449 -6.06457e-06 59.6691 1.27285 57.4012 3.53857C55.1334 5.80428 53.8593 8.87726 53.8593 12.0815V126.6C53.8593 129.804 55.1333 132.877 57.4012 135.143C59.669 137.408 62.7449 138.681 65.9521 138.681H110.219C113.426 138.681 116.502 137.408 118.77 135.143C121.038 132.877 122.312 129.804 122.312 126.6V47.8146H123.074L123.075 32.9558Z" fill="#3F3D56"/>
<path d="M119.738 12.1658V126.516C119.738 128.909 118.786 131.203 117.093 132.896C115.399 134.588 113.102 135.538 110.707 135.538H66.2275C63.8323 135.538 61.5352 134.588 59.8415 132.896C58.1479 131.203 57.1963 128.909 57.1963 126.516V12.1658C57.1963 9.77285 58.1479 7.4779 59.8415 5.78582C61.5352 4.09373 63.8323 3.14311 66.2275 3.14307H71.6234C71.3583 3.79399 71.2573 4.50004 71.3294 5.19911C71.4015 5.89817 71.6444 6.56882 72.0368 7.15208C72.4292 7.73533 72.9591 8.21331 73.5797 8.54397C74.2004 8.87462 74.893 9.04783 75.5964 9.04834H100.956C101.66 9.04782 102.352 8.87461 102.973 8.54395C103.594 8.21329 104.124 7.73532 104.516 7.15206C104.908 6.56881 105.151 5.89816 105.223 5.1991C105.295 4.50004 105.194 3.79399 104.929 3.14307H110.707C113.102 3.14311 115.399 4.09373 117.093 5.78582C118.786 7.4779 119.738 9.77285 119.738 12.1658Z" fill="white"/>
<path d="M105.409 61.4729C105.113 61.6273 104.812 61.7733 104.507 61.9112C104.228 62.0369 103.945 62.1551 103.658 62.2656C103.553 62.3056 103.446 62.3456 103.339 62.3857C102.495 62.6917 101.628 62.9306 100.745 63.1002C100.309 63.186 99.8661 63.2533 99.4179 63.3022C99.0479 63.3441 98.674 63.374 98.2964 63.3918C98.0274 63.4051 97.7585 63.4108 97.4876 63.4108C96.4151 63.4113 95.3448 63.3111 94.291 63.1117C94.0162 63.0621 93.7474 63.0031 93.4784 62.9383C92.1775 62.6268 90.9182 62.1624 89.7267 61.5548C89.6199 61.5015 89.513 61.4443 89.4062 61.3891C89.2479 61.3052 89.0935 61.2176 88.939 61.1261C89.0133 61.0232 89.0935 60.9222 89.1754 60.8231C90.0679 59.7181 91.1835 58.8134 92.4494 58.168C93.7153 57.5225 95.1031 57.1508 96.5224 57.0771C97.9418 57.0034 99.3607 57.2293 100.687 57.7401C102.013 58.251 103.216 59.0352 104.219 60.0418C104.567 60.3906 104.889 60.7638 105.184 61.1585C105.262 61.2614 105.336 61.3662 105.409 61.4729Z" fill="#088395"/>
<path d="M97.8683 53.1024C102.494 53.1024 106.243 49.3563 106.243 44.7352C106.243 40.1142 102.494 36.368 97.8683 36.368C93.2429 36.368 89.4932 40.1142 89.4932 44.7352C89.4932 49.3563 93.2429 53.1024 97.8683 53.1024Z" fill="#2F2E41"/>
<path d="M100.096 53.1142C103.117 51.4645 104.227 47.6807 102.575 44.6628C100.924 41.6449 97.1368 40.5358 94.1161 42.1855C91.0954 43.8353 89.9852 47.6191 91.6365 50.6369C93.2878 53.6548 97.0751 54.7639 100.096 53.1142Z" fill="#A0616A"/>
<path d="M103.656 43.7328C102.231 44.7136 100.541 45.2356 98.8107 45.2287C99.4278 45.6562 100.13 45.9449 100.87 46.0751C98.5698 46.568 96.1926 46.5813 93.8871 46.1143C93.3747 46.0322 92.8802 45.8625 92.4254 45.6127C92.1987 45.4862 92.0013 45.3135 91.8458 45.1058C91.6904 44.8981 91.5804 44.6601 91.5231 44.4071C91.3699 43.5327 92.0519 42.7384 92.7606 42.203C93.8457 41.3958 95.0968 40.8397 96.4234 40.5748C97.75 40.31 99.119 40.343 100.431 40.6716C101.288 40.8929 102.146 41.2668 102.703 41.9542C103.26 42.6417 103.424 43.7016 102.894 44.4095L103.656 43.7328Z" fill="#2F2E41"/>
<path d="M97.4876 29.111C93.744 29.1105 90.1027 30.3328 87.119 32.5917C84.1352 34.8507 81.9725 38.0223 80.9606 41.6233C79.9486 45.2242 80.1429 49.0569 81.5137 52.5373C82.8846 56.0177 85.3568 58.9549 88.5537 60.9012L88.6644 60.966C88.7559 61.0213 88.8475 61.0746 88.939 61.1261C89.0935 61.2175 89.2479 61.3052 89.4062 61.389C89.5131 61.4443 89.6199 61.5014 89.7267 61.5548C90.9182 62.1624 92.1775 62.6268 93.4784 62.9382C93.7474 63.003 94.0163 63.0621 94.291 63.1116C95.3448 63.3111 96.4151 63.4112 97.4876 63.4108C97.7585 63.4108 98.0274 63.4051 98.2964 63.3917C98.6741 63.3746 99.0479 63.3447 99.4179 63.3022C99.8661 63.2526 100.309 63.1853 100.745 63.1002C101.628 62.9305 102.495 62.6916 103.339 62.3856C103.446 62.3456 103.553 62.3056 103.658 62.2656C103.946 62.155 104.229 62.0369 104.507 61.9111C104.812 61.7739 105.113 61.6278 105.409 61.4729C108.378 59.9193 110.832 57.5383 112.474 54.6186C112.481 54.6034 112.491 54.5881 112.498 54.5729C113.374 53.003 113.995 51.3044 114.339 49.5403C114.821 47.0569 114.748 44.4977 114.125 42.0458C113.502 39.5939 112.343 37.31 110.733 35.3578C109.122 33.4055 107.1 31.8331 104.81 30.7532C102.52 29.6732 100.02 29.1125 97.4876 29.111ZM112.186 54.3499C112.17 54.3766 112.157 54.4033 112.142 54.4281C110.533 57.3046 108.113 59.6452 105.184 61.1584C104.892 61.3109 104.595 61.4538 104.293 61.5872C104.043 61.6996 103.788 61.8063 103.53 61.9054C103.421 61.9473 103.311 61.9893 103.2 62.0274C102.471 62.2936 101.723 62.5076 100.963 62.6676C100.399 62.7876 99.8292 62.8773 99.2557 62.9363C98.9029 62.9744 98.5443 63.0011 98.1838 63.0144C97.953 63.024 97.7204 63.0297 97.4876 63.0297C96.4497 63.0309 95.4139 62.9346 94.394 62.742C93.7735 62.6276 93.1602 62.4775 92.5572 62.2922C91.6385 62.0087 90.7458 61.6472 89.8888 61.2118C89.7897 61.1604 89.6905 61.1089 89.5931 61.0555C89.4539 60.9812 89.3128 60.905 89.1754 60.8231C89.0725 60.7659 88.9694 60.7049 88.8684 60.644C88.8093 60.6097 88.7501 60.5734 88.691 60.5372C85.8881 58.8175 83.6522 56.3135 82.2608 53.3359C80.8693 50.3582 80.3836 47.038 80.8637 43.787C81.3439 40.536 82.7688 37.4975 84.9618 35.0482C87.1548 32.599 90.0192 30.8469 93.1998 30.0092C96.3805 29.1716 99.7372 29.2854 102.854 30.3364C105.97 31.3874 108.709 33.3294 110.731 35.9214C112.753 38.5135 113.968 41.6416 114.227 44.9176C114.486 48.1936 113.776 51.4733 112.186 54.3499Z" fill="#3F3D56"/>
<path d="M93.6271 36.4835C93.537 35.5368 92.3762 34.954 91.4684 35.24C90.5606 35.5259 89.9646 36.4391 89.7845 37.3728C89.6978 37.7661 89.6896 38.1726 89.7605 38.569C89.8314 38.9653 89.9799 39.3439 90.1975 39.6828C90.6563 40.3426 91.4995 40.7543 92.286 40.5868C93.1838 40.3956 93.8058 39.5198 93.9838 38.6201C94.1617 37.7204 93.985 36.7928 93.8086 35.8928L93.6271 36.4835Z" fill="#2F2E41"/>
<path d="M106.403 37.8358C106.313 36.8892 105.152 36.3064 104.244 36.5923C103.336 36.8783 102.74 37.7914 102.56 38.7252C102.474 39.1184 102.465 39.5249 102.536 39.9213C102.607 40.3177 102.756 40.6962 102.973 41.0352C103.432 41.6949 104.275 42.1067 105.062 41.9392C105.96 41.748 106.582 40.8722 106.76 39.9724C106.938 39.0727 106.761 38.1452 106.584 37.2452L106.403 37.8358Z" fill="#2F2E41"/>
<path d="M67.8164 53.1149C67.6977 53.1148 67.5802 53.0899 67.4716 53.0418C67.363 52.9938 67.2656 52.9236 67.1857 52.8358L57.7211 42.5205C57.6137 42.4037 57.4833 42.3104 57.3379 42.2465C57.1926 42.1827 57.0356 42.1496 56.8769 42.1494H6.86278C6.10378 42.1486 5.37612 41.847 4.83943 41.3108C4.30274 40.7746 4.00085 40.0476 4 39.2893V21.2701C4.00085 20.5118 4.30274 19.7848 4.83943 19.2486C5.37612 18.7124 6.10378 18.4108 6.86278 18.41H71.6598C72.4188 18.4108 73.1465 18.7124 73.6832 19.2486C74.2199 19.7848 74.5218 20.5118 74.5226 21.2701V39.2894C74.5218 40.0476 74.2199 40.7746 73.6832 41.3108C73.1465 41.847 72.4188 42.1486 71.6598 42.1494H69.8228C69.5192 42.1498 69.228 42.2705 69.0133 42.485C68.7986 42.6995 68.6779 42.9903 68.6775 43.2937V52.2561C68.6783 52.4291 68.6263 52.5982 68.5285 52.7411C68.4307 52.8839 68.2918 52.9936 68.1301 53.0556C68.0301 53.0947 67.9238 53.1148 67.8164 53.1149Z" fill="white"/>
<path d="M67.8164 53.1149C67.6977 53.1148 67.5802 53.0899 67.4716 53.0418C67.363 52.9938 67.2656 52.9236 67.1857 52.8358L57.7211 42.5205C57.6137 42.4037 57.4833 42.3104 57.3379 42.2465C57.1926 42.1827 57.0356 42.1496 56.8769 42.1494H6.86278C6.10378 42.1486 5.37612 41.847 4.83943 41.3108C4.30274 40.7746 4.00085 40.0476 4 39.2893V21.2701C4.00085 20.5118 4.30274 19.7848 4.83943 19.2486C5.37612 18.7124 6.10378 18.4108 6.86278 18.41H71.6598C72.4188 18.4108 73.1465 18.7124 73.6832 19.2486C74.2199 19.7848 74.5218 20.5118 74.5226 21.2701V39.2894C74.5218 40.0476 74.2199 40.7746 73.6832 41.3108C73.1465 41.847 72.4188 42.1486 71.6598 42.1494H69.8228C69.5192 42.1498 69.228 42.2705 69.0133 42.485C68.7986 42.6995 68.6779 42.9903 68.6775 43.2937V52.2561C68.6783 52.4291 68.6263 52.5982 68.5285 52.7411C68.4307 52.8839 68.2918 52.9936 68.1301 53.0556C68.0301 53.0947 67.9238 53.1148 67.8164 53.1149ZM6.86278 18.7911C6.20492 18.7918 5.57422 19.0532 5.10904 19.518C4.64387 19.9827 4.38221 20.6128 4.38147 21.2701V39.2894C4.38221 39.9466 4.64387 40.5767 5.10905 41.0414C5.57422 41.5062 6.20492 41.7676 6.86278 41.7683H56.8769C57.0885 41.7686 57.2978 41.8126 57.4915 41.8978C57.6852 41.9829 57.8591 42.1073 58.0023 42.2629L67.4669 52.5783C67.5319 52.6491 67.6168 52.6987 67.7104 52.7205C67.8041 52.7423 67.9021 52.7353 67.9918 52.7005C68.0814 52.6656 68.1584 52.6046 68.2127 52.5253C68.267 52.446 68.296 52.3521 68.2961 52.2561V43.2937C68.2965 42.8893 68.4575 42.5016 68.7437 42.2156C69.0299 41.9296 69.418 41.7688 69.8228 41.7683H71.6598C72.3177 41.7676 72.9484 41.5062 73.4135 41.0414C73.8787 40.5767 74.1404 39.9466 74.1411 39.2894V21.2701C74.1404 20.6128 73.8787 19.9827 73.4136 19.518C72.9484 19.0532 72.3177 18.7918 71.6598 18.7911H6.86278Z" fill="#3F3D56"/>
<path d="M11.0221 26.3588C12.4056 26.3588 13.5271 25.2383 13.5271 23.8561C13.5271 22.4739 12.4056 21.3535 11.0221 21.3535C9.63856 21.3535 8.51701 22.4739 8.51701 23.8561C8.51701 25.2383 9.63856 26.3588 11.0221 26.3588Z" fill="#088395"/>
<path d="M68.7373 37.7043H9.78532C9.60974 37.7045 9.43584 37.6702 9.27356 37.6032C9.11128 37.5362 8.96381 37.4379 8.83958 37.3139C8.71535 37.19 8.6168 37.0428 8.54956 36.8807C8.48231 36.7187 8.4477 36.545 8.4477 36.3696C8.4477 36.1941 8.48231 36.0204 8.54956 35.8584C8.6168 35.6963 8.71535 35.5491 8.83958 35.4252C8.96381 35.3012 9.11128 35.2029 9.27356 35.1359C9.43584 35.069 9.60974 35.0346 9.78532 35.0348H68.7373C69.0913 35.0352 69.4308 35.176 69.681 35.4263C69.9312 35.6766 70.0717 36.0158 70.0717 36.3696C70.0717 36.7233 69.9312 37.0625 69.681 37.3128C69.4308 37.5631 69.0913 37.7039 68.7373 37.7043Z" fill="#E6E6E6"/>
<path d="M49.532 32.0316H9.78532C9.60974 32.0318 9.43584 31.9974 9.27356 31.9304C9.11128 31.8635 8.96381 31.7652 8.83958 31.6412C8.71535 31.5172 8.6168 31.37 8.54956 31.208C8.48231 31.0459 8.4477 30.8722 8.4477 30.6968C8.4477 30.5214 8.48231 30.3477 8.54956 30.1857C8.6168 30.0236 8.71535 29.8764 8.83958 29.7524C8.96381 29.6285 9.11128 29.5302 9.27356 29.4632C9.43584 29.3962 9.60974 29.3619 9.78532 29.3621H49.532C49.8863 29.3621 50.2261 29.5027 50.4767 29.753C50.7272 30.0033 50.868 30.3428 50.868 30.6968C50.868 31.0508 50.7272 31.3903 50.4767 31.6407C50.2261 31.891 49.8863 32.0316 49.532 32.0316Z" fill="#E6E6E6"/>
<path d="M109.87 114.224C109.708 114.162 109.569 114.052 109.471 113.909C109.374 113.766 109.322 113.597 109.322 113.424V104.462C109.322 104.158 109.201 103.867 108.987 103.653C108.772 103.438 108.481 103.318 108.177 103.317H106.34C105.581 103.317 104.853 103.015 104.317 102.479C103.78 101.943 103.478 101.216 103.477 100.457V82.438C103.478 81.6797 103.78 80.9528 104.317 80.4166C104.853 79.8804 105.581 79.5788 106.34 79.5779H171.137C171.896 79.5788 172.624 79.8804 173.161 80.4166C173.697 80.9528 173.999 81.6797 174 82.438V100.457C173.999 101.216 173.697 101.943 173.161 102.479C172.624 103.015 171.896 103.317 171.137 103.317H121.123C120.964 103.318 120.807 103.351 120.662 103.415C120.517 103.478 120.386 103.572 120.279 103.688L110.814 114.004C110.734 114.092 110.637 114.162 110.528 114.21C110.42 114.258 110.302 114.283 110.184 114.283C110.076 114.283 109.97 114.263 109.87 114.224Z" fill="white"/>
<path d="M109.87 114.224C109.708 114.162 109.569 114.052 109.471 113.909C109.374 113.766 109.322 113.597 109.322 113.424V104.462C109.322 104.158 109.201 103.867 108.987 103.653C108.772 103.438 108.481 103.318 108.177 103.317H106.34C105.581 103.317 104.853 103.015 104.317 102.479C103.78 101.943 103.478 101.216 103.477 100.457V82.438C103.478 81.6797 103.78 80.9528 104.317 80.4166C104.853 79.8804 105.581 79.5788 106.34 79.5779H171.137C171.896 79.5788 172.624 79.8804 173.161 80.4166C173.697 80.9528 173.999 81.6797 174 82.438V100.457C173.999 101.216 173.697 101.943 173.161 102.479C172.624 103.015 171.896 103.317 171.137 103.317H121.123C120.964 103.318 120.807 103.351 120.662 103.415C120.517 103.478 120.386 103.572 120.279 103.688L110.814 114.004C110.734 114.092 110.637 114.162 110.528 114.21C110.42 114.258 110.302 114.283 110.184 114.283C110.076 114.283 109.97 114.263 109.87 114.224ZM106.34 79.9591C105.682 79.9598 105.052 80.2212 104.586 80.6859C104.121 81.1507 103.86 81.7808 103.859 82.438V100.457C103.86 101.115 104.121 101.745 104.586 102.209C105.052 102.674 105.682 102.936 106.34 102.936H108.177C108.582 102.937 108.97 103.098 109.256 103.384C109.542 103.67 109.703 104.057 109.704 104.462V113.424C109.704 113.52 109.733 113.614 109.787 113.693C109.842 113.773 109.919 113.834 110.008 113.868C110.098 113.903 110.196 113.91 110.29 113.888C110.383 113.867 110.468 113.817 110.533 113.746L119.998 103.431C120.141 103.275 120.315 103.151 120.508 103.066C120.702 102.981 120.911 102.937 121.123 102.936H171.137C171.795 102.936 172.426 102.674 172.891 102.209C173.356 101.745 173.618 101.115 173.619 100.457V82.438C173.618 81.7808 173.356 81.1507 172.891 80.6859C172.426 80.2212 171.795 79.9598 171.137 79.9591H106.34Z" fill="#3F3D56"/>
<path d="M89.6733 119.804C87.0161 121.503 83.9375 122.43 80.7826 122.481C77.6276 122.531 74.5211 121.702 71.8111 120.087C72.2878 119.201 72.8919 118.389 73.604 117.677C74.7029 116.574 76.0402 115.737 77.5132 115.231C78.9863 114.725 80.5558 114.563 82.1013 114.757C83.6468 114.952 85.1271 115.498 86.4285 116.353C87.7299 117.208 88.8177 118.35 89.6084 119.691C89.6294 119.727 89.6523 119.765 89.6733 119.804Z" fill="#088395"/>
<path d="M79.9964 110.691C84.6526 110.691 88.4272 106.92 88.4272 102.268C88.4272 97.6165 84.6526 93.8455 79.9964 93.8455C75.3403 93.8455 71.5657 97.6165 71.5657 102.268C71.5657 106.92 75.3403 110.691 79.9964 110.691Z" fill="#2F2E41"/>
<path d="M86.2697 108.209C87.9319 105.171 86.8144 101.362 83.7736 99.7017C80.7328 98.041 76.9203 99.1575 75.258 102.195C73.5958 105.233 74.7133 109.042 77.7541 110.703C80.7949 112.364 84.6074 111.247 86.2697 108.209Z" fill="#FFB8B8"/>
<path d="M74.1705 101.259C75.6044 102.247 77.3063 102.772 79.0477 102.765C78.4266 103.195 77.7194 103.486 76.9749 103.617C79.2903 104.113 81.6833 104.127 84.0041 103.657C84.52 103.574 85.0177 103.403 85.4756 103.152C85.7037 103.024 85.9025 102.851 86.059 102.641C86.2155 102.432 86.3262 102.193 86.3838 101.938C86.5381 101.058 85.8516 100.258 85.1381 99.7193C84.0458 98.9068 82.7864 98.3469 81.451 98.0803C80.1155 97.8137 78.7375 97.847 77.4165 98.1778C76.5539 98.4005 75.6899 98.7769 75.1296 99.4689C74.5694 100.161 74.4034 101.228 74.9372 101.941L74.1705 101.259Z" fill="#2F2E41"/>
<path d="M80.5124 122.673C76.3834 122.672 72.3934 121.183 69.2742 118.481C66.1549 115.778 64.1156 112.042 63.5303 107.959C62.945 103.876 63.8529 99.7183 66.0876 96.2496C68.3222 92.781 71.7337 90.2335 75.6964 89.0746C79.659 87.9157 83.907 88.2229 87.6612 89.9401C91.4153 91.6572 94.424 94.669 96.1352 98.4231C97.8464 102.177 98.1455 106.422 96.9775 110.378C95.8095 114.335 93.2528 117.738 89.7764 119.964C87.0119 121.735 83.7964 122.675 80.5124 122.673ZM80.5124 88.7545C77.1922 88.7542 73.9466 89.7375 71.1859 91.5802C68.4252 93.4228 66.2734 96.0419 65.0027 99.1064C63.732 102.171 63.3994 105.543 64.0471 108.796C64.6947 112.049 66.2935 115.038 68.6412 117.383C70.9888 119.729 73.98 121.326 77.2363 121.973C80.4927 122.62 83.868 122.288 86.9353 121.018C90.0026 119.749 92.6242 117.599 94.4686 114.841C96.313 112.083 97.2972 108.84 97.2969 105.523C97.2919 101.077 95.5219 96.8152 92.3753 93.6715C89.2287 90.5278 84.9624 88.7595 80.5124 88.7545Z" fill="#3F3D56"/>
<path d="M111.539 87.3362C112.922 87.3362 114.044 86.2157 114.044 84.8335C114.044 83.4513 112.922 82.3308 111.539 82.3308C110.155 82.3308 109.034 83.4513 109.034 84.8335C109.034 86.2157 110.155 87.3362 111.539 87.3362Z" fill="#088395"/>
<path d="M169.254 98.6817H110.302C110.126 98.6819 109.953 98.6476 109.79 98.5806C109.628 98.5136 109.48 98.4153 109.356 98.2914C109.232 98.1674 109.133 98.0202 109.066 97.8581C108.999 97.6961 108.964 97.5224 108.964 97.347C108.964 97.1716 108.999 96.9979 109.066 96.8358C109.133 96.6738 109.232 96.5266 109.356 96.4026C109.48 96.2786 109.628 96.1803 109.79 96.1133C109.953 96.0464 110.126 96.012 110.302 96.0122H169.254C169.608 96.0122 169.948 96.1528 170.199 96.4031C170.449 96.6535 170.59 96.993 170.59 97.347C170.59 97.701 170.449 98.0405 170.199 98.2908C169.948 98.5411 169.608 98.6817 169.254 98.6817Z" fill="#E6E6E6"/>
<path d="M150.049 93.009H110.302C110.126 93.0092 109.953 92.9749 109.79 92.9079C109.628 92.8409 109.48 92.7426 109.356 92.6186C109.232 92.4947 109.133 92.3474 109.066 92.1854C108.999 92.0234 108.964 91.8497 108.964 91.6742C108.964 91.4988 108.999 91.3251 109.066 91.1631C109.133 91.001 109.232 90.8538 109.356 90.7299C109.48 90.6059 109.628 90.5076 109.79 90.4406C109.953 90.3736 110.126 90.3393 110.302 90.3395H150.049C150.403 90.3399 150.742 90.4807 150.992 90.731C151.243 90.9813 151.383 91.3205 151.383 91.6742C151.383 92.028 151.243 92.3672 150.992 92.6175C150.742 92.8678 150.403 93.0086 150.049 93.009Z" fill="#E6E6E6"/>
<path d="M109.789 115.93C112.37 115.93 114.463 115.698 114.463 115.411C114.463 115.125 112.37 114.893 109.789 114.893C107.208 114.893 105.115 115.125 105.115 115.411C105.115 115.698 107.208 115.93 109.789 115.93Z" fill="#F2F2F2"/>
<path d="M68.0185 54.9522C70.5998 54.9522 72.6923 54.7202 72.6923 54.4339C72.6923 54.1477 70.5998 53.9157 68.0185 53.9157C65.4373 53.9157 63.3448 54.1477 63.3448 54.4339C63.3448 54.7202 65.4373 54.9522 68.0185 54.9522Z" fill="#F2F2F2"/>
</g>
<defs>
<filter id="filter0_d_14_1018" x="0" y="0" width="178" height="150" filterUnits="userSpaceOnUse" color-interpolation-filters="sRGB">
<feFlood flood-opacity="0" result="BackgroundImageFix"/>
<feColorMatrix in="SourceAlpha" type="matrix" values="0 0 0 0 0 0 0 0 0 0 0 0 0 0 0 0 0 0 127 0" result="hardAlpha"/>
<feOffset dy="4"/>
<feGaussianBlur stdDeviation="2"/>
<feComposite in2="hardAlpha" operator="out"/>
<feColorMatrix type="matrix" values="0 0 0 0 0 0 0 0 0 0 0 0 0 0 0 0 0 0 0.25 0"/>
<feBlend mode="normal" in2="BackgroundImageFix" result="effect1_dropShadow_14_1018"/>
<feBlend mode="normal" in="SourceGraphic" in2="effect1_dropShadow_14_1018" result="shape"/>
</filter>
<clipPath id="clip0_14_1018">
<rect width="170" height="142" fill="white" transform="translate(4)"/>
</clipPath>
</defs>
</svg>
