<svg width="211" height="155" viewBox="0 0 211 155" fill="none" xmlns="http://www.w3.org/2000/svg">
<g clip-path="url(#clip0_14_893)" filter="url(#filter0_d_14_893)">
<path d="M206.707 145.873H4.29335C4.21555 145.873 4.14094 145.842 4.08592 145.787C4.03091 145.731 4 145.657 4 145.579C4 145.501 4.03091 145.426 4.08592 145.371C4.14094 145.316 4.21555 145.285 4.29335 145.285H206.707C206.784 145.285 206.859 145.316 206.914 145.371C206.969 145.426 207 145.501 207 145.579C207 145.657 206.969 145.731 206.914 145.787C206.859 145.842 206.784 145.873 206.707 145.873Z" fill="#CCCCCC"/>
<path d="M186.672 94.5859H67.5708C67.0651 94.5859 66.5801 94.7873 66.2225 95.1458C65.8649 95.5043 65.664 95.9905 65.664 96.4974C65.664 97.0044 65.8649 97.4906 66.2225 97.849C66.5801 98.2075 67.0651 98.4089 67.5708 98.4089H70.9443V144.137C70.9443 144.644 71.1452 145.13 71.5028 145.489C71.8604 145.847 72.3454 146.049 72.8511 146.049C73.3569 146.049 73.8419 145.847 74.1994 145.489C74.557 145.13 74.7579 144.644 74.7579 144.137L74.7869 98.4089H179.191V144.137C179.191 144.644 179.392 145.13 179.75 145.489C180.108 145.847 180.593 146.049 181.098 146.049C181.604 146.049 182.089 145.847 182.447 145.489C182.804 145.13 183.005 144.644 183.005 144.137V99.4168L183.56 98.4089H186.672C187.178 98.4089 187.663 98.2075 188.02 97.849C188.378 97.4906 188.579 97.0044 188.579 96.4974C188.579 95.9905 188.378 95.5043 188.02 95.1458C187.663 94.7873 187.178 94.5859 186.672 94.5859Z" fill="#CCCCCC"/>
<path d="M133.601 95.5862H97.5244C96.8258 95.5854 96.1561 95.3069 95.6621 94.8117C95.1682 94.3166 94.8903 93.6452 94.8896 92.9449V73.0335C94.8903 72.3332 95.1682 71.6619 95.6621 71.1667C96.1561 70.6715 96.8258 70.393 97.5244 70.3922H133.601C134.3 70.393 134.97 70.6715 135.464 71.1667C135.958 71.6619 136.235 72.3332 136.236 73.0335V92.9449C136.235 93.6452 135.958 94.3166 135.464 94.8117C134.97 95.3069 134.3 95.5854 133.601 95.5862Z" fill="#3F3D56"/>
<path d="M133.601 72.425H97.5246C97.3637 72.4254 97.2094 72.4896 97.0956 72.6037C96.9818 72.7178 96.9177 72.8724 96.9174 73.0338V92.9454C96.9178 93.1068 96.9818 93.2614 97.0956 93.3755C97.2094 93.4896 97.3637 93.5538 97.5246 93.5542H133.601C133.762 93.5538 133.916 93.4896 134.03 93.3755C134.144 93.2614 134.208 93.1068 134.208 92.9454V73.0338C134.208 72.8724 134.144 72.7178 134.03 72.6037C133.916 72.4896 133.762 72.4254 133.601 72.425Z" fill="white"/>
<path d="M118.64 86.5223C118.64 86.5223 114.321 85.5247 111.946 87.3536C109.57 89.1826 114.969 93.3394 114.969 93.3394L118.64 86.5223Z" fill="#2F2E41"/>
<path d="M115.774 84.6374C118.024 84.6374 119.848 82.809 119.848 80.5536C119.848 78.2982 118.024 76.4698 115.774 76.4698C113.525 76.4698 111.701 78.2982 111.701 80.5536C111.701 82.809 113.525 84.6374 115.774 84.6374Z" fill="#A0616A"/>
<path d="M112.624 74.8209C112.896 74.3587 113.29 73.9807 113.762 73.7287C114.235 73.4767 114.767 73.3605 115.302 73.393C115.86 73.4632 116.406 73.6162 116.92 73.847L119.583 74.8884C120.272 75.1578 121.027 75.4879 121.326 76.1661C121.603 76.7956 121.396 77.5226 121.186 78.178L120.19 81.2932C120.08 80.5881 119.89 79.8978 119.625 79.2353C119.356 78.5684 118.87 78.0125 118.245 77.6579C117.554 77.3022 116.738 77.3096 115.962 77.347C114.862 77.4001 113.666 77.5404 112.885 78.318C112.47 78.7596 112.189 79.3102 112.074 79.9058C111.961 80.4982 111.904 81.0999 111.904 81.7031C111.453 80.9259 111.073 80.1094 110.768 79.2636C110.518 78.6338 110.376 77.9662 110.347 77.289C110.321 76.6059 110.547 75.9371 110.982 75.4107C111.203 75.1535 111.491 74.9632 111.814 74.8613C112.137 74.7594 112.481 74.75 112.809 74.8341L112.624 74.8209Z" fill="#2F2E41"/>
<path d="M125.502 90.0635C125.463 89.9256 125.385 89.802 125.277 89.7084C125.169 89.6147 125.036 89.5552 124.894 89.5371C124.885 89.5306 124.875 89.5247 124.865 89.5195L118.784 86.1029C118.61 86.0053 118.405 85.9786 118.213 86.0284C118.02 86.0781 117.854 86.2005 117.748 86.3699L116.085 89.0696L113.58 86.5582L113.54 86.5182C113.412 86.3894 113.242 86.31 113.061 86.2941C112.88 86.2782 112.699 86.3268 112.55 86.4314L107.551 89.94C107.543 89.94 107.534 89.9429 107.525 89.9429C107.286 89.9829 107.067 90.1035 106.906 90.2847C106.744 90.466 106.649 90.6971 106.636 90.9398L106.507 93.5542H126.467L125.502 90.0635Z" fill="#088395"/>
<path d="M136.642 93.1481H132.791C132.791 93.0403 132.748 92.9369 132.672 92.8607C132.596 92.7845 132.493 92.7417 132.385 92.7417H131.169C131.062 92.7417 130.959 92.7845 130.883 92.8607C130.807 92.9369 130.764 93.0403 130.764 93.1481H129.548C129.548 93.0403 129.505 92.9369 129.429 92.8607C129.353 92.7845 129.25 92.7417 129.142 92.7417H127.926C127.819 92.7417 127.716 92.7845 127.64 92.8607C127.564 92.9369 127.521 93.0403 127.521 93.1481H126.305C126.305 93.0403 126.262 92.9369 126.186 92.8607C126.11 92.7845 126.007 92.7417 125.9 92.7417H124.683C124.576 92.7417 124.473 92.7845 124.397 92.8607C124.321 92.9369 124.278 93.0403 124.278 93.1481H123.062C123.062 93.0403 123.019 92.9369 122.943 92.8607C122.867 92.7845 122.764 92.7417 122.657 92.7417H121.441C121.333 92.7417 121.23 92.7845 121.154 92.8607C121.078 92.9369 121.035 93.0403 121.035 93.1481H119.819C119.819 93.0403 119.776 92.9369 119.7 92.8607C119.624 92.7845 119.521 92.7417 119.414 92.7417H118.198C118.09 92.7417 117.987 92.7845 117.911 92.8607C117.835 92.9369 117.792 93.0403 117.792 93.1481H116.576C116.576 93.0403 116.534 92.9369 116.458 92.8607C116.382 92.7845 116.278 92.7417 116.171 92.7417H114.955C114.847 92.7417 114.744 92.7845 114.668 92.8607C114.592 92.9369 114.549 93.0403 114.549 93.1481H113.333C113.333 93.0403 113.291 92.9369 113.215 92.8607C113.139 92.7845 113.036 92.7417 112.928 92.7417H111.712C111.604 92.7417 111.501 92.7845 111.425 92.8607C111.349 92.9369 111.307 93.0403 111.307 93.1481H110.091C110.091 93.0403 110.048 92.9369 109.972 92.8607C109.896 92.7845 109.793 92.7417 109.685 92.7417H108.469C108.362 92.7417 108.258 92.7845 108.182 92.8607C108.106 92.9369 108.064 93.0403 108.064 93.1481H106.848C106.848 93.0403 106.805 92.9369 106.729 92.8607C106.653 92.7845 106.55 92.7417 106.442 92.7417H105.226C105.119 92.7417 105.016 92.7845 104.94 92.8607C104.864 92.9369 104.821 93.0403 104.821 93.1481H103.605C103.605 93.0403 103.562 92.9369 103.486 92.8607C103.41 92.7845 103.307 92.7417 103.199 92.7417H101.983C101.876 92.7417 101.773 92.7845 101.697 92.8607C101.621 92.9369 101.578 93.0403 101.578 93.1481H100.362C100.362 93.0403 100.319 92.9369 100.243 92.8607C100.167 92.7845 100.064 92.7417 99.9566 92.7417H98.7405C98.633 92.7417 98.5298 92.7845 98.4538 92.8607C98.3778 92.9369 98.3351 93.0403 98.3351 93.1481H94.4842C94.162 93.1486 93.8532 93.2772 93.6255 93.5058C93.3979 93.7343 93.27 94.0441 93.27 94.3671C93.27 94.6901 93.3979 94.9999 93.6255 95.2285C93.8532 95.457 94.162 95.5857 94.4842 95.5862H136.642C136.964 95.5862 137.273 95.4577 137.502 95.2291C137.73 95.0005 137.858 94.6904 137.858 94.3671C137.858 94.0438 137.73 93.7337 137.502 93.5051C137.273 93.2765 136.964 93.1481 136.642 93.1481Z" fill="#3F3D56"/>
<path d="M88.2154 86.0686V94.1632H67.9851C67.4431 94.1821 66.9028 94.0914 66.3965 93.8965C65.8902 93.7016 65.4283 93.4065 65.0382 93.0289C64.6481 92.6512 64.3378 92.1986 64.1259 91.6981C63.914 91.1977 63.8048 90.6596 63.8048 90.1159C63.8048 89.5722 63.914 89.0341 64.1259 88.5337C64.3378 88.0332 64.6481 87.5806 65.0382 87.2029C65.4283 86.8252 65.8902 86.5302 66.3965 86.3353C66.9028 86.1404 67.4431 86.0497 67.9851 86.0686H88.2154Z" fill="#F2F2F2"/>
<path d="M88.7123 94.1009C88.7123 94.1835 88.6796 94.2627 88.6213 94.321C88.5631 94.3794 88.4841 94.4122 88.4017 94.4123H67.6248C66.4964 94.4123 65.4142 93.9629 64.6162 93.163C63.8183 92.3631 63.3701 91.2782 63.3701 90.147C63.3701 89.0158 63.8183 87.931 64.6162 87.1311C65.4142 86.3312 66.4964 85.8818 67.6248 85.8818H88.4017C88.4841 85.8818 88.5631 85.9146 88.6214 85.973C88.6796 86.0314 88.7123 86.1106 88.7123 86.1932C88.7123 86.2757 88.6796 86.3549 88.6214 86.4133C88.5631 86.4717 88.4841 86.5045 88.4017 86.5045H67.6248C66.6617 86.5054 65.7383 86.8895 65.0576 87.5725C64.3768 88.2555 63.9945 89.1815 63.9945 90.147C63.9945 91.1125 64.3768 92.0385 65.0576 92.7216C65.7383 93.4046 66.6617 93.7887 67.6248 93.7896H88.4017C88.4841 93.7896 88.5631 93.8224 88.6213 93.8808C88.6796 93.9392 88.7123 94.0184 88.7123 94.1009Z" fill="#3F3D56"/>
<path d="M88.2154 87.9366H66.4757C66.4675 87.9366 66.4594 87.935 66.4518 87.9319C66.4442 87.9288 66.4373 87.9242 66.4315 87.9185C66.4257 87.9127 66.4211 87.9058 66.4179 87.8982C66.4148 87.8906 66.4131 87.8825 66.4131 87.8743C66.4131 87.8661 66.4148 87.8579 66.4179 87.8504C66.4211 87.8428 66.4257 87.8359 66.4315 87.8301C66.4373 87.8243 66.4442 87.8197 66.4518 87.8166C66.4594 87.8135 66.4675 87.812 66.4757 87.812H88.2154C88.2318 87.8121 88.2475 87.8187 88.259 87.8304C88.2706 87.8421 88.2771 87.8578 88.2771 87.8743C88.2771 87.8907 88.2706 87.9065 88.259 87.9182C88.2475 87.9298 88.2318 87.9364 88.2154 87.9366Z" fill="#CCCCCC"/>
<path d="M88.2154 89.431H66.4757C66.4675 89.4311 66.4594 89.4295 66.4518 89.4264C66.4442 89.4233 66.4373 89.4188 66.4315 89.413C66.4257 89.4072 66.4211 89.4003 66.4179 89.3927C66.4148 89.3851 66.4131 89.377 66.4131 89.3688C66.4131 89.3606 66.4148 89.3524 66.4179 89.3448C66.4211 89.3373 66.4257 89.3304 66.4315 89.3246C66.4373 89.3188 66.4442 89.3142 66.4518 89.3111C66.4594 89.308 66.4675 89.3065 66.4757 89.3065H88.2154C88.2318 89.3066 88.2475 89.3132 88.259 89.3249C88.2706 89.3366 88.2771 89.3523 88.2771 89.3688C88.2771 89.3852 88.2706 89.401 88.259 89.4127C88.2475 89.4243 88.2318 89.4309 88.2154 89.431Z" fill="#CCCCCC"/>
<path d="M88.2154 90.9254H66.4757C66.4675 90.9255 66.4594 90.9239 66.4518 90.9208C66.4442 90.9177 66.4373 90.9131 66.4315 90.9073C66.4257 90.9016 66.4211 90.8947 66.4179 90.8871C66.4148 90.8795 66.4131 90.8714 66.4131 90.8632C66.4131 90.855 66.4148 90.8468 66.4179 90.8392C66.4211 90.8317 66.4257 90.8248 66.4315 90.819C66.4373 90.8132 66.4442 90.8086 66.4518 90.8055C66.4594 90.8024 66.4675 90.8008 66.4757 90.8009H88.2154C88.2318 90.801 88.2475 90.8076 88.259 90.8193C88.2706 90.831 88.2771 90.8467 88.2771 90.8632C88.2771 90.8796 88.2706 90.8954 88.259 90.907C88.2475 90.9187 88.2318 90.9253 88.2154 90.9254Z" fill="#CCCCCC"/>
<path d="M88.2154 92.4197H66.4757C66.4675 92.4198 66.4594 92.4182 66.4518 92.4151C66.4442 92.412 66.4373 92.4074 66.4315 92.4016C66.4257 92.3958 66.4211 92.3889 66.4179 92.3814C66.4148 92.3738 66.4131 92.3656 66.4131 92.3574C66.4131 92.3492 66.4148 92.3411 66.4179 92.3335C66.4211 92.3259 66.4257 92.319 66.4315 92.3133C66.4373 92.3075 66.4442 92.3029 66.4518 92.2998C66.4594 92.2967 66.4675 92.2951 66.4757 92.2952H88.2154C88.2318 92.2953 88.2475 92.3019 88.259 92.3136C88.2706 92.3252 88.2771 92.341 88.2771 92.3574C88.2771 92.3739 88.2706 92.3897 88.259 92.4013C88.2475 92.413 88.2318 92.4196 88.2154 92.4197Z" fill="#CCCCCC"/>
<path d="M84.4018 77.5405V85.6351H64.1716C63.6295 85.654 63.0893 85.5633 62.583 85.3684C62.0767 85.1735 61.6147 84.8785 61.2246 84.5008C60.8345 84.1231 60.5242 83.6705 60.3123 83.1701C60.1004 82.6696 59.9912 82.1315 59.9912 81.5878C59.9912 81.0441 60.1004 80.506 60.3123 80.0056C60.5242 79.5051 60.8345 79.0526 61.2246 78.6749C61.6147 78.2972 62.0767 78.0021 62.583 77.8072C63.0893 77.6123 63.6295 77.5216 64.1716 77.5405H84.4018Z" fill="#F2F2F2"/>
<path d="M84.8987 85.5728C84.8987 85.6554 84.866 85.7346 84.8077 85.793C84.7495 85.8513 84.6705 85.8841 84.5882 85.8842H63.8112C63.2525 85.8842 62.6992 85.7738 62.183 85.5595C61.6668 85.3452 61.1977 85.031 60.8027 84.6349C60.4076 84.2389 60.0942 83.7687 59.8803 83.2512C59.6665 82.7337 59.5565 82.1791 59.5565 81.619C59.5565 81.0589 59.6665 80.5042 59.8803 79.9867C60.0942 79.4693 60.4076 78.9991 60.8027 78.603C61.1977 78.207 61.6668 77.8928 62.183 77.6784C62.6992 77.4641 63.2525 77.3538 63.8112 77.3538H84.5882C84.6705 77.3538 84.7495 77.3866 84.8078 77.4449C84.866 77.5033 84.8987 77.5825 84.8987 77.6651C84.8987 77.7477 84.866 77.8268 84.8078 77.8852C84.7495 77.9436 84.6705 77.9764 84.5882 77.9764H63.8112C62.8481 77.9773 61.9247 78.3614 61.244 79.0445C60.5632 79.7275 60.1809 80.6535 60.1809 81.619C60.1809 82.5845 60.5632 83.5105 61.244 84.1935C61.9247 84.8765 62.8481 85.2606 63.8112 85.2615H84.5882C84.6705 85.2615 84.7495 85.2944 84.8077 85.3527C84.866 85.4111 84.8987 85.4903 84.8987 85.5728Z" fill="#3F3D56"/>
<path d="M84.4018 79.4085H62.6621C62.6539 79.4086 62.6458 79.407 62.6382 79.4039C62.6306 79.4008 62.6237 79.3962 62.6179 79.3904C62.6121 79.3847 62.6075 79.3778 62.6044 79.3702C62.6012 79.3626 62.5996 79.3545 62.5996 79.3463C62.5996 79.3381 62.6012 79.3299 62.6044 79.3223C62.6075 79.3148 62.6121 79.3079 62.6179 79.3021C62.6237 79.2963 62.6306 79.2917 62.6382 79.2886C62.6458 79.2855 62.6539 79.2839 62.6621 79.284H84.4018C84.4182 79.2841 84.4339 79.2907 84.4455 79.3024C84.457 79.3141 84.4635 79.3298 84.4635 79.3463C84.4635 79.3627 84.457 79.3785 84.4455 79.3901C84.4339 79.4018 84.4182 79.4084 84.4018 79.4085Z" fill="#CCCCCC"/>
<path d="M84.4018 80.9029H62.6621C62.6539 80.903 62.6458 80.9014 62.6382 80.8983C62.6306 80.8952 62.6237 80.8906 62.6179 80.8848C62.6121 80.879 62.6075 80.8722 62.6044 80.8646C62.6012 80.857 62.5996 80.8489 62.5996 80.8406C62.5996 80.8324 62.6012 80.8243 62.6044 80.8167C62.6075 80.8091 62.6121 80.8023 62.6179 80.7965C62.6237 80.7907 62.6306 80.7861 62.6382 80.783C62.6458 80.7799 62.6539 80.7783 62.6621 80.7784H84.4018C84.4182 80.7785 84.4339 80.7851 84.4455 80.7968C84.457 80.8084 84.4635 80.8242 84.4635 80.8406C84.4635 80.8571 84.457 80.8729 84.4455 80.8845C84.4339 80.8962 84.4182 80.9028 84.4018 80.9029Z" fill="#CCCCCC"/>
<path d="M84.4018 82.3972H62.6621C62.6539 82.3973 62.6458 82.3957 62.6382 82.3926C62.6306 82.3895 62.6237 82.3849 62.6179 82.3792C62.6121 82.3734 62.6075 82.3665 62.6044 82.3589C62.6012 82.3513 62.5996 82.3432 62.5996 82.335C62.5996 82.3268 62.6012 82.3186 62.6044 82.311C62.6075 82.3035 62.6121 82.2966 62.6179 82.2908C62.6237 82.285 62.6306 82.2804 62.6382 82.2773C62.6458 82.2742 62.6539 82.2727 62.6621 82.2727H84.4018C84.4182 82.2728 84.4339 82.2794 84.4455 82.2911C84.457 82.3028 84.4635 82.3185 84.4635 82.335C84.4635 82.3514 84.457 82.3672 84.4455 82.3788C84.4339 82.3905 84.4182 82.3971 84.4018 82.3972Z" fill="#CCCCCC"/>
<path d="M84.4018 83.8916H62.6621C62.6539 83.8917 62.6458 83.8901 62.6382 83.887C62.6306 83.8839 62.6237 83.8793 62.6179 83.8735C62.6121 83.8677 62.6075 83.8609 62.6044 83.8533C62.6012 83.8457 62.5996 83.8376 62.5996 83.8294C62.5996 83.8211 62.6012 83.813 62.6044 83.8054C62.6075 83.7978 62.6121 83.791 62.6179 83.7852C62.6237 83.7794 62.6306 83.7748 62.6382 83.7717C62.6458 83.7686 62.6539 83.767 62.6621 83.7671H84.4018C84.4182 83.7672 84.4339 83.7738 84.4455 83.7855C84.457 83.7971 84.4635 83.8129 84.4635 83.8294C84.4635 83.8458 84.457 83.8616 84.4455 83.8732C84.4339 83.8849 84.4182 83.8915 84.4018 83.8916Z" fill="#CCCCCC"/>
<path d="M107.936 122.935V115.877C107.936 115.565 107.812 115.266 107.592 115.045C107.372 114.825 107.074 114.701 106.762 114.701H80.0673C79.7561 114.701 79.4576 114.825 79.2375 115.045C79.0175 115.266 78.8939 115.565 78.8939 115.877V122.935H107.936Z" fill="#CCCCCC"/>
<path d="M107.936 125.582H78.8938V134.698H107.936V125.582Z" fill="#CCCCCC"/>
<path d="M78.8939 137.344V144.402C78.8939 144.714 79.0175 145.013 79.2375 145.234C79.4576 145.455 79.7561 145.579 80.0673 145.579H106.762C107.074 145.579 107.372 145.455 107.592 145.234C107.812 145.013 107.936 144.714 107.936 144.402V137.344H78.8939Z" fill="#CCCCCC"/>
<path d="M93.2681 119.994C93.7542 119.994 94.1482 119.599 94.1482 119.112C94.1482 118.625 93.7542 118.23 93.2681 118.23C92.7821 118.23 92.3881 118.625 92.3881 119.112C92.3881 119.599 92.7821 119.994 93.2681 119.994Z" fill="white"/>
<path d="M93.2681 131.757C93.7542 131.757 94.1482 131.362 94.1482 130.875C94.1482 130.388 93.7542 129.993 93.2681 129.993C92.7821 129.993 92.3881 130.388 92.3881 130.875C92.3881 131.362 92.7821 131.757 93.2681 131.757Z" fill="white"/>
<path d="M93.3153 143.271C93.8013 143.271 94.1954 142.876 94.1954 142.389C94.1954 141.902 93.8013 141.507 93.3153 141.507C92.8293 141.507 92.4352 141.902 92.4352 142.389C92.4352 142.876 92.8293 143.271 93.3153 143.271Z" fill="white"/>
<path d="M104.643 106.654V114.748H84.4129C83.8709 114.767 83.3306 114.676 82.8243 114.482C82.318 114.287 81.856 113.992 81.4659 113.614C81.0758 113.236 80.7656 112.784 80.5537 112.283C80.3418 111.783 80.2326 111.245 80.2326 110.701C80.2326 110.157 80.3418 109.619 80.5537 109.119C80.7656 108.618 81.0758 108.166 81.4659 107.788C81.856 107.41 82.318 107.115 82.8243 106.92C83.3306 106.725 83.8709 106.635 84.4129 106.654H104.643Z" fill="#F2F2F2"/>
<path d="M105.14 114.686C105.14 114.769 105.107 114.848 105.049 114.906C104.991 114.965 104.912 114.997 104.829 114.997H84.0526C83.4935 114.998 82.9399 114.888 82.4232 114.674C81.9066 114.46 81.4371 114.145 81.0417 113.749C80.6462 113.353 80.3325 112.883 80.1185 112.365C79.9044 111.847 79.7943 111.293 79.7943 110.732C79.7943 110.172 79.9044 109.617 80.1185 109.099C80.3325 108.581 80.6462 108.111 81.0417 107.715C81.4371 107.319 81.9066 107.005 82.4232 106.791C82.9399 106.576 83.4935 106.466 84.0526 106.467H104.829C104.912 106.467 104.991 106.5 105.049 106.558C105.107 106.616 105.14 106.696 105.14 106.778C105.14 106.861 105.107 106.94 105.049 106.998C104.991 107.057 104.912 107.09 104.829 107.09H84.0526C83.0894 107.09 82.166 107.475 81.4853 108.158C80.8046 108.841 80.4222 109.767 80.4222 110.732C80.4222 111.698 80.8046 112.624 81.4853 113.307C82.166 113.99 83.0894 114.374 84.0526 114.375H104.829C104.912 114.375 104.991 114.408 105.049 114.466C105.107 114.524 105.14 114.603 105.14 114.686Z" fill="#3F3D56"/>
<path d="M104.643 108.522H82.9035C82.8953 108.522 82.8871 108.52 82.8796 108.517C82.872 108.514 82.8651 108.509 82.8592 108.504C82.8534 108.498 82.8488 108.491 82.8457 108.483C82.8425 108.476 82.8409 108.468 82.8409 108.459C82.8409 108.451 82.8425 108.443 82.8457 108.435C82.8488 108.428 82.8534 108.421 82.8592 108.415C82.8651 108.409 82.872 108.405 82.8796 108.402C82.8871 108.399 82.8953 108.397 82.9035 108.397H104.643C104.66 108.397 104.675 108.404 104.687 108.415C104.698 108.427 104.705 108.443 104.705 108.459C104.705 108.476 104.698 108.492 104.687 108.503C104.675 108.515 104.66 108.522 104.643 108.522Z" fill="#CCCCCC"/>
<path d="M104.643 110.016H82.9035C82.8953 110.016 82.8871 110.015 82.8796 110.012C82.872 110.008 82.8651 110.004 82.8592 109.998C82.8534 109.992 82.8488 109.985 82.8457 109.978C82.8425 109.97 82.8409 109.962 82.8409 109.954C82.8409 109.946 82.8425 109.938 82.8457 109.93C82.8488 109.922 82.8534 109.915 82.8592 109.91C82.8651 109.904 82.872 109.899 82.8796 109.896C82.8871 109.893 82.8953 109.892 82.9035 109.892H104.643C104.66 109.892 104.675 109.898 104.687 109.91C104.698 109.922 104.705 109.937 104.705 109.954C104.705 109.97 104.698 109.986 104.687 109.998C104.675 110.009 104.66 110.016 104.643 110.016Z" fill="#CCCCCC"/>
<path d="M104.643 111.51H82.9035C82.8953 111.51 82.8871 111.509 82.8796 111.506C82.872 111.503 82.8651 111.498 82.8592 111.492C82.8534 111.487 82.8488 111.48 82.8457 111.472C82.8425 111.464 82.8409 111.456 82.8409 111.448C82.8409 111.44 82.8425 111.432 82.8457 111.424C82.8488 111.417 82.8534 111.41 82.8592 111.404C82.8651 111.398 82.872 111.394 82.8796 111.39C82.8871 111.387 82.8953 111.386 82.9035 111.386H104.643C104.66 111.386 104.675 111.393 104.687 111.404C104.698 111.416 104.705 111.432 104.705 111.448C104.705 111.465 104.698 111.48 104.687 111.492C104.675 111.504 104.66 111.51 104.643 111.51Z" fill="#CCCCCC"/>
<path d="M104.643 113.005H82.9035C82.8953 113.005 82.8871 113.003 82.8796 113C82.872 112.997 82.8651 112.992 82.8592 112.987C82.8534 112.981 82.8488 112.974 82.8457 112.966C82.8425 112.959 82.8409 112.951 82.8409 112.943C82.8409 112.934 82.8425 112.926 82.8457 112.919C82.8488 112.911 82.8534 112.904 82.8592 112.898C82.8651 112.893 82.872 112.888 82.8796 112.885C82.8871 112.882 82.8953 112.88 82.9035 112.88H104.643C104.66 112.88 104.675 112.887 104.687 112.899C104.698 112.91 104.705 112.926 104.705 112.943C104.705 112.959 104.698 112.975 104.687 112.986C104.675 112.998 104.66 113.005 104.643 113.005Z" fill="#CCCCCC"/>
<path d="M77.3705 53.8216V2.21185C77.3712 1.62544 77.6039 1.06323 78.0175 0.648574C78.4311 0.233917 78.992 0.000667026 79.5769 0H120.273C120.858 0.00067091 121.419 0.233922 121.833 0.648579C122.246 1.06323 122.479 1.62544 122.48 2.21185V53.8216C122.479 54.408 122.246 54.9702 121.833 55.3848C121.419 55.7995 120.858 56.0327 120.273 56.0334H79.5769C78.992 56.0327 78.4311 55.7995 78.0175 55.3848C77.6039 54.9702 77.3712 54.408 77.3705 53.8216ZM79.5769 0.491522C79.122 0.492033 78.6858 0.673446 78.364 0.995959C78.0423 1.31847 77.8613 1.75575 77.8608 2.21185V53.8216C77.8613 54.2777 78.0423 54.715 78.364 55.0375C78.6858 55.36 79.122 55.5414 79.5769 55.5419H120.273C120.728 55.5414 121.165 55.36 121.486 55.0375C121.808 54.715 121.989 54.2777 121.989 53.8216V2.21185C121.989 1.75575 121.808 1.31847 121.486 0.995959C121.165 0.673446 120.728 0.492034 120.273 0.491522H79.5769Z" fill="#E6E6E6"/>
<path d="M102.207 23.7016V13.1045C102.208 12.8113 102.324 12.5301 102.531 12.3228C102.738 12.1155 103.018 11.9989 103.31 11.9985H112.269C112.561 11.9989 112.842 12.1155 113.048 12.3228C113.255 12.5301 113.371 12.8113 113.372 13.1045V23.7016C113.371 23.9948 113.255 24.2759 113.048 24.4832C112.841 24.6905 112.561 24.8072 112.269 24.8075H103.31C103.018 24.8072 102.738 24.6905 102.531 24.4832C102.324 24.2759 102.208 23.9948 102.207 23.7016Z" fill="#088395"/>
<path d="M84.801 28.6168V18.0197C84.8013 17.7265 84.9176 17.4454 85.1245 17.238C85.3313 17.0307 85.6117 16.9141 85.9042 16.9138H94.8623C95.1548 16.9141 95.4352 17.0307 95.642 17.238C95.8489 17.4454 95.9652 17.7265 95.9655 18.0197V28.6168C95.9652 28.91 95.8489 29.1911 95.642 29.3984C95.4352 29.6058 95.1548 29.7224 94.8623 29.7227H85.9042C85.6117 29.7224 85.3313 29.6058 85.1245 29.3984C84.9176 29.1911 84.8013 28.91 84.801 28.6168Z" fill="#CCCCCC"/>
<path d="M98.775 43.6082V33.0111C98.7753 32.7179 98.8917 32.4368 99.0985 32.2294C99.3053 32.0221 99.5857 31.9055 99.8782 31.9052H108.836C109.129 31.9055 109.409 32.0221 109.616 32.2294C109.823 32.4368 109.939 32.7179 109.94 33.0111V43.6082C109.939 43.9014 109.823 44.1825 109.616 44.3898C109.409 44.5972 109.129 44.7138 108.836 44.7141H99.8782C99.5857 44.7138 99.3053 44.5972 99.0985 44.3898C98.8917 44.1825 98.7753 43.9014 98.775 43.6082Z" fill="#37B7C3"/>
<path d="M152.308 92.0573H143.091C143.004 92.0573 142.917 92.0774 142.839 92.1161L140.512 93.2836C140.436 93.3162 140.371 93.3707 140.325 93.4402C140.279 93.5098 140.254 93.5913 140.254 93.6747C140.254 93.7581 140.279 93.8397 140.325 93.9092C140.371 93.9788 140.436 94.0332 140.512 94.0658L142.839 95.2333C142.917 95.2721 143.004 95.2922 143.091 95.2921H152.308C152.435 95.2995 152.56 95.2564 152.656 95.1722C152.751 95.088 152.81 94.9694 152.819 94.8422V92.5073C152.81 92.38 152.751 92.2615 152.656 92.1773C152.56 92.093 152.435 92.05 152.308 92.0573Z" fill="#3F3D56"/>
<path d="M152.819 92.5073V94.8422C152.81 94.9694 152.751 95.088 152.656 95.1722C152.56 95.2564 152.435 95.2995 152.308 95.2921H150.472V92.0573H152.308C152.435 92.05 152.56 92.0931 152.656 92.1773C152.751 92.2615 152.81 92.3801 152.819 92.5073Z" fill="#088395"/>
<path d="M152.239 74.5894C152.656 74.4088 153.107 74.3187 153.562 74.3249C154.016 74.3311 154.465 74.4336 154.877 74.6256C155.29 74.8175 155.657 75.0947 155.955 75.4389C156.253 75.7831 156.475 76.1865 156.607 76.6228C156.648 76.7611 156.679 76.9021 156.701 77.0448L169.59 83.4521L172.573 81.4705L176.285 85.7537L171.73 89.4619C171.182 89.9044 170.507 90.158 169.804 90.1852C169.101 90.2124 168.408 90.0117 167.828 89.6128L154.751 80.5471C154.653 80.5884 154.554 80.6248 154.453 80.6559C154.018 80.7879 153.559 80.8262 153.108 80.7682C152.657 80.7103 152.224 80.5575 151.836 80.3198C151.447 80.0821 151.114 79.7649 150.857 79.389C150.599 79.0131 150.424 78.5869 150.343 78.1384C150.319 78.0083 150.303 77.8767 150.295 77.7445C150.259 77.0826 150.426 76.4253 150.773 75.8613C151.121 75.2972 151.632 74.8534 152.239 74.5894Z" fill="#FFB8B8"/>
<path d="M179.085 114.039H165.001C165.001 114.445 150.486 114.774 150.486 114.774C150.258 114.946 150.051 115.143 149.867 115.362C149.316 116.021 149.014 116.855 149.016 117.715V118.303C149.017 119.278 149.403 120.212 150.091 120.902C150.778 121.591 151.711 121.978 152.683 121.979H179.085C180.057 121.978 180.989 121.59 181.677 120.901C182.364 120.212 182.751 119.278 182.752 118.303V117.715C182.75 116.74 182.364 115.806 181.676 115.117C180.989 114.428 180.057 114.04 179.085 114.039Z" fill="#3F3D56"/>
<path d="M163.765 146.535H167.579V121.833H163.765V146.535Z" fill="#3F3D56"/>
<path d="M152.911 146.401C152.911 146.814 158.69 146.56 165.818 146.56C172.947 146.56 178.726 146.814 178.726 146.401C178.726 145.988 172.947 142.712 165.818 142.712C158.69 142.712 152.911 145.988 152.911 146.401Z" fill="#3F3D56"/>
<path d="M156.354 143.505L152.757 143.505L151.046 134.154L156.354 134.155L156.354 143.505Z" fill="#FFB8B8"/>
<path d="M157.271 147L145.674 147V146.853C145.674 146.258 145.791 145.67 146.018 145.121C146.245 144.572 146.577 144.073 146.996 143.653C147.416 143.233 147.913 142.9 148.461 142.672C149.008 142.445 149.595 142.328 150.188 142.328H150.188L157.271 142.328L157.271 147Z" fill="#2F2E41"/>
<path d="M150.975 137.707L143.805 121.589C143.206 120.231 143.14 118.696 143.619 117.291C144.099 115.886 145.089 114.713 146.392 114.007L161.943 105.647L169.04 105.042L175.586 104.446L175.633 104.526C175.694 104.628 177.101 107.065 176.15 109.737C175.428 111.764 173.551 113.347 170.57 114.443C163.614 117 155.577 119.185 152.445 120.006C152.307 120.042 152.177 120.106 152.066 120.195C151.954 120.284 151.862 120.396 151.797 120.524C151.731 120.649 151.692 120.787 151.682 120.929C151.672 121.071 151.691 121.213 151.739 121.347L158.4 136.349C158.47 136.539 158.495 136.743 158.473 136.944C158.452 137.146 158.384 137.34 158.277 137.511C158.169 137.682 158.023 137.826 157.85 137.932C157.678 138.038 157.484 138.103 157.282 138.122L152.305 138.485C152.263 138.489 152.221 138.491 152.179 138.491C151.924 138.491 151.675 138.417 151.461 138.278C151.247 138.138 151.078 137.94 150.975 137.707Z" fill="#2F2E41"/>
<path d="M158.114 143.505L154.517 143.505L152.806 134.154L158.114 134.155L158.114 143.505Z" fill="#FFB8B8"/>
<path d="M159.031 147L147.435 147V146.853C147.435 146.258 147.551 145.67 147.778 145.121C148.005 144.572 148.337 144.073 148.757 143.653C149.176 143.233 149.673 142.9 150.221 142.672C150.769 142.445 151.355 142.328 151.948 142.328H151.949L159.031 142.328L159.031 147Z" fill="#2F2E41"/>
<path d="M153.028 138.589L145.858 122.472C145.26 121.113 145.193 119.578 145.673 118.173C146.152 116.768 147.142 115.596 148.445 114.889L163.997 106.529L171.093 105.924L177.639 105.328L177.687 105.408C177.747 105.51 179.154 107.947 178.203 110.619C177.481 112.646 175.604 114.229 172.624 115.325C165.667 117.882 157.631 120.068 154.499 120.888C154.36 120.924 154.231 120.988 154.119 121.077C154.007 121.167 153.916 121.279 153.85 121.406C153.784 121.532 153.745 121.67 153.735 121.811C153.725 121.953 153.745 122.095 153.792 122.229L160.453 137.231C160.523 137.421 160.548 137.625 160.527 137.826C160.505 138.028 160.438 138.222 160.33 138.393C160.222 138.564 160.076 138.709 159.904 138.815C159.732 138.92 159.537 138.985 159.336 139.004L154.359 139.367C154.317 139.371 154.274 139.373 154.233 139.373C153.978 139.373 153.728 139.299 153.514 139.16C153.301 139.021 153.132 138.822 153.028 138.589Z" fill="#2F2E41"/>
<path d="M149.454 89.3523C146.441 85.3348 144.06 80.8789 142.392 76.1391C142.295 75.8555 142.302 75.5469 142.411 75.2679C142.52 74.989 142.725 74.758 142.988 74.6159L153.298 69.0781C153.465 68.9878 153.65 68.9369 153.839 68.9292C154.028 68.9215 154.217 68.9572 154.391 69.0336C154.567 69.1106 154.724 69.227 154.849 69.374C154.975 69.521 155.065 69.6946 155.113 69.8817C156.313 74.4491 158.568 78.6692 161.697 82.2006C161.826 82.3444 161.92 82.5157 161.973 82.7015C162.026 82.8873 162.036 83.0828 162.002 83.273C161.969 83.4602 161.894 83.6374 161.783 83.7912C161.672 83.945 161.527 84.0713 161.359 84.1605L151.049 89.6984C150.786 89.8394 150.481 89.8819 150.189 89.8186C149.896 89.7552 149.636 89.5899 149.454 89.3523Z" fill="#CCCCCC"/>
<path d="M150.158 88.8223C150.213 88.8917 150.291 88.9395 150.378 88.9574C150.465 88.9754 150.555 88.9625 150.634 88.9208L160.944 83.3828C160.994 83.3566 161.037 83.3192 161.07 83.2735C161.104 83.2277 161.126 83.1748 161.135 83.119C161.146 83.0601 161.143 82.9995 161.126 82.9419C161.11 82.8844 161.08 82.8315 161.04 82.7873C157.819 79.1519 155.497 74.8074 154.261 70.1055C154.247 70.0474 154.22 69.9934 154.181 69.9477C154.142 69.902 154.094 69.866 154.039 69.8423C153.987 69.8191 153.931 69.8083 153.875 69.8106C153.818 69.813 153.763 69.8284 153.713 69.8558L143.403 75.3936C143.325 75.4359 143.264 75.5042 143.231 75.5867C143.198 75.6693 143.195 75.7608 143.222 75.8456C144.86 80.5006 147.199 84.8768 150.158 88.8223Z" fill="white"/>
<path d="M183.706 87.875L175.631 90.9508L173.66 85.4615C173.398 84.7326 173.402 83.9344 173.67 83.2079C173.939 82.4815 174.455 81.8736 175.127 81.4916C175.807 81.1053 176.603 80.9755 177.37 81.1256C178.137 81.2758 178.826 81.696 179.311 82.3105L183.706 87.875Z" fill="#6C63FF"/>
<path d="M163.168 109.625C162.998 109.504 162.856 109.349 162.75 109.169C162.645 108.989 162.579 108.788 162.557 108.581C161.523 98.9032 162.243 91.3295 164.759 85.4272C165.202 84.4092 165.869 83.5051 166.711 82.7829C167.553 82.0607 168.547 81.5391 169.619 81.2574L176.146 80.9271L176.179 80.9435C177.652 81.6667 178.853 82.8464 179.605 84.3078C180.356 85.7691 180.618 87.4344 180.351 89.0565C178.251 94.6037 176.494 100.379 177.834 105.038C177.89 105.233 177.907 105.437 177.882 105.638C177.858 105.84 177.793 106.034 177.692 106.21C177.594 106.379 177.462 106.527 177.305 106.644C177.148 106.761 176.969 106.844 176.778 106.889L164.346 109.853C164.145 109.901 163.936 109.906 163.733 109.866C163.529 109.827 163.337 109.744 163.168 109.625Z" fill="#37B7C3"/>
<path d="M173.967 78.4833C177.947 78.4833 181.172 75.2496 181.172 71.2606C181.172 67.2716 177.947 64.0378 173.967 64.0378C169.988 64.0378 166.762 67.2716 166.762 71.2606C166.762 75.2496 169.988 78.4833 173.967 78.4833Z" fill="#FFB8B8"/>
<path d="M153.975 76.9812L148.359 79.466C148.146 79.5602 147.904 79.5657 147.686 79.4811C147.469 79.3966 147.293 79.229 147.199 79.0152L147.06 78.6998C146.966 78.4857 146.961 78.243 147.045 78.0249C147.129 77.8068 147.296 77.6311 147.51 77.5364L153.125 75.0516C153.338 74.9574 153.581 74.952 153.798 75.0365C154.016 75.121 154.191 75.2886 154.285 75.5024L154.424 75.8178C154.518 76.0319 154.524 76.2746 154.439 76.4927C154.355 76.7108 154.188 76.8865 153.975 76.9812Z" fill="#CCCCCC"/>
<path d="M156.028 80.8041L150.413 83.2889C150.199 83.3831 149.957 83.3886 149.74 83.3041C149.522 83.2196 149.347 83.052 149.252 82.8381L149.113 82.5227C149.019 82.3086 149.014 82.0659 149.098 81.8478C149.183 81.6297 149.35 81.454 149.563 81.3594L155.178 78.8746C155.392 78.7803 155.634 78.7749 155.852 78.8594C156.069 78.9439 156.244 79.1115 156.339 79.3254L156.478 79.6408C156.572 79.8549 156.577 80.0976 156.493 80.3157C156.409 80.5338 156.241 80.7094 156.028 80.8041Z" fill="#CCCCCC"/>
<path d="M160.358 95.7363L147.84 85.836C147.74 85.8712 147.639 85.9012 147.536 85.9259C147.094 86.0295 146.635 86.0388 146.19 85.9531C145.744 85.8674 145.321 85.6887 144.949 85.4285C144.574 85.1682 144.259 84.8306 144.025 84.4384C143.791 84.0462 143.644 83.6084 143.592 83.1544C143.508 82.4284 143.671 81.6954 144.055 81.0741C144.439 80.4529 145.021 79.9799 145.707 79.7319C146.135 79.578 146.59 79.5165 147.044 79.5514C147.497 79.5863 147.938 79.7168 148.337 79.9344C148.737 80.152 149.086 80.4517 149.362 80.814C149.638 81.1763 149.835 81.593 149.939 82.0367C149.971 82.1773 149.993 82.32 150.006 82.4637L162.468 89.6706L165.569 87.8808L169.005 92.3895L164.189 95.8299C163.626 96.2294 162.949 96.436 162.258 96.4191C161.568 96.4022 160.902 96.1628 160.358 95.7363Z" fill="#FFB8B8"/>
<path d="M170.532 93.7936L163.389 88.9245L166.746 84.1585C167.192 83.5257 167.846 83.0711 168.594 82.8753C169.342 82.6794 170.135 82.7548 170.832 83.0881C171.538 83.4253 172.1 84.0043 172.417 84.7207C172.734 85.437 172.785 86.2433 172.561 86.9942L170.532 93.7936Z" fill="#088395"/>
<path d="M171.326 70.1848C169.474 71.4554 167.042 72.7614 165.151 71.4084C163.909 70.52 163.518 68.8748 164.021 67.4311C164.927 64.8348 167.415 63.6919 169.795 62.8157C172.888 61.6768 176.256 60.7707 179.449 61.5864C182.643 62.402 185.465 65.5013 184.888 68.7538C184.425 71.3693 181.964 73.5456 182.313 76.179C182.665 78.8292 185.638 80.2242 188.263 80.6979C190.887 81.1715 193.825 81.3237 195.711 83.2137C198.117 85.6247 197.516 89.9342 195.252 92.4798C192.988 95.0254 189.571 96.1793 186.26 96.9637C181.873 98.003 177.128 98.5492 172.961 96.8244C168.795 95.0995 165.553 90.4564 166.76 86.1025C167.269 84.2635 168.47 82.7092 169.631 81.1961C170.792 79.683 171.967 78.1007 172.41 76.2442C172.779 74.6972 172.506 72.901 171.482 71.7406C171.296 71.5375 171.179 71.2804 171.148 71.0064C171.116 70.7324 171.172 70.4554 171.308 70.2154L171.326 70.1848Z" fill="#2F2E41"/>
<path d="M35.9966 105.278C34.14 105.932 32.1466 106.096 30.2085 105.753C28.2704 105.411 26.4529 104.574 24.931 103.323C21.0552 100.062 19.8401 94.6899 18.8513 89.7153C17.8765 84.8106 16.9017 79.9059 15.9268 75.0012L22.0496 79.2274C26.4527 82.2667 30.955 85.4033 34.0037 89.8055C37.0524 94.2077 38.3832 100.217 35.9336 104.981" fill="#E6E6E6"/>
<path d="M35.4732 123.092C36.0929 118.567 36.7302 113.984 36.2955 109.41C35.9094 105.349 34.6733 101.381 32.1566 98.1284C30.8208 96.4051 29.1953 94.9285 27.3533 93.7651C26.873 93.4612 26.4309 94.2243 26.9091 94.5269C30.0963 96.5462 32.5615 99.5279 33.9492 103.042C35.482 106.95 35.7281 111.21 35.464 115.362C35.3043 117.872 34.9657 120.367 34.6246 122.857C34.5977 122.97 34.6145 123.089 34.6715 123.19C34.7286 123.29 34.8217 123.366 34.9319 123.4C35.0444 123.43 35.1644 123.415 35.2657 123.358C35.367 123.3 35.4416 123.204 35.4732 123.092Z" fill="#F2F2F2"/>
<path d="M29.5044 115.085C28.7081 116.298 27.6136 117.285 26.3263 117.951C25.039 118.617 23.6022 118.94 22.1545 118.888C18.4339 118.711 15.332 116.107 12.5398 113.636L4.28098 106.326L9.74696 106.064C13.6778 105.875 17.71 105.7 21.454 106.915C25.1979 108.13 28.6508 111.054 29.3354 114.939" fill="#E6E6E6"/>
<path d="M37.2246 125.693C34.2418 120.402 30.7821 114.522 24.6002 112.643C22.8813 112.122 21.079 111.936 19.2902 112.093C18.7265 112.142 18.8672 113.013 19.43 112.965C22.4283 112.715 25.4209 113.509 27.9039 115.212C30.2932 116.842 32.1536 119.109 33.7282 121.513C34.6926 122.985 35.5566 124.52 36.4207 126.052C36.6968 126.542 37.5039 126.189 37.2246 125.693Z" fill="#F2F2F2"/>
<path d="M42.0037 131.262C41.9032 130.095 41.4851 128.977 40.795 128.032C40.1048 127.086 39.1691 126.348 38.0896 125.899V122.84H32.9721V125.995C31.9458 126.467 31.0625 127.203 30.4124 128.128C29.7622 129.053 29.3684 130.135 29.2711 131.262L28.0678 145.284H43.2071L42.0037 131.262Z" fill="#F2F2F2"/>
</g>
<defs>
<filter id="filter0_d_14_893" x="0" y="0" width="211" height="155" filterUnits="userSpaceOnUse" color-interpolation-filters="sRGB">
<feFlood flood-opacity="0" result="BackgroundImageFix"/>
<feColorMatrix in="SourceAlpha" type="matrix" values="0 0 0 0 0 0 0 0 0 0 0 0 0 0 0 0 0 0 127 0" result="hardAlpha"/>
<feOffset dy="4"/>
<feGaussianBlur stdDeviation="2"/>
<feComposite in2="hardAlpha" operator="out"/>
<feColorMatrix type="matrix" values="0 0 0 0 0 0 0 0 0 0 0 0 0 0 0 0 0 0 0.25 0"/>
<feBlend mode="normal" in2="BackgroundImageFix" result="effect1_dropShadow_14_893"/>
<feBlend mode="normal" in="SourceGraphic" in2="effect1_dropShadow_14_893" result="shape"/>
</filter>
<clipPath id="clip0_14_893">
<rect width="203" height="147" fill="white" transform="translate(4)"/>
</clipPath>
</defs>
</svg>
