<svg width="209" height="157" viewBox="0 0 209 157" fill="none" xmlns="http://www.w3.org/2000/svg">
<g clip-path="url(#clip0_14_959)" filter="url(#filter0_d_14_959)">
<path d="M146.671 109.283H38.4301C37.4657 109.282 36.5411 108.897 35.8591 108.213C35.1771 107.529 34.7935 106.602 34.7924 105.635V17.253C34.7935 16.2859 35.1771 15.3587 35.8591 14.6748C36.5411 13.991 37.4657 13.6063 38.4301 13.6052H146.671C147.636 13.6063 148.56 13.991 149.242 14.6748C149.924 15.3587 150.308 16.2859 150.309 17.253V105.635C150.308 106.602 149.924 107.529 149.242 108.213C148.56 108.897 147.636 109.282 146.671 109.283Z" fill="#E6E6E6"/>
<path d="M40.8844 16.2017C39.9554 16.2027 39.0647 16.5733 38.4078 17.2321C37.7509 17.8908 37.3814 18.784 37.3804 19.7156V103.175C37.3815 104.106 37.751 104.999 38.4079 105.658C39.0648 106.317 39.9554 106.687 40.8844 106.688H114.971C123.654 106.678 131.979 103.215 138.119 97.0583C144.258 90.9014 147.712 82.5537 147.722 73.8466V19.7156C147.721 18.784 147.351 17.8908 146.694 17.2321C146.037 16.5733 145.147 16.2027 144.218 16.2017L40.8844 16.2017Z" fill="white"/>
<path d="M126.933 53.7368H107.307C106.897 53.7364 106.505 53.5731 106.216 53.2829C105.926 52.9926 105.763 52.5991 105.763 52.1886V42.3928C105.763 41.9823 105.926 41.5888 106.216 41.2985C106.505 41.0083 106.897 40.845 107.307 40.8445H126.933C127.343 40.845 127.735 41.0083 128.025 41.2985C128.314 41.5888 128.477 41.9823 128.477 42.3928C129.692 45.8593 129.864 49.1531 128.477 52.1886C128.477 52.5991 128.314 52.9926 128.025 53.2829C127.735 53.5731 127.343 53.7364 126.933 53.7368Z" fill="#E6E6E6"/>
<path d="M124.608 52.7901H107.933C107.586 52.7897 107.252 52.651 107.006 52.4044C106.76 52.1578 106.622 51.8235 106.622 51.4747V43.1522C106.622 42.8034 106.76 42.4691 107.006 42.2225C107.252 41.9759 107.586 41.8372 107.933 41.8368H124.608C124.956 41.8372 125.29 41.9759 125.535 42.2225C125.781 42.4691 125.92 42.8034 125.92 43.1522C127.045 46.1162 127.226 48.9209 125.92 51.4747C125.92 51.8235 125.781 52.1578 125.535 52.4044C125.29 52.651 124.956 52.7897 124.608 52.7901Z" fill="white"/>
<path d="M123.709 58.8682H110.488C110.099 58.8687 109.726 58.7144 109.45 58.4391C109.175 58.1637 109.019 57.79 109.019 57.4C109.018 57.0099 109.172 56.6356 109.446 56.3593C109.721 56.0829 110.093 55.9272 110.482 55.9263H123.709C124.098 55.927 124.47 56.0823 124.745 56.3581C125.019 56.6339 125.173 57.0076 125.173 57.3972C125.173 57.7869 125.019 58.1606 124.745 58.4364C124.47 58.7121 124.098 58.8674 123.709 58.8682Z" fill="#E6E6E6"/>
<path d="M114.82 44.084C114.667 44.0846 114.522 44.1455 114.414 44.2534C114.307 44.3613 114.246 44.5075 114.246 44.66V50.895C114.246 50.9957 114.272 51.0946 114.322 51.1819C114.372 51.2692 114.445 51.3417 114.531 51.3923C114.618 51.4429 114.717 51.4697 114.817 51.4701C114.918 51.4705 115.016 51.4445 115.103 51.3946L120.591 48.2567C120.68 48.2063 120.753 48.1334 120.804 48.0454C120.855 47.9573 120.881 47.8573 120.881 47.7555C120.881 47.6538 120.854 47.5539 120.802 47.4661C120.751 47.3784 120.677 47.3058 120.589 47.256L115.101 44.1587C115.015 44.1099 114.918 44.0842 114.82 44.084Z" fill="#E6E6E6"/>
<path d="M194.886 137.071C194.583 136.685 194.172 136.399 193.706 136.249C193.24 136.1 192.739 136.094 192.269 136.232L192.167 136.263L191.245 139.87C191.107 139.333 190.812 138.119 190.626 136.931L190.61 136.832L190.518 136.873C189.555 137.3 188.649 137.847 187.823 138.502C186.358 139.68 185.168 141.163 184.333 142.849C183.498 144.535 183.04 146.382 182.989 148.264L182.987 148.333L182.986 148.377L183.108 148.333L185.726 147.395C186.885 147.497 188.053 147.339 189.143 146.931C190.234 146.523 191.219 145.876 192.029 145.038C193.087 143.919 193.812 142.48 194.514 141.087C194.719 140.682 194.93 140.263 195.145 139.861C195.385 139.423 195.488 138.923 195.442 138.426C195.396 137.929 195.202 137.457 194.886 137.071Z" fill="#F2F2F2"/>
<path d="M128.021 45.0714C128.074 45.3445 128.186 45.6027 128.348 45.8279C128.511 46.0531 128.721 46.2397 128.964 46.3746C129.206 46.5096 129.475 46.5895 129.752 46.6089C130.029 46.6283 130.306 46.5866 130.565 46.4868L138.391 55.6154L139.381 52.2455L131.623 43.8938C131.427 43.4687 131.082 43.1306 130.654 42.9434C130.226 42.7563 129.745 42.7331 129.301 42.8782C128.857 43.0234 128.481 43.3268 128.245 43.7311C128.01 44.1353 127.93 44.6122 128.021 45.0714Z" fill="#FFB8B8"/>
<path d="M159.559 146.151H156.97L155.738 136.134H159.56L159.559 146.151Z" fill="#FFB6B6"/>
<path d="M159.49 145.303L156.725 144.175L156.646 144.142L155.119 145.303C154.258 145.303 153.431 145.646 152.821 146.257C152.212 146.869 151.869 147.698 151.869 148.562V148.668H160.219V145.303H159.49Z" fill="#2F2E41"/>
<path d="M178.033 146.151H175.444L174.212 136.134H178.034L178.033 146.151Z" fill="#FFB6B6"/>
<path d="M177.964 145.303L175.199 144.175L175.12 144.142L173.593 145.303C172.731 145.303 171.905 145.646 171.295 146.257C170.686 146.869 170.343 147.698 170.343 148.562V148.668H178.693V145.303H177.964Z" fill="#2F2E41"/>
<path d="M171.921 86.3358C171.921 86.3358 175.17 89.7245 175.17 92.5088C175.17 95.2932 174.357 99.1162 175.17 99.953C175.982 100.79 176.997 101.808 175.779 103.029C174.561 104.251 173.951 104.861 174.764 105.676C175.576 106.49 175.17 120.74 175.17 120.74L179.433 139.876H174.062L167.252 120.74L165.425 104.861L159.516 120.129L160.169 140.041L154.554 139.876L152.229 118.704C152.229 118.704 155.68 98.5648 155.071 98.0486C154.462 97.5325 155.071 96.4905 155.071 96.4905L156.696 88.7787L171.921 86.3358Z" fill="#2F2E41"/>
<path d="M165.562 62.3098C165.562 62.3098 166.666 57.9455 161.578 56.6942C156.49 55.443 141.945 53.8354 141.945 53.8354L134.594 46.0137L132.103 49.641L140.343 59.9095L159.868 63.9311L165.562 62.3098Z" fill="#3F3D56"/>
<path d="M133.314 49.3736C133.542 49.077 133.721 48.7452 133.843 48.3911L134.897 45.7936L134.623 45.7821C134.244 45.7107 133.855 45.7203 133.48 45.8103C133.106 45.9004 132.754 46.0688 132.449 46.3045C132.144 46.5403 131.892 46.8381 131.709 47.1784C131.527 47.5187 131.418 47.8938 131.39 48.2792C131.355 48.6125 131.415 48.9489 131.562 49.2498C131.637 49.399 131.746 49.5282 131.881 49.627C132.015 49.7258 132.171 49.7913 132.335 49.8181C132.522 49.8281 132.708 49.7929 132.879 49.7156C133.049 49.6382 133.198 49.5209 133.314 49.3736Z" fill="#E6E6E6"/>
<path d="M155.659 89.8187L155.05 94.2459C155.05 94.2459 156.268 95.5577 156.877 95.3937C157.486 95.2297 159.719 94.2752 159.719 94.2752C159.719 94.2752 162.358 95.7216 163.779 95.8856C165.2 96.0496 172.712 95.0658 172.915 94.5738C173.118 94.0819 175.477 92.1563 175.477 92.1563L174.539 86.5393L155.659 89.8187Z" fill="#E6E6E6"/>
<path d="M175.438 74.3309C175.438 74.3309 174.923 78.5999 175.329 78.9928C175.735 79.3836 174.923 81.8571 174.111 83.4857C173.299 85.1143 174.72 85.3179 174.72 86.5393C174.72 87.7608 175.329 92.2395 175.329 92.2395C175.329 92.2395 169.035 92.6466 168.02 91.6287C167.005 90.6108 165.381 91.4252 163.148 93.6645C160.915 95.9038 156.065 94.0716 155.05 93.0537C154.035 92.0359 155.84 88.3715 156.449 87.661C157.058 86.9506 155.862 87.773 155.253 85.5214C154.644 83.2699 155.84 83.4857 156.855 82.4678C157.87 81.4499 156.855 79.6177 156.043 77.7856C155.231 75.9534 155.84 62.3138 155.84 59.0566C155.84 55.7993 160.306 55.3922 160.306 55.3922L162.074 53.163L163.373 51.5243L165.919 51.4225L165.986 51.4204L168.449 51.3207L169.644 52.7172L172.283 55.7994L175.329 56.4101C177.765 57.2244 177.156 62.3138 177.156 62.3138L175.438 74.3309Z" fill="#3F3D56"/>
<path d="M165.793 50.5394C168.676 50.5394 171.012 48.1965 171.012 45.3064C171.012 42.4163 168.676 40.0734 165.793 40.0734C162.911 40.0734 160.575 42.4163 160.575 45.3064C160.575 48.1965 162.911 50.5394 165.793 50.5394Z" fill="#FFB6B6"/>
<path d="M171.844 43.5461C170.409 42.6634 170.593 40.3554 169.21 39.5494C168.522 39.1521 167.749 38.9271 166.957 38.8938C166.164 38.8604 165.375 39.0195 164.657 39.3577C163.683 38.9398 162.516 39.2733 161.737 40.0279C160.957 40.7825 160.536 41.8957 160.411 43.0153C160.321 44.1402 160.402 45.2722 160.65 46.3728C160.727 45.9306 160.805 45.4884 160.882 45.0461L164.996 44.1445C164.632 44.4726 164.268 44.8008 163.904 45.1289C165.767 45.5542 167.722 45.2476 169.366 44.2722C171.157 45.0773 170.833 46.8854 169.261 49.285C169.87 50.3028 173.48 44.5518 171.844 43.5461Z" fill="#2F2E41"/>
<path d="M169.644 52.7172C169.633 52.7267 169.62 52.7355 169.608 52.7437C169.178 53.0009 168.685 53.1347 168.185 53.1305C167.529 53.1853 166.879 52.9807 166.372 52.5604C166.106 52.308 165.048 52.8414 164.354 53.1366C163.626 53.4392 162.809 53.4487 162.074 53.163L163.373 51.5243L165.515 51.0482H166.049L168.449 51.3207L169.644 52.7172Z" fill="#E6E6E6"/>
<path d="M204.683 148.918L132.043 149C132.002 149 131.96 148.992 131.921 148.976C131.883 148.96 131.847 148.937 131.818 148.908C131.788 148.878 131.764 148.843 131.748 148.804C131.732 148.766 131.724 148.724 131.723 148.682C131.723 148.641 131.731 148.599 131.747 148.56C131.763 148.521 131.786 148.486 131.815 148.456C131.845 148.427 131.88 148.403 131.918 148.387C131.957 148.37 131.998 148.362 132.04 148.362H132.043L204.683 148.279C204.768 148.28 204.848 148.314 204.907 148.373C204.967 148.433 205 148.514 205 148.598C205 148.683 204.967 148.764 204.907 148.824C204.848 148.883 204.768 148.917 204.683 148.918Z" fill="#CACACA"/>
<path d="M117.707 41.7337H117.172V3.39111H138.198V3.92721H117.707V41.7337Z" fill="#3F3D56"/>
<path d="M154.549 0H140.382C139.461 0 138.577 0.367132 137.925 1.02063C137.273 1.67413 136.907 2.56046 136.907 3.48464C136.907 4.40882 137.273 5.29516 137.925 5.94865C138.577 6.60215 139.461 6.96928 140.382 6.96928H154.549C155.471 6.96928 156.355 6.60215 157.007 5.94865C157.658 5.29516 158.024 4.40882 158.024 3.48464C158.024 2.56046 157.658 1.67413 157.007 1.02063C156.355 0.367132 155.471 0 154.549 0Z" fill="#088395"/>
<path d="M117.129 45.2414C118.893 45.2414 120.323 43.8078 120.323 42.0393C120.323 40.2708 118.893 38.8372 117.129 38.8372C115.366 38.8372 113.936 40.2708 113.936 42.0393C113.936 43.8078 115.366 45.2414 117.129 45.2414Z" fill="#088395"/>
<path d="M78.6507 54.0715L92.6591 50.8208L96.68 49.8877C97.183 49.771 96.9741 48.9945 96.4709 49.1113L82.4625 52.362L78.4415 53.295C77.9386 53.4118 78.1475 54.1883 78.6507 54.0715Z" fill="#F2F2F2"/>
<path d="M93.1162 45.6059L100.615 49.0651C100.871 49.1539 101.111 49.284 101.325 49.4504C101.532 49.6537 101.381 49.8493 101.212 50.0263C100.708 50.499 100.175 50.9402 99.6162 51.3475L96.4213 53.9522C96.0202 54.2792 96.5862 54.8497 96.9835 54.5258L99.7662 52.2572L101.158 51.1229C101.552 50.8015 102.032 50.4736 102.19 49.9616C102.523 48.8861 101.209 48.4584 100.479 48.1217L97.2137 46.6153L93.5246 44.9135C93.0596 44.699 92.6477 45.3897 93.1162 45.6059Z" fill="#F2F2F2"/>
<path d="M196.604 71.94C195.268 71.0317 193.645 70.6942 192.059 70.5797C190.255 70.4813 188.448 70.4834 186.645 70.5861C184.772 70.6605 182.903 70.7964 181.038 70.9938C179.175 71.1915 177.321 71.4505 175.474 71.7708C173.82 72.029 172.184 72.3881 170.574 72.8463C169.05 73.2692 167.614 73.9643 166.336 74.8982C165.215 75.7442 164.352 76.8888 163.846 78.2019C163.35 79.4334 163.266 80.7931 163.606 82.0768C163.787 82.7003 164.098 83.2786 164.517 83.7737C165.001 84.3169 165.575 84.7726 166.214 85.121C167.539 85.8799 169.041 86.3361 170.239 87.3077C170.555 87.5618 170.844 87.8491 171.099 88.1646C171.272 88.4087 171.512 88.5977 171.789 88.7092C172.052 88.8013 172.336 88.8133 172.606 88.7437C172.876 88.6741 173.119 88.526 173.304 88.318C173.545 87.9886 173.745 87.6317 173.901 87.2549L174.533 86.0315C174.575 85.9244 174.628 85.822 174.691 85.7256C174.739 85.669 174.654 85.7268 174.67 85.7119C174.679 85.7037 174.697 85.7039 174.707 85.6974C174.76 85.6713 174.814 85.6503 174.871 85.6346C175.456 85.411 176.043 85.1944 176.633 84.9847C178.812 84.2062 181.016 83.4886 183.256 82.9074C184.408 82.5975 185.577 82.3523 186.756 82.173C188.284 81.9548 189.835 81.9801 191.37 81.831C193.022 81.6704 194.727 81.335 196.144 80.4225C197.316 79.7085 198.219 78.6251 198.711 77.3419C198.924 76.7303 198.998 76.0784 198.925 75.4346C198.741 73.9778 197.792 72.7476 196.604 71.94Z" fill="#E6E6E6"/>
<path d="M193.87 72.7585C192.662 71.9377 191.196 71.6327 189.762 71.5292C188.133 71.4403 186.499 71.4422 184.87 71.535C183.178 71.6022 181.489 71.725 179.803 71.9034C178.12 72.082 176.444 72.3161 174.775 72.6056C173.28 72.8389 171.802 73.1635 170.347 73.5775C168.97 73.9597 167.672 74.5878 166.518 75.4317C165.504 76.1962 164.724 77.2306 164.268 78.4172C163.819 79.53 163.743 80.7588 164.05 81.9188C164.214 82.4823 164.495 83.0048 164.873 83.4523C165.311 83.9431 165.83 84.355 166.407 84.6698C167.605 85.3556 168.961 85.7678 170.045 86.6458C170.33 86.8755 170.591 87.1351 170.821 87.4202C170.978 87.6408 171.195 87.8116 171.445 87.9123C171.683 87.9956 171.94 88.0064 172.183 87.9435C172.427 87.8806 172.647 87.7468 172.815 87.5588C173.032 87.2612 173.212 86.9386 173.353 86.5981L173.925 85.4925C173.963 85.3958 174.011 85.3032 174.068 85.2161C174.11 85.1649 174.034 85.2172 174.049 85.2037C174.057 85.1963 174.073 85.1965 174.082 85.1906C174.13 85.167 174.179 85.1481 174.23 85.1339C174.758 84.9318 175.289 84.7361 175.823 84.5466C177.791 83.8431 179.783 83.1946 181.807 82.6694C182.848 82.3893 183.905 82.1677 184.971 82.0057C186.351 81.8085 187.753 81.8314 189.14 81.6966C190.633 81.5515 192.174 81.2484 193.454 80.4239C194.513 79.7786 195.329 78.7996 195.774 77.64C195.967 77.0873 196.033 76.4982 195.967 75.9164C195.801 74.6 194.943 73.4883 193.87 72.7585Z" fill="white"/>
<path d="M191.341 74.2407L171.667 77.8795C171.611 77.8902 171.553 77.8897 171.497 77.878C171.441 77.8664 171.388 77.8437 171.34 77.8113C171.293 77.779 171.253 77.7376 171.221 77.6895C171.19 77.6414 171.168 77.5876 171.158 77.5312C171.147 77.4747 171.148 77.4167 171.16 77.3605C171.172 77.3043 171.194 77.251 171.227 77.2037C171.259 77.1563 171.301 77.1158 171.349 77.0846C171.397 77.0533 171.45 77.0318 171.507 77.0214L171.509 77.021L191.183 73.3822C191.239 73.3718 191.297 73.3727 191.353 73.3846C191.409 73.3966 191.462 73.4195 191.509 73.452C191.556 73.4845 191.596 73.526 191.627 73.5741C191.659 73.6222 191.68 73.6759 191.69 73.7323C191.701 73.7887 191.7 73.8466 191.688 73.9026C191.676 73.9587 191.653 74.0118 191.621 74.059C191.588 74.1062 191.547 74.1466 191.499 74.1778C191.451 74.2089 191.397 74.2303 191.341 74.2407Z" fill="#E6E6E6"/>
<path d="M191.826 76.8755L172.152 80.5142C172.096 80.525 172.038 80.5245 171.982 80.5128C171.926 80.5011 171.872 80.4784 171.825 80.4461C171.778 80.4137 171.737 80.3723 171.706 80.3242C171.675 80.2761 171.653 80.2223 171.642 80.1659C171.632 80.1095 171.633 80.0515 171.644 79.9953C171.656 79.9391 171.679 79.8858 171.711 79.8384C171.744 79.7911 171.785 79.7506 171.833 79.7194C171.881 79.6881 171.935 79.6666 171.991 79.6562L171.994 79.6557L191.668 76.017C191.724 76.0066 191.782 76.0074 191.838 76.0194C191.894 76.0314 191.947 76.0542 191.994 76.0867C192.041 76.1193 192.081 76.1607 192.112 76.2088C192.143 76.2569 192.164 76.3107 192.175 76.3671C192.185 76.4235 192.184 76.4813 192.172 76.5374C192.161 76.5934 192.138 76.6466 192.105 76.6938C192.073 76.741 192.032 76.7814 191.984 76.8125C191.936 76.8437 191.882 76.8651 191.826 76.8755Z" fill="#E6E6E6"/>
<path d="M174.929 82.7249L172.636 83.149C172.523 83.1695 172.406 83.1441 172.311 83.0785C172.217 83.0128 172.152 82.9122 172.131 82.7986C172.11 82.685 172.135 82.5678 172.2 82.4725C172.265 82.3773 172.365 82.3118 172.479 82.2905L174.771 81.8664C174.885 81.8457 175.002 81.871 175.096 81.9367C175.191 82.0024 175.256 82.1031 175.277 82.2167C175.298 82.3303 175.273 82.4477 175.208 82.5429C175.143 82.6382 175.042 82.7037 174.929 82.7249Z" fill="#E6E6E6"/>
<path d="M173.268 93.6785C174.273 93.4927 174.937 92.5252 174.752 91.5176C174.567 90.5099 173.602 89.8437 172.597 90.0296C171.592 90.2154 170.928 91.1829 171.113 92.1906C171.299 93.1982 172.263 93.8644 173.268 93.6785Z" fill="#D1D3D4"/>
<path d="M71.452 53.2406H54.6475C53.8674 53.2396 53.1195 52.9285 52.5679 52.3753C52.0163 51.8222 51.706 51.0722 51.7051 50.2899V39.184C51.706 38.4017 52.0163 37.6517 52.5679 37.0986C53.1195 36.5454 53.8674 36.2343 54.6475 36.2333H71.452C72.2321 36.2343 72.9799 36.5454 73.5316 37.0986C74.0832 37.6517 74.3935 38.4017 74.3944 39.184V50.2899C74.3935 51.0722 74.0832 51.8222 73.5316 52.3753C72.9799 52.9285 72.2321 53.2396 71.452 53.2406Z" fill="#E6E6E6"/>
<path d="M69.6053 52.6423H54.9802C54.3012 52.6414 53.6503 52.3706 53.1702 51.8892C52.6902 51.4078 52.4201 50.7551 52.4193 50.0743V40.4086C52.4201 39.7277 52.6902 39.075 53.1702 38.5936C53.6503 38.1122 54.3012 37.8414 54.9802 37.8406H69.6053C70.2843 37.8414 70.9352 38.1122 71.4153 38.5936C71.8953 39.075 72.1654 39.7277 72.1662 40.4086V50.0743C72.1654 50.7551 71.8953 51.4078 71.4152 51.8892C70.9352 52.3706 70.2843 52.6414 69.6053 52.6423Z" fill="white"/>
<path d="M73.8189 63.2464H52.2566C52.1233 63.2461 51.9957 63.1928 51.9016 63.0982C51.8075 63.0037 51.7546 62.8755 51.7546 62.7419C51.7546 62.6083 51.8075 62.4801 51.9016 62.3856C51.9957 62.291 52.1233 62.2377 52.2566 62.2374H73.8189C73.9521 62.2377 74.0798 62.291 74.1739 62.3856C74.268 62.4801 74.3209 62.6083 74.3209 62.7419C74.3209 62.8755 74.268 63.0037 74.1739 63.0982C74.0798 63.1928 73.9521 63.2461 73.8189 63.2464Z" fill="#E6E6E6"/>
<path d="M73.8189 60.3634H52.2566C52.1233 60.3631 51.9957 60.3098 51.9016 60.2152C51.8075 60.1207 51.7546 59.9925 51.7546 59.8589C51.7546 59.7253 51.8075 59.5971 51.9016 59.5026C51.9957 59.408 52.1233 59.3547 52.2566 59.3544H73.8189C73.9521 59.3547 74.0798 59.408 74.1739 59.5026C74.268 59.5971 74.3209 59.7253 74.3209 59.8589C74.3209 59.9925 74.268 60.1207 74.1739 60.2152C74.0798 60.3098 73.9521 60.3631 73.8189 60.3634Z" fill="#E6E6E6"/>
<path d="M73.8189 66.1294H52.2566C52.1231 66.1294 51.9952 66.0763 51.9008 65.9816C51.8065 65.887 51.7534 65.7587 51.7534 65.6249C51.7534 65.4911 51.8065 65.3628 51.9008 65.2681C51.9952 65.1735 52.1231 65.1204 52.2566 65.1204H73.8189C73.9523 65.1204 74.0803 65.1735 74.1747 65.2681C74.269 65.3628 74.322 65.4911 74.322 65.6249C74.322 65.7587 74.269 65.887 74.1747 65.9816C74.0803 66.0763 73.9523 66.1294 73.8189 66.1294Z" fill="#E6E6E6"/>
<path d="M73.8189 69.0123H52.2566C52.1231 69.0123 51.9952 68.9592 51.9008 68.8646C51.8065 68.77 51.7534 68.6416 51.7534 68.5078C51.7534 68.374 51.8065 68.2457 51.9008 68.1511C51.9952 68.0565 52.1231 68.0033 52.2566 68.0033H73.8189C73.9523 68.0033 74.0803 68.0565 74.1747 68.1511C74.269 68.2457 74.322 68.374 74.322 68.5078C74.322 68.6416 74.269 68.77 74.1747 68.8646C74.0803 68.9592 73.9523 69.0123 73.8189 69.0123Z" fill="#E6E6E6"/>
<path d="M73.8189 71.8953H52.2566C52.1231 71.8953 51.9952 71.8422 51.9008 71.7476C51.8065 71.653 51.7534 71.5246 51.7534 71.3908C51.7534 71.257 51.8065 71.1287 51.9008 71.0341C51.9952 70.9395 52.1231 70.8863 52.2566 70.8863H73.8189C73.9523 70.8863 74.0803 70.9395 74.1747 71.0341C74.269 71.1287 74.322 71.257 74.322 71.3908C74.322 71.5246 74.269 71.653 74.1747 71.7476C74.0803 71.8422 73.9523 71.8953 73.8189 71.8953Z" fill="#E6E6E6"/>
<path d="M73.8189 74.7783H52.2566C52.1233 74.778 51.9957 74.7247 51.9016 74.6302C51.8075 74.5356 51.7546 74.4074 51.7546 74.2738C51.7546 74.1402 51.8075 74.0121 51.9016 73.9175C51.9957 73.8229 52.1233 73.7696 52.2566 73.7693H73.8189C73.9521 73.7696 74.0798 73.8229 74.1739 73.9175C74.268 74.0121 74.3209 74.1402 74.3209 74.2738C74.3209 74.4074 74.268 74.5356 74.1739 74.6302C74.0798 74.7247 73.9521 74.778 73.8189 74.7783Z" fill="#E6E6E6"/>
<path d="M61.9597 68.1665H62.4943V88.8178H23.8268V88.2817H61.9597V68.1665Z" fill="#3F3D56"/>
<path d="M7.47496 92.2089H21.6421C22.5637 92.2089 23.4476 91.8418 24.0993 91.1883C24.751 90.5348 25.1171 89.6484 25.1171 88.7243C25.1171 87.8001 24.751 86.9137 24.0993 86.2603C23.4476 85.6068 22.5637 85.2396 21.6421 85.2396H7.47496C6.55334 85.2396 5.66948 85.6068 5.01779 86.2603C4.36611 86.9137 4 87.8001 4 88.7243C4 89.6484 4.36611 90.5348 5.01779 91.1883C5.66948 91.8418 6.55334 92.2089 7.47496 92.2089Z" fill="#088395"/>
<path d="M62.5993 69.7227C64.3628 69.7227 65.7925 68.289 65.7925 66.5206C65.7925 64.7521 64.3628 63.3185 62.5993 63.3185C60.8357 63.3185 59.4061 64.7521 59.4061 66.5206C59.4061 68.289 60.8357 69.7227 62.5993 69.7227Z" fill="#088395"/>
<path d="M79.104 67.4104C83.7922 68.4096 82.5996 68.6046 87.2878 69.6037L91.3248 70.4641C91.8298 70.5717 91.9681 69.7795 91.4629 69.6718C86.7747 68.6727 87.9673 68.4777 83.2791 67.4785L79.2421 66.6181C78.7371 66.5105 78.5988 67.3027 79.104 67.4104Z" fill="#F2F2F2"/>
<path d="M89.9021 65.0723L95.2377 71.3883C95.4321 71.5772 95.5945 71.7969 95.7182 72.0384C95.82 72.3104 95.601 72.4237 95.3731 72.5125C94.7165 72.7267 94.0473 72.9003 93.3694 73.0324L89.3756 74.0371C88.8742 74.1632 89.1464 74.9203 89.643 74.7954L93.1215 73.9203L94.8607 73.4828C95.3535 73.3588 95.9266 73.2652 96.2861 72.8686C97.0415 72.0352 96.0318 71.0905 95.5125 70.4758L93.189 67.7253L90.5642 64.6183C90.2333 64.2266 89.5687 64.6777 89.9021 65.0723Z" fill="#F2F2F2"/>
<path d="M106.819 92.6042C110.921 92.6042 114.245 89.2703 114.245 85.1578C114.245 81.0452 110.921 77.7114 106.819 77.7114C102.718 77.7114 99.3937 81.0452 99.3937 85.1578C99.3937 89.2703 102.718 92.6042 106.819 92.6042Z" fill="#E6E6E6"/>
<path d="M106.096 91.6549C109.213 91.6549 111.741 89.1203 111.741 85.9938C111.741 82.8674 109.213 80.3328 106.096 80.3328C102.978 80.3328 100.45 82.8674 100.45 85.9938C100.45 89.1203 102.978 91.6549 106.096 91.6549Z" fill="white"/>
<path d="M105.083 89.8695C104.955 89.8695 104.828 89.8395 104.713 89.782C104.599 89.7245 104.499 89.641 104.422 89.5381L102.396 86.8294C102.331 86.7424 102.284 86.6434 102.257 86.538C102.23 86.4327 102.224 86.323 102.239 86.2154C102.254 86.1077 102.291 86.0041 102.346 85.9104C102.401 85.8168 102.474 85.735 102.561 85.6697C102.648 85.6044 102.746 85.5569 102.851 85.5298C102.956 85.5028 103.066 85.4967 103.173 85.5121C103.281 85.5274 103.384 85.5638 103.477 85.6192C103.571 85.6745 103.652 85.7478 103.717 85.8348L103.718 85.8355L105.043 87.6074L108.447 82.4872C108.507 82.3965 108.585 82.3186 108.675 82.258C108.765 82.1973 108.866 82.155 108.973 82.1336C109.079 82.1122 109.189 82.112 109.295 82.1331C109.402 82.1542 109.503 82.1962 109.593 82.2566C109.684 82.3169 109.761 82.3946 109.822 82.4851C109.882 82.5756 109.924 82.6771 109.945 82.7838C109.966 82.8906 109.966 83.0005 109.945 83.1073C109.924 83.2141 109.882 83.3156 109.822 83.4061L105.77 89.5006C105.697 89.6108 105.598 89.7018 105.483 89.766C105.367 89.8301 105.238 89.8655 105.106 89.8692C105.098 89.8693 105.09 89.8695 105.083 89.8695Z" fill="#E6E6E6"/>
<path d="M176.158 92.8288C176.397 92.6878 176.602 92.496 176.759 92.2668C176.917 92.0376 177.022 91.7767 177.067 91.5024C177.113 91.228 177.098 90.947 177.024 90.679C176.95 90.4111 176.818 90.1627 176.637 89.9514L182.6 79.5034L179.101 79.694L173.847 89.8187C173.513 90.1461 173.31 90.585 173.278 91.0521C173.245 91.5192 173.384 91.9822 173.669 92.3532C173.954 92.7242 174.365 92.9776 174.823 93.0652C175.282 93.1529 175.757 93.0688 176.158 92.8288Z" fill="#FFB8B8"/>
<path d="M169.442 56.2065C169.442 56.2065 175.757 54.1707 177.381 59.0566C179.005 63.9424 184.465 77.1748 184.465 77.1748L178.599 89.1858L175.96 86.3358L178.781 77.9891L170.66 65.7746L169.442 56.2065Z" fill="#3F3D56"/>
<path d="M178.8 87.9593C178.61 87.6368 178.369 87.3474 178.086 87.1025L176.071 85.1578L175.959 85.4085C175.753 85.7346 175.617 86.1009 175.562 86.4832C175.506 86.8656 175.532 87.2554 175.637 87.6271C175.742 87.9988 175.925 88.344 176.172 88.6401C176.42 88.9362 176.727 89.1765 177.074 89.3452C177.369 89.501 177.703 89.5701 178.036 89.5446C178.202 89.5302 178.362 89.4765 178.504 89.388C178.645 89.2995 178.763 89.1787 178.849 89.0356C178.928 88.8654 178.964 88.6788 178.956 88.4914C178.947 88.3041 178.894 88.1216 178.8 87.9593Z" fill="#E6E6E6"/>
<path d="M106.755 95.1757H106.221V115.827H124.306V115.291H106.755V95.1757Z" fill="#3F3D56"/>
<path d="M144.132 115.733C144.131 114.81 143.765 113.924 143.114 113.27C142.462 112.617 141.579 112.25 140.657 112.249H126.49C125.569 112.249 124.685 112.616 124.033 113.269C123.381 113.923 123.015 114.809 123.015 115.733C123.015 116.658 123.381 117.544 124.033 118.197C124.685 118.851 125.569 119.218 126.49 119.218H140.657C141.579 119.217 142.462 118.85 143.114 118.196C143.765 117.543 144.131 116.657 144.132 115.733Z" fill="#088395"/>
<path d="M106.116 96.7318C107.879 96.7318 109.309 95.2982 109.309 93.5297C109.309 91.7613 107.879 90.3276 106.116 90.3276C104.352 90.3276 102.922 91.7613 102.922 93.5297C102.922 95.2982 104.352 96.7318 106.116 96.7318Z" fill="#088395"/>
</g>
<defs>
<filter id="filter0_d_14_959" x="0" y="0" width="209" height="157" filterUnits="userSpaceOnUse" color-interpolation-filters="sRGB">
<feFlood flood-opacity="0" result="BackgroundImageFix"/>
<feColorMatrix in="SourceAlpha" type="matrix" values="0 0 0 0 0 0 0 0 0 0 0 0 0 0 0 0 0 0 127 0" result="hardAlpha"/>
<feOffset dy="4"/>
<feGaussianBlur stdDeviation="2"/>
<feComposite in2="hardAlpha" operator="out"/>
<feColorMatrix type="matrix" values="0 0 0 0 0 0 0 0 0 0 0 0 0 0 0 0 0 0 0.25 0"/>
<feBlend mode="normal" in2="BackgroundImageFix" result="effect1_dropShadow_14_959"/>
<feBlend mode="normal" in="SourceGraphic" in2="effect1_dropShadow_14_959" result="shape"/>
</filter>
<clipPath id="clip0_14_959">
<rect width="201" height="149" fill="white" transform="translate(4)"/>
</clipPath>
</defs>
</svg>
