<svg width="164" height="148" viewBox="0 0 164 148" fill="none" xmlns="http://www.w3.org/2000/svg">
<g clip-path="url(#clip0_14_1050)" filter="url(#filter0_d_14_1050)">
<path d="M4.9248 129.951C6.7034 134.047 10.6545 136.554 14.7002 138.591C15.265 138.876 15.829 139.152 16.3921 139.421C16.3958 139.422 16.3999 139.424 16.4037 139.426C16.4307 139.438 16.4579 139.451 16.4832 139.464C16.5994 139.52 16.7157 139.575 16.8309 139.629L16.776 139.664L16.6049 139.769C16.6642 139.735 16.7228 139.702 16.7821 139.668C16.7997 139.657 16.8183 139.648 16.8359 139.637C18.8777 138.474 20.9494 137.241 22.3867 135.38C23.8776 133.447 24.5284 130.641 23.3057 128.526C23.1451 128.249 22.9544 127.991 22.7369 127.757C22.6474 127.658 22.5526 127.565 22.4548 127.475C21.8599 126.913 21.1273 126.522 20.3323 126.34C19.5373 126.159 18.7087 126.194 17.9316 126.441C17.1544 126.689 16.4568 127.141 15.9106 127.75C15.3643 128.359 14.989 129.104 14.8234 129.908C14.2145 127.387 16.0273 124.966 17.8349 123.116C19.6436 121.268 21.7086 119.242 21.7642 116.647C21.7629 115.941 21.6132 115.244 21.325 114.601C21.0369 113.957 20.6167 113.383 20.0923 112.915C20.0603 112.885 20.0284 112.855 19.9957 112.827C18.7437 111.689 17.1114 111.069 15.425 111.09C12.2908 111.178 9.50425 113.226 7.54264 115.69C4.38526 119.654 2.90277 125.294 4.9248 129.951Z" fill="#F2F2F2"/>
<path d="M10.0042 123.607C9.53295 124.616 9.21034 125.688 9.04651 126.791C8.91468 127.774 8.92959 128.772 9.09076 129.751C9.43937 131.763 10.2628 133.661 11.4916 135.286C12.4186 136.52 13.4966 137.63 14.7002 138.591C15.265 138.876 15.829 139.152 16.3921 139.421C16.3958 139.422 16.3999 139.425 16.4036 139.426C16.4307 139.438 16.4579 139.451 16.4832 139.464C16.5994 139.52 16.7157 139.575 16.8309 139.629L16.776 139.664L16.6049 139.769C16.6642 139.735 16.7228 139.702 16.7821 139.668C16.7997 139.658 16.8183 139.648 16.8359 139.637C16.4328 138.067 16.4094 136.423 16.7676 134.841C17.1258 133.26 17.8551 131.789 18.8945 130.55C19.9388 129.327 21.2555 128.37 22.7369 127.757C22.6474 127.658 22.5526 127.565 22.4548 127.475C21.8838 127.721 21.3357 128.018 20.8167 128.361C18.9606 129.584 17.5448 131.376 16.7788 133.471C16.0941 135.373 15.9624 137.432 16.3992 139.406C16.2999 139.337 16.2003 139.266 16.1035 139.196C14.2307 137.905 12.6096 136.278 11.3213 134.396C10.2397 132.784 9.56841 130.928 9.36659 128.993C9.17072 126.88 9.74673 124.822 10.7285 122.966C11.8109 120.982 13.1578 119.155 14.7316 117.538C16.3134 115.876 18.0913 114.414 20.0256 113.186C20.0692 113.158 20.1004 113.115 20.1128 113.064C20.1252 113.013 20.1179 112.96 20.0923 112.915C20.0729 112.874 20.0382 112.842 19.9957 112.827C19.9741 112.82 19.9514 112.819 19.9293 112.823C19.9072 112.827 19.8862 112.836 19.868 112.849C19.6292 113.001 19.3923 113.154 19.1582 113.312C17.2082 114.629 15.4282 116.184 13.859 117.942C12.2995 119.626 11 121.535 10.0042 123.607Z" fill="white"/>
<path d="M73.3121 95.1188C72.0102 95.1188 70.7375 94.73 69.655 94.0017C68.5724 93.2733 67.7287 92.2381 67.2305 91.027C66.7322 89.8158 66.6019 88.4831 66.8559 87.1973C67.1099 85.9115 67.7368 84.7305 68.6574 83.8035C69.578 82.8765 70.751 82.2452 72.0279 81.9894C73.3048 81.7337 74.6284 81.8649 75.8312 82.3666C77.034 82.8683 78.0621 83.7179 78.7854 84.8079C79.5088 85.8979 79.8948 87.1794 79.8948 88.4904C79.8929 90.2478 79.1987 91.9325 77.9646 93.1752C76.7306 94.4178 75.0574 95.1168 73.3121 95.1188ZM73.3121 82.3758C72.1111 82.3758 70.937 82.7344 69.9384 83.4063C68.9398 84.0782 68.1615 85.0332 67.7019 86.1505C67.2423 87.2678 67.122 88.4972 67.3563 89.6833C67.5906 90.8694 68.169 91.9589 69.0182 92.8141C69.8675 93.6692 70.9495 94.2516 72.1274 94.4875C73.3054 94.7234 74.5264 94.6024 75.636 94.1396C76.7456 93.6768 77.6939 92.893 78.3612 91.8875C79.0285 90.882 79.3846 89.6998 79.3846 88.4904C79.3828 86.8693 78.7424 85.3151 77.604 84.1688C76.4656 83.0225 74.9221 82.3777 73.3121 82.3758Z" fill="#088395"/>
<path d="M72.6851 90.9209C72.5428 90.9211 72.4042 90.8747 72.2903 90.7888L72.2833 90.7834L70.7962 89.638C70.7273 89.5848 70.6695 89.5185 70.6261 89.4428C70.5827 89.3672 70.5545 89.2836 70.5431 89.197C70.5317 89.1104 70.5374 89.0224 70.5599 88.9379C70.5823 88.8535 70.621 88.7744 70.6738 88.705C70.7266 88.6357 70.7924 88.5775 70.8676 88.5338C70.9427 88.49 71.0257 88.4616 71.1117 88.4502C71.1978 88.4387 71.2852 88.4445 71.369 88.4671C71.4528 88.4896 71.5314 88.5286 71.6003 88.5818L72.5635 89.3255L74.8396 86.3355C74.8924 86.2662 74.9582 86.208 75.0333 86.1643C75.1084 86.1206 75.1914 86.0922 75.2774 86.0808C75.3634 86.0694 75.4508 86.0751 75.5346 86.0977C75.6184 86.1202 75.6969 86.1592 75.7658 86.2124L75.7518 86.2323L75.7663 86.2125C75.9052 86.32 75.9961 86.4786 76.019 86.6534C76.0419 86.8283 75.995 87.0052 75.8885 87.1452L73.2113 90.6606C73.1494 90.7416 73.0698 90.8071 72.9786 90.8521C72.8875 90.8971 72.7872 90.9204 72.6857 90.9201L72.6851 90.9209Z" fill="#088395"/>
<path d="M50.0138 55.269C53.4743 55.269 56.2796 52.4443 56.2796 48.9598C56.2796 45.4753 53.4743 42.6505 50.0138 42.6505C46.5533 42.6505 43.748 45.4753 43.748 48.9598C43.748 52.4443 46.5533 55.269 50.0138 55.269Z" fill="#A0616A"/>
<path d="M47.7515 86.2928C47.6726 86.2928 47.5933 86.2892 47.5137 86.2822C47.1196 86.2491 46.7369 86.1325 46.3907 85.9401C46.0445 85.7477 45.7426 85.4838 45.5048 85.1656C45.2669 84.8475 45.0985 84.4824 45.0106 84.0942C44.9226 83.706 44.9171 83.3034 44.9945 82.9129C45.0127 82.8222 45.0357 82.7325 45.0633 82.6443L35.8155 71.631C35.5142 71.2693 35.3367 70.8195 35.3094 70.3482C35.2821 69.8769 35.4064 69.4093 35.6639 69.0148L35.6806 68.9942L44.0048 60.7294C44.2311 60.5047 44.4994 60.3274 44.7942 60.2077C45.0889 60.088 45.4043 60.0283 45.7221 60.032C46.04 60.0358 46.3539 60.1028 46.6458 60.2294C46.9377 60.356 47.2018 60.5396 47.4229 60.7695C47.644 60.9994 47.8176 61.2712 47.9338 61.5691C48.05 61.867 48.1064 62.1851 48.0998 62.505C48.0932 62.825 48.0237 63.1405 47.8954 63.4332C47.767 63.726 47.5824 63.9903 47.352 64.2108L41.3231 69.9821L47.9233 80.6487C48.0483 80.6552 48.1727 80.6707 48.2955 80.6948C48.9782 80.832 49.5859 81.2198 50.0006 81.7829C50.4153 82.3459 50.6074 83.0441 50.5396 83.7417C50.4718 84.4394 50.149 85.0868 49.6337 85.5582C49.1185 86.0296 48.4477 86.2914 47.7515 86.2928Z" fill="#A0616A"/>
<path d="M60.3336 136.769L63.4613 136.769L64.9491 124.621L60.3331 124.622L60.3336 136.769Z" fill="#A0616A"/>
<path d="M59.5358 135.741L65.6952 135.74H65.6954C66.2109 135.74 66.7213 135.843 67.1976 136.041C67.6738 136.24 68.1065 136.531 68.471 136.898C68.8355 137.265 69.1247 137.701 69.3219 138.18C69.5192 138.66 69.6207 139.174 69.6207 139.693V139.821L59.536 139.822L59.5358 135.741Z" fill="#2F2E41"/>
<path d="M29.2466 132.415L31.934 134.026L39.3845 124.355L35.4183 121.977L29.2466 132.415Z" fill="#A0616A"/>
<path d="M29.0837 131.12L34.376 134.293C34.8189 134.559 35.2058 134.909 35.5141 135.325C35.8223 135.741 36.0462 136.215 36.1729 136.718C36.2996 137.221 36.3266 137.744 36.2525 138.258C36.1783 138.771 36.0044 139.265 35.7407 139.711L35.6754 139.822L27.0103 134.627L29.0837 131.12Z" fill="#2F2E41"/>
<path d="M64.1992 132.478H60.6969C60.4134 132.479 60.1397 132.373 59.9288 132.182C59.718 131.992 59.5849 131.729 59.5554 131.445L56.0246 98.0253C56.0157 97.9412 55.9796 97.8623 55.9218 97.801C55.8639 97.7396 55.7877 97.699 55.7047 97.6856C55.6218 97.6722 55.5367 97.6867 55.4628 97.7267C55.3888 97.7668 55.3299 97.8303 55.2953 97.9074L48.9257 112.109L37.6487 130.625C37.5028 130.863 37.2768 131.039 37.0122 131.122C36.7475 131.206 36.462 131.19 36.2077 131.079L31.7027 129.083C31.5537 129.017 31.4204 128.92 31.3116 128.798C31.2027 128.676 31.1209 128.532 31.0714 128.376C31.0219 128.22 31.006 128.055 31.0246 127.892C31.0433 127.73 31.096 127.573 31.1795 127.432L41.5462 109.953L44.7255 95.2269C43.7256 88.8405 48.0123 79.3457 48.0558 79.2504L48.0771 79.204L60.9668 74.0122L61.026 74.0852C68.6851 83.4995 67.4387 106.577 65.3435 131.419C65.3177 131.707 65.1861 131.976 64.9746 132.171C64.763 132.367 64.4865 132.477 64.1992 132.478Z" fill="#2F2E41"/>
<path d="M47.6013 80.76L47.5463 80.6436C47.5201 80.5879 44.8944 75.0118 42.8704 69.0522C42.4814 67.8997 42.3344 66.6784 42.4386 65.4657C42.5428 64.253 42.896 63.0753 43.4758 62.0073C44.0631 60.9281 44.8666 59.9836 45.8354 59.2335C46.8041 58.4833 47.9171 57.944 49.1037 57.6496C51.1636 57.1524 53.3324 57.4169 55.2149 58.395C57.0974 59.373 58.5683 60.9995 59.3597 62.9781C60.9651 67.0207 61.5351 70.7911 61.0536 74.1845L61.044 74.2525L60.9826 74.2821L47.6013 80.76Z" fill="#088395"/>
<path d="M69.6486 89.8065C69.3825 90.1417 69.0461 90.4135 68.6633 90.6022C68.2806 90.791 67.8611 90.8921 67.435 90.8983C67.0463 90.9037 66.6606 90.8299 66.3009 90.6814C65.9412 90.5329 65.6151 90.3128 65.3421 90.0341C65.069 89.7555 64.8547 89.4242 64.712 89.0602C64.5694 88.6961 64.5012 88.3067 64.5117 87.9154C64.5162 87.7723 64.5315 87.6298 64.5576 87.489L52.2195 64.3503C52.0581 64.0905 51.9494 63.801 51.8995 63.4987C51.8496 63.1964 51.8595 62.8871 51.9287 62.5886C51.998 62.2901 52.1251 62.0084 52.3029 61.7596C52.4806 61.5108 52.7055 61.2998 52.9645 61.1388C53.2235 60.9778 53.5115 60.87 53.8121 60.8215C54.1126 60.773 54.4197 60.7848 54.7157 60.8562C55.0117 60.9276 55.2908 61.0573 55.5368 61.2377C55.7829 61.4181 55.9911 61.6457 56.1495 61.9074L68.2028 85.2083C68.6576 85.3415 69.0727 85.5854 69.4116 85.9186C69.7504 86.2518 70.0024 86.6639 70.1454 87.1186C70.2883 87.5732 70.3178 88.0563 70.2312 88.5252C70.1445 88.994 69.9444 89.4341 69.6486 89.8065Z" fill="#A0616A"/>
<path d="M57.6109 45.3958H47.6615V41.0289C49.8453 40.1553 51.9822 39.4123 53.274 41.0289C54.4242 41.0289 55.5273 41.489 56.3406 42.3079C57.1539 43.1269 57.6109 44.2376 57.6109 45.3958Z" fill="#2F2E41"/>
<path d="M47.1107 40.2582C41.1628 40.2582 39.4979 47.7653 39.4979 52.0005C39.4979 54.3624 40.5587 55.2072 42.2257 55.4931L42.8144 52.3316L44.1932 55.6291C44.6615 55.6314 45.1534 55.6223 45.6633 55.6128L46.1308 54.6435L47.1733 55.5954C51.3487 55.6017 54.7233 56.2145 54.7233 52.0005C54.7233 47.7653 53.2633 40.2582 47.1107 40.2582Z" fill="#2F2E41"/>
<path d="M101.069 40.844C102.196 40.844 103.11 39.924 103.11 38.789C103.11 37.654 102.196 36.7339 101.069 36.7339C99.942 36.7339 99.0283 37.654 99.0283 38.789C99.0283 39.924 99.942 40.844 101.069 40.844Z" fill="#CCCCCC"/>
<path d="M153.417 63.7793C152.115 63.7793 150.843 63.3905 149.76 62.6622C148.678 61.9339 147.834 60.8987 147.336 59.6875C146.837 58.4763 146.707 57.1436 146.961 55.8578C147.215 54.572 147.842 53.391 148.763 52.464C149.683 51.537 150.856 50.9057 152.133 50.6499C153.41 50.3942 154.734 50.5254 155.936 51.0271C157.139 51.5288 158.167 52.3784 158.891 53.4684C159.614 54.5584 160 55.84 160 57.1509C159.998 58.9083 159.304 60.5931 158.07 61.8357C156.836 63.0783 155.163 63.7773 153.417 63.7793ZM153.417 51.0363C152.216 51.0363 151.042 51.395 150.044 52.0668C149.045 52.7387 148.267 53.6937 147.807 54.811C147.347 55.9283 147.227 57.1577 147.461 58.3438C147.696 59.5299 148.274 60.6195 149.123 61.4746C149.973 62.3297 151.055 62.9121 152.233 63.148C153.411 63.384 154.632 63.2629 155.741 62.8001C156.851 62.3373 157.799 61.5536 158.466 60.548C159.134 59.5425 159.49 58.3603 159.49 57.1509C159.488 55.5298 158.848 53.9756 157.709 52.8293C156.571 51.683 155.027 51.0382 153.417 51.0363Z" fill="#088395"/>
<path d="M152.79 59.5814C152.648 59.5817 152.509 59.5353 152.395 59.4493L152.388 59.444L150.901 58.2986C150.762 58.1912 150.671 58.0326 150.648 57.8576C150.625 57.6826 150.672 57.5057 150.779 57.3656C150.886 57.2256 151.043 57.1339 151.217 57.1108C151.391 57.0877 151.566 57.135 151.705 57.2424L152.669 57.9861L154.945 54.9961C154.998 54.9268 155.063 54.8686 155.138 54.8249C155.214 54.7812 155.297 54.7528 155.383 54.7414C155.469 54.7299 155.556 54.7357 155.64 54.7582C155.724 54.7808 155.802 54.8198 155.871 54.8729L155.857 54.8928L155.871 54.8731C156.01 54.9806 156.101 55.1391 156.124 55.314C156.147 55.4889 156.1 55.6658 155.994 55.8058L153.317 59.3211C153.255 59.4021 153.175 59.4677 153.084 59.5127C152.993 59.5577 152.892 59.5809 152.791 59.5806L152.79 59.5814Z" fill="#088395"/>
<path d="M152.602 39.0459H107.702C107.634 39.0459 107.57 39.0188 107.522 38.9706C107.474 38.9224 107.447 38.8571 107.447 38.789C107.447 38.7209 107.474 38.6555 107.522 38.6073C107.57 38.5592 107.634 38.5321 107.702 38.5321H152.602C152.669 38.5321 152.734 38.5592 152.782 38.6073C152.83 38.6555 152.857 38.7209 152.857 38.789C152.857 38.8571 152.83 38.9224 152.782 38.9706C152.734 39.0188 152.669 39.0459 152.602 39.0459Z" fill="#3F3D56"/>
<path d="M152.602 43.9266H107.702C107.634 43.9266 107.57 43.8995 107.522 43.8514C107.474 43.8032 107.447 43.7379 107.447 43.6697C107.447 43.6016 107.474 43.5363 107.522 43.4881C107.57 43.4399 107.634 43.4128 107.702 43.4128H152.602C152.669 43.4128 152.734 43.4399 152.782 43.4881C152.83 43.5363 152.857 43.6016 152.857 43.6697C152.857 43.7379 152.83 43.8032 152.782 43.8514C152.734 43.8995 152.669 43.9266 152.602 43.9266Z" fill="#3F3D56"/>
<path d="M152.602 48.8073H107.702C107.634 48.8073 107.57 48.7803 107.522 48.7321C107.474 48.6839 107.447 48.6186 107.447 48.5505C107.447 48.4823 107.474 48.417 107.522 48.3688C107.57 48.3206 107.634 48.2936 107.702 48.2936H152.602C152.669 48.2936 152.734 48.3206 152.782 48.3688C152.83 48.417 152.857 48.4823 152.857 48.5505C152.857 48.6186 152.83 48.6839 152.782 48.7321C152.734 48.7803 152.669 48.8073 152.602 48.8073Z" fill="#3F3D56"/>
<path d="M142.397 53.6881H107.702C107.634 53.6881 107.57 53.661 107.522 53.6128C107.474 53.5647 107.447 53.4993 107.447 53.4312C107.447 53.3631 107.474 53.2977 107.522 53.2496C107.57 53.2014 107.634 53.1743 107.702 53.1743H142.397C142.465 53.1743 142.53 53.2014 142.578 53.2496C142.626 53.2977 142.652 53.3631 142.652 53.4312C142.652 53.4993 142.626 53.5647 142.578 53.6128C142.53 53.661 142.465 53.6881 142.397 53.6881Z" fill="#3F3D56"/>
<path d="M142.142 58.5688H107.702C107.634 58.5688 107.57 58.5417 107.522 58.4936C107.474 58.4454 107.447 58.3801 107.447 58.3119C107.447 58.2438 107.474 58.1785 107.522 58.1303C107.57 58.0821 107.634 58.0551 107.702 58.0551H142.142C142.21 58.0551 142.275 58.0821 142.323 58.1303C142.37 58.1785 142.397 58.2438 142.397 58.3119C142.397 58.3801 142.37 58.4454 142.323 58.4936C142.275 58.5417 142.21 58.5688 142.142 58.5688Z" fill="#3F3D56"/>
<path d="M101.069 4.11009C102.196 4.11009 103.11 3.19002 103.11 2.05505C103.11 0.920075 102.196 0 101.069 0C99.942 0 99.0283 0.920075 99.0283 2.05505C99.0283 3.19002 99.942 4.11009 101.069 4.11009Z" fill="#CCCCCC"/>
<path d="M153.417 27.0453C152.115 27.0453 150.843 26.6566 149.76 25.9283C148.678 25.1999 147.834 24.1647 147.336 22.9536C146.837 21.7424 146.707 20.4096 146.961 19.1239C147.215 17.8381 147.842 16.657 148.763 15.73C149.683 14.803 150.856 14.1718 152.133 13.916C153.41 13.6602 154.734 13.7915 155.936 14.2932C157.139 14.7949 158.167 15.6444 158.891 16.7345C159.614 17.8245 160 19.106 160 20.417C159.998 22.1743 159.304 23.8591 158.07 25.1018C156.836 26.3444 155.163 27.0434 153.417 27.0453ZM153.417 14.3024C152.216 14.3024 151.042 14.661 150.044 15.3329C149.045 16.0048 148.267 16.9597 147.807 18.077C147.347 19.1943 147.227 20.4238 147.461 21.6099C147.696 22.796 148.274 23.8855 149.123 24.7407C149.973 25.5958 151.055 26.1782 152.233 26.4141C153.411 26.65 154.632 26.5289 155.741 26.0661C156.851 25.6033 157.799 24.8196 158.466 23.8141C159.134 22.8085 159.49 21.6263 159.49 20.417C159.488 18.7959 158.848 17.2417 157.709 16.0953C156.571 14.949 155.027 14.3042 153.417 14.3024Z" fill="#088395"/>
<path d="M152.79 22.8475C152.648 22.8477 152.509 22.8014 152.395 22.7154L152.388 22.71L150.901 21.5646C150.762 21.4572 150.671 21.2986 150.648 21.1237C150.625 20.9487 150.672 20.7717 150.779 20.6317C150.886 20.4916 151.043 20.3999 151.217 20.3768C151.391 20.3537 151.566 20.4011 151.705 20.5084L152.669 21.2522L154.945 18.2622C154.998 18.1928 155.063 18.1347 155.138 18.091C155.214 18.0473 155.297 18.0189 155.383 18.0074C155.469 17.996 155.556 18.0017 155.64 18.0243C155.724 18.0469 155.802 18.0858 155.871 18.139L155.857 18.1589L155.871 18.1391C156.01 18.2466 156.101 18.4052 156.124 18.5801C156.147 18.7549 156.1 18.9318 155.994 19.0719L153.317 22.5872C153.255 22.6682 153.175 22.7337 153.084 22.7787C152.993 22.8237 152.892 22.847 152.791 22.8467L152.79 22.8475Z" fill="#088395"/>
<path d="M152.602 2.31192H107.702C107.634 2.31192 107.57 2.28485 107.522 2.23668C107.474 2.18851 107.447 2.12317 107.447 2.05504C107.447 1.98691 107.474 1.92157 107.522 1.8734C107.57 1.82522 107.634 1.79816 107.702 1.79816H152.602C152.669 1.79816 152.734 1.82522 152.782 1.8734C152.83 1.92157 152.857 1.98691 152.857 2.05504C152.857 2.12317 152.83 2.18851 152.782 2.23668C152.734 2.28485 152.669 2.31192 152.602 2.31192Z" fill="#3F3D56"/>
<path d="M152.602 7.19266H107.702C107.634 7.19266 107.57 7.16559 107.522 7.11742C107.474 7.06924 107.447 7.0039 107.447 6.93577C107.447 6.86765 107.474 6.80231 107.522 6.75413C107.57 6.70596 107.634 6.67889 107.702 6.67889H152.602C152.669 6.67889 152.734 6.70596 152.782 6.75413C152.83 6.80231 152.857 6.86765 152.857 6.93577C152.857 7.0039 152.83 7.06924 152.782 7.11742C152.734 7.16559 152.669 7.19266 152.602 7.19266Z" fill="#3F3D56"/>
<path d="M152.602 12.0734H107.702C107.634 12.0734 107.57 12.0463 107.522 11.9982C107.474 11.95 107.447 11.8846 107.447 11.8165C107.447 11.7484 107.474 11.683 107.522 11.6349C107.57 11.5867 107.634 11.5596 107.702 11.5596H152.602C152.669 11.5596 152.734 11.5867 152.782 11.6349C152.83 11.683 152.857 11.7484 152.857 11.8165C152.857 11.8846 152.83 11.95 152.782 11.9982C152.734 12.0463 152.669 12.0734 152.602 12.0734Z" fill="#3F3D56"/>
<path d="M142.397 16.9541H107.702C107.634 16.9541 107.57 16.9271 107.522 16.8789C107.474 16.8307 107.447 16.7654 107.447 16.6972C107.447 16.6291 107.474 16.5638 107.522 16.5156C107.57 16.4674 107.634 16.4404 107.702 16.4404H142.397C142.465 16.4404 142.53 16.4674 142.578 16.5156C142.626 16.5638 142.652 16.6291 142.652 16.6972C142.652 16.7654 142.626 16.8307 142.578 16.8789C142.53 16.9271 142.465 16.9541 142.397 16.9541Z" fill="#3F3D56"/>
<path d="M142.142 21.8349H107.702C107.634 21.8349 107.57 21.8078 107.522 21.7596C107.474 21.7115 107.447 21.6461 107.447 21.578C107.447 21.5099 107.474 21.4445 107.522 21.3963C107.57 21.3482 107.634 21.3211 107.702 21.3211H142.142C142.21 21.3211 142.275 21.3482 142.323 21.3963C142.37 21.4445 142.397 21.5099 142.397 21.578C142.397 21.6461 142.37 21.7115 142.323 21.7596C142.275 21.8078 142.21 21.8349 142.142 21.8349Z" fill="#3F3D56"/>
<path d="M101.069 77.3211C102.196 77.3211 103.11 76.401 103.11 75.266C103.11 74.1311 102.196 73.211 101.069 73.211C99.942 73.211 99.0283 74.1311 99.0283 75.266C99.0283 76.401 99.942 77.3211 101.069 77.3211Z" fill="#CCCCCC"/>
<path d="M153.417 100.256C152.115 100.256 150.843 99.8676 149.76 99.1393C148.678 98.4109 147.834 97.3757 147.336 96.1645C146.837 94.9534 146.707 93.6206 146.961 92.3349C147.215 91.0491 147.842 89.868 148.763 88.941C149.683 88.0141 150.856 87.3828 152.133 87.127C153.41 86.8712 154.734 87.0025 155.936 87.5042C157.139 88.0059 158.167 88.8554 158.891 89.9455C159.614 91.0355 160 92.317 160 93.628C159.998 95.3853 159.304 97.0701 158.07 98.3128C156.836 99.5554 155.163 100.254 153.417 100.256ZM153.417 87.5134C152.216 87.5134 151.042 87.872 150.044 88.5439C149.045 89.2158 148.267 90.1707 147.807 91.288C147.347 92.4053 147.227 93.6348 147.461 94.8209C147.696 96.007 148.274 97.0965 149.123 97.9517C149.973 98.8068 151.055 99.3891 152.233 99.6251C153.411 99.861 154.632 99.7399 155.741 99.2771C156.851 98.8143 157.799 98.0306 158.466 97.0251C159.134 96.0195 159.49 94.8373 159.49 93.628C159.488 92.0069 158.848 90.4527 157.709 89.3063C156.571 88.16 155.027 87.5152 153.417 87.5134Z" fill="#E6E6E6"/>
<path d="M152.79 96.0585C152.648 96.0587 152.509 96.0123 152.395 95.9263L152.388 95.921L150.901 94.7756C150.832 94.7224 150.775 94.6561 150.731 94.5804C150.688 94.5048 150.66 94.4212 150.648 94.3346C150.637 94.248 150.643 94.1599 150.665 94.0755C150.687 93.9911 150.726 93.912 150.779 93.8426C150.832 93.7733 150.898 93.7151 150.973 93.6713C151.048 93.6276 151.131 93.5992 151.217 93.5878C151.303 93.5763 151.39 93.5821 151.474 93.6046C151.558 93.6272 151.637 93.6662 151.705 93.7194L152.669 94.4631L154.945 91.4731C154.998 91.4038 155.063 91.3456 155.138 91.3019C155.214 91.2582 155.297 91.2298 155.383 91.2184C155.469 91.2069 155.556 91.2127 155.64 91.2352C155.724 91.2578 155.802 91.2968 155.871 91.3499L155.857 91.3698L155.871 91.3501C156.01 91.4576 156.101 91.6161 156.124 91.791C156.147 91.9659 156.1 92.1427 155.994 92.2828L153.316 95.7982C153.255 95.8791 153.175 95.9447 153.084 95.9897C152.993 96.0347 152.892 96.0579 152.791 96.0577L152.79 96.0585Z" fill="#E6E6E6"/>
<path d="M152.602 75.5229H107.702C107.634 75.5229 107.57 75.4958 107.522 75.4477C107.474 75.3995 107.447 75.3342 107.447 75.266C107.447 75.1979 107.474 75.1326 107.522 75.0844C107.57 75.0362 107.634 75.0092 107.702 75.0092H152.602C152.669 75.0092 152.734 75.0362 152.782 75.0844C152.83 75.1326 152.857 75.1979 152.857 75.266C152.857 75.3342 152.83 75.3995 152.782 75.4477C152.734 75.4958 152.669 75.5229 152.602 75.5229Z" fill="#3F3D56"/>
<path d="M152.602 80.4037H107.702C107.634 80.4037 107.57 80.3766 107.522 80.3284C107.474 80.2802 107.447 80.2149 107.447 80.1468C107.447 80.0786 107.474 80.0133 107.522 79.9651C107.57 79.917 107.634 79.8899 107.702 79.8899H152.602C152.669 79.8899 152.734 79.917 152.782 79.9651C152.83 80.0133 152.857 80.0786 152.857 80.1468C152.857 80.2149 152.83 80.2802 152.782 80.3284C152.734 80.3766 152.669 80.4037 152.602 80.4037Z" fill="#3F3D56"/>
<path d="M152.602 85.2844H107.702C107.634 85.2844 107.57 85.2573 107.522 85.2091C107.474 85.161 107.447 85.0956 107.447 85.0275C107.447 84.9594 107.474 84.894 107.522 84.8459C107.57 84.7977 107.634 84.7706 107.702 84.7706H152.602C152.669 84.7706 152.734 84.7977 152.782 84.8459C152.83 84.894 152.857 84.9594 152.857 85.0275C152.857 85.0956 152.83 85.161 152.782 85.2091C152.734 85.2573 152.669 85.2844 152.602 85.2844Z" fill="#3F3D56"/>
<path d="M142.397 90.1651H107.702C107.634 90.1651 107.57 90.1381 107.522 90.0899C107.474 90.0417 107.447 89.9764 107.447 89.9082C107.447 89.8401 107.474 89.7748 107.522 89.7266C107.57 89.6784 107.634 89.6514 107.702 89.6514H142.397C142.465 89.6514 142.53 89.6784 142.578 89.7266C142.626 89.7748 142.652 89.8401 142.652 89.9082C142.652 89.9764 142.626 90.0417 142.578 90.0899C142.53 90.1381 142.465 90.1651 142.397 90.1651Z" fill="#3F3D56"/>
<path d="M142.142 95.0459H107.702C107.634 95.0459 107.57 95.0188 107.522 94.9706C107.474 94.9224 107.447 94.8571 107.447 94.789C107.447 94.7209 107.474 94.6555 107.522 94.6073C107.57 94.5592 107.634 94.5321 107.702 94.5321H142.142C142.21 94.5321 142.275 94.5592 142.323 94.6073C142.37 94.6555 142.397 94.7209 142.397 94.789C142.397 94.8571 142.37 94.9224 142.323 94.9706C142.275 95.0188 142.21 95.0459 142.142 95.0459Z" fill="#3F3D56"/>
<path d="M102.541 140H5.34288C5.27522 140 5.21034 139.973 5.16249 139.925C5.11465 139.877 5.08777 139.811 5.08777 139.743C5.08777 139.675 5.11465 139.61 5.16249 139.561C5.21034 139.513 5.27522 139.486 5.34288 139.486H102.541C102.608 139.486 102.673 139.513 102.721 139.561C102.769 139.61 102.796 139.675 102.796 139.743C102.796 139.811 102.769 139.877 102.721 139.925C102.673 139.973 102.608 140 102.541 140Z" fill="#3F3D56"/>
</g>
<defs>
<filter id="filter0_d_14_1050" x="0" y="0" width="164" height="148" filterUnits="userSpaceOnUse" color-interpolation-filters="sRGB">
<feFlood flood-opacity="0" result="BackgroundImageFix"/>
<feColorMatrix in="SourceAlpha" type="matrix" values="0 0 0 0 0 0 0 0 0 0 0 0 0 0 0 0 0 0 127 0" result="hardAlpha"/>
<feOffset dy="4"/>
<feGaussianBlur stdDeviation="2"/>
<feComposite in2="hardAlpha" operator="out"/>
<feColorMatrix type="matrix" values="0 0 0 0 0 0 0 0 0 0 0 0 0 0 0 0 0 0 0.25 0"/>
<feBlend mode="normal" in2="BackgroundImageFix" result="effect1_dropShadow_14_1050"/>
<feBlend mode="normal" in="SourceGraphic" in2="effect1_dropShadow_14_1050" result="shape"/>
</filter>
<clipPath id="clip0_14_1050">
<rect width="156" height="140" fill="white" transform="translate(4)"/>
</clipPath>
</defs>
</svg>
