<svg xmlns="http://www.w3.org/2000/svg" xmlns:xlink="http://www.w3.org/1999/xlink" width="64" zoomAndPan="magnify" viewBox="0 0 48 47.25" height="63" preserveAspectRatio="xMidYMid meet" version="1.0"><defs><clipPath id="76c38ebe6f"><path d="M 0.375 5.097656 L 46.882812 5.097656 L 46.882812 42 L 0.375 42 Z M 0.375 5.097656 " clip-rule="nonzero"/></clipPath><clipPath id="9a11cbd1ef"><path d="M 10.226562 14 L 37.035156 14 L 37.035156 33.425781 L 10.226562 33.425781 Z M 10.226562 14 " clip-rule="nonzero"/></clipPath><clipPath id="1321347598"><path d="M 1.304688 21.257812 L 8.417969 21.257812 L 8.417969 28.917969 L 1.304688 28.917969 Z M 1.304688 21.257812 " clip-rule="nonzero"/></clipPath><clipPath id="296c90deae"><path d="M 2 26 L 7 26 L 7 28.917969 L 2 28.917969 Z M 2 26 " clip-rule="nonzero"/></clipPath><clipPath id="826e4bc7fc"><path d="M 39.011719 21.257812 L 46.398438 21.257812 L 46.398438 28.917969 L 39.011719 28.917969 Z M 39.011719 21.257812 " clip-rule="nonzero"/></clipPath><clipPath id="d7d00454cb"><path d="M 40 24 L 46 24 L 46 28.917969 L 40 28.917969 Z M 40 24 " clip-rule="nonzero"/></clipPath><clipPath id="c74619ef8c"><path d="M 41 26 L 44 26 L 44 28.917969 L 41 28.917969 Z M 41 26 " clip-rule="nonzero"/></clipPath><clipPath id="6e11691c1c"><path d="M 19.777344 38.136719 L 27.4375 38.136719 L 27.4375 45.796875 L 19.777344 45.796875 Z M 19.777344 38.136719 " clip-rule="nonzero"/></clipPath><clipPath id="06c69f5c32"><path d="M 20 43 L 27 43 L 27 45.796875 L 20 45.796875 Z M 20 43 " clip-rule="nonzero"/></clipPath><clipPath id="503b7dd237"><path d="M 23 44 L 24 44 L 24 45.796875 L 23 45.796875 Z M 23 44 " clip-rule="nonzero"/></clipPath><clipPath id="424a6b62cb"><path d="M 23 45 L 24 45 L 24 45.796875 L 23 45.796875 Z M 23 45 " clip-rule="nonzero"/></clipPath><clipPath id="90d65f83d1"><path d="M 6.398438 33.398438 L 14.058594 33.398438 L 14.058594 41.058594 L 6.398438 41.058594 Z M 6.398438 33.398438 " clip-rule="nonzero"/></clipPath><clipPath id="56f3501c48"><path d="M 33.246094 33.398438 L 40.90625 33.398438 L 40.90625 41.058594 L 33.246094 41.058594 Z M 33.246094 33.398438 " clip-rule="nonzero"/></clipPath><clipPath id="fd328f200c"><path d="M 34 33.398438 L 40 33.398438 L 40 40 L 34 40 Z M 34 33.398438 " clip-rule="nonzero"/></clipPath><clipPath id="b1e0aa3209"><path d="M 33.246094 36 L 40.90625 36 L 40.90625 41.058594 L 33.246094 41.058594 Z M 33.246094 36 " clip-rule="nonzero"/></clipPath><clipPath id="ab591ce228"><path d="M 35 36 L 39 36 L 39 41.058594 L 35 41.058594 Z M 35 36 " clip-rule="nonzero"/></clipPath><clipPath id="eb3822e2c7"><path d="M 11.035156 0 L 36.203125 0 L 36.203125 16.140625 L 11.035156 16.140625 Z M 11.035156 0 " clip-rule="nonzero"/></clipPath></defs><g clip-path="url(#76c38ebe6f)"><path fill="#76dded" d="M 45.050781 36.933594 C 43.890625 35.523438 42.085938 33.636719 39.824219 31.472656 C 40.589844 29.722656 41.078125 27.824219 41.234375 25.835938 C 41.265625 25.777344 41.285156 25.710938 41.285156 25.640625 C 41.285156 25.585938 41.273438 25.535156 41.253906 25.488281 C 41.273438 25.152344 41.285156 24.816406 41.285156 24.476562 C 41.285156 20.367188 39.863281 16.585938 37.488281 13.597656 C 37.785156 13.308594 38.070312 13.023438 38.351562 12.746094 C 43.523438 7.570312 43.738281 6.277344 43.265625 5.695312 C 42.964844 5.324219 42.335938 5.113281 39.941406 6.335938 C 38.40625 7.125 36.28125 8.433594 33.800781 10.121094 C 30.957031 8.128906 27.496094 6.957031 23.765625 6.957031 C 19.988281 6.957031 16.484375 8.15625 13.617188 10.199219 C 13.601562 10.183594 13.585938 10.167969 13.566406 10.15625 C 11.0625 8.449219 8.921875 7.128906 7.375 6.335938 C 4.984375 5.113281 4.351562 5.324219 4.050781 5.695312 C 3.578125 6.277344 3.792969 7.570312 8.96875 12.746094 C 9.285156 13.0625 9.613281 13.386719 9.949219 13.714844 C 7.628906 16.6875 6.246094 20.421875 6.246094 24.476562 C 6.246094 24.816406 6.257812 25.152344 6.273438 25.488281 C 6.257812 25.535156 6.246094 25.585938 6.246094 25.640625 C 6.246094 25.710938 6.265625 25.777344 6.296875 25.835938 C 6.445312 27.773438 6.914062 29.621094 7.640625 31.328125 C 5.3125 33.554688 3.453125 35.492188 2.269531 36.933594 C 0.808594 38.714844 0.375 39.703125 0.816406 40.246094 C 0.949219 40.410156 1.148438 40.53125 1.507812 40.53125 C 2.410156 40.53125 4.328125 39.742188 8.714844 36.863281 C 9.25 36.511719 9.800781 36.144531 10.371094 35.753906 C 13.585938 39.570312 18.398438 41.996094 23.765625 41.996094 C 29.089844 41.996094 33.867188 39.605469 37.082031 35.847656 C 37.601562 36.199219 38.109375 36.539062 38.601562 36.863281 C 42.992188 39.742188 44.90625 40.53125 45.8125 40.53125 C 46.167969 40.53125 46.371094 40.410156 46.503906 40.246094 C 46.945312 39.703125 46.507812 38.714844 45.050781 36.933594 Z M 7.132812 26.046875 L 11 26.046875 C 11.164062 28.582031 11.722656 31.003906 12.632812 33.175781 C 11.914062 33.691406 11.210938 34.1875 10.53125 34.65625 C 8.65625 32.226562 7.433594 29.269531 7.132812 26.046875 Z M 11.816406 26.046875 L 17.285156 26.046875 C 17.324219 27.242188 17.40625 28.414062 17.53125 29.546875 C 16.082031 30.652344 14.667969 31.703125 13.316406 32.683594 C 12.503906 30.691406 11.976562 28.441406 11.816406 26.046875 Z M 11.761719 24.476562 C 11.761719 21.679688 12.257812 19.039062 13.136719 16.71875 C 14.472656 17.945312 15.910156 19.222656 17.421875 20.53125 C 17.316406 21.808594 17.261719 23.132812 17.261719 24.476562 C 17.261719 24.730469 17.261719 24.980469 17.265625 25.234375 L 11.773438 25.234375 C 11.765625 24.980469 11.761719 24.730469 11.761719 24.476562 Z M 35.753906 25.234375 L 30.261719 25.234375 C 30.265625 24.980469 30.269531 24.730469 30.269531 24.476562 C 30.269531 23.070312 30.210938 21.691406 30.09375 20.359375 C 31.59375 19.058594 33.015625 17.792969 34.339844 16.574219 C 35.25 18.929688 35.769531 21.621094 35.769531 24.476562 C 35.769531 24.730469 35.761719 24.980469 35.753906 25.234375 Z M 18.074219 24.476562 C 18.074219 23.359375 18.113281 22.261719 18.1875 21.191406 C 19.734375 22.515625 21.351562 23.867188 23.015625 25.226562 C 23.011719 25.230469 23.007812 25.230469 23.003906 25.234375 L 18.082031 25.234375 C 18.078125 24.980469 18.074219 24.730469 18.074219 24.476562 Z M 18.269531 20.1875 C 18.535156 17.304688 19.070312 14.667969 19.835938 12.511719 C 20.808594 9.785156 22.074219 8.109375 23.359375 7.816406 L 23.359375 24.457031 C 21.601562 23.019531 19.894531 21.585938 18.269531 20.1875 Z M 21.996094 26.046875 C 20.746094 27.050781 19.503906 28.023438 18.289062 28.964844 C 18.195312 28.015625 18.132812 27.039062 18.101562 26.046875 Z M 23.292969 26.046875 L 23.359375 26.046875 L 23.359375 41.136719 C 22.074219 40.839844 20.808594 39.167969 19.835938 36.441406 C 19.171875 34.574219 18.683594 32.34375 18.390625 29.910156 C 19.988281 28.683594 21.632812 27.386719 23.292969 26.046875 Z M 25.324219 26.046875 L 29.429688 26.046875 C 29.394531 27.09375 29.328125 28.121094 29.226562 29.113281 C 27.949219 28.128906 26.640625 27.105469 25.324219 26.046875 Z M 29.121094 30.058594 C 28.828125 32.4375 28.34375 34.613281 27.695312 36.441406 C 26.722656 39.167969 25.457031 40.839844 24.171875 41.136719 L 24.171875 26.164062 C 25.851562 27.519531 27.507812 28.824219 29.121094 30.058594 Z M 24.3125 25.234375 C 24.308594 25.230469 24.308594 25.230469 24.304688 25.226562 C 26.039062 23.808594 27.726562 22.398438 29.332031 21.019531 C 29.414062 22.144531 29.457031 23.300781 29.457031 24.476562 C 29.457031 24.730469 29.453125 24.980469 29.449219 25.234375 Z M 24.171875 24.28125 L 24.171875 7.816406 C 25.457031 8.109375 26.722656 9.785156 27.695312 12.511719 C 28.445312 14.625 28.976562 17.203125 29.246094 20.015625 C 27.628906 21.414062 25.925781 22.847656 24.171875 24.28125 Z M 29.996094 19.367188 C 29.703125 16.707031 29.183594 14.265625 28.460938 12.238281 C 27.800781 10.386719 27.003906 8.984375 26.125 8.09375 C 29.453125 9.023438 32.289062 11.871094 34.007812 15.773438 C 32.757812 16.929688 31.410156 18.132812 29.996094 19.367188 Z M 19.070312 12.238281 C 18.332031 14.308594 17.804688 16.808594 17.515625 19.535156 C 16.085938 18.292969 14.726562 17.078125 13.460938 15.914062 C 15.171875 11.941406 18.035156 9.035156 21.40625 8.09375 C 20.523438 8.984375 19.730469 10.386719 19.070312 12.238281 Z M 17.644531 30.484375 C 17.949219 32.792969 18.429688 34.914062 19.070312 36.710938 C 19.730469 38.566406 20.523438 39.964844 21.40625 40.855469 C 18.15625 39.949219 15.375 37.210938 13.644531 33.449219 C 14.929688 32.523438 16.269531 31.527344 17.644531 30.484375 Z M 28.460938 36.710938 C 29.085938 34.953125 29.5625 32.882812 29.867188 30.628906 C 31.230469 31.664062 32.558594 32.648438 33.832031 33.566406 C 32.097656 37.269531 29.34375 39.960938 26.125 40.855469 C 27.003906 39.964844 27.800781 38.566406 28.460938 36.710938 Z M 29.984375 29.695312 C 30.117188 28.515625 30.203125 27.296875 30.242188 26.046875 L 35.714844 26.046875 C 35.550781 28.488281 35.007812 30.78125 34.167969 32.804688 C 32.824219 31.832031 31.421875 30.792969 29.984375 29.695312 Z M 36.53125 26.046875 L 40.398438 26.046875 C 40.089844 29.3125 38.84375 32.304688 36.925781 34.753906 C 36.253906 34.289062 35.558594 33.804688 34.847656 33.292969 C 35.789062 31.089844 36.363281 28.625 36.53125 26.046875 Z M 40.472656 24.476562 C 40.472656 24.730469 40.464844 24.980469 40.453125 25.234375 L 36.570312 25.234375 C 36.578125 24.980469 36.582031 24.730469 36.582031 24.476562 C 36.582031 21.457031 36.027344 18.550781 34.984375 15.980469 C 35.652344 15.359375 36.292969 14.753906 36.902344 14.167969 C 39.136719 17.007812 40.472656 20.589844 40.472656 24.476562 Z M 42.617188 6.222656 C 42.597656 6.472656 42.214844 7.773438 37.433594 12.507812 C 37.28125 12.660156 37.125 12.816406 36.964844 12.96875 C 36.21875 12.113281 35.390625 11.332031 34.496094 10.636719 C 40.871094 6.3125 42.355469 6.191406 42.617188 6.222656 Z M 36.382812 13.539062 C 35.828125 14.074219 35.246094 14.625 34.640625 15.1875 C 34.140625 14.09375 33.546875 13.070312 32.871094 12.136719 C 31.863281 10.746094 30.714844 9.617188 29.46875 8.773438 C 32.164062 9.753906 34.535156 11.410156 36.382812 13.539062 Z M 14.660156 12.136719 C 13.953125 13.113281 13.339844 14.183594 12.828125 15.328125 C 12.210938 14.753906 11.617188 14.195312 11.050781 13.648438 C 12.910156 11.46875 15.320312 9.773438 18.058594 8.773438 C 16.816406 9.617188 15.667969 10.746094 14.660156 12.136719 Z M 9.882812 12.507812 C 5.101562 7.773438 4.722656 6.472656 4.699219 6.222656 C 4.964844 6.191406 6.464844 6.3125 12.9375 10.710938 C 12.039062 11.421875 11.210938 12.214844 10.46875 13.082031 C 10.269531 12.890625 10.074219 12.699219 9.882812 12.507812 Z M 10.539062 14.285156 C 11.15625 14.878906 11.808594 15.496094 12.488281 16.125 C 11.484375 18.660156 10.949219 21.511719 10.949219 24.476562 C 10.949219 24.730469 10.953125 24.980469 10.960938 25.234375 L 7.078125 25.234375 C 7.066406 24.980469 7.058594 24.730469 7.058594 24.476562 C 7.058594 20.640625 8.359375 17.105469 10.539062 14.285156 Z M 8.671875 35.917969 C 3.0625 39.636719 1.710938 39.746094 1.464844 39.714844 C 1.484375 39.445312 1.929688 37.925781 8 32.113281 C 8.519531 33.179688 9.144531 34.1875 9.859375 35.117188 C 9.453125 35.394531 9.058594 35.660156 8.671875 35.917969 Z M 11.042969 35.292969 C 11.667969 34.859375 12.3125 34.40625 12.96875 33.9375 C 13.453125 34.964844 14.019531 35.929688 14.660156 36.816406 C 15.667969 38.203125 16.816406 39.332031 18.0625 40.179688 C 15.316406 39.179688 12.90625 37.476562 11.042969 35.292969 Z M 29.46875 40.179688 C 30.714844 39.332031 31.863281 38.203125 32.871094 36.816406 C 33.488281 35.960938 34.035156 35.035156 34.507812 34.050781 C 35.15625 34.511719 35.789062 34.960938 36.40625 35.382812 C 34.558594 37.523438 32.175781 39.191406 29.46875 40.179688 Z M 38.648438 35.917969 C 38.304688 35.691406 37.953125 35.457031 37.597656 35.214844 C 38.3125 34.292969 38.9375 33.300781 39.460938 32.25 C 45.394531 37.953125 45.832031 39.449219 45.855469 39.714844 C 45.605469 39.746094 44.257812 39.636719 38.648438 35.917969 Z M 38.648438 35.917969 " fill-opacity="1" fill-rule="nonzero"/></g><g clip-path="url(#9a11cbd1ef)"><path fill="#205a8e" d="M 36.320312 17.027344 L 36.320312 16 C 36.320312 15.90625 36.246094 15.828125 36.148438 15.828125 L 35.230469 15.828125 L 35.230469 15.066406 C 35.230469 14.96875 35.15625 14.894531 35.058594 14.894531 L 34.175781 14.894531 L 34.175781 14.183594 C 34.175781 14.136719 34.15625 14.089844 34.117188 14.054688 C 34.082031 14.023438 34.03125 14.007812 33.980469 14.011719 C 29.4375 14.511719 24.820312 17.128906 24.335938 17.410156 L 22.984375 17.410156 C 22.496094 17.128906 17.878906 14.511719 13.335938 14.011719 C 13.289062 14.007812 13.238281 14.023438 13.203125 14.054688 C 13.164062 14.089844 13.144531 14.136719 13.144531 14.183594 L 13.144531 14.894531 L 12.265625 14.894531 C 12.171875 14.894531 12.09375 14.96875 12.09375 15.066406 L 12.09375 15.824219 L 11.175781 15.824219 C 11.078125 15.824219 11.003906 15.898438 11.003906 15.996094 L 11.003906 17.027344 L 10.398438 17.027344 C 10.300781 17.027344 10.226562 17.101562 10.226562 17.199219 L 10.226562 32.488281 C 10.226562 32.488281 16.113281 32.644531 22.933594 33.386719 L 24.386719 33.386719 C 31.210938 32.652344 37.09375 32.488281 37.09375 32.488281 L 37.09375 17.199219 C 37.09375 17.101562 37.019531 17.027344 36.921875 17.027344 Z M 35.972656 16.171875 L 35.972656 31.101562 C 35.972656 31.101562 35.972656 31.101562 35.972656 31.109375 C 35.015625 31.128906 30.253906 31.28125 25.921875 32.257812 C 27.953125 31.542969 31.726562 30.378906 35.058594 30.25 C 35.148438 30.242188 35.226562 30.167969 35.226562 30.078125 L 35.226562 16.171875 Z M 34.882812 15.238281 L 34.882812 29.910156 C 32.070312 30.050781 28.980469 30.886719 26.867188 31.574219 C 28.710938 30.730469 31.378906 29.714844 34.015625 29.425781 C 34.101562 29.414062 34.171875 29.339844 34.171875 29.253906 L 34.171875 15.238281 Z M 24.558594 17.683594 C 25.207031 17.308594 29.527344 14.910156 33.828125 14.378906 L 33.828125 29.097656 C 29.734375 29.59375 25.617188 31.765625 24.558594 32.355469 Z M 23.105469 17.753906 L 24.207031 17.753906 L 24.207031 32.480469 L 23.105469 32.480469 Z M 13.492188 14.378906 C 17.785156 14.90625 22.113281 17.308594 22.761719 17.683594 L 22.761719 32.355469 C 21.703125 31.765625 17.585938 29.59375 13.492188 29.097656 Z M 12.4375 15.238281 L 13.148438 15.238281 L 13.148438 29.253906 C 13.148438 29.339844 13.214844 29.414062 13.304688 29.425781 C 15.941406 29.714844 18.609375 30.730469 20.453125 31.574219 C 18.34375 30.894531 15.25 30.050781 12.4375 29.910156 Z M 11.347656 16.171875 L 12.09375 16.171875 L 12.09375 30.078125 C 12.09375 30.167969 12.171875 30.242188 12.261719 30.25 C 15.59375 30.378906 19.371094 31.542969 21.398438 32.257812 C 17.0625 31.273438 12.300781 31.125 11.347656 31.109375 C 11.347656 31.109375 11.347656 31.109375 11.347656 31.101562 Z M 11.347656 16.171875 " fill-opacity="1" fill-rule="nonzero"/></g><path fill="#205a8e" d="M 32.9375 16.59375 C 29.664062 17.207031 26.535156 18.769531 25.335938 19.414062 C 25.25 19.457031 25.222656 19.566406 25.265625 19.644531 C 25.300781 19.703125 25.359375 19.738281 25.417969 19.738281 C 25.445312 19.738281 25.472656 19.730469 25.5 19.714844 C 26.679688 19.074219 29.769531 17.527344 32.996094 16.925781 C 33.085938 16.910156 33.152344 16.820312 33.136719 16.726562 C 33.117188 16.636719 33.027344 16.570312 32.9375 16.59375 Z M 32.9375 16.59375 " fill-opacity="1" fill-rule="nonzero"/><path fill="#205a8e" d="M 32.9375 18.09375 C 29.664062 18.703125 26.535156 20.269531 25.335938 20.914062 C 25.25 20.957031 25.222656 21.0625 25.265625 21.144531 C 25.300781 21.203125 25.359375 21.234375 25.417969 21.234375 C 25.445312 21.234375 25.472656 21.230469 25.5 21.214844 C 26.679688 20.574219 29.769531 19.027344 32.996094 18.425781 C 33.085938 18.410156 33.152344 18.316406 33.136719 18.226562 C 33.117188 18.136719 33.027344 18.074219 32.9375 18.09375 Z M 32.9375 18.09375 " fill-opacity="1" fill-rule="nonzero"/><path fill="#205a8e" d="M 32.9375 19.597656 C 29.664062 20.210938 26.535156 21.773438 25.335938 22.417969 C 25.25 22.460938 25.222656 22.570312 25.265625 22.648438 C 25.300781 22.707031 25.359375 22.742188 25.417969 22.742188 C 25.445312 22.742188 25.472656 22.734375 25.5 22.71875 C 26.679688 22.078125 29.769531 20.53125 32.996094 19.929688 C 33.085938 19.914062 33.152344 19.824219 33.136719 19.730469 C 33.117188 19.640625 33.027344 19.574219 32.9375 19.597656 Z M 32.9375 19.597656 " fill-opacity="1" fill-rule="nonzero"/><path fill="#205a8e" d="M 32.9375 21.097656 C 29.664062 21.710938 26.535156 23.273438 25.335938 23.917969 C 25.25 23.960938 25.222656 24.066406 25.265625 24.148438 C 25.300781 24.207031 25.359375 24.242188 25.417969 24.242188 C 25.445312 24.242188 25.472656 24.234375 25.5 24.21875 C 26.679688 23.578125 29.769531 22.03125 32.996094 21.429688 C 33.085938 21.414062 33.152344 21.320312 33.136719 21.230469 C 33.117188 21.140625 33.027344 21.082031 32.9375 21.097656 Z M 32.9375 21.097656 " fill-opacity="1" fill-rule="nonzero"/><path fill="#205a8e" d="M 32.9375 22.597656 C 29.664062 23.207031 26.535156 24.773438 25.335938 25.417969 C 25.25 25.460938 25.222656 25.566406 25.265625 25.648438 C 25.300781 25.707031 25.359375 25.738281 25.417969 25.738281 C 25.445312 25.738281 25.472656 25.734375 25.5 25.71875 C 26.679688 25.078125 29.769531 23.53125 32.996094 22.929688 C 33.085938 22.914062 33.152344 22.820312 33.136719 22.730469 C 33.117188 22.644531 33.027344 22.578125 32.9375 22.597656 Z M 32.9375 22.597656 " fill-opacity="1" fill-rule="nonzero"/><path fill="#205a8e" d="M 32.9375 24.101562 C 29.664062 24.714844 26.535156 26.277344 25.335938 26.921875 C 25.25 26.964844 25.222656 27.074219 25.265625 27.152344 C 25.300781 27.210938 25.359375 27.246094 25.417969 27.246094 C 25.445312 27.246094 25.472656 27.238281 25.5 27.222656 C 26.679688 26.582031 29.769531 25.035156 32.996094 24.433594 C 33.085938 24.417969 33.152344 24.328125 33.136719 24.234375 C 33.117188 24.144531 33.027344 24.078125 32.9375 24.101562 Z M 32.9375 24.101562 " fill-opacity="1" fill-rule="nonzero"/><path fill="#205a8e" d="M 32.9375 25.601562 C 29.664062 26.210938 26.535156 27.777344 25.335938 28.421875 C 25.25 28.464844 25.222656 28.570312 25.265625 28.652344 C 25.300781 28.710938 25.359375 28.742188 25.417969 28.742188 C 25.445312 28.742188 25.472656 28.738281 25.5 28.722656 C 26.679688 28.082031 29.769531 26.535156 32.996094 25.933594 C 33.085938 25.917969 33.152344 25.824219 33.136719 25.734375 C 33.117188 25.644531 33.027344 25.582031 32.9375 25.601562 Z M 32.9375 25.601562 " fill-opacity="1" fill-rule="nonzero"/><path fill="#205a8e" d="M 32.9375 27.105469 C 29.664062 27.71875 26.535156 29.28125 25.335938 29.925781 C 25.25 29.96875 25.222656 30.078125 25.265625 30.15625 C 25.300781 30.214844 25.359375 30.25 25.417969 30.25 C 25.445312 30.25 25.472656 30.242188 25.5 30.226562 C 26.679688 29.585938 29.769531 28.039062 32.996094 27.4375 C 33.085938 27.421875 33.152344 27.332031 33.136719 27.238281 C 33.117188 27.148438 33.027344 27.082031 32.9375 27.105469 Z M 32.9375 27.105469 " fill-opacity="1" fill-rule="nonzero"/><path fill="#205a8e" d="M 21.984375 19.414062 C 20.789062 18.769531 17.65625 17.199219 14.382812 16.59375 C 14.292969 16.578125 14.203125 16.636719 14.1875 16.734375 C 14.167969 16.824219 14.230469 16.914062 14.324219 16.929688 C 17.550781 17.535156 20.640625 19.082031 21.824219 19.71875 C 21.847656 19.738281 21.875 19.742188 21.902344 19.742188 C 21.960938 19.742188 22.019531 19.710938 22.054688 19.652344 C 22.097656 19.566406 22.070312 19.457031 21.984375 19.414062 Z M 21.984375 19.414062 " fill-opacity="1" fill-rule="nonzero"/><path fill="#205a8e" d="M 21.984375 20.914062 C 20.789062 20.269531 17.65625 18.699219 14.382812 18.09375 C 14.292969 18.074219 14.203125 18.136719 14.1875 18.230469 C 14.167969 18.324219 14.230469 18.414062 14.324219 18.429688 C 17.550781 19.03125 20.640625 20.582031 21.824219 21.21875 C 21.847656 21.234375 21.875 21.242188 21.902344 21.242188 C 21.960938 21.242188 22.019531 21.210938 22.054688 21.148438 C 22.097656 21.0625 22.070312 20.960938 21.984375 20.914062 Z M 21.984375 20.914062 " fill-opacity="1" fill-rule="nonzero"/><path fill="#205a8e" d="M 21.984375 22.417969 C 20.789062 21.773438 17.65625 20.203125 14.382812 19.597656 C 14.292969 19.582031 14.203125 19.640625 14.1875 19.738281 C 14.167969 19.828125 14.230469 19.917969 14.324219 19.9375 C 17.550781 20.539062 20.640625 22.085938 21.824219 22.726562 C 21.847656 22.742188 21.875 22.746094 21.902344 22.746094 C 21.960938 22.746094 22.019531 22.714844 22.054688 22.65625 C 22.097656 22.570312 22.070312 22.460938 21.984375 22.417969 Z M 21.984375 22.417969 " fill-opacity="1" fill-rule="nonzero"/><path fill="#205a8e" d="M 21.984375 23.917969 C 20.789062 23.273438 17.65625 21.703125 14.382812 21.097656 C 14.292969 21.082031 14.203125 21.140625 14.1875 21.234375 C 14.167969 21.328125 14.230469 21.417969 14.324219 21.433594 C 17.550781 22.035156 20.640625 23.585938 21.824219 24.222656 C 21.847656 24.242188 21.875 24.246094 21.902344 24.246094 C 21.960938 24.246094 22.019531 24.214844 22.054688 24.152344 C 22.097656 24.066406 22.070312 23.964844 21.984375 23.917969 Z M 21.984375 23.917969 " fill-opacity="1" fill-rule="nonzero"/><path fill="#205a8e" d="M 21.984375 25.421875 C 20.789062 24.777344 17.65625 23.207031 14.382812 22.601562 C 14.292969 22.585938 14.203125 22.644531 14.1875 22.742188 C 14.167969 22.832031 14.230469 22.921875 14.324219 22.941406 C 17.550781 23.542969 20.640625 25.089844 21.824219 25.730469 C 21.847656 25.746094 21.875 25.75 21.902344 25.75 C 21.960938 25.75 22.019531 25.71875 22.054688 25.660156 C 22.097656 25.574219 22.070312 25.464844 21.984375 25.421875 Z M 21.984375 25.421875 " fill-opacity="1" fill-rule="nonzero"/><path fill="#205a8e" d="M 21.984375 26.921875 C 20.789062 26.277344 17.65625 24.707031 14.382812 24.101562 C 14.292969 24.085938 14.203125 24.144531 14.1875 24.242188 C 14.167969 24.332031 14.230469 24.421875 14.324219 24.4375 C 17.550781 25.039062 20.640625 26.589844 21.824219 27.226562 C 21.847656 27.246094 21.875 27.25 21.902344 27.25 C 21.960938 27.25 22.019531 27.21875 22.054688 27.160156 C 22.097656 27.074219 22.070312 26.96875 21.984375 26.921875 Z M 21.984375 26.921875 " fill-opacity="1" fill-rule="nonzero"/><path fill="#205a8e" d="M 21.984375 28.425781 C 20.789062 27.78125 17.65625 26.210938 14.382812 25.605469 C 14.292969 25.589844 14.203125 25.648438 14.1875 25.746094 C 14.167969 25.835938 14.230469 25.925781 14.324219 25.945312 C 17.550781 26.546875 20.640625 28.09375 21.824219 28.734375 C 21.847656 28.75 21.875 28.753906 21.902344 28.753906 C 21.960938 28.753906 22.019531 28.722656 22.054688 28.664062 C 22.097656 28.570312 22.070312 28.46875 21.984375 28.425781 Z M 21.984375 28.425781 " fill-opacity="1" fill-rule="nonzero"/><path fill="#205a8e" d="M 21.984375 29.925781 C 20.789062 29.28125 17.65625 27.710938 14.382812 27.105469 C 14.292969 27.089844 14.203125 27.148438 14.1875 27.246094 C 14.167969 27.335938 14.230469 27.425781 14.324219 27.441406 C 17.550781 28.046875 20.640625 29.59375 21.824219 30.230469 C 21.847656 30.25 21.875 30.253906 21.902344 30.253906 C 21.960938 30.253906 22.019531 30.222656 22.054688 30.164062 C 22.097656 30.078125 22.070312 29.96875 21.984375 29.925781 Z M 21.984375 29.925781 " fill-opacity="1" fill-rule="nonzero"/><g clip-path="url(#1321347598)"><path fill="#eec124" d="M 8.414062 24.746094 C 8.414062 26.675781 6.824219 28.234375 4.859375 28.234375 C 2.898438 28.234375 1.304688 26.675781 1.304688 24.746094 C 1.304688 22.820312 2.898438 21.257812 4.859375 21.257812 C 6.824219 21.257812 8.414062 22.820312 8.414062 24.746094 " fill-opacity="1" fill-rule="nonzero"/></g><path fill="#23255d" d="M 6.453125 27.332031 L 3.347656 27.332031 L 3.347656 24.429688 L 6.453125 24.429688 L 6.453125 27.332031 " fill-opacity="1" fill-rule="nonzero"/><g clip-path="url(#296c90deae)"><path fill="#ffffff" d="M 6.933594 28.246094 C 6.757812 28.375 6.570312 28.488281 6.371094 28.582031 C 6.339844 28.59375 6.308594 28.609375 6.277344 28.621094 C 5.847656 28.8125 5.367188 28.917969 4.859375 28.917969 C 4.355469 28.917969 3.875 28.8125 3.441406 28.621094 C 3.410156 28.609375 3.378906 28.59375 3.351562 28.582031 C 3.152344 28.488281 2.960938 28.375 2.785156 28.246094 C 2.816406 27.570312 3.183594 26.980469 3.722656 26.632812 C 4.050781 26.421875 4.441406 26.300781 4.859375 26.300781 C 4.925781 26.300781 4.988281 26.304688 5.050781 26.308594 C 5.398438 26.339844 5.722656 26.457031 5.996094 26.632812 C 6.246094 26.792969 6.457031 27.003906 6.617188 27.253906 C 6.804688 27.542969 6.917969 27.882812 6.933594 28.246094 " fill-opacity="1" fill-rule="nonzero"/></g><path fill="#fbd5c0" d="M 5.996094 26.632812 C 5.964844 26.867188 5.859375 27.082031 5.703125 27.246094 C 5.496094 27.46875 5.195312 27.609375 4.859375 27.609375 C 4.328125 27.609375 3.878906 27.25 3.75 26.765625 C 3.738281 26.722656 3.730469 26.679688 3.722656 26.632812 C 4.050781 26.421875 4.441406 26.300781 4.859375 26.300781 C 4.925781 26.300781 4.988281 26.304688 5.050781 26.308594 C 5.0625 26.3125 5.074219 26.3125 5.082031 26.3125 C 5.089844 26.3125 5.097656 26.3125 5.101562 26.316406 C 5.109375 26.316406 5.117188 26.316406 5.125 26.316406 C 5.128906 26.316406 5.132812 26.320312 5.140625 26.320312 C 5.144531 26.320312 5.152344 26.320312 5.160156 26.320312 C 5.164062 26.324219 5.167969 26.324219 5.175781 26.324219 C 5.179688 26.324219 5.183594 26.324219 5.1875 26.328125 C 5.195312 26.328125 5.203125 26.328125 5.210938 26.332031 C 5.246094 26.335938 5.277344 26.34375 5.308594 26.347656 L 5.332031 26.355469 C 5.335938 26.355469 5.339844 26.355469 5.34375 26.355469 C 5.351562 26.359375 5.359375 26.359375 5.367188 26.363281 C 5.367188 26.363281 5.371094 26.363281 5.371094 26.363281 C 5.378906 26.367188 5.390625 26.367188 5.398438 26.371094 C 5.410156 26.375 5.421875 26.375 5.429688 26.378906 C 5.441406 26.382812 5.453125 26.386719 5.464844 26.386719 C 5.472656 26.390625 5.480469 26.394531 5.492188 26.398438 C 5.496094 26.398438 5.503906 26.402344 5.507812 26.402344 C 5.515625 26.40625 5.527344 26.410156 5.535156 26.410156 C 5.546875 26.414062 5.558594 26.417969 5.570312 26.421875 C 5.582031 26.429688 5.59375 26.433594 5.605469 26.4375 C 5.613281 26.441406 5.621094 26.441406 5.632812 26.445312 C 5.652344 26.453125 5.675781 26.464844 5.695312 26.472656 L 5.726562 26.484375 C 5.734375 26.488281 5.742188 26.492188 5.75 26.496094 C 5.757812 26.5 5.765625 26.503906 5.773438 26.507812 C 5.78125 26.511719 5.789062 26.515625 5.796875 26.519531 C 5.800781 26.519531 5.804688 26.523438 5.808594 26.527344 C 5.828125 26.535156 5.847656 26.546875 5.863281 26.554688 C 5.871094 26.558594 5.878906 26.5625 5.882812 26.566406 C 5.890625 26.566406 5.894531 26.570312 5.898438 26.574219 L 5.929688 26.589844 L 5.9375 26.597656 C 5.949219 26.601562 5.957031 26.609375 5.96875 26.613281 C 5.976562 26.621094 5.988281 26.628906 5.996094 26.632812 " fill-opacity="1" fill-rule="nonzero"/><path fill="#fbd5c0" d="M 5.261719 25.84375 L 5.261719 26.617188 C 5.261719 26.8125 5.097656 26.972656 4.898438 26.972656 L 4.824219 26.972656 C 4.625 26.972656 4.460938 26.8125 4.460938 26.617188 L 4.460938 25.84375 C 4.460938 25.648438 4.625 25.488281 4.824219 25.488281 L 4.898438 25.488281 C 5.097656 25.488281 5.261719 25.648438 5.261719 25.84375 " fill-opacity="1" fill-rule="nonzero"/><path fill="#f8a29e" d="M 5.261719 25.84375 L 5.261719 26.253906 C 5.140625 26.316406 5.015625 26.355469 4.886719 26.355469 C 4.738281 26.355469 4.59375 26.316406 4.460938 26.242188 L 4.460938 25.84375 C 4.460938 25.648438 4.625 25.488281 4.824219 25.488281 L 4.898438 25.488281 C 5.097656 25.488281 5.261719 25.648438 5.261719 25.84375 " fill-opacity="1" fill-rule="nonzero"/><path fill="#fbd5c0" d="M 6.09375 25.367188 C 6.09375 25.367188 6.328125 25.289062 6.480469 25.027344 C 6.644531 24.746094 6.542969 24.570312 6.507812 24.535156 C 6.421875 24.429688 6.285156 24.496094 6.261719 24.535156 C 6.238281 24.570312 5.910156 25.15625 6.09375 25.367188 " fill-opacity="1" fill-rule="nonzero"/><path fill="#f8a29e" d="M 6.324219 24.625 C 6.324219 24.625 6.476562 24.644531 6.421875 24.851562 C 6.371094 25.058594 6.230469 25.140625 6.042969 25.246094 C 5.855469 25.355469 6.136719 24.667969 6.324219 24.625 " fill-opacity="1" fill-rule="nonzero"/><path fill="#fbd5c0" d="M 3.691406 25.367188 C 3.691406 25.367188 3.453125 25.289062 3.300781 25.027344 C 3.136719 24.746094 3.242188 24.570312 3.273438 24.535156 C 3.363281 24.429688 3.5 24.496094 3.523438 24.535156 C 3.542969 24.570312 3.871094 25.15625 3.691406 25.367188 " fill-opacity="1" fill-rule="nonzero"/><path fill="#f8a29e" d="M 3.457031 24.625 C 3.457031 24.625 3.308594 24.644531 3.359375 24.851562 C 3.414062 25.058594 3.550781 25.140625 3.742188 25.246094 C 3.929688 25.355469 3.644531 24.667969 3.457031 24.625 " fill-opacity="1" fill-rule="nonzero"/><path fill="#fbd5c0" d="M 6.324219 24.488281 C 6.324219 23.636719 5.683594 22.949219 4.894531 22.949219 C 4.105469 22.949219 3.464844 23.636719 3.464844 24.488281 C 3.464844 25.339844 4.105469 26.230469 4.894531 26.230469 C 5.636719 26.230469 6.324219 25.332031 6.324219 24.488281 " fill-opacity="1" fill-rule="nonzero"/><path fill="#23255d" d="M 6.433594 23.96875 C 6.371094 23.414062 5.980469 22.542969 5.023438 22.652344 C 4.617188 22.566406 3.347656 22.738281 3.347656 24.480469 C 3.347656 24.480469 3.601562 24.679688 4.175781 24.785156 C 4.203125 24.386719 4.277344 24.085938 4.277344 24.085938 C 4.21875 24.40625 4.34375 24.617188 4.351562 24.8125 C 4.835938 24.875 5.507812 24.871094 6.398438 24.664062 C 6.398438 24.664062 6.492188 24.511719 6.433594 23.96875 " fill-opacity="1" fill-rule="nonzero"/><path fill="#23255d" d="M 3.800781 26.464844 L 3.347656 26.464844 L 3.347656 24.429688 L 3.800781 24.429688 L 3.800781 26.464844 " fill-opacity="1" fill-rule="nonzero"/><path fill="#23255d" d="M 6.453125 26.464844 L 6 26.464844 L 6 24.429688 L 6.453125 24.429688 L 6.453125 26.464844 " fill-opacity="1" fill-rule="nonzero"/><g clip-path="url(#826e4bc7fc)"><path fill="#fcc00a" d="M 46.398438 24.914062 C 46.398438 25.398438 46.304688 25.867188 46.117188 26.3125 C 45.929688 26.761719 45.664062 27.15625 45.316406 27.5 C 44.96875 27.84375 44.570312 28.105469 44.117188 28.292969 C 43.667969 28.476562 43.195312 28.570312 42.707031 28.570312 C 42.214844 28.570312 41.746094 28.476562 41.292969 28.292969 C 40.839844 28.105469 40.441406 27.84375 40.09375 27.5 C 39.746094 27.15625 39.480469 26.761719 39.292969 26.3125 C 39.105469 25.867188 39.011719 25.398438 39.011719 24.914062 C 39.011719 22.894531 40.664062 21.257812 42.707031 21.257812 C 44.746094 21.257812 46.398438 22.894531 46.398438 24.914062 Z M 46.398438 24.914062 " fill-opacity="1" fill-rule="nonzero"/></g><path fill="#ff9987" d="M 44.328125 25.074219 C 44.238281 25.199219 44.117188 25.300781 44.023438 25.421875 C 43.976562 25.484375 43.914062 25.503906 43.835938 25.480469 C 43.808594 25.46875 43.785156 25.453125 43.765625 25.433594 C 43.710938 25.648438 43.605469 25.832031 43.445312 25.988281 L 43.445312 26.597656 C 43.445312 26.832031 43.359375 27.035156 43.191406 27.199219 C 43.023438 27.367188 42.824219 27.449219 42.585938 27.449219 C 42.347656 27.449219 42.144531 27.367188 41.976562 27.199219 C 41.808594 27.035156 41.722656 26.832031 41.722656 26.597656 L 41.722656 25.980469 C 41.582031 25.835938 41.480469 25.667969 41.421875 25.472656 C 41.417969 25.476562 41.410156 25.476562 41.40625 25.480469 C 41.332031 25.503906 41.269531 25.484375 41.21875 25.421875 C 41.125 25.300781 41.007812 25.199219 40.914062 25.074219 C 40.824219 24.949219 40.761719 24.792969 40.804688 24.644531 C 40.84375 24.496094 41.023438 24.386719 41.160156 24.457031 L 41.226562 24.617188 C 41.234375 24.609375 41.242188 24.605469 41.25 24.597656 C 41.535156 24.351562 41.761719 24.058594 41.933594 23.722656 C 41.953125 23.84375 41.96875 23.96875 41.976562 24.089844 C 42.1875 23.910156 42.359375 23.679688 42.484375 23.453125 C 42.515625 23.808594 42.625 24.136719 42.816406 24.4375 C 42.875 24.152344 42.984375 23.890625 43.152344 23.648438 C 43.351562 24.046875 43.699219 24.375 44.03125 24.503906 C 44.035156 24.503906 44.039062 24.507812 44.042969 24.507812 C 44.03125 24.554688 44.015625 24.597656 44 24.640625 L 44 24.644531 L 43.984375 24.691406 L 44.082031 24.457031 C 44.21875 24.386719 44.398438 24.496094 44.441406 24.644531 C 44.480469 24.792969 44.417969 24.949219 44.328125 25.074219 Z M 44.328125 25.074219 " fill-opacity="1" fill-rule="nonzero"/><g clip-path="url(#d7d00454cb)"><path fill="#ed6e0f" d="M 45.207031 27.605469 C 44.859375 27.921875 44.464844 28.164062 44.023438 28.328125 C 43.582031 28.496094 43.128906 28.574219 42.65625 28.570312 C 42.183594 28.5625 41.730469 28.46875 41.292969 28.292969 C 40.859375 28.113281 40.46875 27.859375 40.132812 27.535156 L 41.386719 26.882812 L 41.402344 26.867188 L 41.722656 26.484375 L 41.722656 26.597656 C 41.722656 26.832031 41.808594 27.035156 41.976562 27.199219 C 41.992188 27.21875 42.011719 27.234375 42.03125 27.25 C 42.039062 27.253906 42.046875 27.261719 42.054688 27.269531 C 42.0625 27.273438 42.066406 27.277344 42.074219 27.285156 C 42.085938 27.292969 42.09375 27.296875 42.105469 27.304688 C 42.136719 27.324219 42.167969 27.34375 42.203125 27.359375 C 42.460938 27.488281 42.71875 27.484375 42.972656 27.355469 C 42.976562 27.355469 42.976562 27.355469 42.980469 27.355469 C 42.996094 27.347656 43.011719 27.339844 43.027344 27.328125 C 43.042969 27.320312 43.058594 27.308594 43.074219 27.296875 C 43.089844 27.285156 43.105469 27.277344 43.121094 27.261719 C 43.136719 27.253906 43.148438 27.242188 43.164062 27.226562 C 43.179688 27.214844 43.191406 27.203125 43.203125 27.1875 C 43.207031 27.1875 43.210938 27.183594 43.210938 27.179688 C 43.222656 27.167969 43.230469 27.160156 43.242188 27.148438 C 43.253906 27.132812 43.269531 27.113281 43.28125 27.097656 C 43.292969 27.082031 43.300781 27.066406 43.3125 27.050781 C 43.324219 27.03125 43.335938 27.011719 43.347656 26.992188 C 43.351562 26.984375 43.355469 26.976562 43.359375 26.96875 C 43.386719 26.910156 43.410156 26.851562 43.421875 26.789062 C 43.425781 26.785156 43.425781 26.777344 43.425781 26.769531 C 43.4375 26.726562 43.441406 26.679688 43.445312 26.632812 C 43.445312 26.621094 43.445312 26.609375 43.445312 26.597656 L 43.445312 26.484375 L 43.78125 26.84375 L 43.808594 26.875 Z M 44.03125 24.503906 L 43.542969 24.894531 C 43.488281 24.734375 43.375 24.65625 43.207031 24.664062 C 43.035156 24.667969 42.929688 24.75 42.886719 24.914062 L 42.808594 24.914062 C 42.765625 24.816406 42.691406 24.765625 42.585938 24.761719 C 42.496094 24.757812 42.402344 24.824219 42.359375 24.914062 C 42.339844 24.914062 42.3125 24.914062 42.285156 24.914062 C 42.238281 24.75 42.132812 24.664062 41.960938 24.664062 C 41.789062 24.660156 41.679688 24.738281 41.628906 24.898438 L 41.25 24.597656 C 41.226562 24.617188 41.203125 24.636719 41.179688 24.65625 L 41.179688 24.660156 L 41.613281 25.003906 C 41.613281 25.097656 41.644531 25.175781 41.714844 25.242188 C 41.78125 25.308594 41.859375 25.339844 41.953125 25.339844 C 42.046875 25.339844 42.128906 25.308594 42.195312 25.242188 C 42.261719 25.175781 42.296875 25.097656 42.296875 25.003906 C 42.40625 25.003906 42.417969 25.003906 42.433594 24.980469 C 42.433594 24.976562 42.4375 24.972656 42.4375 24.96875 C 42.457031 24.902344 42.523438 24.847656 42.582031 24.851562 C 42.648438 24.855469 42.71875 24.90625 42.730469 24.964844 C 42.734375 24.988281 42.75 25 42.773438 25.003906 L 42.875 25.003906 C 42.875 25.097656 42.910156 25.175781 42.976562 25.242188 C 43.042969 25.308594 43.125 25.339844 43.21875 25.339844 C 43.3125 25.339844 43.390625 25.304688 43.457031 25.238281 C 43.523438 25.171875 43.558594 25.09375 43.558594 25 L 44 24.644531 L 44 24.640625 C 44.015625 24.597656 44.03125 24.554688 44.042969 24.507812 C 44.039062 24.507812 44.035156 24.503906 44.03125 24.503906 Z M 44.03125 24.503906 " fill-opacity="1" fill-rule="nonzero"/></g><path fill="#242156" d="M 44.683594 23.632812 C 44.59375 23.773438 44.464844 23.863281 44.300781 23.894531 C 44.300781 23.898438 44.300781 23.898438 44.300781 23.902344 C 44.328125 24.375 44.179688 24.789062 43.851562 25.136719 L 44 24.644531 L 44 24.640625 C 44.015625 24.597656 44.03125 24.554688 44.042969 24.507812 C 44.039062 24.507812 44.035156 24.503906 44.03125 24.503906 C 43.699219 24.375 43.351562 24.046875 43.152344 23.648438 C 42.984375 23.890625 42.875 24.152344 42.816406 24.4375 C 42.625 24.136719 42.515625 23.808594 42.484375 23.453125 C 42.359375 23.679688 42.1875 23.910156 41.976562 24.089844 C 41.96875 23.96875 41.953125 23.84375 41.933594 23.722656 C 41.761719 24.058594 41.535156 24.351562 41.25 24.597656 C 41.226562 24.617188 41.203125 24.636719 41.179688 24.65625 L 41.179688 24.660156 L 41.296875 25.046875 C 41.058594 24.761719 40.933594 24.429688 40.921875 24.0625 C 40.765625 23.960938 40.632812 23.835938 40.53125 23.683594 C 40.511719 23.652344 40.507812 23.617188 40.523438 23.582031 C 40.539062 23.546875 40.5625 23.527344 40.597656 23.515625 C 40.707031 23.492188 40.8125 23.453125 40.914062 23.40625 C 41.007812 23.359375 41.078125 23.289062 41.125 23.195312 C 41.273438 22.925781 41.480469 22.714844 41.746094 22.558594 C 42.011719 22.402344 42.300781 22.324219 42.609375 22.324219 L 42.617188 22.324219 C 42.589844 22.246094 42.578125 22.167969 42.589844 22.085938 C 42.601562 22.019531 42.632812 22.003906 42.691406 22.039062 C 42.871094 22.140625 43.03125 22.265625 43.171875 22.417969 C 43.179688 22.421875 43.183594 22.429688 43.1875 22.433594 C 43.195312 22.433594 43.199219 22.429688 43.203125 22.429688 C 43.347656 22.394531 43.511719 22.355469 43.671875 22.300781 C 43.695312 22.292969 43.710938 22.300781 43.726562 22.316406 C 43.742188 22.335938 43.746094 22.355469 43.734375 22.375 C 43.679688 22.460938 43.605469 22.53125 43.519531 22.585938 C 43.761719 22.738281 43.957031 22.941406 44.09375 23.191406 C 44.167969 23.320312 44.273438 23.410156 44.410156 23.460938 C 44.484375 23.488281 44.554688 23.507812 44.628906 23.515625 C 44.707031 23.527344 44.722656 23.566406 44.683594 23.632812 Z M 41.558594 25.773438 L 41.425781 26.226562 C 41.414062 26.261719 41.421875 26.289062 41.449219 26.3125 C 41.476562 26.339844 41.507812 26.34375 41.542969 26.332031 C 41.609375 26.304688 41.667969 26.269531 41.722656 26.226562 L 41.722656 25.980469 C 41.660156 25.917969 41.605469 25.847656 41.558594 25.773438 Z M 43.765625 26.269531 L 43.617188 25.777344 C 43.566406 25.855469 43.511719 25.925781 43.445312 25.988281 L 43.445312 26.261719 C 43.507812 26.308594 43.574219 26.347656 43.648438 26.378906 C 43.679688 26.390625 43.710938 26.386719 43.738281 26.359375 C 43.765625 26.335938 43.773438 26.304688 43.765625 26.269531 Z M 41.722656 26.09375 C 41.835938 26.207031 41.96875 26.296875 42.117188 26.355469 C 42.265625 26.417969 42.421875 26.449219 42.582031 26.453125 C 42.746094 26.453125 42.898438 26.421875 43.050781 26.363281 C 43.199219 26.300781 43.332031 26.214844 43.445312 26.101562 L 43.445312 25.988281 C 43.332031 26.101562 43.199219 26.1875 43.050781 26.25 C 42.898438 26.308594 42.746094 26.339844 42.582031 26.335938 C 42.421875 26.335938 42.265625 26.304688 42.117188 26.242188 C 41.96875 26.183594 41.835938 26.09375 41.722656 25.980469 M 41.941406 24.574219 C 41.976562 24.574219 42.007812 24.515625 42.007812 24.449219 C 42.007812 24.378906 41.976562 24.324219 41.941406 24.324219 C 41.902344 24.324219 41.871094 24.378906 41.871094 24.449219 C 41.871094 24.515625 41.902344 24.574219 41.941406 24.574219 Z M 43.203125 24.574219 C 43.238281 24.574219 43.269531 24.515625 43.269531 24.449219 C 43.269531 24.378906 43.238281 24.324219 43.203125 24.324219 C 43.164062 24.324219 43.132812 24.378906 43.132812 24.449219 C 43.132812 24.515625 43.164062 24.574219 43.203125 24.574219 Z M 42.589844 25.433594 L 42.800781 25.207031 C 42.800781 25.203125 42.800781 25.199219 42.800781 25.195312 C 42.800781 25.195312 42.796875 25.191406 42.792969 25.191406 L 42.378906 25.191406 C 42.371094 25.191406 42.371094 25.195312 42.367188 25.195312 C 42.367188 25.199219 42.367188 25.203125 42.371094 25.207031 L 42.578125 25.433594 C 42.582031 25.4375 42.585938 25.4375 42.589844 25.433594 Z M 42.589844 25.433594 " fill-opacity="1" fill-rule="nonzero"/><g clip-path="url(#c74619ef8c)"><path fill="#18b9cd" d="M 42.203125 27.359375 L 41.675781 28.03125 L 41.402344 26.867188 L 41.722656 26.484375 L 41.722656 26.597656 C 41.722656 26.832031 41.808594 27.035156 41.976562 27.199219 C 41.992188 27.21875 42.011719 27.234375 42.03125 27.25 C 42.039062 27.253906 42.046875 27.261719 42.054688 27.269531 C 42.0625 27.273438 42.066406 27.277344 42.074219 27.285156 C 42.085938 27.292969 42.09375 27.296875 42.105469 27.304688 C 42.136719 27.324219 42.167969 27.34375 42.203125 27.359375 Z M 43.445312 26.484375 L 43.445312 26.597656 C 43.445312 26.609375 43.445312 26.621094 43.445312 26.632812 C 43.441406 26.679688 43.4375 26.726562 43.425781 26.769531 C 43.425781 26.777344 43.425781 26.785156 43.421875 26.789062 C 43.410156 26.851562 43.386719 26.910156 43.359375 26.96875 C 43.355469 26.976562 43.351562 26.984375 43.347656 26.992188 C 43.335938 27.011719 43.324219 27.03125 43.3125 27.050781 C 43.300781 27.066406 43.292969 27.082031 43.28125 27.097656 C 43.269531 27.113281 43.253906 27.132812 43.242188 27.148438 C 43.230469 27.160156 43.222656 27.171875 43.210938 27.179688 C 43.210938 27.183594 43.207031 27.1875 43.203125 27.1875 C 43.191406 27.203125 43.179688 27.214844 43.164062 27.226562 C 43.148438 27.238281 43.136719 27.253906 43.121094 27.261719 C 43.105469 27.277344 43.089844 27.285156 43.074219 27.296875 C 43.058594 27.308594 43.042969 27.320312 43.027344 27.328125 C 43.011719 27.339844 42.996094 27.347656 42.980469 27.355469 C 42.976562 27.355469 42.976562 27.355469 42.972656 27.355469 L 43.5 28.03125 L 43.78125 26.84375 Z M 43.445312 26.484375 " fill-opacity="1" fill-rule="nonzero"/></g><g clip-path="url(#6e11691c1c)"><path fill="#f9b233" d="M 27.441406 41.964844 C 27.441406 42.472656 27.34375 42.960938 27.148438 43.429688 C 26.953125 43.898438 26.675781 44.316406 26.316406 44.671875 C 25.957031 45.03125 25.542969 45.308594 25.074219 45.503906 C 24.605469 45.699219 24.117188 45.796875 23.609375 45.796875 C 23.101562 45.796875 22.613281 45.699219 22.144531 45.503906 C 21.675781 45.308594 21.261719 45.03125 20.902344 44.671875 C 20.542969 44.316406 20.265625 43.898438 20.070312 43.429688 C 19.875 42.960938 19.78125 42.472656 19.78125 41.964844 C 19.78125 41.457031 19.875 40.96875 20.070312 40.5 C 20.265625 40.03125 20.542969 39.617188 20.902344 39.257812 C 21.261719 38.898438 21.675781 38.621094 22.144531 38.425781 C 22.613281 38.234375 23.101562 38.136719 23.609375 38.136719 C 24.117188 38.136719 24.605469 38.234375 25.074219 38.425781 C 25.542969 38.621094 25.957031 38.898438 26.316406 39.257812 C 26.675781 39.617188 26.953125 40.03125 27.148438 40.5 C 27.34375 40.96875 27.441406 41.457031 27.441406 41.964844 Z M 27.441406 41.964844 " fill-opacity="1" fill-rule="nonzero"/></g><g clip-path="url(#06c69f5c32)"><path fill="#df6764" d="M 26.292969 44.527344 C 26.273438 44.550781 26.253906 44.570312 26.234375 44.589844 C 25.632812 45.203125 24.816406 45.605469 23.910156 45.679688 C 23.890625 45.683594 23.871094 45.683594 23.855469 45.683594 C 23.789062 45.6875 23.726562 45.691406 23.660156 45.691406 C 23.640625 45.691406 23.625 45.691406 23.605469 45.691406 C 23.582031 45.691406 23.558594 45.691406 23.535156 45.691406 C 23.480469 45.691406 23.425781 45.6875 23.371094 45.6875 C 23.347656 45.683594 23.328125 45.683594 23.304688 45.679688 C 22.40625 45.609375 21.597656 45.210938 20.996094 44.609375 C 20.972656 44.585938 20.949219 44.558594 20.925781 44.535156 C 20.953125 44.429688 20.984375 44.328125 21.011719 44.222656 C 21.453125 43.921875 21.890625 43.617188 22.332031 43.316406 L 24.863281 43.316406 L 26.210938 44.195312 C 26.238281 44.304688 26.265625 44.417969 26.292969 44.527344 Z M 26.292969 44.527344 " fill-opacity="1" fill-rule="nonzero"/></g><path fill="#f4efeb" d="M 25.007812 43.410156 C 24.964844 44.046875 24.519531 44.445312 24.148438 44.414062 C 23.832031 44.386719 23.632812 44.046875 23.601562 43.996094 C 23.574219 44.042969 23.359375 44.390625 23.015625 44.414062 C 22.625 44.441406 22.191406 44.042969 22.148438 43.441406 C 22.378906 43.277344 22.613281 43.109375 22.84375 42.945312 C 22.851562 42.945312 22.859375 42.945312 22.867188 42.945312 C 23.347656 42.945312 23.828125 42.945312 24.308594 42.949219 C 24.316406 42.949219 24.328125 42.949219 24.335938 42.949219 C 24.558594 43.101562 24.785156 43.257812 25.007812 43.410156 Z M 25.007812 43.410156 " fill-opacity="1" fill-rule="nonzero"/><path fill="#f8d8b3" d="M 24.335938 42.898438 L 24.335938 43.386719 C 24.335938 43.425781 24.316406 43.460938 24.285156 43.492188 C 24.121094 43.640625 23.957031 43.792969 23.796875 43.941406 C 23.757812 43.976562 23.714844 43.996094 23.671875 43.996094 L 23.515625 43.996094 C 23.472656 43.996094 23.429688 43.976562 23.390625 43.941406 C 23.226562 43.792969 23.0625 43.644531 22.894531 43.492188 C 22.863281 43.460938 22.84375 43.425781 22.84375 43.386719 L 22.84375 42.898438 Z M 24.335938 42.898438 " fill-opacity="1" fill-rule="nonzero"/><path fill="#efc49a" d="M 22.546875 42.386719 C 22.597656 42.527344 22.691406 42.738281 22.871094 42.949219 C 23.039062 43.144531 23.277344 43.421875 23.601562 43.417969 C 23.9375 43.414062 24.171875 43.121094 24.308594 42.949219 C 24.457031 42.761719 24.535156 42.570312 24.574219 42.445312 C 24.59375 42.480469 24.625 42.527344 24.660156 42.527344 C 24.773438 42.523438 24.863281 42.085938 24.890625 41.808594 C 24.910156 41.617188 24.9375 41.304688 24.828125 40.921875 C 24.746094 40.644531 24.632812 40.257812 24.273438 40.007812 C 23.867188 39.730469 23.277344 39.703125 22.84375 39.980469 C 22.375 40.28125 22.285156 40.804688 22.238281 41.066406 C 22.183594 41.363281 22.222656 41.59375 22.273438 41.9375 C 22.296875 42.085938 22.355469 42.472656 22.457031 42.480469 C 22.492188 42.480469 22.527344 42.429688 22.546875 42.386719 Z M 22.546875 42.386719 " fill-opacity="1" fill-rule="nonzero"/><path fill="#f8d8b3" d="M 23.675781 44.328125 C 23.675781 44.371094 23.652344 44.394531 23.609375 44.394531 C 23.566406 44.394531 23.542969 44.371094 23.542969 44.328125 C 23.542969 44.285156 23.566406 44.265625 23.609375 44.265625 C 23.652344 44.265625 23.675781 44.285156 23.675781 44.328125 Z M 23.675781 44.328125 " fill-opacity="1" fill-rule="nonzero"/><path fill="#f8d8b3" d="M 23.675781 44.652344 C 23.675781 44.695312 23.652344 44.71875 23.609375 44.71875 C 23.566406 44.71875 23.542969 44.695312 23.542969 44.652344 C 23.542969 44.609375 23.566406 44.585938 23.609375 44.585938 C 23.652344 44.585938 23.675781 44.609375 23.675781 44.652344 Z M 23.675781 44.652344 " fill-opacity="1" fill-rule="nonzero"/><g clip-path="url(#503b7dd237)"><path fill="#f8d8b3" d="M 23.675781 44.976562 C 23.675781 45.019531 23.652344 45.042969 23.609375 45.042969 C 23.566406 45.042969 23.542969 45.019531 23.542969 44.976562 C 23.542969 44.933594 23.566406 44.910156 23.609375 44.910156 C 23.652344 44.910156 23.675781 44.933594 23.675781 44.976562 Z M 23.675781 44.976562 " fill-opacity="1" fill-rule="nonzero"/></g><g clip-path="url(#424a6b62cb)"><path fill="#f8d8b3" d="M 23.675781 45.300781 C 23.675781 45.34375 23.652344 45.367188 23.609375 45.367188 C 23.566406 45.367188 23.542969 45.34375 23.542969 45.300781 C 23.542969 45.257812 23.566406 45.234375 23.609375 45.234375 C 23.652344 45.234375 23.675781 45.257812 23.675781 45.300781 Z M 23.675781 45.300781 " fill-opacity="1" fill-rule="nonzero"/></g><path fill="#c95627" d="M 25.617188 42.699219 C 25.472656 42.632812 25.433594 42.457031 25.425781 42.425781 C 25.355469 42.105469 25.628906 41.859375 25.832031 41.527344 C 26.15625 40.996094 26.296875 40.199219 26.003906 39.648438 C 25.964844 39.578125 25.710938 39.121094 25.195312 39.042969 C 24.785156 38.976562 24.351562 39.171875 24.070312 39.546875 C 24 39.480469 23.902344 39.40625 23.773438 39.351562 C 23.402344 39.1875 23.050781 39.289062 22.941406 39.324219 C 22.574219 39.441406 22.367188 39.695312 22.265625 39.832031 C 21.882812 40.320312 21.902344 40.867188 21.90625 40.964844 C 21.9375 41.535156 22.253906 41.910156 22.347656 42.011719 C 22.371094 41.328125 22.574219 41.0625 22.757812 40.949219 C 22.984375 40.804688 23.210938 40.867188 23.574219 40.664062 C 23.804688 40.535156 23.957031 40.375 24.046875 40.265625 C 24.144531 40.316406 24.539062 40.542969 24.714844 41.035156 C 24.855469 41.425781 24.773438 41.765625 24.738281 41.890625 C 24.773438 41.835938 24.828125 41.742188 24.882812 41.621094 C 24.882812 41.691406 24.882812 41.757812 24.875 41.816406 C 24.835938 42.328125 24.636719 42.757812 24.890625 43.054688 C 25.085938 43.28125 25.519531 43.417969 25.832031 43.207031 C 26.144531 42.992188 26.121094 42.566406 26.121094 42.539062 C 25.960938 42.707031 25.761719 42.765625 25.617188 42.699219 Z M 25.617188 42.699219 " fill-opacity="1" fill-rule="nonzero"/><g clip-path="url(#90d65f83d1)"><path fill="#95c11f" d="M 14.058594 37.226562 C 14.058594 37.734375 13.960938 38.222656 13.765625 38.691406 C 13.570312 39.164062 13.292969 39.578125 12.9375 39.933594 C 12.578125 40.292969 12.164062 40.570312 11.691406 40.765625 C 11.222656 40.960938 10.734375 41.058594 10.226562 41.058594 C 9.71875 41.058594 9.230469 40.960938 8.761719 40.765625 C 8.292969 40.570312 7.878906 40.292969 7.519531 39.933594 C 7.160156 39.578125 6.882812 39.164062 6.6875 38.691406 C 6.496094 38.222656 6.398438 37.734375 6.398438 37.226562 C 6.398438 36.71875 6.496094 36.230469 6.6875 35.761719 C 6.882812 35.292969 7.160156 34.878906 7.519531 34.519531 C 7.878906 34.160156 8.292969 33.882812 8.761719 33.6875 C 9.230469 33.496094 9.71875 33.398438 10.226562 33.398438 C 10.734375 33.398438 11.222656 33.496094 11.691406 33.6875 C 12.164062 33.882812 12.578125 34.160156 12.9375 34.519531 C 13.292969 34.878906 13.570312 35.292969 13.765625 35.761719 C 13.960938 36.230469 14.058594 36.71875 14.058594 37.226562 Z M 14.058594 37.226562 " fill-opacity="1" fill-rule="nonzero"/></g><path fill="#dc7c17" d="M 12.828125 39.449219 L 11.480469 38.566406 L 11.46875 38.566406 C 11.296875 38.445312 11.125 38.324219 10.953125 38.203125 C 10.945312 38.203125 10.933594 38.203125 10.925781 38.203125 C 10.445312 38.199219 9.964844 38.199219 9.484375 38.195312 C 9.476562 38.195312 9.46875 38.195312 9.460938 38.195312 C 9.292969 38.320312 9.125 38.445312 8.957031 38.566406 L 8.949219 38.566406 C 8.507812 38.871094 8.070312 39.171875 7.628906 39.476562 C 7.601562 39.578125 7.570312 39.683594 7.542969 39.789062 C 7.566406 39.8125 7.589844 39.835938 7.613281 39.863281 C 8.214844 40.464844 9.023438 40.859375 9.921875 40.933594 C 9.945312 40.933594 9.96875 40.9375 9.988281 40.9375 C 10.042969 40.941406 10.097656 40.945312 10.152344 40.945312 C 10.175781 40.945312 10.199219 40.945312 10.222656 40.945312 C 10.242188 40.945312 10.257812 40.945312 10.277344 40.945312 C 10.34375 40.945312 10.40625 40.941406 10.472656 40.9375 C 10.492188 40.9375 10.507812 40.933594 10.527344 40.933594 C 11.433594 40.859375 12.25 40.457031 12.851562 39.84375 C 12.871094 39.824219 12.890625 39.800781 12.910156 39.78125 C 12.882812 39.667969 12.855469 39.558594 12.828125 39.449219 Z M 12.828125 39.449219 " fill-opacity="1" fill-rule="nonzero"/><path fill="#f8d8b3" d="M 10.953125 38.152344 L 10.953125 38.546875 C 10.953125 38.617188 10.9375 38.683594 10.902344 38.742188 C 10.902344 38.746094 10.902344 38.746094 10.902344 38.746094 C 10.867188 38.808594 10.789062 38.953125 10.625 39.074219 C 10.566406 39.117188 10.492188 39.175781 10.378906 39.207031 C 10.34375 39.214844 10.191406 39.253906 10.011719 39.195312 C 9.886719 39.15625 9.808594 39.09375 9.757812 39.050781 C 9.621094 38.941406 9.550781 38.8125 9.511719 38.746094 C 9.511719 38.746094 9.511719 38.742188 9.511719 38.742188 C 9.476562 38.683594 9.460938 38.613281 9.460938 38.546875 L 9.460938 38.152344 Z M 10.953125 38.152344 " fill-opacity="1" fill-rule="nonzero"/><path fill="#efc49a" d="M 9.164062 37.640625 C 9.214844 37.777344 9.308594 37.992188 9.488281 38.203125 C 9.65625 38.398438 9.894531 38.675781 10.222656 38.671875 C 10.554688 38.667969 10.789062 38.371094 10.925781 38.203125 C 11.074219 38.015625 11.152344 37.824219 11.191406 37.695312 C 11.210938 37.734375 11.242188 37.777344 11.277344 37.777344 C 11.390625 37.777344 11.480469 37.339844 11.507812 37.0625 C 11.527344 36.871094 11.558594 36.558594 11.445312 36.175781 C 11.363281 35.894531 11.25 35.511719 10.890625 35.261719 C 10.488281 34.984375 9.894531 34.957031 9.460938 35.234375 C 8.992188 35.53125 8.902344 36.058594 8.855469 36.316406 C 8.804688 36.613281 8.839844 36.847656 8.890625 37.191406 C 8.914062 37.335938 8.972656 37.726562 9.074219 37.730469 C 9.109375 37.734375 9.144531 37.683594 9.164062 37.640625 Z M 9.164062 37.640625 " fill-opacity="1" fill-rule="nonzero"/><path fill="#57484d" d="M 10.800781 35.644531 C 10.769531 35.679688 10.644531 35.824219 10.640625 36.039062 C 10.636719 36.328125 10.859375 36.503906 10.886719 36.519531 C 10.78125 36.492188 10.480469 36.394531 10.253906 36.097656 C 10.097656 35.890625 10.050781 35.679688 10.03125 35.570312 C 9.984375 35.636719 9.898438 35.78125 9.882812 35.980469 C 9.851562 36.304688 10.035156 36.539062 10.078125 36.589844 C 9.988281 36.558594 9.714844 36.449219 9.535156 36.15625 C 9.421875 35.96875 9.398438 35.789062 9.390625 35.691406 C 9.285156 35.804688 9.089844 36.046875 8.988281 36.414062 C 8.878906 36.816406 8.941406 37.152344 8.984375 37.304688 C 8.875 37.160156 8.640625 36.8125 8.601562 36.3125 C 8.589844 36.136719 8.550781 35.636719 8.886719 35.183594 C 9.304688 34.617188 9.976562 34.566406 10.09375 34.558594 C 10.203125 34.550781 10.933594 34.523438 11.414062 35.09375 C 11.785156 35.53125 11.769531 36.046875 11.765625 36.210938 C 11.742188 36.75 11.472656 37.121094 11.371094 37.246094 C 11.40625 37.132812 11.511719 36.757812 11.347656 36.324219 C 11.195312 35.921875 10.902344 35.710938 10.800781 35.644531 Z M 10.800781 35.644531 " fill-opacity="1" fill-rule="nonzero"/><g clip-path="url(#56f3501c48)"><path fill="#56317e" d="M 40.902344 37.210938 C 40.902344 37.644531 40.832031 38.0625 40.6875 38.472656 C 40.542969 38.878906 40.335938 39.253906 40.066406 39.589844 C 39.796875 39.929688 39.476562 40.210938 39.109375 40.441406 C 38.742188 40.671875 38.347656 40.835938 37.921875 40.929688 C 37.863281 40.941406 37.804688 40.953125 37.746094 40.964844 C 37.214844 41.058594 36.6875 41.042969 36.164062 40.914062 C 36.109375 40.902344 36.050781 40.886719 35.996094 40.871094 C 35.601562 40.753906 35.234375 40.578125 34.894531 40.34375 C 34.554688 40.105469 34.261719 39.824219 34.011719 39.496094 C 33.765625 39.164062 33.578125 38.804688 33.445312 38.414062 C 33.316406 38.023438 33.25 37.621094 33.25 37.210938 C 33.25 35.105469 34.964844 33.398438 37.078125 33.398438 C 39.191406 33.398438 40.902344 35.105469 40.902344 37.210938 Z M 40.902344 37.210938 " fill-opacity="1" fill-rule="nonzero"/></g><g clip-path="url(#fd328f200c)"><path fill="#ed6e0f" d="M 37.84375 34.367188 C 37.882812 34.425781 37.898438 34.496094 37.929688 34.558594 C 37.9375 34.574219 37.945312 34.585938 37.960938 34.597656 C 37.988281 34.613281 38.019531 34.597656 38.046875 34.59375 C 38.128906 34.574219 38.203125 34.589844 38.269531 34.640625 C 38.332031 34.691406 38.367188 34.757812 38.375 34.839844 C 38.382812 34.90625 38.378906 34.992188 38.4375 35.027344 C 38.476562 35.050781 38.527344 35.035156 38.574219 35.039062 C 38.675781 35.046875 38.75 35.140625 38.769531 35.238281 C 38.789062 35.335938 38.765625 35.433594 38.742188 35.53125 C 38.78125 35.65625 38.914062 35.6875 38.964844 35.777344 C 39.035156 35.917969 38.878906 36.105469 38.960938 36.238281 C 38.976562 36.265625 39.003906 36.289062 39.019531 36.316406 C 39.058594 36.386719 39.03125 36.472656 39.003906 36.546875 C 38.972656 36.621094 38.941406 36.703125 38.972656 36.773438 C 38.992188 36.824219 39.039062 36.863281 39.054688 36.914062 C 39.082031 37.015625 38.976562 37.105469 38.984375 37.210938 C 38.988281 37.273438 39.03125 37.324219 39.042969 37.386719 C 39.058594 37.511719 38.925781 37.636719 38.976562 37.753906 C 38.988281 37.777344 39.003906 37.796875 39.011719 37.824219 C 39.03125 37.871094 39.015625 37.921875 38.996094 37.96875 C 38.964844 38.035156 38.925781 38.09375 38.878906 38.148438 C 38.851562 38.222656 38.859375 38.296875 38.902344 38.363281 C 38.917969 38.386719 38.9375 38.414062 38.953125 38.4375 C 38.972656 38.492188 38.972656 38.542969 38.945312 38.59375 C 38.917969 38.644531 38.878906 38.679688 38.832031 38.710938 C 38.796875 38.730469 38.757812 38.753906 38.746094 38.789062 C 38.734375 38.820312 38.746094 38.851562 38.753906 38.878906 C 38.765625 38.941406 38.769531 39.015625 38.726562 39.0625 C 38.683594 39.113281 38.605469 39.113281 38.539062 39.101562 C 38.484375 39.089844 38.425781 39.070312 38.402344 39.019531 C 38.371094 38.957031 38.410156 38.871094 38.363281 38.816406 C 38.320312 38.761719 38.234375 38.785156 38.171875 38.75 C 38.136719 38.730469 38.117188 38.699219 38.113281 38.660156 C 38.109375 38.632812 38.117188 38.605469 38.117188 38.574219 C 38.117188 38.492188 38.078125 38.4375 37.996094 38.414062 C 37.964844 38.40625 37.929688 38.40625 37.902344 38.386719 C 37.871094 38.359375 37.863281 38.316406 37.867188 38.277344 C 37.871094 38.207031 37.882812 38.140625 37.910156 38.078125 C 37.914062 38.085938 35.984375 38.074219 35.984375 38.074219 C 36 38.148438 36.121094 38.285156 36.152344 38.355469 C 36.183594 38.425781 36.214844 38.5 36.210938 38.578125 C 36.207031 38.65625 36.164062 38.734375 36.09375 38.761719 C 36.054688 38.773438 36.011719 38.773438 35.976562 38.792969 C 35.914062 38.820312 35.890625 38.898438 35.878906 38.964844 C 35.875 38.992188 35.875 39.023438 35.855469 39.046875 C 35.816406 39.101562 35.722656 39.074219 35.6875 39.015625 C 35.652344 38.957031 35.65625 38.886719 35.65625 38.820312 C 35.660156 38.75 35.652344 38.675781 35.601562 38.628906 C 35.597656 38.621094 35.589844 38.621094 35.585938 38.617188 C 35.570312 38.617188 35.5625 38.625 35.554688 38.636719 C 35.476562 38.730469 35.460938 38.835938 35.511719 38.949219 C 35.535156 39.007812 35.578125 39.054688 35.601562 39.113281 C 35.625 39.167969 35.628906 39.242188 35.585938 39.285156 C 35.570312 39.300781 35.550781 39.308594 35.535156 39.324219 C 35.445312 39.402344 35.519531 39.574219 35.433594 39.660156 C 35.367188 39.722656 35.261719 39.695312 35.183594 39.652344 C 35.09375 39.601562 35.007812 39.515625 35.035156 39.417969 C 35.046875 39.371094 35.085938 39.335938 35.117188 39.296875 C 35.148438 39.257812 35.175781 39.203125 35.15625 39.15625 C 35.128906 39.101562 35.050781 39.089844 35.019531 39.035156 C 35.007812 39.011719 35.003906 38.988281 35.007812 38.960938 C 35.015625 38.878906 35.0625 38.804688 35.09375 38.726562 C 35.128906 38.648438 35.140625 38.550781 35.089844 38.488281 C 35.050781 38.605469 34.96875 38.761719 34.832031 38.75 C 34.796875 38.746094 34.765625 38.734375 34.734375 38.738281 C 34.65625 38.753906 34.640625 38.867188 34.578125 38.921875 C 34.492188 39 34.339844 38.925781 34.3125 38.8125 C 34.28125 38.703125 34.335938 38.585938 34.40625 38.492188 C 34.476562 38.402344 34.566406 38.324219 34.617188 38.222656 C 34.671875 38.117188 34.679688 37.980469 34.59375 37.898438 C 34.566406 37.871094 34.527344 37.855469 34.5 37.828125 C 34.417969 37.742188 34.449219 37.597656 34.511719 37.496094 C 34.554688 37.421875 34.617188 37.335938 34.582031 37.257812 C 34.554688 37.199219 34.484375 37.171875 34.4375 37.125 C 34.328125 37.011719 34.394531 36.820312 34.488281 36.695312 C 34.550781 36.613281 34.628906 36.519531 34.609375 36.417969 C 34.597656 36.363281 34.558594 36.3125 34.550781 36.253906 C 34.535156 36.101562 34.75 36.027344 34.796875 35.882812 C 34.835938 35.75 34.734375 35.601562 34.796875 35.476562 C 34.851562 35.367188 35.003906 35.351562 35.101562 35.273438 C 35.246094 35.152344 35.242188 34.894531 35.410156 34.804688 C 35.496094 34.761719 35.597656 34.773438 35.691406 34.769531 C 35.785156 34.769531 35.894531 34.734375 35.929688 34.648438 C 35.945312 34.601562 35.9375 34.550781 35.949219 34.5 C 35.984375 34.382812 36.128906 34.335938 36.253906 34.328125 C 36.378906 34.320312 36.515625 34.328125 36.609375 34.242188 C 36.671875 34.191406 36.699219 34.105469 36.757812 34.050781 C 36.851562 33.957031 37.003906 33.949219 37.125 34 C 37.246094 34.050781 37.339844 34.148438 37.421875 34.25 C 37.597656 34.1875 37.765625 34.242188 37.84375 34.367188 Z M 37.84375 34.367188 " fill-opacity="1" fill-rule="nonzero"/></g><path fill="#b84f43" d="M 38.535156 36.296875 C 38.535156 36.539062 38.484375 36.765625 38.378906 36.984375 L 37.996094 37.902344 C 37.972656 37.964844 37.941406 38.023438 37.910156 38.078125 L 37.921875 38.242188 L 37.976562 39.046875 C 37.621094 39.425781 36.214844 39.460938 35.90625 39.046875 L 35.972656 38.203125 L 35.984375 38.074219 C 35.957031 38.03125 35.933594 37.984375 35.914062 37.9375 C 35.914062 37.933594 35.519531 36.988281 35.519531 36.988281 C 35.441406 36.832031 35.394531 36.667969 35.371094 36.492188 C 35.398438 36.476562 35.425781 36.472656 35.453125 36.472656 L 35.753906 36.484375 C 35.835938 36.484375 35.886719 36.449219 35.910156 36.371094 L 35.984375 36.097656 C 36.007812 36.019531 36.0625 35.980469 36.148438 35.988281 L 36.339844 36.003906 C 36.433594 36.011719 36.488281 35.96875 36.503906 35.875 L 36.539062 35.664062 C 36.554688 35.5625 36.613281 35.523438 36.714844 35.535156 L 36.871094 35.554688 C 36.980469 35.570312 37.039062 35.523438 37.046875 35.410156 L 37.050781 35.289062 C 37.054688 35.238281 37.074219 35.199219 37.117188 35.171875 C 37.15625 35.140625 37.203125 35.136719 37.25 35.148438 L 37.351562 35.179688 C 37.449219 35.207031 37.511719 35.175781 37.542969 35.082031 L 37.617188 34.863281 C 37.898438 34.992188 38.121094 35.1875 38.285156 35.445312 C 38.453125 35.707031 38.535156 35.988281 38.535156 36.296875 Z M 38.535156 36.296875 " fill-opacity="1" fill-rule="nonzero"/><g clip-path="url(#b1e0aa3209)"><path fill="#242156" d="M 40.097656 39.550781 C 39.914062 39.789062 39.703125 40 39.472656 40.183594 C 39.238281 40.371094 38.984375 40.527344 38.714844 40.65625 C 38.445312 40.785156 38.164062 40.878906 37.871094 40.941406 C 37.578125 41.003906 37.28125 41.03125 36.984375 41.023438 C 36.683594 41.015625 36.390625 40.972656 36.101562 40.898438 C 35.8125 40.820312 35.535156 40.710938 35.269531 40.570312 C 35.007812 40.429688 34.761719 40.261719 34.539062 40.0625 C 34.316406 39.867188 34.117188 39.644531 33.945312 39.402344 L 34.074219 39.21875 C 34.15625 39.101562 34.25 38.992188 34.355469 38.890625 C 34.417969 38.953125 34.515625 38.976562 34.578125 38.921875 C 34.640625 38.867188 34.652344 38.753906 34.734375 38.738281 C 34.765625 38.734375 34.796875 38.746094 34.832031 38.75 C 34.96875 38.761719 35.050781 38.605469 35.089844 38.488281 C 35.140625 38.550781 35.128906 38.648438 35.09375 38.726562 C 35.0625 38.804688 35.015625 38.878906 35.007812 38.960938 C 35.003906 38.988281 35.007812 39.011719 35.019531 39.035156 C 35.050781 39.089844 35.128906 39.101562 35.15625 39.15625 C 35.175781 39.203125 35.148438 39.257812 35.117188 39.296875 C 35.085938 39.335938 35.046875 39.371094 35.035156 39.417969 C 35.007812 39.515625 35.09375 39.601562 35.183594 39.652344 C 35.261719 39.695312 35.367188 39.722656 35.433594 39.660156 C 35.519531 39.574219 35.445312 39.402344 35.535156 39.324219 C 35.550781 39.308594 35.570312 39.300781 35.585938 39.285156 C 35.628906 39.242188 35.625 39.167969 35.601562 39.113281 C 35.578125 39.054688 35.535156 39.007812 35.511719 38.949219 C 35.464844 38.835938 35.476562 38.730469 35.554688 38.636719 C 35.5625 38.625 35.570312 38.617188 35.585938 38.617188 C 35.59375 38.621094 35.597656 38.621094 35.601562 38.628906 C 35.652344 38.675781 35.65625 38.75 35.65625 38.820312 C 35.65625 38.886719 35.652344 38.957031 35.6875 39.015625 C 35.722656 39.074219 35.816406 39.101562 35.855469 39.046875 C 35.875 39.023438 35.875 38.992188 35.878906 38.964844 C 35.886719 38.917969 35.898438 38.875 35.925781 38.835938 L 35.90625 39.046875 C 36.214844 39.460938 37.621094 39.425781 37.976562 39.046875 L 37.929688 38.398438 C 37.953125 38.40625 37.976562 38.40625 37.996094 38.414062 C 38.078125 38.4375 38.117188 38.492188 38.117188 38.574219 C 38.117188 38.605469 38.109375 38.632812 38.113281 38.660156 C 38.117188 38.699219 38.136719 38.730469 38.171875 38.75 C 38.234375 38.785156 38.320312 38.761719 38.363281 38.816406 C 38.410156 38.871094 38.371094 38.957031 38.402344 39.019531 C 38.425781 39.070312 38.484375 39.089844 38.539062 39.101562 C 38.605469 39.113281 38.683594 39.113281 38.726562 39.0625 C 38.769531 39.015625 38.765625 38.941406 38.753906 38.878906 C 38.746094 38.851562 38.738281 38.820312 38.746094 38.792969 C 38.757812 38.753906 38.796875 38.730469 38.832031 38.710938 C 38.871094 38.683594 38.902344 38.65625 38.929688 38.617188 C 39.390625 38.828125 39.773438 39.132812 40.082031 39.53125 Z M 37.910156 38.078125 C 37.859375 38.160156 37.800781 38.234375 37.730469 38.304688 C 37.660156 38.371094 37.585938 38.429688 37.5 38.476562 C 37.414062 38.523438 37.324219 38.558594 37.230469 38.585938 C 37.136719 38.609375 37.042969 38.621094 36.945312 38.621094 C 36.847656 38.621094 36.753906 38.609375 36.660156 38.582031 C 36.566406 38.558594 36.476562 38.523438 36.390625 38.472656 C 36.308594 38.425781 36.230469 38.367188 36.160156 38.300781 C 36.09375 38.230469 36.03125 38.15625 35.984375 38.074219 L 35.972656 38.203125 C 36.179688 38.582031 36.5 38.777344 36.933594 38.785156 C 37.371094 38.796875 37.699219 38.613281 37.921875 38.242188 Z M 36.378906 36.742188 C 36.429688 36.742188 36.46875 36.671875 36.46875 36.585938 C 36.46875 36.503906 36.429688 36.433594 36.378906 36.433594 C 36.332031 36.433594 36.289062 36.503906 36.289062 36.585938 C 36.289062 36.671875 36.332031 36.742188 36.378906 36.742188 Z M 37.519531 36.742188 C 37.570312 36.742188 37.609375 36.671875 37.609375 36.585938 C 37.609375 36.503906 37.570312 36.433594 37.519531 36.433594 C 37.472656 36.433594 37.429688 36.503906 37.429688 36.585938 C 37.429688 36.671875 37.472656 36.742188 37.519531 36.742188 Z M 37.210938 37.234375 L 37.015625 36.546875 C 37.015625 36.535156 37.007812 36.53125 36.992188 36.53125 C 36.980469 36.535156 36.976562 36.542969 36.976562 36.554688 L 37.042969 37.222656 C 37.050781 37.261719 37.03125 37.285156 36.988281 37.285156 L 36.8125 37.285156 C 36.800781 37.285156 36.792969 37.289062 36.789062 37.300781 C 36.78125 37.3125 36.785156 37.320312 36.792969 37.332031 L 36.933594 37.496094 C 36.972656 37.535156 37.007812 37.535156 37.042969 37.496094 L 37.191406 37.324219 C 37.214844 37.296875 37.222656 37.269531 37.210938 37.234375 Z M 37.210938 37.234375 " fill-opacity="1" fill-rule="nonzero"/></g><g clip-path="url(#ab591ce228)"><path fill="#fcc00a" d="M 35.761719 37.574219 C 35.65625 37.703125 35.507812 37.765625 35.371094 37.722656 C 35.1875 37.660156 35.105469 37.410156 35.1875 37.171875 C 35.242188 37.019531 35.347656 36.90625 35.460938 36.855469 C 35.480469 36.902344 35.5 36.945312 35.519531 36.988281 C 35.519531 36.988281 35.652344 37.304688 35.761719 37.574219 Z M 38.695312 37.171875 C 38.644531 37.023438 38.542969 36.910156 38.429688 36.863281 C 38.414062 36.902344 38.398438 36.945312 38.378906 36.984375 L 38.128906 37.582031 C 38.234375 37.707031 38.378906 37.765625 38.511719 37.722656 C 38.695312 37.660156 38.777344 37.410156 38.695312 37.171875 Z M 38.699219 39.195312 C 38.695312 39.175781 38.683594 39.171875 38.664062 39.175781 C 38.644531 39.179688 38.636719 39.191406 38.640625 39.210938 L 38.777344 39.886719 C 38.789062 39.941406 38.765625 39.964844 38.714844 39.964844 L 37.582031 39.964844 C 37.566406 39.964844 37.558594 39.972656 37.558594 39.988281 C 37.554688 40 37.5625 40.011719 37.574219 40.015625 L 38.113281 40.152344 C 38.152344 40.164062 38.191406 40.164062 38.230469 40.152344 L 38.878906 39.984375 C 38.929688 39.972656 38.949219 39.941406 38.929688 39.890625 Z M 36.355469 39.964844 L 35.222656 39.964844 C 35.167969 39.964844 35.148438 39.941406 35.160156 39.886719 L 35.203125 39.664062 C 35.195312 39.660156 35.1875 39.65625 35.183594 39.652344 C 35.152344 39.636719 35.128906 39.617188 35.105469 39.59375 L 35.007812 39.890625 C 34.988281 39.941406 35.007812 39.972656 35.058594 39.984375 L 35.707031 40.152344 C 35.746094 40.164062 35.785156 40.164062 35.824219 40.152344 L 36.363281 40.015625 C 36.375 40.011719 36.382812 40 36.378906 39.988281 C 36.378906 39.972656 36.371094 39.964844 36.355469 39.964844 Z M 37.976562 39.050781 L 37.972656 39.050781 C 37.617188 39.425781 36.21875 39.460938 35.910156 39.050781 L 35.90625 39.050781 L 36.652344 40.007812 L 36.164062 40.914062 C 36.6875 41.042969 37.214844 41.058594 37.746094 40.964844 L 37.234375 40.007812 Z M 37.976562 39.050781 " fill-opacity="1" fill-rule="nonzero"/></g><g clip-path="url(#eb3822e2c7)"><path fill="#455881" d="M 23.617188 4.320312 C 23.070312 4.320312 22.636719 4.011719 22.636719 3.617188 C 22.636719 3.515625 22.722656 3.429688 22.824219 3.429688 C 22.925781 3.429688 23.011719 3.515625 23.011719 3.617188 C 23.011719 3.773438 23.269531 3.941406 23.617188 3.941406 C 23.722656 3.941406 23.804688 4.027344 23.804688 4.128906 C 23.804688 4.234375 23.722656 4.320312 23.617188 4.320312 Z M 36.09375 3.378906 L 23.855469 0.0351562 C 23.726562 0 23.515625 0 23.382812 0.0351562 L 11.140625 3.378906 C 11.070312 3.398438 11.039062 3.429688 11.042969 3.460938 C 11.042969 3.464844 11.042969 3.46875 11.042969 3.476562 C 11.042969 3.480469 11.042969 3.484375 11.042969 3.488281 C 11.042969 3.492188 11.042969 3.496094 11.042969 3.5 C 11.042969 3.503906 11.042969 3.507812 11.042969 3.515625 C 11.042969 3.519531 11.042969 3.523438 11.042969 3.527344 C 11.042969 3.53125 11.042969 3.535156 11.042969 3.539062 C 11.042969 3.542969 11.042969 3.546875 11.042969 3.554688 C 11.042969 3.558594 11.042969 3.5625 11.042969 3.566406 C 11.042969 3.570312 11.042969 3.574219 11.042969 3.578125 C 11.042969 3.582031 11.042969 3.585938 11.042969 3.59375 C 11.042969 3.597656 11.042969 3.601562 11.042969 3.605469 C 11.042969 3.609375 11.042969 3.613281 11.042969 3.617188 C 11.042969 3.621094 11.042969 3.625 11.042969 3.632812 C 11.042969 3.636719 11.042969 3.640625 11.042969 3.644531 C 11.042969 3.648438 11.042969 3.652344 11.042969 3.65625 C 11.042969 3.660156 11.042969 3.664062 11.042969 3.667969 C 11.042969 3.675781 11.042969 3.679688 11.042969 3.683594 C 11.042969 3.6875 11.042969 3.691406 11.042969 3.695312 C 11.042969 3.699219 11.042969 3.703125 11.042969 3.710938 C 11.042969 3.714844 11.042969 3.71875 11.042969 3.722656 C 11.042969 3.726562 11.042969 3.730469 11.042969 3.734375 C 11.042969 3.738281 11.042969 3.742188 11.042969 3.75 C 11.035156 3.78125 11.0625 3.8125 11.128906 3.84375 L 15.769531 6.007812 L 22.484375 4.320312 L 16.726562 6.457031 L 16.726562 12.46875 C 16.484375 12.5625 16.3125 12.800781 16.3125 13.078125 C 16.3125 13.230469 16.367188 13.371094 16.457031 13.480469 C 15.851562 13.863281 15.414062 14.90625 15.414062 16.140625 L 18.511719 16.140625 C 18.511719 14.90625 18.074219 13.863281 17.46875 13.480469 C 17.558594 13.371094 17.613281 13.230469 17.613281 13.078125 C 17.613281 12.800781 17.441406 12.5625 17.199219 12.46875 L 17.199219 6.675781 L 23.398438 9.570312 C 23.519531 9.625 23.71875 9.625 23.839844 9.570312 L 36.109375 3.84375 C 36.175781 3.8125 36.203125 3.78125 36.195312 3.75 C 36.195312 3.742188 36.195312 3.738281 36.195312 3.734375 C 36.195312 3.730469 36.195312 3.726562 36.195312 3.722656 C 36.195312 3.71875 36.195312 3.714844 36.195312 3.707031 C 36.195312 3.703125 36.195312 3.699219 36.195312 3.695312 C 36.195312 3.691406 36.195312 3.6875 36.195312 3.683594 C 36.195312 3.679688 36.195312 3.675781 36.195312 3.667969 C 36.195312 3.664062 36.195312 3.660156 36.195312 3.65625 C 36.195312 3.652344 36.195312 3.648438 36.195312 3.644531 C 36.195312 3.640625 36.195312 3.636719 36.195312 3.632812 C 36.195312 3.625 36.195312 3.621094 36.195312 3.617188 C 36.195312 3.613281 36.195312 3.609375 36.195312 3.605469 C 36.195312 3.601562 36.195312 3.597656 36.195312 3.59375 C 36.195312 3.585938 36.195312 3.582031 36.195312 3.578125 C 36.195312 3.574219 36.195312 3.570312 36.195312 3.566406 C 36.195312 3.5625 36.195312 3.558594 36.195312 3.554688 C 36.195312 3.546875 36.195312 3.542969 36.195312 3.539062 C 36.195312 3.535156 36.195312 3.53125 36.195312 3.527344 C 36.195312 3.523438 36.195312 3.519531 36.195312 3.515625 C 36.195312 3.507812 36.195312 3.503906 36.195312 3.5 C 36.195312 3.496094 36.195312 3.492188 36.195312 3.488281 C 36.195312 3.484375 36.195312 3.480469 36.195312 3.476562 C 36.195312 3.46875 36.195312 3.464844 36.195312 3.460938 C 36.199219 3.429688 36.167969 3.398438 36.09375 3.378906 " fill-opacity="1" fill-rule="nonzero"/></g><path fill="#455881" d="M 23.398438 10.085938 L 17.644531 7.402344 L 17.644531 11.832031 C 18.875 12.578125 21.089844 13.078125 23.617188 13.078125 C 27.484375 13.078125 30.621094 11.914062 30.621094 10.476562 L 30.621094 6.921875 L 23.839844 10.085938 C 23.71875 10.144531 23.519531 10.144531 23.398438 10.085938 " fill-opacity="1" fill-rule="nonzero"/></svg>