<svg xmlns="http://www.w3.org/2000/svg" xmlns:xlink="http://www.w3.org/1999/xlink" width="88" zoomAndPan="magnify" viewBox="0 0 66 58.499998" height="78" preserveAspectRatio="xMidYMid meet" version="1.0"><defs><clipPath id="578e09ad0f"><path d="M 0.28125 21 L 65.71875 21 L 65.71875 57.714844 L 0.28125 57.714844 Z M 0.28125 21 " clip-rule="nonzero"/></clipPath><clipPath id="6be370439e"><path d="M 0.28125 0.796875 L 13 0.796875 L 13 22 L 0.28125 22 Z M 0.28125 0.796875 " clip-rule="nonzero"/></clipPath><clipPath id="b0a5378dbd"><path d="M 53 0.796875 L 65.71875 0.796875 L 65.71875 22 L 53 22 Z M 53 0.796875 " clip-rule="nonzero"/></clipPath><clipPath id="d245a8825d"><path d="M 36 13 L 50.300781 13 L 50.300781 26 L 36 26 Z M 36 13 " clip-rule="nonzero"/></clipPath><clipPath id="7dda837119"><path d="M 39 2.929688 L 48 2.929688 L 48 12 L 39 12 Z M 39 2.929688 " clip-rule="nonzero"/></clipPath><clipPath id="7768f26c2f"><path d="M 15.199219 13 L 29 13 L 29 26 L 15.199219 26 Z M 15.199219 13 " clip-rule="nonzero"/></clipPath><clipPath id="e0652435cc"><path d="M 17 2.929688 L 27 2.929688 L 27 12 L 17 12 Z M 17 2.929688 " clip-rule="nonzero"/></clipPath><clipPath id="fe3cb93991"><path d="M 37 0 L 49.988281 0 L 49.988281 4 L 37 4 Z M 37 0 " clip-rule="nonzero"/></clipPath><clipPath id="541492f4cc"><path d="M 40 1 L 47 1 L 47 5.691406 L 40 5.691406 Z M 40 1 " clip-rule="nonzero"/></clipPath><clipPath id="12d2c62804"><path d="M 36.707031 2 L 38 2 L 38 5.691406 L 36.707031 5.691406 Z M 36.707031 2 " clip-rule="nonzero"/></clipPath><clipPath id="681273a34f"><path d="M 26 2.929688 L 39.234375 2.929688 L 39.234375 7 L 26 7 Z M 26 2.929688 " clip-rule="nonzero"/></clipPath><clipPath id="1390026249"><path d="M 30 4 L 37 4 L 37 8.621094 L 30 8.621094 Z M 30 4 " clip-rule="nonzero"/></clipPath><clipPath id="4e11681f73"><path d="M 25.953125 5 L 28 5 L 28 8.621094 L 25.953125 8.621094 Z M 25.953125 5 " clip-rule="nonzero"/></clipPath><clipPath id="62ca1c1e6b"><path d="M 15.199219 0 L 28.480469 0 L 28.480469 4 L 15.199219 4 Z M 15.199219 0 " clip-rule="nonzero"/></clipPath><clipPath id="4c9ead2aec"><path d="M 19 1 L 26 1 L 26 5.691406 L 19 5.691406 Z M 19 1 " clip-rule="nonzero"/></clipPath><clipPath id="840fc403ea"><path d="M 15.199219 2 L 17 2 L 17 3 L 15.199219 3 Z M 15.199219 2 " clip-rule="nonzero"/></clipPath><clipPath id="e9019c4ebb"><path d="M 15.199219 2 L 17 2 L 17 5.691406 L 15.199219 5.691406 Z M 15.199219 2 " clip-rule="nonzero"/></clipPath><clipPath id="30f0f728da"><path d="M 18.851562 31.546875 L 29.289062 31.546875 L 29.289062 41.984375 L 18.851562 41.984375 Z M 18.851562 31.546875 " clip-rule="nonzero"/></clipPath><clipPath id="4002d90b23"><path d="M 36.707031 31.546875 L 42 31.546875 L 42 38 L 36.707031 38 Z M 36.707031 31.546875 " clip-rule="nonzero"/></clipPath><clipPath id="5693056df3"><path d="M 42 35 L 47.144531 35 L 47.144531 41.984375 L 42 41.984375 Z M 42 35 " clip-rule="nonzero"/></clipPath><clipPath id="bcaa3d8608"><path d="M 43 40 L 47 40 L 47 41.984375 L 43 41.984375 Z M 43 40 " clip-rule="nonzero"/></clipPath><clipPath id="7fe7299fbb"><path d="M 41 31.546875 L 46 31.546875 L 46 36 L 41 36 Z M 41 31.546875 " clip-rule="nonzero"/></clipPath><clipPath id="2bb7ed89b3"><path d="M 38 38 L 43 38 L 43 41.984375 L 38 41.984375 Z M 38 38 " clip-rule="nonzero"/></clipPath><clipPath id="b1ca1d360d"><path d="M 26 44.546875 L 30 44.546875 L 30 47 L 26 47 Z M 26 44.546875 " clip-rule="nonzero"/></clipPath><clipPath id="a372d49579"><path d="M 25.492188 46 L 32 46 L 32 54.984375 L 25.492188 54.984375 Z M 25.492188 46 " clip-rule="nonzero"/></clipPath><clipPath id="73e029a5bb"><path d="M 29 45 L 39.722656 45 L 39.722656 53 L 29 53 Z M 29 45 " clip-rule="nonzero"/></clipPath></defs><g clip-path="url(#578e09ad0f)"><path fill="#000000" d="M 32.816406 57.707031 C 25.878906 57.707031 19.261719 55.554688 13.675781 51.484375 C 10.984375 49.527344 8.617188 47.175781 6.640625 44.5 C 4.636719 41.792969 3.074219 38.8125 1.996094 35.636719 C 0.855469 32.277344 0.277344 28.753906 0.277344 25.171875 C 0.277344 24.089844 0.332031 23 0.4375 21.929688 L 0.703125 21.957031 C 0.597656 23.019531 0.546875 24.097656 0.546875 25.171875 C 0.546875 28.726562 1.121094 32.21875 2.25 35.550781 C 3.320312 38.699219 4.867188 41.65625 6.855469 44.339844 C 8.816406 46.996094 11.164062 49.324219 13.832031 51.269531 C 19.375 55.304688 25.9375 57.441406 32.816406 57.441406 C 39.78125 57.441406 46.414062 55.253906 51.996094 51.121094 C 54.683594 49.132812 57.035156 46.75 58.992188 44.042969 C 60.972656 41.296875 62.503906 38.28125 63.535156 35.070312 C 64.5625 31.882812 65.082031 28.554688 65.082031 25.171875 C 65.082031 24.371094 65.015625 22.9375 64.902344 21.921875 L 65.167969 21.890625 C 65.28125 22.917969 65.351562 24.367188 65.351562 25.171875 C 65.351562 28.582031 64.828125 31.9375 63.792969 35.152344 C 62.75 38.390625 61.207031 41.433594 59.210938 44.199219 C 57.238281 46.929688 54.863281 49.332031 52.15625 51.339844 C 46.527344 55.503906 39.839844 57.707031 32.816406 57.707031 " fill-opacity="1" fill-rule="nonzero"/></g><g clip-path="url(#6be370439e)"><path fill="#100f0d" d="M 0.71875 21.925781 L 0.453125 21.890625 C 0.816406 19.179688 1.777344 16.890625 2.796875 14.464844 C 3.246094 13.402344 3.707031 12.300781 4.113281 11.164062 C 5.371094 7.644531 7.773438 4.445312 10.097656 1.347656 L 10.425781 0.914062 L 10.476562 0.90625 C 10.976562 0.820312 11.40625 0.957031 11.71875 1.296875 C 12.335938 1.964844 12.371094 3.242188 12.195312 3.9375 C 11.761719 5.460938 10.964844 6.808594 10.195312 8.113281 C 9.070312 10.019531 8.007812 11.820312 7.988281 14.101562 L 7.71875 14.097656 C 7.742188 11.746094 8.871094 9.828125 9.964844 7.976562 C 10.726562 6.6875 11.511719 5.351562 11.9375 3.867188 C 12.121094 3.136719 12.015625 2.011719 11.519531 1.476562 C 11.28125 1.214844 10.960938 1.109375 10.574219 1.160156 L 10.3125 1.507812 C 8 4.589844 5.609375 7.773438 4.363281 11.253906 C 3.957031 12.398438 3.492188 13.503906 3.042969 14.570312 C 2.03125 16.976562 1.074219 19.25 0.71875 21.925781 " fill-opacity="1" fill-rule="nonzero"/></g><path fill="#100f0d" d="M 11.074219 42.09375 L 10.863281 41.925781 C 11.726562 40.84375 12.367188 39.597656 13.0625 38.054688 C 14.09375 35.769531 15.507812 32.640625 14.671875 29.976562 C 13.757812 27.0625 12.628906 24.980469 10.898438 23.015625 L 11.097656 22.835938 C 12.859375 24.835938 14 26.945312 14.925781 29.894531 C 15.792969 32.660156 14.355469 35.839844 13.304688 38.164062 C 12.695312 39.515625 12.003906 40.925781 11.074219 42.09375 " fill-opacity="1" fill-rule="nonzero"/><path fill="#100f0d" d="M 6.015625 28.644531 L 5.871094 28.417969 L 5.945312 28.53125 L 5.867188 28.421875 C 5.882812 28.410156 7.347656 27.171875 4.644531 17.742188 C 3.597656 14.089844 4.53125 13.101562 5.179688 12.839844 C 6.128906 12.457031 7.550781 13.230469 8.226562 14.5 C 8.289062 14.613281 8.515625 15.324219 8.949219 16.679688 C 9.644531 18.855469 10.808594 22.492188 11.101562 22.839844 L 10.894531 23.011719 C 10.59375 22.65625 9.683594 19.851562 8.695312 16.761719 C 8.359375 15.714844 8.042969 14.722656 7.992188 14.625 C 7.375 13.472656 6.109375 12.753906 5.28125 13.085938 C 4.824219 13.273438 3.875 14.089844 4.902344 17.667969 C 6.066406 21.738281 6.621094 24.804688 6.542969 26.789062 C 6.484375 28.300781 6.066406 28.613281 6.015625 28.644531 " fill-opacity="1" fill-rule="nonzero"/><path fill="#100f0d" d="M 9.003906 16.75 L 8.746094 16.675781 C 9.3125 14.773438 10.246094 13.410156 11.152344 12.09375 C 11.886719 11.023438 12.582031 10.011719 13.089844 8.730469 C 13.335938 8.050781 13.480469 6.816406 13.035156 6.222656 C 12.847656 5.972656 12.582031 5.859375 12.222656 5.871094 C 11.757812 6.378906 11.351562 6.863281 10.925781 7.375 C 10.609375 7.753906 10.28125 8.144531 9.921875 8.554688 L 9.722656 8.378906 C 10.078125 7.972656 10.40625 7.582031 10.71875 7.203125 C 11.160156 6.675781 11.578125 6.175781 12.0625 5.648438 L 12.097656 5.609375 L 12.152344 5.605469 C 12.628906 5.574219 12.996094 5.730469 13.246094 6.0625 C 13.546875 6.460938 13.601562 7.03125 13.59375 7.4375 C 13.582031 7.898438 13.488281 8.417969 13.34375 8.828125 C 12.820312 10.136719 12.085938 11.207031 11.371094 12.246094 C 10.480469 13.546875 9.554688 14.890625 9.003906 16.75 " fill-opacity="1" fill-rule="nonzero"/><g clip-path="url(#b0a5378dbd)"><path fill="#100f0d" d="M 64.902344 21.925781 C 64.546875 19.25 63.589844 16.976562 62.578125 14.570312 C 62.128906 13.503906 61.664062 12.398438 61.257812 11.253906 C 60.011719 7.773438 57.621094 4.589844 55.308594 1.507812 L 55.046875 1.160156 C 54.660156 1.109375 54.34375 1.214844 54.101562 1.476562 C 53.609375 2.011719 53.5 3.136719 53.6875 3.875 C 54.109375 5.351562 54.894531 6.6875 55.65625 7.976562 C 56.75 9.828125 57.878906 11.746094 57.902344 14.097656 L 57.632812 14.101562 C 57.613281 11.820312 56.550781 10.019531 55.425781 8.113281 C 54.65625 6.808594 53.859375 5.460938 53.425781 3.941406 C 53.253906 3.242188 53.285156 1.964844 53.902344 1.296875 C 54.214844 0.957031 54.644531 0.820312 55.144531 0.90625 L 55.195312 0.914062 L 55.523438 1.347656 C 57.847656 4.445312 60.25 7.644531 61.507812 11.164062 C 61.914062 12.300781 62.378906 13.402344 62.824219 14.464844 C 63.84375 16.890625 64.804688 19.179688 65.167969 21.890625 L 64.902344 21.925781 " fill-opacity="1" fill-rule="nonzero"/></g><path fill="#100f0d" d="M 54.546875 42.09375 C 53.617188 40.925781 52.925781 39.515625 52.316406 38.164062 C 51.265625 35.839844 49.828125 32.660156 50.695312 29.894531 C 51.621094 26.945312 52.765625 24.835938 54.523438 22.835938 L 54.722656 23.015625 C 52.992188 24.980469 51.863281 27.0625 50.949219 29.976562 C 50.117188 32.640625 51.527344 35.769531 52.558594 38.054688 C 53.257812 39.597656 53.894531 40.84375 54.757812 41.925781 L 54.546875 42.09375 " fill-opacity="1" fill-rule="nonzero"/><path fill="#100f0d" d="M 59.605469 28.644531 C 59.554688 28.613281 59.136719 28.300781 59.078125 26.789062 C 59 24.804688 59.554688 21.738281 60.71875 17.667969 C 61.746094 14.089844 60.796875 13.273438 60.339844 13.085938 C 59.511719 12.753906 58.246094 13.472656 57.628906 14.625 C 57.578125 14.722656 57.261719 15.714844 56.925781 16.761719 C 55.941406 19.851562 55.027344 22.65625 54.726562 23.011719 L 54.519531 22.839844 C 54.816406 22.492188 55.976562 18.855469 56.671875 16.679688 C 57.105469 15.324219 57.332031 14.613281 57.394531 14.5 C 58.070312 13.230469 59.496094 12.457031 60.441406 12.839844 C 61.089844 13.101562 62.027344 14.089844 60.976562 17.742188 C 58.273438 27.171875 59.738281 28.410156 59.753906 28.421875 L 59.605469 28.644531 " fill-opacity="1" fill-rule="nonzero"/><path fill="#100f0d" d="M 56.617188 16.75 C 56.066406 14.890625 55.140625 13.546875 54.25 12.246094 C 53.535156 11.207031 52.800781 10.136719 52.28125 8.832031 C 52.132812 8.417969 52.039062 7.898438 52.03125 7.4375 C 52.019531 7.03125 52.074219 6.460938 52.375 6.0625 C 52.625 5.730469 52.992188 5.578125 53.472656 5.605469 L 53.523438 5.609375 L 53.5625 5.648438 C 54.042969 6.175781 54.460938 6.675781 54.902344 7.203125 C 55.21875 7.582031 55.542969 7.972656 55.898438 8.378906 L 55.699219 8.554688 C 55.339844 8.144531 55.011719 7.753906 54.695312 7.375 C 54.269531 6.863281 53.863281 6.378906 53.402344 5.871094 C 53.039062 5.859375 52.773438 5.972656 52.585938 6.222656 C 52.140625 6.816406 52.285156 8.050781 52.53125 8.734375 C 53.039062 10.011719 53.734375 11.023438 54.46875 12.09375 C 55.375 13.410156 56.308594 14.773438 56.875 16.675781 L 56.617188 16.75 " fill-opacity="1" fill-rule="nonzero"/><path fill="#205a8e" d="M 34.648438 16.539062 L 30.984375 16.539062 C 28.121094 16.539062 25.804688 18.855469 25.804688 21.71875 L 25.804688 27.617188 C 30.328125 29.265625 35.296875 29.265625 39.820312 27.617188 L 39.820312 21.71875 C 39.828125 18.855469 37.507812 16.539062 34.648438 16.539062 Z M 34.648438 16.539062 " fill-opacity="1" fill-rule="nonzero"/><path fill="#205a8e" d="M 37.066406 10.589844 C 37.066406 10.871094 37.039062 11.148438 36.984375 11.421875 C 36.929688 11.695312 36.847656 11.960938 36.742188 12.21875 C 36.636719 12.476562 36.503906 12.71875 36.347656 12.953125 C 36.195312 13.183594 36.019531 13.398438 35.820312 13.597656 C 35.625 13.792969 35.410156 13.96875 35.175781 14.125 C 34.945312 14.28125 34.699219 14.410156 34.441406 14.515625 C 34.183594 14.625 33.917969 14.703125 33.644531 14.757812 C 33.371094 14.8125 33.09375 14.839844 32.816406 14.839844 C 32.535156 14.839844 32.261719 14.8125 31.988281 14.757812 C 31.714844 14.703125 31.449219 14.625 31.191406 14.515625 C 30.933594 14.410156 30.6875 14.28125 30.457031 14.125 C 30.222656 13.96875 30.007812 13.792969 29.8125 13.597656 C 29.613281 13.398438 29.4375 13.183594 29.28125 12.953125 C 29.128906 12.71875 28.996094 12.476562 28.890625 12.21875 C 28.785156 11.960938 28.703125 11.695312 28.648438 11.421875 C 28.59375 11.148438 28.566406 10.871094 28.566406 10.589844 C 28.566406 10.3125 28.59375 10.035156 28.648438 9.761719 C 28.703125 9.488281 28.785156 9.222656 28.890625 8.964844 C 28.996094 8.707031 29.128906 8.460938 29.28125 8.230469 C 29.4375 8 29.613281 7.785156 29.8125 7.585938 C 30.007812 7.390625 30.222656 7.214844 30.457031 7.058594 C 30.6875 6.902344 30.933594 6.773438 31.191406 6.664062 C 31.449219 6.558594 31.714844 6.480469 31.988281 6.425781 C 32.261719 6.371094 32.535156 6.34375 32.816406 6.34375 C 33.09375 6.34375 33.371094 6.371094 33.644531 6.425781 C 33.917969 6.480469 34.183594 6.558594 34.441406 6.664062 C 34.699219 6.773438 34.945312 6.902344 35.175781 7.058594 C 35.410156 7.214844 35.625 7.390625 35.820312 7.585938 C 36.019531 7.785156 36.195312 8 36.347656 8.230469 C 36.503906 8.460938 36.636719 8.707031 36.742188 8.964844 C 36.847656 9.222656 36.929688 9.488281 36.984375 9.761719 C 37.039062 10.035156 37.066406 10.3125 37.066406 10.589844 Z M 37.066406 10.589844 " fill-opacity="1" fill-rule="nonzero"/><g clip-path="url(#d245a8825d)"><path fill="#205a8e" d="M 45.253906 13.128906 L 41.589844 13.128906 C 39.574219 13.128906 37.824219 14.285156 36.972656 15.96875 C 39.242188 16.890625 40.847656 19.117188 40.847656 21.710938 L 40.847656 25.277344 C 44.0625 25.683594 47.351562 25.324219 50.433594 24.207031 L 50.433594 18.308594 C 50.433594 15.445312 48.113281 13.128906 45.253906 13.128906 Z M 45.253906 13.128906 " fill-opacity="1" fill-rule="nonzero"/></g><g clip-path="url(#7dda837119)"><path fill="#205a8e" d="M 47.671875 7.179688 C 47.671875 7.460938 47.644531 7.734375 47.589844 8.011719 C 47.535156 8.285156 47.453125 8.550781 47.347656 8.808594 C 47.238281 9.066406 47.109375 9.308594 46.953125 9.542969 C 46.800781 9.773438 46.621094 9.988281 46.425781 10.183594 C 46.226562 10.382812 46.011719 10.558594 45.78125 10.714844 C 45.550781 10.867188 45.304688 11 45.046875 11.105469 C 44.789062 11.214844 44.523438 11.292969 44.25 11.347656 C 43.976562 11.402344 43.699219 11.429688 43.421875 11.429688 C 43.140625 11.429688 42.867188 11.402344 42.59375 11.347656 C 42.316406 11.292969 42.050781 11.214844 41.792969 11.105469 C 41.539062 11 41.292969 10.867188 41.058594 10.714844 C 40.828125 10.558594 40.613281 10.382812 40.417969 10.183594 C 40.21875 9.988281 40.042969 9.773438 39.886719 9.542969 C 39.734375 9.308594 39.601562 9.066406 39.496094 8.808594 C 39.386719 8.550781 39.308594 8.285156 39.253906 8.011719 C 39.199219 7.734375 39.171875 7.460938 39.171875 7.179688 C 39.171875 6.902344 39.199219 6.625 39.253906 6.351562 C 39.308594 6.078125 39.386719 5.8125 39.496094 5.554688 C 39.601562 5.296875 39.734375 5.050781 39.886719 4.820312 C 40.042969 4.589844 40.21875 4.375 40.417969 4.175781 C 40.613281 3.980469 40.828125 3.804688 41.058594 3.648438 C 41.292969 3.492188 41.539062 3.363281 41.792969 3.253906 C 42.050781 3.148438 42.316406 3.066406 42.59375 3.011719 C 42.867188 2.960938 43.140625 2.933594 43.421875 2.933594 C 43.699219 2.933594 43.976562 2.960938 44.25 3.011719 C 44.523438 3.066406 44.789062 3.148438 45.046875 3.253906 C 45.304688 3.363281 45.550781 3.492188 45.78125 3.648438 C 46.011719 3.804688 46.226562 3.980469 46.425781 4.175781 C 46.621094 4.375 46.800781 4.589844 46.953125 4.820312 C 47.109375 5.050781 47.238281 5.296875 47.347656 5.554688 C 47.453125 5.8125 47.535156 6.078125 47.589844 6.351562 C 47.644531 6.625 47.671875 6.902344 47.671875 7.179688 Z M 47.671875 7.179688 " fill-opacity="1" fill-rule="nonzero"/></g><g clip-path="url(#7768f26c2f)"><path fill="#205a8e" d="M 28.660156 15.976562 C 27.804688 14.289062 26.058594 13.136719 24.042969 13.136719 L 20.378906 13.136719 C 17.519531 13.128906 15.199219 15.445312 15.199219 18.308594 L 15.199219 24.207031 C 18.285156 25.332031 21.570312 25.683594 24.78125 25.277344 L 24.78125 21.710938 C 24.78125 19.117188 26.390625 16.890625 28.660156 15.976562 Z M 28.660156 15.976562 " fill-opacity="1" fill-rule="nonzero"/></g><g clip-path="url(#e0652435cc)"><path fill="#205a8e" d="M 26.460938 7.179688 C 26.460938 7.460938 26.433594 7.734375 26.378906 8.011719 C 26.324219 8.285156 26.242188 8.550781 26.136719 8.808594 C 26.03125 9.066406 25.898438 9.308594 25.742188 9.542969 C 25.589844 9.773438 25.414062 9.988281 25.214844 10.183594 C 25.019531 10.382812 24.804688 10.558594 24.570312 10.714844 C 24.339844 10.867188 24.09375 11 23.835938 11.105469 C 23.578125 11.214844 23.3125 11.292969 23.039062 11.347656 C 22.765625 11.402344 22.488281 11.429688 22.210938 11.429688 C 21.933594 11.429688 21.65625 11.402344 21.382812 11.347656 C 21.109375 11.292969 20.84375 11.214844 20.585938 11.105469 C 20.328125 11 20.082031 10.867188 19.851562 10.714844 C 19.617188 10.558594 19.402344 10.382812 19.207031 10.183594 C 19.007812 9.988281 18.832031 9.773438 18.679688 9.542969 C 18.523438 9.308594 18.390625 9.066406 18.285156 8.808594 C 18.179688 8.550781 18.097656 8.285156 18.042969 8.011719 C 17.988281 7.734375 17.960938 7.460938 17.960938 7.179688 C 17.960938 6.902344 17.988281 6.625 18.042969 6.351562 C 18.097656 6.078125 18.179688 5.8125 18.285156 5.554688 C 18.390625 5.296875 18.523438 5.050781 18.679688 4.820312 C 18.832031 4.589844 19.007812 4.375 19.207031 4.175781 C 19.402344 3.980469 19.617188 3.804688 19.851562 3.648438 C 20.082031 3.492188 20.328125 3.363281 20.585938 3.253906 C 20.84375 3.148438 21.109375 3.066406 21.382812 3.011719 C 21.65625 2.960938 21.933594 2.933594 22.210938 2.933594 C 22.488281 2.933594 22.765625 2.960938 23.039062 3.011719 C 23.3125 3.066406 23.578125 3.148438 23.835938 3.253906 C 24.09375 3.363281 24.339844 3.492188 24.570312 3.648438 C 24.804688 3.804688 25.019531 3.980469 25.214844 4.175781 C 25.414062 4.375 25.589844 4.589844 25.742188 4.820312 C 25.898438 5.050781 26.03125 5.296875 26.136719 5.554688 C 26.242188 5.8125 26.324219 6.078125 26.378906 6.351562 C 26.433594 6.625 26.460938 6.902344 26.460938 7.179688 Z M 26.460938 7.179688 " fill-opacity="1" fill-rule="nonzero"/></g><g clip-path="url(#fe3cb93991)"><path fill="#000000" d="M 43.851562 3.828125 L 50.425781 1.792969 L 43.851562 0 L 37.277344 2.644531 L 43.851562 3.828125 " fill-opacity="1" fill-rule="nonzero"/></g><g clip-path="url(#541492f4cc)"><path fill="#000000" d="M 46.863281 1.914062 L 46.863281 5.855469 C 46.386719 4.664062 45.214844 4.128906 43.851562 4.128906 C 42.53125 4.128906 41.402344 4.613281 40.898438 5.746094 L 40.898438 1.914062 L 46.863281 1.914062 " fill-opacity="1" fill-rule="nonzero"/></g><path fill="#000000" d="M 37.113281 2.636719 C 37.113281 2.792969 37.238281 2.917969 37.394531 2.917969 C 37.546875 2.917969 37.675781 2.792969 37.675781 2.636719 C 37.675781 2.484375 37.546875 2.359375 37.394531 2.359375 C 37.238281 2.359375 37.113281 2.484375 37.113281 2.636719 " fill-opacity="1" fill-rule="nonzero"/><g clip-path="url(#12d2c62804)"><path fill="#000000" d="M 37.390625 2.917969 C 37.390625 2.917969 37.074219 3.164062 37.390625 3.832031 C 37.707031 4.5 36.71875 5.5625 36.71875 5.5625 L 37.269531 5.238281 C 37.269531 5.238281 37.132812 5.585938 37.085938 5.746094 C 37.085938 5.746094 38.234375 4.894531 37.675781 3.765625 C 37.113281 2.636719 37.390625 2.917969 37.390625 2.917969 " fill-opacity="1" fill-rule="nonzero"/></g><g clip-path="url(#681273a34f)"><path fill="#000000" d="M 33.097656 6.753906 L 39.667969 4.722656 L 33.097656 2.929688 L 26.523438 5.574219 L 33.097656 6.753906 " fill-opacity="1" fill-rule="nonzero"/></g><g clip-path="url(#1390026249)"><path fill="#000000" d="M 36.109375 4.84375 L 36.109375 8.785156 C 35.632812 7.589844 34.460938 7.054688 33.097656 7.054688 C 31.777344 7.054688 30.648438 7.539062 30.144531 8.675781 L 30.144531 4.84375 L 36.109375 4.84375 " fill-opacity="1" fill-rule="nonzero"/></g><path fill="#000000" d="M 26.359375 5.566406 C 26.359375 5.722656 26.484375 5.847656 26.640625 5.847656 C 26.792969 5.847656 26.917969 5.722656 26.917969 5.566406 C 26.917969 5.414062 26.792969 5.289062 26.640625 5.289062 C 26.484375 5.289062 26.359375 5.414062 26.359375 5.566406 " fill-opacity="1" fill-rule="nonzero"/><g clip-path="url(#4e11681f73)"><path fill="#000000" d="M 26.636719 5.847656 C 26.636719 5.847656 26.320312 6.09375 26.636719 6.761719 C 26.953125 7.429688 25.964844 8.492188 25.964844 8.492188 L 26.515625 8.167969 C 26.515625 8.167969 26.378906 8.515625 26.332031 8.675781 C 26.332031 8.675781 27.480469 7.824219 26.917969 6.691406 C 26.359375 5.5625 26.636719 5.847656 26.636719 5.847656 " fill-opacity="1" fill-rule="nonzero"/></g><g clip-path="url(#62ca1c1e6b)"><path fill="#000000" d="M 22.34375 3.828125 L 28.914062 1.792969 L 22.34375 0 L 15.769531 2.644531 L 22.34375 3.828125 " fill-opacity="1" fill-rule="nonzero"/></g><g clip-path="url(#4c9ead2aec)"><path fill="#000000" d="M 25.355469 1.914062 L 25.355469 5.855469 C 24.875 4.664062 23.707031 4.128906 22.34375 4.128906 C 21.023438 4.128906 19.890625 4.613281 19.390625 5.746094 L 19.390625 1.914062 L 25.355469 1.914062 " fill-opacity="1" fill-rule="nonzero"/></g><g clip-path="url(#840fc403ea)"><path fill="#000000" d="M 15.605469 2.636719 C 15.605469 2.792969 15.730469 2.917969 15.886719 2.917969 C 16.039062 2.917969 16.164062 2.792969 16.164062 2.636719 C 16.164062 2.484375 16.039062 2.359375 15.886719 2.359375 C 15.730469 2.359375 15.605469 2.484375 15.605469 2.636719 " fill-opacity="1" fill-rule="nonzero"/></g><g clip-path="url(#e9019c4ebb)"><path fill="#000000" d="M 15.882812 2.917969 C 15.882812 2.917969 15.566406 3.164062 15.882812 3.832031 C 16.199219 4.5 15.210938 5.5625 15.210938 5.5625 L 15.761719 5.238281 C 15.761719 5.238281 15.625 5.585938 15.578125 5.746094 C 15.578125 5.746094 16.722656 4.894531 16.164062 3.765625 C 15.605469 2.636719 15.882812 2.917969 15.882812 2.917969 " fill-opacity="1" fill-rule="nonzero"/></g><g clip-path="url(#30f0f728da)"><path fill="#000000" d="M 20.21875 31.550781 L 27.722656 31.550781 L 27.722656 34.894531 C 27.652344 34.886719 27.585938 34.886719 27.519531 34.886719 C 27.402344 34.886719 27.292969 34.894531 27.183594 34.910156 L 27.183594 32.058594 L 20.753906 32.058594 L 20.753906 34.910156 C 20.644531 34.894531 20.53125 34.886719 20.417969 34.886719 C 20.351562 34.886719 20.28125 34.886719 20.21875 34.894531 Z M 28.054688 35.382812 C 28.867188 35.660156 29.289062 36.507812 28.988281 37.269531 C 28.695312 38.03125 27.796875 38.425781 26.984375 38.148438 C 26.167969 37.871094 25.75 37.027344 26.046875 36.261719 C 26.34375 35.5 27.242188 35.105469 28.054688 35.382812 Z M 20.417969 35.292969 C 21.285156 35.292969 21.984375 35.953125 21.984375 36.765625 C 21.984375 37.578125 21.285156 38.238281 20.417969 38.238281 C 19.554688 38.238281 18.851562 37.578125 18.851562 36.765625 C 18.851562 35.953125 19.554688 35.292969 20.417969 35.292969 Z M 21.542969 32.996094 L 26.394531 32.996094 L 26.394531 33.351562 L 21.542969 33.351562 Z M 21.542969 39.554688 L 24.972656 39.554688 L 24.972656 39.910156 L 21.542969 39.910156 Z M 21.542969 38.617188 L 26.394531 38.617188 L 26.394531 38.972656 L 21.542969 38.972656 Z M 22.171875 37.679688 L 25.765625 37.679688 C 25.839844 37.808594 25.933594 37.929688 26.035156 38.035156 L 21.902344 38.035156 C 22.007812 37.929688 22.097656 37.808594 22.171875 37.679688 Z M 22.421875 36.742188 L 25.515625 36.742188 C 25.515625 36.753906 25.515625 36.761719 25.515625 36.769531 C 25.515625 36.882812 25.527344 36.992188 25.546875 37.097656 L 22.390625 37.097656 C 22.410156 36.992188 22.421875 36.882812 22.421875 36.769531 C 22.421875 36.761719 22.421875 36.753906 22.421875 36.742188 Z M 22.136719 35.804688 L 25.800781 35.804688 C 25.730469 35.917969 25.667969 36.039062 25.625 36.160156 L 22.3125 36.160156 C 22.269531 36.039062 22.210938 35.917969 22.136719 35.804688 Z M 21.542969 34.871094 L 26.394531 34.871094 L 26.394531 35.214844 L 26.378906 35.226562 L 21.558594 35.226562 L 21.542969 35.214844 Z M 21.542969 33.933594 L 26.394531 33.933594 L 26.394531 34.289062 L 21.542969 34.289062 Z M 19.507812 37.277344 L 20.074219 36.761719 L 19.507812 36.25 L 19.824219 35.90625 L 20.417969 36.449219 L 21.011719 35.90625 L 21.328125 36.25 L 20.765625 36.761719 L 21.328125 37.277344 L 21.015625 37.625 L 20.417969 37.078125 L 19.820312 37.625 Z M 26.722656 36.476562 L 27.148438 36.945312 L 28.28125 36.070312 L 28.59375 36.425781 L 27.109375 37.574219 L 26.347656 36.78125 Z M 20.753906 38.621094 L 20.753906 41.476562 L 27.183594 41.476562 L 27.183594 38.621094 C 27.292969 38.636719 27.402344 38.644531 27.519531 38.644531 C 27.585938 38.644531 27.652344 38.644531 27.722656 38.636719 L 27.722656 41.980469 L 20.21875 41.980469 L 20.21875 38.636719 C 20.28125 38.644531 20.351562 38.644531 20.417969 38.644531 C 20.53125 38.644531 20.644531 38.636719 20.753906 38.621094 Z M 20.753906 38.621094 " fill-opacity="1" fill-rule="evenodd"/></g><g clip-path="url(#4002d90b23)"><path fill="#000000" d="M 41.210938 36.867188 L 41.210938 32.367188 C 41.210938 31.914062 40.84375 31.546875 40.390625 31.546875 L 37.527344 31.546875 C 37.074219 31.546875 36.707031 31.914062 36.707031 32.367188 L 36.707031 36.867188 C 36.707031 37.320312 37.074219 37.6875 37.527344 37.6875 L 40.390625 37.6875 C 40.84375 37.6875 41.210938 37.320312 41.210938 36.867188 Z M 37.117188 36.867188 L 37.117188 32.367188 C 37.117188 32.140625 37.300781 31.957031 37.527344 31.957031 L 40.390625 31.957031 C 40.617188 31.957031 40.800781 32.140625 40.800781 32.367188 L 40.800781 36.867188 C 40.800781 37.09375 40.617188 37.277344 40.390625 37.277344 L 37.527344 37.277344 C 37.300781 37.277344 37.117188 37.09375 37.117188 36.867188 Z M 37.117188 36.867188 " fill-opacity="1" fill-rule="nonzero"/></g><path fill="#000000" d="M 38.140625 33.59375 C 38.480469 33.59375 38.753906 33.320312 38.753906 32.980469 C 38.753906 32.640625 38.480469 32.367188 38.140625 32.367188 C 37.800781 32.367188 37.527344 32.640625 37.527344 32.980469 C 37.527344 33.320312 37.800781 33.59375 38.140625 33.59375 Z M 38.140625 32.777344 C 38.253906 32.777344 38.34375 32.867188 38.34375 32.980469 C 38.34375 33.09375 38.253906 33.183594 38.140625 33.183594 C 38.027344 33.183594 37.9375 33.09375 37.9375 32.980469 C 37.9375 32.867188 38.027344 32.777344 38.140625 32.777344 Z M 38.140625 32.777344 " fill-opacity="1" fill-rule="nonzero"/><path fill="#000000" d="M 39.367188 32.777344 L 40.1875 32.777344 C 40.300781 32.777344 40.390625 32.683594 40.390625 32.570312 C 40.390625 32.457031 40.300781 32.367188 40.1875 32.367188 L 39.367188 32.367188 C 39.253906 32.367188 39.164062 32.457031 39.164062 32.570312 C 39.164062 32.683594 39.253906 32.777344 39.367188 32.777344 Z M 39.367188 32.777344 " fill-opacity="1" fill-rule="nonzero"/><path fill="#000000" d="M 39.367188 33.59375 L 40.1875 33.59375 C 40.300781 33.59375 40.390625 33.503906 40.390625 33.390625 C 40.390625 33.277344 40.300781 33.183594 40.1875 33.183594 L 39.367188 33.183594 C 39.253906 33.183594 39.164062 33.277344 39.164062 33.390625 C 39.164062 33.503906 39.253906 33.59375 39.367188 33.59375 Z M 39.367188 33.59375 " fill-opacity="1" fill-rule="nonzero"/><path fill="#000000" d="M 37.730469 34.414062 L 40.1875 34.414062 C 40.300781 34.414062 40.390625 34.320312 40.390625 34.207031 C 40.390625 34.09375 40.300781 34.003906 40.1875 34.003906 L 37.730469 34.003906 C 37.617188 34.003906 37.527344 34.09375 37.527344 34.207031 C 37.527344 34.320312 37.617188 34.414062 37.730469 34.414062 Z M 37.730469 34.414062 " fill-opacity="1" fill-rule="nonzero"/><path fill="#000000" d="M 37.730469 35.230469 L 40.1875 35.230469 C 40.300781 35.230469 40.390625 35.140625 40.390625 35.027344 C 40.390625 34.914062 40.300781 34.824219 40.1875 34.824219 L 37.730469 34.824219 C 37.617188 34.824219 37.527344 34.914062 37.527344 35.027344 C 37.527344 35.140625 37.617188 35.230469 37.730469 35.230469 Z M 37.730469 35.230469 " fill-opacity="1" fill-rule="nonzero"/><path fill="#000000" d="M 37.730469 36.050781 L 40.1875 36.050781 C 40.300781 36.050781 40.390625 35.957031 40.390625 35.84375 C 40.390625 35.730469 40.300781 35.640625 40.1875 35.640625 L 37.730469 35.640625 C 37.617188 35.640625 37.527344 35.730469 37.527344 35.84375 C 37.527344 35.957031 37.617188 36.050781 37.730469 36.050781 Z M 37.730469 36.050781 " fill-opacity="1" fill-rule="nonzero"/><path fill="#000000" d="M 40.1875 36.460938 L 37.730469 36.460938 C 37.617188 36.460938 37.527344 36.550781 37.527344 36.664062 C 37.527344 36.777344 37.617188 36.867188 37.730469 36.867188 L 40.1875 36.867188 C 40.300781 36.867188 40.390625 36.777344 40.390625 36.664062 C 40.390625 36.550781 40.300781 36.460938 40.1875 36.460938 Z M 40.1875 36.460938 " fill-opacity="1" fill-rule="nonzero"/><g clip-path="url(#5693056df3)"><path fill="#000000" d="M 46.324219 35.84375 L 43.460938 35.84375 C 43.007812 35.84375 42.640625 36.210938 42.640625 36.664062 L 42.640625 41.164062 C 42.640625 41.617188 43.007812 41.984375 43.460938 41.984375 L 46.324219 41.984375 C 46.777344 41.984375 47.144531 41.617188 47.144531 41.164062 L 47.144531 36.664062 C 47.144531 36.210938 46.777344 35.84375 46.324219 35.84375 Z M 46.734375 41.164062 C 46.734375 41.390625 46.550781 41.574219 46.324219 41.574219 L 43.460938 41.574219 C 43.234375 41.574219 43.050781 41.390625 43.050781 41.164062 L 43.050781 36.664062 C 43.050781 36.4375 43.234375 36.253906 43.460938 36.253906 L 46.324219 36.253906 C 46.550781 36.253906 46.734375 36.4375 46.734375 36.664062 Z M 46.734375 41.164062 " fill-opacity="1" fill-rule="nonzero"/></g><path fill="#000000" d="M 44.074219 37.890625 C 44.414062 37.890625 44.6875 37.617188 44.6875 37.277344 C 44.6875 36.9375 44.414062 36.664062 44.074219 36.664062 C 43.734375 36.664062 43.460938 36.9375 43.460938 37.277344 C 43.460938 37.617188 43.734375 37.890625 44.074219 37.890625 Z M 44.074219 37.074219 C 44.1875 37.074219 44.277344 37.164062 44.277344 37.277344 C 44.277344 37.390625 44.1875 37.480469 44.074219 37.480469 C 43.960938 37.480469 43.867188 37.390625 43.867188 37.277344 C 43.867188 37.164062 43.960938 37.074219 44.074219 37.074219 Z M 44.074219 37.074219 " fill-opacity="1" fill-rule="nonzero"/><path fill="#000000" d="M 46.121094 36.664062 L 45.300781 36.664062 C 45.1875 36.664062 45.097656 36.753906 45.097656 36.867188 C 45.097656 36.980469 45.1875 37.074219 45.300781 37.074219 L 46.121094 37.074219 C 46.234375 37.074219 46.324219 36.980469 46.324219 36.867188 C 46.324219 36.753906 46.234375 36.664062 46.121094 36.664062 Z M 46.121094 36.664062 " fill-opacity="1" fill-rule="nonzero"/><path fill="#000000" d="M 46.121094 37.480469 L 45.300781 37.480469 C 45.1875 37.480469 45.097656 37.574219 45.097656 37.6875 C 45.097656 37.800781 45.1875 37.890625 45.300781 37.890625 L 46.121094 37.890625 C 46.234375 37.890625 46.324219 37.800781 46.324219 37.6875 C 46.324219 37.574219 46.234375 37.480469 46.121094 37.480469 Z M 46.121094 37.480469 " fill-opacity="1" fill-rule="nonzero"/><path fill="#000000" d="M 46.121094 38.300781 L 43.664062 38.300781 C 43.550781 38.300781 43.460938 38.390625 43.460938 38.503906 C 43.460938 38.617188 43.550781 38.710938 43.664062 38.710938 L 46.121094 38.710938 C 46.234375 38.710938 46.324219 38.617188 46.324219 38.503906 C 46.324219 38.390625 46.234375 38.300781 46.121094 38.300781 Z M 46.121094 38.300781 " fill-opacity="1" fill-rule="nonzero"/><path fill="#000000" d="M 46.121094 39.117188 L 43.664062 39.117188 C 43.550781 39.117188 43.460938 39.210938 43.460938 39.324219 C 43.460938 39.4375 43.550781 39.527344 43.664062 39.527344 L 46.121094 39.527344 C 46.234375 39.527344 46.324219 39.4375 46.324219 39.324219 C 46.324219 39.210938 46.234375 39.117188 46.121094 39.117188 Z M 46.121094 39.117188 " fill-opacity="1" fill-rule="nonzero"/><path fill="#000000" d="M 46.121094 39.9375 L 43.664062 39.9375 C 43.550781 39.9375 43.460938 40.027344 43.460938 40.140625 C 43.460938 40.253906 43.550781 40.347656 43.664062 40.347656 L 46.121094 40.347656 C 46.234375 40.347656 46.324219 40.253906 46.324219 40.140625 C 46.324219 40.027344 46.234375 39.9375 46.121094 39.9375 Z M 46.121094 39.9375 " fill-opacity="1" fill-rule="nonzero"/><g clip-path="url(#bcaa3d8608)"><path fill="#000000" d="M 46.121094 40.757812 L 43.664062 40.757812 C 43.550781 40.757812 43.460938 40.847656 43.460938 40.960938 C 43.460938 41.074219 43.550781 41.164062 43.664062 41.164062 L 46.121094 41.164062 C 46.234375 41.164062 46.324219 41.074219 46.324219 40.960938 C 46.324219 40.847656 46.234375 40.757812 46.121094 40.757812 Z M 46.121094 40.757812 " fill-opacity="1" fill-rule="nonzero"/></g><g clip-path="url(#7fe7299fbb)"><path fill="#000000" d="M 42.785156 33.945312 C 42.867188 33.863281 42.867188 33.734375 42.785156 33.65625 L 42.316406 33.183594 L 44.6875 33.183594 L 44.6875 35.230469 C 44.6875 35.34375 44.777344 35.4375 44.890625 35.4375 C 45.003906 35.4375 45.097656 35.34375 45.097656 35.230469 L 45.097656 32.980469 C 45.097656 32.867188 45.003906 32.777344 44.890625 32.777344 L 42.316406 32.777344 L 42.785156 32.308594 C 42.867188 32.226562 42.867188 32.097656 42.785156 32.019531 C 42.707031 31.9375 42.578125 31.9375 42.496094 32.019531 L 41.679688 32.835938 C 41.597656 32.914062 41.597656 33.046875 41.679688 33.125 L 42.496094 33.945312 C 42.578125 34.023438 42.707031 34.023438 42.785156 33.945312 Z M 42.785156 33.945312 " fill-opacity="1" fill-rule="nonzero"/></g><g clip-path="url(#2bb7ed89b3)"><path fill="#000000" d="M 42.027344 41.164062 L 39.980469 41.164062 L 39.980469 38.792969 L 40.449219 39.265625 C 40.492188 39.304688 40.542969 39.324219 40.59375 39.324219 C 40.777344 39.324219 40.871094 39.105469 40.738281 38.972656 L 39.921875 38.15625 C 39.84375 38.078125 39.710938 38.078125 39.632812 38.15625 L 38.8125 38.972656 C 38.734375 39.054688 38.734375 39.183594 38.8125 39.265625 C 38.894531 39.34375 39.023438 39.34375 39.101562 39.265625 L 39.574219 38.792969 L 39.574219 41.371094 C 39.574219 41.484375 39.664062 41.574219 39.777344 41.574219 L 42.027344 41.574219 C 42.140625 41.574219 42.230469 41.484375 42.230469 41.371094 C 42.230469 41.257812 42.140625 41.164062 42.027344 41.164062 Z M 42.027344 41.164062 " fill-opacity="1" fill-rule="nonzero"/></g><path fill="#000000" d="M 32.714844 50.722656 C 32.714844 50.820312 32.792969 50.898438 32.890625 50.898438 C 33.390625 50.898438 33.863281 50.707031 34.214844 50.351562 C 34.570312 50 34.765625 49.53125 34.765625 49.03125 L 34.765625 48.761719 C 34.765625 47.933594 35.363281 47.207031 36.167969 47.039062 L 36.089844 47.113281 C 36.058594 47.148438 36.039062 47.191406 36.039062 47.238281 C 36.039062 47.285156 36.058594 47.332031 36.089844 47.363281 C 36.125 47.398438 36.167969 47.414062 36.214844 47.414062 C 36.261719 47.414062 36.308594 47.398438 36.339844 47.363281 L 36.757812 46.949219 C 36.792969 46.914062 36.808594 46.871094 36.808594 46.824219 C 36.808594 46.777344 36.792969 46.730469 36.757812 46.699219 L 36.339844 46.28125 C 36.308594 46.25 36.261719 46.230469 36.214844 46.230469 C 36.167969 46.230469 36.125 46.25 36.089844 46.28125 C 36.058594 46.316406 36.039062 46.359375 36.039062 46.40625 C 36.039062 46.453125 36.058594 46.5 36.089844 46.53125 L 36.226562 46.667969 C 35.777344 46.734375 35.355469 46.945312 35.03125 47.265625 C 34.632812 47.667969 34.410156 48.199219 34.410156 48.761719 L 34.410156 49.03125 C 34.410156 49.867188 33.730469 50.546875 32.890625 50.546875 C 32.792969 50.546875 32.714844 50.628906 32.714844 50.722656 " fill-opacity="1" fill-rule="nonzero"/><path fill="#000000" d="M 31.921875 50.425781 C 32.089844 50.425781 32.222656 50.558594 32.222656 50.722656 C 32.222656 50.890625 32.089844 51.023438 31.921875 51.023438 C 31.757812 51.023438 31.621094 50.890625 31.621094 50.722656 C 31.621094 50.558594 31.757812 50.425781 31.921875 50.425781 Z M 31.921875 51.375 C 32.285156 51.375 32.578125 51.082031 32.578125 50.722656 C 32.578125 50.363281 32.285156 50.074219 31.921875 50.074219 C 31.5625 50.074219 31.269531 50.363281 31.269531 50.722656 C 31.269531 51.082031 31.5625 51.375 31.921875 51.375 " fill-opacity="1" fill-rule="nonzero"/><path fill="#000000" d="M 37.542969 46.523438 C 37.707031 46.523438 37.84375 46.660156 37.84375 46.824219 C 37.84375 46.988281 37.707031 47.121094 37.542969 47.121094 C 37.378906 47.121094 37.242188 46.988281 37.242188 46.824219 C 37.242188 46.660156 37.378906 46.523438 37.542969 46.523438 Z M 37.542969 47.476562 C 37.902344 47.476562 38.195312 47.183594 38.195312 46.824219 C 38.195312 46.464844 37.902344 46.171875 37.542969 46.171875 C 37.183594 46.171875 36.890625 46.464844 36.890625 46.824219 C 36.890625 47.183594 37.183594 47.476562 37.542969 47.476562 " fill-opacity="1" fill-rule="nonzero"/><path fill="#000000" d="M 36.191406 48.773438 L 36.542969 48.421875 C 36.613281 48.355469 36.613281 48.242188 36.542969 48.175781 C 36.476562 48.105469 36.363281 48.105469 36.292969 48.175781 L 35.941406 48.523438 L 35.589844 48.175781 C 35.519531 48.105469 35.410156 48.105469 35.339844 48.175781 C 35.308594 48.207031 35.289062 48.25 35.289062 48.296875 C 35.289062 48.34375 35.308594 48.390625 35.339844 48.421875 L 35.691406 48.773438 L 35.339844 49.125 C 35.308594 49.15625 35.289062 49.203125 35.289062 49.25 C 35.289062 49.296875 35.308594 49.339844 35.339844 49.375 C 35.375 49.40625 35.417969 49.425781 35.464844 49.425781 C 35.511719 49.425781 35.554688 49.40625 35.589844 49.375 L 35.941406 49.023438 L 36.292969 49.375 C 36.328125 49.40625 36.371094 49.425781 36.417969 49.425781 C 36.464844 49.425781 36.511719 49.40625 36.542969 49.375 C 36.578125 49.339844 36.59375 49.296875 36.59375 49.25 C 36.59375 49.203125 36.578125 49.15625 36.542969 49.125 L 36.191406 48.773438 " fill-opacity="1" fill-rule="nonzero"/><path fill="#000000" d="M 32.441406 49.25 C 32.441406 49.296875 32.460938 49.339844 32.496094 49.375 C 32.527344 49.40625 32.570312 49.425781 32.617188 49.425781 C 32.667969 49.425781 32.710938 49.40625 32.742188 49.375 L 33.097656 49.023438 L 33.449219 49.375 C 33.480469 49.40625 33.527344 49.425781 33.574219 49.425781 C 33.621094 49.425781 33.664062 49.40625 33.699219 49.375 C 33.730469 49.339844 33.75 49.296875 33.75 49.25 C 33.75 49.203125 33.730469 49.15625 33.699219 49.125 L 33.347656 48.773438 L 33.699219 48.421875 C 33.730469 48.390625 33.75 48.34375 33.75 48.296875 C 33.75 48.253906 33.734375 48.210938 33.703125 48.179688 L 33.703125 48.175781 L 33.699219 48.175781 C 33.628906 48.105469 33.515625 48.105469 33.449219 48.175781 L 33.097656 48.523438 L 32.742188 48.175781 C 32.675781 48.105469 32.5625 48.105469 32.496094 48.175781 C 32.460938 48.207031 32.441406 48.25 32.441406 48.296875 C 32.441406 48.34375 32.460938 48.390625 32.496094 48.421875 L 32.847656 48.773438 L 32.496094 49.125 C 32.460938 49.15625 32.441406 49.203125 32.441406 49.25 " fill-opacity="1" fill-rule="nonzero"/><g clip-path="url(#b1ca1d360d)"><path fill="#000000" d="M 28.011719 44.902344 C 27.554688 44.902344 27.1875 45.269531 27.1875 45.722656 C 27.1875 46.175781 27.554688 46.542969 28.011719 46.542969 C 28.464844 46.542969 28.835938 46.175781 28.835938 45.722656 C 28.835938 45.269531 28.464844 44.902344 28.011719 44.902344 Z M 28.011719 46.894531 C 27.359375 46.894531 26.832031 46.371094 26.832031 45.722656 C 26.832031 45.074219 27.359375 44.546875 28.011719 44.546875 C 28.660156 44.546875 29.1875 45.074219 29.1875 45.722656 C 29.1875 46.371094 28.660156 46.894531 28.011719 46.894531 " fill-opacity="1" fill-rule="nonzero"/></g><g clip-path="url(#a372d49579)"><path fill="#000000" d="M 27.894531 50.820312 C 28.070312 50.820312 28.207031 50.957031 28.214844 51.128906 L 28.332031 54.46875 C 28.335938 54.558594 28.410156 54.628906 28.5 54.628906 L 28.523438 54.628906 C 28.613281 54.628906 28.6875 54.558594 28.691406 54.46875 L 28.976562 48.246094 C 28.980469 48.171875 29.03125 48.105469 29.105469 48.085938 C 29.179688 48.066406 29.257812 48.09375 29.300781 48.15625 L 29.777344 48.839844 C 29.855469 48.953125 30.003906 48.992188 30.128906 48.941406 L 31.414062 48.386719 C 31.472656 48.359375 31.496094 48.3125 31.503906 48.285156 C 31.511719 48.257812 31.519531 48.207031 31.484375 48.152344 C 31.441406 48.09375 31.363281 48.066406 31.292969 48.097656 L 30.050781 48.605469 C 29.96875 48.636719 29.875 48.605469 29.832031 48.53125 L 29.125 47.328125 C 29.082031 47.253906 29 47.207031 28.914062 47.207031 L 28.734375 47.207031 C 28.527344 47.367188 28.273438 47.457031 28.011719 47.457031 C 27.746094 47.457031 27.492188 47.367188 27.285156 47.207031 L 26.820312 47.207031 C 26.703125 47.207031 26.605469 47.285156 26.582031 47.398438 L 25.875 50.46875 C 25.867188 50.511719 25.875 50.550781 25.894531 50.589844 C 25.917969 50.625 25.953125 50.648438 25.996094 50.65625 L 26.089844 50.679688 C 26.175781 50.695312 26.253906 50.644531 26.277344 50.5625 L 26.820312 48.476562 C 26.839844 48.390625 26.925781 48.335938 27.015625 48.347656 C 27.105469 48.359375 27.167969 48.4375 27.167969 48.527344 L 27.003906 54.457031 C 27 54.503906 27.019531 54.546875 27.050781 54.578125 C 27.082031 54.613281 27.125 54.628906 27.171875 54.628906 C 27.261719 54.628906 27.335938 54.5625 27.339844 54.472656 L 27.578125 51.117188 C 27.589844 50.949219 27.730469 50.820312 27.894531 50.820312 Z M 28.523438 54.984375 L 28.5 54.984375 C 28.21875 54.984375 27.988281 54.761719 27.976562 54.480469 L 27.882812 51.824219 L 27.695312 54.496094 C 27.675781 54.769531 27.445312 54.984375 27.171875 54.984375 C 27.03125 54.984375 26.898438 54.925781 26.796875 54.824219 C 26.699219 54.722656 26.644531 54.589844 26.648438 54.445312 L 26.769531 50.074219 L 26.621094 50.652344 C 26.550781 50.917969 26.285156 51.082031 26.015625 51.023438 L 25.921875 51.003906 C 25.785156 50.972656 25.671875 50.894531 25.597656 50.777344 C 25.523438 50.660156 25.5 50.523438 25.53125 50.390625 L 26.234375 47.316406 C 26.296875 47.042969 26.539062 46.855469 26.820312 46.855469 L 27.351562 46.855469 C 27.394531 46.855469 27.433594 46.871094 27.46875 46.898438 C 27.617188 47.03125 27.8125 47.101562 28.011719 47.101562 C 28.210938 47.101562 28.402344 47.03125 28.554688 46.898438 C 28.585938 46.871094 28.628906 46.855469 28.671875 46.855469 L 28.914062 46.855469 C 29.125 46.855469 29.324219 46.96875 29.429688 47.148438 L 30.058594 48.21875 L 31.160156 47.769531 C 31.382812 47.675781 31.644531 47.757812 31.777344 47.957031 C 31.863281 48.085938 31.886719 48.238281 31.84375 48.386719 C 31.800781 48.53125 31.695312 48.648438 31.554688 48.707031 L 30.269531 49.265625 C 29.988281 49.382812 29.660156 49.289062 29.488281 49.042969 L 29.308594 48.785156 L 29.046875 54.484375 C 29.03125 54.765625 28.804688 54.984375 28.523438 54.984375 " fill-opacity="1" fill-rule="nonzero"/></g><g clip-path="url(#73e029a5bb)"><path fill="#000000" d="M 39.519531 45.078125 L 29.949219 45.078125 C 29.839844 45.078125 29.753906 45.164062 29.753906 45.269531 L 29.753906 46.972656 C 29.753906 47.050781 29.800781 47.121094 29.871094 47.152344 C 30 47.207031 30.140625 47.113281 30.140625 46.972656 L 30.140625 45.464844 L 39.324219 45.464844 L 39.324219 52.082031 L 30.140625 52.082031 L 30.140625 50.050781 C 30.140625 49.953125 30.066406 49.871094 29.96875 49.859375 C 29.855469 49.847656 29.753906 49.9375 29.753906 50.050781 L 29.753906 52.277344 C 29.753906 52.382812 29.839844 52.46875 29.949219 52.46875 L 39.519531 52.46875 C 39.625 52.46875 39.710938 52.382812 39.710938 52.277344 L 39.710938 45.269531 C 39.710938 45.164062 39.625 45.078125 39.519531 45.078125 " fill-opacity="1" fill-rule="nonzero"/></g></svg>