<svg xmlns="http://www.w3.org/2000/svg" xmlns:xlink="http://www.w3.org/1999/xlink" width="84" zoomAndPan="magnify" viewBox="0 0 63 55.5" height="74" preserveAspectRatio="xMidYMid meet" version="1.0"><defs><clipPath id="fc7cbceef1"><path d="M 10 43 L 54 43 L 54 55.003906 L 10 55.003906 Z M 10 43 " clip-rule="nonzero"/></clipPath><clipPath id="8026e9b0ee"><path d="M 28.484375 0 L 33.6875 0 L 33.6875 2 L 28.484375 2 Z M 28.484375 0 " clip-rule="nonzero"/></clipPath><clipPath id="3277654ebe"><path d="M 30 0 L 33 0 L 33 2.230469 L 30 2.230469 Z M 30 0 " clip-rule="nonzero"/></clipPath><clipPath id="e1ecb2c8a6"><path d="M 28.484375 0 L 29 0 L 29 2 L 28.484375 2 Z M 28.484375 0 " clip-rule="nonzero"/></clipPath><clipPath id="eff9ef4a87"><path d="M 28.484375 1 L 29 1 L 29 2.230469 L 28.484375 2.230469 Z M 28.484375 1 " clip-rule="nonzero"/></clipPath><clipPath id="fb999e6bd8"><path d="M 28 1.074219 L 34 1.074219 L 34 6 L 28 6 Z M 28 1.074219 " clip-rule="nonzero"/></clipPath><clipPath id="cc4b197943"><path d="M 27.40625 5 L 34.835938 5 L 34.835938 10.738281 L 27.40625 10.738281 Z M 27.40625 5 " clip-rule="nonzero"/></clipPath><clipPath id="aeb48479c6"><path d="M 52 36 L 55 36 L 55 38.230469 L 52 38.230469 Z M 52 36 " clip-rule="nonzero"/></clipPath><clipPath id="8723fb0fdc"><path d="M 50.882812 37 L 52 37 L 52 38.230469 L 50.882812 38.230469 Z M 50.882812 37 " clip-rule="nonzero"/></clipPath><clipPath id="7f0412166e"><path d="M 51 37.078125 L 56 37.078125 L 56 42 L 51 42 Z M 51 37.078125 " clip-rule="nonzero"/></clipPath><clipPath id="87037390dc"><path d="M 49.800781 41 L 57.234375 41 L 57.234375 46.742188 L 49.800781 46.742188 Z M 49.800781 41 " clip-rule="nonzero"/></clipPath><clipPath id="e4c4eed268"><path d="M 6.332031 36 L 11.535156 36 L 11.535156 38 L 6.332031 38 Z M 6.332031 36 " clip-rule="nonzero"/></clipPath><clipPath id="19522a66c2"><path d="M 7 36 L 11 36 L 11 38.230469 L 7 38.230469 Z M 7 36 " clip-rule="nonzero"/></clipPath><clipPath id="fc13522b92"><path d="M 6.332031 36 L 7 36 L 7 38 L 6.332031 38 Z M 6.332031 36 " clip-rule="nonzero"/></clipPath><clipPath id="2e35fcca3b"><path d="M 6.332031 37 L 7 37 L 7 38.230469 L 6.332031 38.230469 Z M 6.332031 37 " clip-rule="nonzero"/></clipPath><clipPath id="de44a73f9b"><path d="M 6 37.078125 L 11 37.078125 L 11 42 L 6 42 Z M 6 37.078125 " clip-rule="nonzero"/></clipPath><clipPath id="6ad1ffc691"><path d="M 5.253906 41 L 12.6875 41 L 12.6875 46.742188 L 5.253906 46.742188 Z M 5.253906 41 " clip-rule="nonzero"/></clipPath><clipPath id="9dc1ef33e2"><path d="M 13.855469 17.425781 L 26.492188 17.425781 L 26.492188 30.804688 L 13.855469 30.804688 Z M 13.855469 17.425781 " clip-rule="nonzero"/></clipPath><clipPath id="ee1b46d25a"><path d="M 35.894531 17.425781 L 42 17.425781 L 42 26 L 35.894531 26 Z M 35.894531 17.425781 " clip-rule="nonzero"/></clipPath><clipPath id="4d4a534436"><path d="M 43 22 L 49.277344 22 L 49.277344 30.804688 L 43 30.804688 Z M 43 22 " clip-rule="nonzero"/></clipPath><clipPath id="77147c14a5"><path d="M 42 17.425781 L 47 17.425781 L 47 23 L 42 23 Z M 42 17.425781 " clip-rule="nonzero"/></clipPath><clipPath id="041dec0982"><path d="M 38 25 L 43 25 L 43 30.804688 L 38 30.804688 Z M 38 25 " clip-rule="nonzero"/></clipPath><clipPath id="57a8917292"><path d="M 23 33.472656 L 27 33.472656 L 27 37 L 23 37 Z M 23 33.472656 " clip-rule="nonzero"/></clipPath><clipPath id="b325b4c90e"><path d="M 22.050781 36 L 31 36 L 31 46.851562 L 22.050781 46.851562 Z M 22.050781 36 " clip-rule="nonzero"/></clipPath><clipPath id="371e678be2"><path d="M 27 34 L 39.890625 34 L 39.890625 44 L 27 44 Z M 27 34 " clip-rule="nonzero"/></clipPath></defs><path stroke-linecap="round" transform="matrix(0.415064, -0.616622, 0.616622, 0.415064, 0.285335, 30.352904)" fill="none" stroke-linejoin="miter" d="M 0.774623 9.975259 C 16.212046 -2.683973 31.647717 -2.659509 47.08893 10.050077 " stroke="#000000" stroke-width="1" stroke-opacity="1" stroke-miterlimit="4"/><path stroke-linecap="round" transform="matrix(0.422399, 0.61162, -0.61162, 0.422399, 41.980869, 0.734369)" fill="none" stroke-linejoin="miter" d="M 0.775765 10.186757 C 16.340945 -2.751934 31.909262 -2.729793 47.474746 10.261829 " stroke="#000000" stroke-width="1" stroke-opacity="1" stroke-miterlimit="4"/><g clip-path="url(#fc7cbceef1)"><path stroke-linecap="round" transform="matrix(0.743304, 0, 0, 0.743304, 13.683751, 46.783383)" fill="none" stroke-linejoin="miter" d="M 0.772312 0.753887 C 16.48027 13.382266 32.188229 13.35599 47.901443 0.680314 " stroke="#000000" stroke-width="1" stroke-opacity="1" stroke-miterlimit="4"/></g><g clip-path="url(#8026e9b0ee)"><path fill="#000000" d="M 31.109375 1.40625 L 33.519531 0.660156 L 31.109375 0 L 28.695312 0.96875 L 31.109375 1.40625 " fill-opacity="1" fill-rule="nonzero"/></g><g clip-path="url(#3277654ebe)"><path fill="#000000" d="M 32.214844 0.703125 L 32.214844 2.148438 C 32.039062 1.710938 31.609375 1.515625 31.109375 1.515625 C 30.625 1.515625 30.210938 1.691406 30.023438 2.109375 L 30.023438 0.703125 L 32.214844 0.703125 " fill-opacity="1" fill-rule="nonzero"/></g><g clip-path="url(#e1ecb2c8a6)"><path fill="#000000" d="M 28.636719 0.96875 C 28.636719 1.023438 28.683594 1.070312 28.738281 1.070312 C 28.796875 1.070312 28.839844 1.023438 28.839844 0.96875 C 28.839844 0.910156 28.796875 0.867188 28.738281 0.867188 C 28.683594 0.867188 28.636719 0.910156 28.636719 0.96875 " fill-opacity="1" fill-rule="nonzero"/></g><g clip-path="url(#eff9ef4a87)"><path fill="#000000" d="M 28.738281 1.070312 C 28.738281 1.070312 28.621094 1.160156 28.738281 1.40625 C 28.855469 1.652344 28.492188 2.042969 28.492188 2.042969 L 28.695312 1.921875 C 28.695312 1.921875 28.644531 2.050781 28.625 2.109375 C 28.625 2.109375 29.046875 1.796875 28.839844 1.382812 C 28.636719 0.96875 28.738281 1.070312 28.738281 1.070312 " fill-opacity="1" fill-rule="nonzero"/></g><g clip-path="url(#fb999e6bd8)"><path fill="#205a8e" d="M 33.078125 3.152344 C 33.078125 2.007812 32.148438 1.078125 31.003906 1.078125 C 29.863281 1.078125 28.933594 2.007812 28.933594 3.152344 C 28.933594 4.289062 29.863281 5.21875 31.003906 5.21875 C 32.148438 5.21875 33.078125 4.289062 33.078125 3.152344 Z M 33.078125 3.152344 " fill-opacity="1" fill-rule="nonzero"/></g><g clip-path="url(#cc4b197943)"><path fill="#205a8e" d="M 27.40625 9.0625 L 27.40625 9.6875 C 27.40625 10.292969 27.894531 10.785156 28.5 10.785156 L 33.507812 10.785156 C 34.113281 10.785156 34.605469 10.292969 34.605469 9.6875 L 34.605469 9.0625 C 34.605469 7.078125 32.988281 5.460938 31.003906 5.460938 C 29.019531 5.460938 27.40625 7.078125 27.40625 9.0625 Z M 27.40625 9.0625 " fill-opacity="1" fill-rule="nonzero"/></g><path fill="#000000" d="M 53.507812 37.40625 L 55.917969 36.660156 L 53.507812 36 L 51.09375 36.972656 L 53.507812 37.40625 " fill-opacity="1" fill-rule="nonzero"/><g clip-path="url(#aeb48479c6)"><path fill="#000000" d="M 54.613281 36.703125 L 54.613281 38.148438 C 54.4375 37.710938 54.007812 37.515625 53.507812 37.515625 C 53.023438 37.515625 52.605469 37.695312 52.421875 38.109375 L 52.421875 36.703125 L 54.613281 36.703125 " fill-opacity="1" fill-rule="nonzero"/></g><path fill="#000000" d="M 51.035156 36.96875 C 51.035156 37.027344 51.078125 37.070312 51.136719 37.070312 C 51.191406 37.070312 51.238281 37.027344 51.238281 36.96875 C 51.238281 36.914062 51.191406 36.867188 51.136719 36.867188 C 51.078125 36.867188 51.035156 36.914062 51.035156 36.96875 " fill-opacity="1" fill-rule="nonzero"/><g clip-path="url(#8723fb0fdc)"><path fill="#000000" d="M 51.136719 37.070312 C 51.136719 37.070312 51.019531 37.164062 51.136719 37.40625 C 51.25 37.652344 50.886719 38.042969 50.886719 38.042969 L 51.089844 37.925781 C 51.089844 37.925781 51.039062 38.050781 51.023438 38.109375 C 51.023438 38.109375 51.445312 37.796875 51.238281 37.382812 C 51.035156 36.96875 51.136719 37.070312 51.136719 37.070312 " fill-opacity="1" fill-rule="nonzero"/></g><g clip-path="url(#7f0412166e)"><path fill="#205a8e" d="M 55.476562 39.152344 C 55.476562 38.007812 54.546875 37.078125 53.402344 37.078125 C 52.261719 37.078125 51.332031 38.007812 51.332031 39.152344 C 51.332031 40.292969 52.261719 41.222656 53.402344 41.222656 C 54.546875 41.222656 55.476562 40.292969 55.476562 39.152344 Z M 55.476562 39.152344 " fill-opacity="1" fill-rule="nonzero"/></g><g clip-path="url(#87037390dc)"><path fill="#205a8e" d="M 49.800781 45.0625 L 49.800781 45.6875 C 49.800781 46.292969 50.292969 46.785156 50.898438 46.785156 L 55.90625 46.785156 C 56.511719 46.785156 57.003906 46.292969 57.003906 45.6875 L 57.003906 45.0625 C 57.003906 43.078125 55.386719 41.460938 53.402344 41.460938 C 51.417969 41.460938 49.800781 43.078125 49.800781 45.0625 Z M 49.800781 45.0625 " fill-opacity="1" fill-rule="nonzero"/></g><g clip-path="url(#e4c4eed268)"><path fill="#000000" d="M 8.957031 37.40625 L 11.367188 36.660156 L 8.957031 36 L 6.542969 36.972656 L 8.957031 37.40625 " fill-opacity="1" fill-rule="nonzero"/></g><g clip-path="url(#19522a66c2)"><path fill="#000000" d="M 10.0625 36.703125 L 10.0625 38.148438 C 9.886719 37.710938 9.457031 37.515625 8.957031 37.515625 C 8.472656 37.515625 8.058594 37.695312 7.871094 38.109375 L 7.871094 36.703125 L 10.0625 36.703125 " fill-opacity="1" fill-rule="nonzero"/></g><g clip-path="url(#fc13522b92)"><path fill="#000000" d="M 6.484375 36.96875 C 6.484375 37.027344 6.53125 37.070312 6.585938 37.070312 C 6.644531 37.070312 6.691406 37.027344 6.691406 36.96875 C 6.691406 36.914062 6.644531 36.867188 6.585938 36.867188 C 6.53125 36.867188 6.484375 36.914062 6.484375 36.96875 " fill-opacity="1" fill-rule="nonzero"/></g><g clip-path="url(#2e35fcca3b)"><path fill="#000000" d="M 6.585938 37.070312 C 6.585938 37.070312 6.46875 37.164062 6.585938 37.40625 C 6.703125 37.652344 6.339844 38.042969 6.339844 38.042969 L 6.542969 37.925781 C 6.542969 37.925781 6.492188 38.050781 6.472656 38.109375 C 6.472656 38.109375 6.894531 37.796875 6.691406 37.382812 C 6.484375 36.96875 6.585938 37.070312 6.585938 37.070312 " fill-opacity="1" fill-rule="nonzero"/></g><g clip-path="url(#de44a73f9b)"><path fill="#205a8e" d="M 10.925781 39.152344 C 10.925781 38.007812 9.996094 37.078125 8.851562 37.078125 C 7.710938 37.078125 6.78125 38.007812 6.78125 39.152344 C 6.78125 40.292969 7.710938 41.222656 8.851562 41.222656 C 9.996094 41.222656 10.925781 40.292969 10.925781 39.152344 Z M 10.925781 39.152344 " fill-opacity="1" fill-rule="nonzero"/></g><g clip-path="url(#6ad1ffc691)"><path fill="#205a8e" d="M 5.253906 45.0625 L 5.253906 45.6875 C 5.253906 46.292969 5.746094 46.785156 6.347656 46.785156 L 11.359375 46.785156 C 11.960938 46.785156 12.453125 46.292969 12.453125 45.6875 L 12.453125 45.0625 C 12.453125 43.078125 10.839844 41.460938 8.851562 41.460938 C 6.867188 41.460938 5.253906 43.078125 5.253906 45.0625 Z M 5.253906 45.0625 " fill-opacity="1" fill-rule="nonzero"/></g><g clip-path="url(#9dc1ef33e2)"><path fill="#000000" d="M 15.511719 17.425781 L 24.59375 17.425781 L 24.59375 21.714844 C 24.511719 21.707031 24.429688 21.703125 24.347656 21.703125 C 24.207031 21.703125 24.074219 21.714844 23.941406 21.734375 L 23.941406 18.074219 L 16.160156 18.074219 L 16.160156 21.734375 C 16.027344 21.714844 15.890625 21.703125 15.753906 21.703125 C 15.671875 21.703125 15.589844 21.707031 15.511719 21.714844 Z M 24.996094 22.339844 C 25.980469 22.695312 26.488281 23.78125 26.128906 24.757812 C 25.769531 25.738281 24.683594 26.246094 23.699219 25.890625 C 22.714844 25.535156 22.207031 24.449219 22.566406 23.46875 C 22.921875 22.492188 24.011719 21.984375 24.996094 22.339844 Z M 15.753906 22.226562 C 16.800781 22.226562 17.652344 23.074219 17.652344 24.117188 C 17.652344 25.160156 16.800781 26.003906 15.753906 26.003906 C 14.707031 26.003906 13.859375 25.160156 13.859375 24.117188 C 13.859375 23.074219 14.707031 22.226562 15.753906 22.226562 Z M 17.117188 19.277344 L 22.984375 19.277344 L 22.984375 19.734375 L 17.117188 19.734375 Z M 17.117188 27.691406 L 21.265625 27.691406 L 21.265625 28.148438 L 17.117188 28.148438 Z M 17.117188 26.488281 L 22.984375 26.488281 L 22.984375 26.949219 L 17.117188 26.949219 Z M 17.878906 25.285156 L 22.226562 25.285156 C 22.316406 25.453125 22.425781 25.605469 22.554688 25.746094 L 17.546875 25.746094 C 17.675781 25.605469 17.785156 25.453125 17.878906 25.285156 Z M 18.175781 24.085938 L 21.921875 24.085938 C 21.921875 24.097656 21.921875 24.109375 21.921875 24.121094 C 21.921875 24.265625 21.9375 24.40625 21.960938 24.542969 L 18.140625 24.542969 C 18.164062 24.40625 18.175781 24.265625 18.175781 24.121094 C 18.175781 24.109375 18.175781 24.097656 18.175781 24.085938 Z M 17.832031 22.882812 L 22.265625 22.882812 C 22.183594 23.027344 22.109375 23.179688 22.054688 23.339844 L 18.046875 23.339844 C 17.992188 23.179688 17.921875 23.027344 17.832031 22.882812 Z M 17.117188 21.679688 L 22.984375 21.679688 L 22.984375 22.125 L 22.96875 22.136719 L 17.132812 22.136719 L 17.117188 22.125 Z M 17.117188 20.480469 L 22.984375 20.480469 L 22.984375 20.933594 L 17.117188 20.933594 Z M 14.652344 24.769531 L 15.335938 24.109375 L 14.652344 23.453125 L 15.035156 23.015625 L 15.753906 23.710938 L 16.472656 23.015625 L 16.855469 23.453125 L 16.171875 24.109375 L 16.855469 24.769531 L 16.476562 25.214844 L 15.753906 24.515625 L 15.027344 25.214844 Z M 23.382812 23.742188 L 23.898438 24.34375 L 25.269531 23.21875 L 25.648438 23.675781 L 23.851562 25.152344 L 22.929688 24.132812 Z M 16.160156 26.496094 L 16.160156 30.160156 L 23.941406 30.160156 L 23.941406 26.496094 C 24.074219 26.515625 24.207031 26.527344 24.347656 26.527344 C 24.429688 26.527344 24.511719 26.523438 24.59375 26.515625 L 24.59375 30.804688 L 15.511719 30.804688 L 15.511719 26.515625 C 15.589844 26.523438 15.671875 26.527344 15.753906 26.527344 C 15.890625 26.527344 16.027344 26.515625 16.160156 26.496094 Z M 16.160156 26.496094 " fill-opacity="1" fill-rule="evenodd"/></g><g clip-path="url(#ee1b46d25a)"><path fill="#000000" d="M 41.667969 24.246094 L 41.667969 18.476562 C 41.667969 17.894531 41.195312 17.425781 40.617188 17.425781 L 36.945312 17.425781 C 36.367188 17.425781 35.894531 17.894531 35.894531 18.476562 L 35.894531 24.246094 C 35.894531 24.824219 36.367188 25.296875 36.945312 25.296875 L 40.617188 25.296875 C 41.195312 25.296875 41.667969 24.824219 41.667969 24.246094 Z M 36.421875 24.246094 L 36.421875 18.476562 C 36.421875 18.183594 36.65625 17.949219 36.945312 17.949219 L 40.617188 17.949219 C 40.90625 17.949219 41.144531 18.183594 41.144531 18.476562 L 41.144531 24.246094 C 41.144531 24.535156 40.90625 24.769531 40.617188 24.769531 L 36.945312 24.769531 C 36.65625 24.769531 36.421875 24.535156 36.421875 24.246094 Z M 36.421875 24.246094 " fill-opacity="1" fill-rule="nonzero"/></g><path fill="#000000" d="M 37.734375 20.046875 C 38.167969 20.046875 38.519531 19.695312 38.519531 19.261719 C 38.519531 18.828125 38.167969 18.476562 37.734375 18.476562 C 37.296875 18.476562 36.945312 18.828125 36.945312 19.261719 C 36.945312 19.695312 37.296875 20.046875 37.734375 20.046875 Z M 37.734375 19 C 37.878906 19 37.996094 19.117188 37.996094 19.261719 C 37.996094 19.40625 37.878906 19.523438 37.734375 19.523438 C 37.589844 19.523438 37.46875 19.40625 37.46875 19.261719 C 37.46875 19.117188 37.589844 19 37.734375 19 Z M 37.734375 19 " fill-opacity="1" fill-rule="nonzero"/><path fill="#000000" d="M 39.308594 19 L 40.355469 19 C 40.5 19 40.617188 18.882812 40.617188 18.738281 C 40.617188 18.59375 40.5 18.476562 40.355469 18.476562 L 39.308594 18.476562 C 39.160156 18.476562 39.042969 18.59375 39.042969 18.738281 C 39.042969 18.882812 39.160156 19 39.308594 19 Z M 39.308594 19 " fill-opacity="1" fill-rule="nonzero"/><path fill="#000000" d="M 39.308594 20.046875 L 40.355469 20.046875 C 40.5 20.046875 40.617188 19.929688 40.617188 19.785156 C 40.617188 19.640625 40.5 19.523438 40.355469 19.523438 L 39.308594 19.523438 C 39.160156 19.523438 39.042969 19.640625 39.042969 19.785156 C 39.042969 19.929688 39.160156 20.046875 39.308594 20.046875 Z M 39.308594 20.046875 " fill-opacity="1" fill-rule="nonzero"/><path fill="#000000" d="M 37.207031 21.097656 L 40.355469 21.097656 C 40.5 21.097656 40.617188 20.980469 40.617188 20.835938 C 40.617188 20.691406 40.5 20.574219 40.355469 20.574219 L 37.207031 20.574219 C 37.0625 20.574219 36.945312 20.691406 36.945312 20.835938 C 36.945312 20.980469 37.0625 21.097656 37.207031 21.097656 Z M 37.207031 21.097656 " fill-opacity="1" fill-rule="nonzero"/><path fill="#000000" d="M 37.207031 22.148438 L 40.355469 22.148438 C 40.5 22.148438 40.617188 22.03125 40.617188 21.886719 C 40.617188 21.742188 40.5 21.621094 40.355469 21.621094 L 37.207031 21.621094 C 37.0625 21.621094 36.945312 21.742188 36.945312 21.886719 C 36.945312 22.03125 37.0625 22.148438 37.207031 22.148438 Z M 37.207031 22.148438 " fill-opacity="1" fill-rule="nonzero"/><path fill="#000000" d="M 37.207031 23.195312 L 40.355469 23.195312 C 40.5 23.195312 40.617188 23.078125 40.617188 22.933594 C 40.617188 22.789062 40.5 22.671875 40.355469 22.671875 L 37.207031 22.671875 C 37.0625 22.671875 36.945312 22.789062 36.945312 22.933594 C 36.945312 23.078125 37.0625 23.195312 37.207031 23.195312 Z M 37.207031 23.195312 " fill-opacity="1" fill-rule="nonzero"/><path fill="#000000" d="M 40.355469 23.722656 L 37.207031 23.722656 C 37.0625 23.722656 36.945312 23.839844 36.945312 23.984375 C 36.945312 24.128906 37.0625 24.246094 37.207031 24.246094 L 40.355469 24.246094 C 40.5 24.246094 40.617188 24.128906 40.617188 23.984375 C 40.617188 23.839844 40.5 23.722656 40.355469 23.722656 Z M 40.355469 23.722656 " fill-opacity="1" fill-rule="nonzero"/><g clip-path="url(#4d4a534436)"><path fill="#000000" d="M 48.226562 22.933594 L 44.554688 22.933594 C 43.976562 22.933594 43.503906 23.40625 43.503906 23.984375 L 43.503906 29.753906 C 43.503906 30.335938 43.976562 30.804688 44.554688 30.804688 L 48.226562 30.804688 C 48.804688 30.804688 49.277344 30.335938 49.277344 29.753906 L 49.277344 23.984375 C 49.277344 23.40625 48.804688 22.933594 48.226562 22.933594 Z M 48.75 29.753906 C 48.75 30.042969 48.515625 30.28125 48.226562 30.28125 L 44.554688 30.28125 C 44.265625 30.28125 44.027344 30.042969 44.027344 29.753906 L 44.027344 23.984375 C 44.027344 23.695312 44.265625 23.460938 44.554688 23.460938 L 48.226562 23.460938 C 48.515625 23.460938 48.75 23.695312 48.75 23.984375 Z M 48.75 29.753906 " fill-opacity="1" fill-rule="nonzero"/></g><path fill="#000000" d="M 45.339844 25.558594 C 45.773438 25.558594 46.128906 25.203125 46.128906 24.769531 C 46.128906 24.335938 45.773438 23.984375 45.339844 23.984375 C 44.90625 23.984375 44.554688 24.335938 44.554688 24.769531 C 44.554688 25.203125 44.90625 25.558594 45.339844 25.558594 Z M 45.339844 24.507812 C 45.484375 24.507812 45.601562 24.625 45.601562 24.769531 C 45.601562 24.914062 45.484375 25.035156 45.339844 25.035156 C 45.195312 25.035156 45.078125 24.914062 45.078125 24.769531 C 45.078125 24.625 45.195312 24.507812 45.339844 24.507812 Z M 45.339844 24.507812 " fill-opacity="1" fill-rule="nonzero"/><path fill="#000000" d="M 47.964844 23.984375 L 46.914062 23.984375 C 46.769531 23.984375 46.652344 24.101562 46.652344 24.246094 C 46.652344 24.390625 46.769531 24.507812 46.914062 24.507812 L 47.964844 24.507812 C 48.109375 24.507812 48.226562 24.390625 48.226562 24.246094 C 48.226562 24.101562 48.109375 23.984375 47.964844 23.984375 Z M 47.964844 23.984375 " fill-opacity="1" fill-rule="nonzero"/><path fill="#000000" d="M 47.964844 25.035156 L 46.914062 25.035156 C 46.769531 25.035156 46.652344 25.152344 46.652344 25.296875 C 46.652344 25.441406 46.769531 25.558594 46.914062 25.558594 L 47.964844 25.558594 C 48.109375 25.558594 48.226562 25.441406 48.226562 25.296875 C 48.226562 25.152344 48.109375 25.035156 47.964844 25.035156 Z M 47.964844 25.035156 " fill-opacity="1" fill-rule="nonzero"/><path fill="#000000" d="M 47.964844 26.082031 L 44.816406 26.082031 C 44.671875 26.082031 44.554688 26.199219 44.554688 26.34375 C 44.554688 26.488281 44.671875 26.605469 44.816406 26.605469 L 47.964844 26.605469 C 48.109375 26.605469 48.226562 26.488281 48.226562 26.34375 C 48.226562 26.199219 48.109375 26.082031 47.964844 26.082031 Z M 47.964844 26.082031 " fill-opacity="1" fill-rule="nonzero"/><path fill="#000000" d="M 47.964844 27.132812 L 44.816406 27.132812 C 44.671875 27.132812 44.554688 27.25 44.554688 27.394531 C 44.554688 27.539062 44.671875 27.65625 44.816406 27.65625 L 47.964844 27.65625 C 48.109375 27.65625 48.226562 27.539062 48.226562 27.394531 C 48.226562 27.25 48.109375 27.132812 47.964844 27.132812 Z M 47.964844 27.132812 " fill-opacity="1" fill-rule="nonzero"/><path fill="#000000" d="M 47.964844 28.179688 L 44.816406 28.179688 C 44.671875 28.179688 44.554688 28.300781 44.554688 28.445312 C 44.554688 28.589844 44.671875 28.707031 44.816406 28.707031 L 47.964844 28.707031 C 48.109375 28.707031 48.226562 28.589844 48.226562 28.445312 C 48.226562 28.300781 48.109375 28.179688 47.964844 28.179688 Z M 47.964844 28.179688 " fill-opacity="1" fill-rule="nonzero"/><path fill="#000000" d="M 47.964844 29.230469 L 44.816406 29.230469 C 44.671875 29.230469 44.554688 29.347656 44.554688 29.492188 C 44.554688 29.636719 44.671875 29.753906 44.816406 29.753906 L 47.964844 29.753906 C 48.109375 29.753906 48.226562 29.636719 48.226562 29.492188 C 48.226562 29.347656 48.109375 29.230469 47.964844 29.230469 Z M 47.964844 29.230469 " fill-opacity="1" fill-rule="nonzero"/><g clip-path="url(#77147c14a5)"><path fill="#000000" d="M 43.691406 20.496094 C 43.792969 20.394531 43.792969 20.226562 43.691406 20.125 L 43.089844 19.523438 L 46.128906 19.523438 L 46.128906 22.148438 C 46.128906 22.292969 46.246094 22.410156 46.390625 22.410156 C 46.535156 22.410156 46.652344 22.292969 46.652344 22.148438 L 46.652344 19.261719 C 46.652344 19.117188 46.535156 19 46.390625 19 L 43.089844 19 L 43.691406 18.398438 C 43.792969 18.296875 43.792969 18.128906 43.691406 18.027344 C 43.585938 17.925781 43.421875 17.925781 43.320312 18.027344 L 42.269531 19.078125 C 42.167969 19.175781 42.167969 19.34375 42.269531 19.445312 L 43.320312 20.496094 C 43.421875 20.597656 43.585938 20.597656 43.691406 20.496094 Z M 43.691406 20.496094 " fill-opacity="1" fill-rule="nonzero"/></g><g clip-path="url(#041dec0982)"><path fill="#000000" d="M 42.71875 29.753906 L 40.09375 29.753906 L 40.09375 26.714844 L 40.695312 27.316406 C 40.746094 27.367188 40.8125 27.394531 40.878906 27.394531 C 41.113281 27.394531 41.230469 27.113281 41.066406 26.945312 L 40.015625 25.898438 C 39.914062 25.796875 39.746094 25.796875 39.644531 25.898438 L 38.597656 26.945312 C 38.492188 27.050781 38.492188 27.214844 38.597656 27.316406 C 38.699219 27.421875 38.863281 27.421875 38.96875 27.316406 L 39.570312 26.714844 L 39.570312 30.019531 C 39.570312 30.164062 39.6875 30.28125 39.832031 30.28125 L 42.71875 30.28125 C 42.863281 30.28125 42.980469 30.164062 42.980469 30.019531 C 42.980469 29.871094 42.863281 29.753906 42.71875 29.753906 Z M 42.71875 29.753906 " fill-opacity="1" fill-rule="nonzero"/></g><path fill="#000000" d="M 31.105469 41.390625 C 31.105469 41.515625 31.203125 41.617188 31.324219 41.617188 C 31.953125 41.617188 32.542969 41.367188 32.988281 40.914062 C 33.433594 40.464844 33.675781 39.863281 33.675781 39.222656 L 33.675781 38.878906 C 33.675781 37.8125 34.425781 36.882812 35.4375 36.664062 L 35.339844 36.761719 C 35.296875 36.804688 35.273438 36.863281 35.273438 36.921875 C 35.273438 36.984375 35.296875 37.039062 35.339844 37.082031 C 35.382812 37.125 35.4375 37.148438 35.496094 37.148438 C 35.554688 37.148438 35.609375 37.125 35.652344 37.082031 L 36.175781 36.550781 C 36.21875 36.507812 36.242188 36.449219 36.242188 36.390625 C 36.242188 36.328125 36.21875 36.273438 36.175781 36.230469 L 35.652344 35.699219 C 35.613281 35.65625 35.554688 35.632812 35.496094 35.632812 C 35.4375 35.632812 35.382812 35.65625 35.339844 35.699219 C 35.296875 35.738281 35.273438 35.796875 35.273438 35.855469 C 35.273438 35.917969 35.296875 35.972656 35.339844 36.015625 L 35.511719 36.191406 C 34.949219 36.277344 34.417969 36.546875 34.011719 36.957031 C 33.511719 37.472656 33.234375 38.152344 33.234375 38.878906 L 33.234375 39.222656 C 33.234375 40.292969 32.378906 41.164062 31.324219 41.164062 C 31.203125 41.164062 31.105469 41.265625 31.105469 41.390625 " fill-opacity="1" fill-rule="nonzero"/><path fill="#000000" d="M 30.113281 41.007812 C 30.320312 41.007812 30.488281 41.179688 30.488281 41.390625 C 30.488281 41.601562 30.320312 41.773438 30.113281 41.773438 C 29.90625 41.773438 29.738281 41.601562 29.738281 41.390625 C 29.738281 41.179688 29.90625 41.007812 30.113281 41.007812 Z M 30.113281 42.226562 C 30.566406 42.226562 30.933594 41.851562 30.933594 41.390625 C 30.933594 40.929688 30.566406 40.554688 30.113281 40.554688 C 29.660156 40.554688 29.292969 40.929688 29.292969 41.390625 C 29.292969 41.851562 29.660156 42.226562 30.113281 42.226562 " fill-opacity="1" fill-rule="nonzero"/><path fill="#000000" d="M 37.160156 36.007812 C 37.367188 36.007812 37.535156 36.179688 37.535156 36.390625 C 37.535156 36.601562 37.367188 36.773438 37.160156 36.773438 C 36.953125 36.773438 36.785156 36.601562 36.785156 36.390625 C 36.785156 36.179688 36.953125 36.007812 37.160156 36.007812 Z M 37.160156 37.226562 C 37.613281 37.226562 37.980469 36.851562 37.980469 36.390625 C 37.980469 35.929688 37.613281 35.554688 37.160156 35.554688 C 36.707031 35.554688 36.339844 35.929688 36.339844 36.390625 C 36.339844 36.851562 36.707031 37.226562 37.160156 37.226562 " fill-opacity="1" fill-rule="nonzero"/><path fill="#000000" d="M 35.464844 38.890625 L 35.90625 38.441406 C 35.992188 38.351562 35.992188 38.210938 35.90625 38.121094 C 35.820312 38.035156 35.679688 38.035156 35.59375 38.121094 L 35.152344 38.570312 L 34.710938 38.121094 C 34.625 38.035156 34.484375 38.035156 34.398438 38.121094 C 34.355469 38.164062 34.332031 38.222656 34.332031 38.28125 C 34.332031 38.339844 34.355469 38.398438 34.398438 38.441406 L 34.839844 38.890625 L 34.398438 39.339844 C 34.355469 39.382812 34.332031 39.441406 34.332031 39.5 C 34.332031 39.558594 34.355469 39.617188 34.398438 39.660156 C 34.441406 39.703125 34.496094 39.726562 34.554688 39.726562 C 34.613281 39.726562 34.667969 39.703125 34.710938 39.660156 L 35.152344 39.210938 L 35.59375 39.660156 C 35.636719 39.703125 35.691406 39.726562 35.75 39.726562 C 35.808594 39.726562 35.867188 39.703125 35.90625 39.660156 C 35.949219 39.617188 35.972656 39.558594 35.972656 39.5 C 35.972656 39.441406 35.949219 39.382812 35.90625 39.339844 L 35.464844 38.890625 " fill-opacity="1" fill-rule="nonzero"/><path fill="#000000" d="M 30.765625 39.5 C 30.765625 39.558594 30.789062 39.617188 30.828125 39.660156 C 30.871094 39.703125 30.925781 39.726562 30.984375 39.726562 C 31.046875 39.726562 31.101562 39.703125 31.144531 39.660156 L 31.582031 39.210938 L 32.023438 39.660156 C 32.066406 39.703125 32.121094 39.726562 32.183594 39.726562 C 32.242188 39.726562 32.296875 39.703125 32.339844 39.660156 C 32.378906 39.617188 32.402344 39.558594 32.402344 39.5 C 32.402344 39.441406 32.378906 39.382812 32.339844 39.339844 L 31.898438 38.890625 L 32.339844 38.441406 C 32.378906 38.398438 32.402344 38.339844 32.402344 38.28125 C 32.402344 38.222656 32.382812 38.167969 32.34375 38.125 L 32.339844 38.121094 C 32.253906 38.035156 32.113281 38.035156 32.023438 38.121094 L 31.582031 38.570312 L 31.144531 38.121094 C 31.054688 38.035156 30.914062 38.035156 30.828125 38.121094 C 30.789062 38.164062 30.765625 38.222656 30.765625 38.28125 C 30.765625 38.339844 30.789062 38.398438 30.828125 38.441406 L 31.269531 38.890625 L 30.828125 39.339844 C 30.789062 39.382812 30.765625 39.441406 30.765625 39.5 " fill-opacity="1" fill-rule="nonzero"/><g clip-path="url(#57a8917292)"><path fill="#000000" d="M 25.207031 33.925781 C 24.636719 33.925781 24.171875 34.398438 24.171875 34.976562 C 24.171875 35.558594 24.636719 36.03125 25.207031 36.03125 C 25.777344 36.03125 26.238281 35.558594 26.238281 34.976562 C 26.238281 34.398438 25.777344 33.925781 25.207031 33.925781 Z M 25.207031 36.484375 C 24.390625 36.484375 23.730469 35.808594 23.730469 34.976562 C 23.730469 34.148438 24.390625 33.472656 25.207031 33.472656 C 26.019531 33.472656 26.683594 34.148438 26.683594 34.976562 C 26.683594 35.808594 26.019531 36.484375 25.207031 36.484375 " fill-opacity="1" fill-rule="nonzero"/></g><g clip-path="url(#b325b4c90e)"><path fill="#000000" d="M 25.0625 41.515625 C 25.277344 41.515625 25.453125 41.6875 25.460938 41.910156 L 25.609375 46.191406 C 25.613281 46.308594 25.707031 46.398438 25.820312 46.398438 L 25.847656 46.398438 C 25.960938 46.398438 26.054688 46.308594 26.0625 46.191406 L 26.417969 38.214844 C 26.425781 38.117188 26.488281 38.035156 26.578125 38.007812 C 26.671875 37.980469 26.769531 38.015625 26.824219 38.097656 L 27.421875 38.976562 C 27.519531 39.121094 27.703125 39.171875 27.863281 39.105469 L 29.476562 38.390625 C 29.550781 38.359375 29.578125 38.296875 29.585938 38.265625 C 29.597656 38.230469 29.605469 38.164062 29.5625 38.097656 C 29.511719 38.015625 29.410156 37.984375 29.324219 38.023438 L 27.765625 38.675781 C 27.664062 38.71875 27.542969 38.675781 27.488281 38.578125 L 26.601562 37.035156 C 26.546875 36.941406 26.445312 36.882812 26.335938 36.882812 L 26.113281 36.882812 C 25.855469 37.089844 25.535156 37.203125 25.207031 37.203125 C 24.875 37.203125 24.558594 37.089844 24.296875 36.882812 L 23.714844 36.882812 C 23.570312 36.882812 23.445312 36.980469 23.414062 37.125 L 22.527344 41.066406 C 22.515625 41.117188 22.527344 41.171875 22.554688 41.21875 C 22.582031 41.261719 22.628906 41.292969 22.679688 41.304688 L 22.800781 41.332031 C 22.902344 41.355469 23.003906 41.292969 23.03125 41.1875 L 23.710938 38.511719 C 23.742188 38.398438 23.847656 38.328125 23.957031 38.34375 C 24.070312 38.359375 24.152344 38.457031 24.148438 38.574219 L 23.941406 46.175781 C 23.941406 46.234375 23.964844 46.292969 24.003906 46.332031 C 24.042969 46.375 24.097656 46.398438 24.15625 46.398438 C 24.265625 46.398438 24.359375 46.3125 24.367188 46.199219 L 24.664062 41.894531 C 24.679688 41.683594 24.855469 41.515625 25.0625 41.515625 Z M 25.847656 46.851562 L 25.820312 46.851562 C 25.464844 46.851562 25.175781 46.570312 25.164062 46.207031 L 25.046875 42.800781 L 24.808594 46.230469 C 24.785156 46.578125 24.5 46.851562 24.15625 46.851562 C 23.976562 46.851562 23.808594 46.78125 23.683594 46.648438 C 23.558594 46.519531 23.496094 46.347656 23.5 46.164062 L 23.652344 40.554688 L 23.460938 41.300781 C 23.375 41.640625 23.042969 41.847656 22.707031 41.773438 L 22.585938 41.75 C 22.417969 41.710938 22.273438 41.609375 22.179688 41.460938 C 22.085938 41.3125 22.058594 41.136719 22.097656 40.964844 L 22.980469 37.023438 C 23.058594 36.671875 23.359375 36.429688 23.714844 36.429688 L 24.378906 36.429688 C 24.433594 36.429688 24.484375 36.449219 24.523438 36.484375 C 24.714844 36.65625 24.957031 36.75 25.207031 36.75 C 25.457031 36.75 25.699219 36.65625 25.886719 36.484375 C 25.929688 36.449219 25.980469 36.429688 26.035156 36.429688 L 26.335938 36.429688 C 26.605469 36.429688 26.851562 36.574219 26.988281 36.808594 L 27.773438 38.179688 L 29.15625 37.601562 C 29.4375 37.484375 29.761719 37.585938 29.933594 37.84375 C 30.039062 38.007812 30.066406 38.207031 30.011719 38.394531 C 29.960938 38.578125 29.828125 38.730469 29.652344 38.808594 L 28.039062 39.519531 C 27.6875 39.671875 27.273438 39.554688 27.058594 39.234375 L 26.832031 38.90625 L 26.503906 46.214844 C 26.488281 46.570312 26.199219 46.851562 25.847656 46.851562 " fill-opacity="1" fill-rule="nonzero"/></g><g clip-path="url(#371e678be2)"><path fill="#000000" d="M 39.636719 34.152344 L 27.636719 34.152344 C 27.5 34.152344 27.390625 34.261719 27.390625 34.398438 L 27.390625 36.582031 C 27.390625 36.679688 27.449219 36.769531 27.539062 36.808594 C 27.699219 36.882812 27.878906 36.761719 27.878906 36.582031 L 27.878906 34.648438 L 39.394531 34.648438 L 39.394531 43.132812 L 27.878906 43.132812 L 27.878906 40.53125 C 27.878906 40.402344 27.785156 40.296875 27.664062 40.285156 C 27.519531 40.265625 27.390625 40.382812 27.390625 40.53125 L 27.390625 43.382812 C 27.390625 43.519531 27.5 43.628906 27.636719 43.628906 L 39.636719 43.628906 C 39.773438 43.628906 39.882812 43.519531 39.882812 43.382812 L 39.882812 34.398438 C 39.882812 34.261719 39.773438 34.152344 39.636719 34.152344 " fill-opacity="1" fill-rule="nonzero"/></g></svg>