<svg width="76" height="44" viewBox="0 0 76 44" fill="none" xmlns="http://www.w3.org/2000/svg">
<path d="M75.0664 43.3863C70.8506 36.5471 64.4817 23.2141 63.8007 15.3436C63.6378 13.5788 60.7315 13.1159 60.5404 15.0543C60.0867 19.0717 60.04 22.8982 60.5581 26.6585C55.8874 21.6675 50.2035 17.7093 43.488 17.2527C39.8942 7.45551 10.5892 -2.98965 0.998854 1.24054C-0.381432 1.86493 6.21483 2.26838 7.77964 2.388C14.0389 2.388 27.079 7.0824 32.8166 11.2552C36.9894 13.8632 38.1673 16.5775 38.5835 17.4977C34.1683 18.3459 30.3588 20.6978 28.1231 24.8251C25.9231 28.8821 27.5325 32.9328 31.3933 35.4311C35.5179 38.0195 39.7291 36.1821 42.5429 32.5706C44.8223 29.6605 45.2879 26.4015 44.9248 23.1186C46.7373 23.6437 48.4596 24.4328 50.02 25.6262C53.4221 28.1562 56.36 31.4234 58.9969 34.847C54.5924 34.2845 50.0605 34.2325 46.4354 35.5276C43.0226 36.7538 44.6955 41.7221 48.1587 40.8313C54.1133 39.307 61.3898 40.2263 67.2687 41.7171C69.4682 42.351 76.1986 45.2466 75.0664 43.3863ZM37.7194 31.4406C35.1484 33.2728 30.6113 31.5806 31.3103 27.7767C31.9722 24.2194 37.0093 22.7587 40.1676 22.5534C40.3717 23.5425 40.4698 24.5661 40.4631 25.4478C40.394 27.5811 39.528 30.1493 37.7194 31.4406Z" fill="#088395"/>
</svg>
