<svg width="182" height="221" viewBox="0 0 182 221" fill="none" xmlns="http://www.w3.org/2000/svg">
<g clip-path="url(#clip0_23_160)">
<path d="M147.161 86.6728C147.371 86.3432 148.697 84.2659 149.68 84.4764C151.543 84.8752 150.532 93.1419 153.24 93.9663C153.834 94.1473 154.671 93.989 156.539 94.4895C157.282 94.6887 157.667 94.8524 157.787 95.182C157.957 95.6496 157.443 96.0427 156.681 97.1823C155.537 98.8914 155.889 99.2077 154.883 100.433C154.137 101.342 153.551 101.646 153.666 102.045C153.829 102.609 155.106 102.367 155.413 103.014C155.727 103.675 154.817 104.816 154.031 105.514C152.555 106.824 151.084 106.951 149.737 107.38C148.274 107.847 146.272 108.889 144.2 111.496L127.639 133.95C128.975 133.443 131.577 132.401 135.127 130.62C138.121 129.117 141.089 127.407 143.949 125.534C145.183 124.727 146.26 123.976 147.229 123.276L147.131 123.328L147.604 121.613C147.785 120.931 147.904 120.375 147.652 119.927C147.513 119.688 147.251 119.441 146.946 119.154C146.596 118.827 146.198 118.456 145.811 117.941C145.451 117.478 145.37 117.065 145.549 116.719C145.61 116.601 145.69 116.517 145.774 116.456C145.678 116.303 145.568 116.123 145.471 115.906C145.264 115.445 145.213 115.051 145.177 114.758C145.027 113.578 145.217 112.883 145.746 112.692C145.969 112.611 146.171 112.648 146.339 112.727C146.352 112.485 146.384 112.201 146.472 111.894C146.756 110.909 147.15 110.409 147.675 110.368C148.409 110.31 148.779 111.122 149.206 112.06C149.398 112.477 149.901 113.587 150.163 113.588C150.196 113.588 150.288 113.568 150.371 113.55C150.596 113.501 150.935 113.427 151.464 113.412C151.761 113.404 152.21 113.391 152.484 113.759C152.728 114.112 152.608 114.488 152.497 114.787C152.46 114.886 152.416 115.004 152.372 115.147C152.271 115.472 152.254 115.647 152.238 115.817C152.216 116.038 152.194 116.268 152.036 116.645C152.023 116.676 152.011 116.705 151.998 116.733C152.147 116.767 152.302 116.839 152.433 116.984C152.926 117.521 152.466 118.41 152.248 118.764C151.854 119.397 151.356 119.701 150.955 119.946C150.854 120.008 150.754 120.068 150.658 120.134C150.161 120.473 149.748 120.987 149.418 121.649C149.809 121.351 150.183 121.063 150.534 120.793C151.791 119.824 152.972 118.88 154.125 117.959C155.309 117.013 156.469 116.087 157.65 115.183L157.575 114.858L157.86 115.024C159.722 113.606 161.638 112.244 163.791 110.952C163.879 110.899 163.983 110.837 164.091 110.774L164.193 110.403C164.375 109.721 164.494 109.165 164.242 108.717C164.103 108.478 163.841 108.23 163.535 107.944C163.185 107.617 162.788 107.246 162.4 106.731C162.041 106.268 161.959 105.855 162.139 105.509C162.2 105.391 162.279 105.307 162.364 105.246C162.267 105.093 162.158 104.913 162.06 104.696C161.854 104.235 161.803 103.841 161.766 103.548C161.616 102.368 161.807 101.673 162.335 101.482C162.559 101.401 162.76 101.438 162.929 101.517C162.942 101.275 162.974 100.99 163.062 100.684C163.345 99.6985 163.74 99.1991 164.265 99.1579C164.998 99.0998 165.368 99.9117 165.796 100.85C165.987 101.267 166.49 102.377 166.753 102.378C166.785 102.378 166.878 102.358 166.96 102.34C167.185 102.291 167.524 102.217 168.054 102.202C168.351 102.194 168.799 102.181 169.073 102.549C169.318 102.902 169.197 103.277 169.086 103.577C169.049 103.676 169.006 103.794 168.961 103.937C168.861 104.262 168.844 104.437 168.827 104.607C168.806 104.828 168.784 105.058 168.626 105.435C168.612 105.466 168.6 105.495 168.588 105.523C168.736 105.557 168.892 105.629 169.023 105.774C169.515 106.311 169.056 107.2 168.837 107.554C168.444 108.187 167.945 108.491 167.544 108.736C167.443 108.798 167.344 108.858 167.248 108.924C166.967 109.116 166.714 109.366 166.485 109.662C167.215 109.415 168.058 109.212 169.008 109.125C170.144 109.021 171.295 109.097 172.442 109.348C172.45 109.261 172.458 109.176 172.467 109.082C172.565 108.025 172.636 107.586 173 107.175C173.176 106.975 173.447 106.754 174.22 106.502C175.291 106.152 176.209 106.099 176.466 106.091C177.747 106.055 178.853 106.023 179.858 106.797C180.049 106.944 180.632 107.388 180.951 108.172C181.115 108.569 181.144 108.89 181.168 109.149C181.193 109.42 181.209 109.599 181.36 109.849C181.456 110.009 181.571 110.139 181.662 110.244C181.839 110.453 182.171 110.838 181.893 111.255C181.826 111.356 181.741 111.427 181.645 111.474C181.696 111.828 181.665 112.194 181.49 112.526C181.334 112.824 181.063 113.024 180.335 113.38C179.221 113.925 178.324 114.191 178.145 114.241C176.99 114.569 176.411 114.734 175.79 114.71C174.468 114.657 173.508 114.246 172.936 113.489C172.907 113.452 172.881 113.414 172.855 113.376C172.454 112.781 172.411 112.159 172.342 111.167C172.329 110.976 172.333 110.755 172.349 110.474C171.266 110.221 170.18 110.136 169.111 110.234C166.797 110.446 165.153 111.433 164.363 111.907C162.396 113.088 160.623 114.334 158.904 115.631L159.111 115.751C159.723 116.1 160.231 116.356 160.727 116.226C160.993 116.152 161.298 115.961 161.652 115.738C162.057 115.481 162.516 115.19 163.112 114.945C163.65 114.715 164.07 114.74 164.358 115.002C164.457 115.091 164.517 115.189 164.555 115.287C164.727 115.232 164.929 115.172 165.163 115.132C165.66 115.049 166.054 115.1 166.346 115.139C167.524 115.292 168.146 115.654 168.197 116.214C168.219 116.451 168.132 116.637 168.012 116.78C168.243 116.854 168.51 116.957 168.784 117.12C169.663 117.645 170.045 118.154 169.952 118.673C169.822 119.398 168.944 119.551 167.93 119.727C167.478 119.807 166.279 120.013 166.211 120.267C166.203 120.299 166.199 120.393 166.196 120.477C166.186 120.708 166.171 121.055 166.051 121.572C165.984 121.862 165.883 122.3 165.457 122.472C165.055 122.619 164.723 122.407 164.461 122.224C164.375 122.163 164.273 122.09 164.146 122.012C163.858 121.832 163.693 121.771 163.533 121.712C163.325 121.635 163.109 121.555 162.784 121.306C162.758 121.285 162.733 121.266 162.709 121.247C162.639 121.382 162.53 121.515 162.356 121.605C161.712 121.946 160.971 121.275 160.684 120.974C160.173 120.432 160.006 119.872 159.871 119.421C159.837 119.307 159.804 119.196 159.765 119.086C159.52 118.397 159.009 117.759 158.246 117.19L158.081 117.067L157.923 116.378C156.887 117.179 155.862 117.996 154.817 118.83C153.661 119.754 152.474 120.702 151.212 121.675C149.538 122.965 147.456 124.57 144.556 126.467C141.661 128.362 138.657 130.094 135.624 131.616C132.923 132.971 130.76 133.905 129.276 134.504C133.601 134.794 139.583 135.138 142.287 135.187C143.338 135.205 144.421 135.189 145.193 134.461C145.937 133.759 146.302 132.482 147.384 131.149C147.51 130.993 147.867 130.564 148.183 130.64C148.445 130.702 148.44 131.053 148.683 131.115C149.009 131.199 149.282 130.635 149.957 130.106C150.433 129.732 150.867 129.565 151.24 129.422C151.352 129.378 153.037 128.741 153.347 129.205C153.579 129.553 152.834 130.22 153.055 130.515C153.276 130.808 154.093 130.247 155.325 130.293C155.547 130.302 156.948 130.354 157.128 130.898C157.47 131.929 153.128 133.817 153.505 135.387C153.588 135.731 153.907 136.096 154.201 137.159C154.318 137.582 154.348 137.819 154.222 137.973C154.041 138.191 153.701 138.052 152.922 138.006C151.755 137.937 151.701 138.201 150.811 138.06C150.15 137.956 149.832 137.755 149.67 137.927C149.44 138.17 149.928 138.728 149.699 139.066C149.466 139.41 148.644 139.293 148.075 139.107C147.008 138.76 146.521 138.073 145.922 137.535C145.271 136.95 144.183 136.267 142.308 136L129.034 134.601C128.258 134.911 127.687 135.123 127.353 135.246C127.176 135.311 127.062 135.352 127.015 135.374L126.839 135.035L126.642 135.302C126.703 135.215 126.77 135.119 126.835 135.026L126.76 134.882L126.252 134.656C126.32 134.5 126.395 134.432 126.598 134.344L125.577 134.237C125.886 134.262 126.257 134.29 126.654 134.32C126.738 134.286 126.841 134.248 126.969 134.2C127.118 134.145 127.321 134.07 127.564 133.978C131.589 128.164 139.87 115.846 142.952 110.804C143.916 109.226 144.856 107.568 144.442 105.749C144.043 103.997 142.438 102.306 141.385 99.4787C141.262 99.1485 140.931 98.225 141.327 97.813C141.655 97.4724 142.181 97.7917 142.491 97.4784C142.907 97.058 142.299 96.1423 142.099 94.6471C141.958 93.5928 142.092 92.7864 142.207 92.0929C142.241 91.8838 142.779 88.7608 143.754 88.7039C144.488 88.6611 144.833 90.3856 145.475 90.3119C146.114 90.2384 145.994 88.5007 147.161 86.6728Z" fill="#F2F2F2"/>
<path d="M11.5032 159.277L130.045 142.865C134.012 142.316 137.287 139.468 138.388 135.611L165.614 40.1588C166.536 36.9236 165.847 33.5737 163.724 30.9671C161.601 28.3606 158.463 27.0135 155.113 27.2696L35.6823 36.4352C31.3615 36.7667 27.7344 39.8145 26.6561 44.0187L0.319534 146.717C-0.520813 149.994 0.319534 153.458 2.56804 155.983C4.50415 158.158 7.24963 159.373 10.1116 159.373C10.5732 159.373 11.0383 159.341 11.5032 159.277Z" fill="#E6E6E6"/>
<path d="M41.4794 137.923L79.0781 132.718C80.3365 132.544 81.3751 131.64 81.7242 130.417L90.3597 100.142C90.6523 99.1155 90.4338 98.053 89.7603 97.2263C89.0868 96.3995 88.0917 95.9723 87.0292 96.0535L49.1485 98.9606C47.778 99.0657 46.6276 100.032 46.2856 101.366L37.9322 133.939C37.6657 134.979 37.9322 136.078 38.6454 136.879C39.2595 137.568 40.1303 137.954 41.038 137.954C41.1844 137.954 41.332 137.943 41.4794 137.923Z" fill="white"/>
<path d="M44.8432 53.928L114.639 47.4925C116.399 47.3302 117.768 46.5201 117.692 45.6868C117.615 44.8535 116.121 44.3077 114.362 44.47L44.5654 50.9055C42.8058 51.0677 41.437 51.8774 41.5136 52.7108C41.5901 53.5441 43.0835 54.0902 44.8432 53.928Z" fill="white"/>
<path d="M41.0373 72.304L110.833 65.8684C112.593 65.7062 113.963 64.8961 113.886 64.0628C113.809 63.2294 112.315 62.6837 110.556 62.8459L40.7595 69.2815C38.9999 69.4437 37.6311 70.2534 37.7076 71.0867C37.7842 71.9201 39.2776 72.4662 41.0373 72.304Z" fill="white"/>
<path d="M39.6931 88.3201L109.489 81.8845C111.249 81.7223 112.618 80.9122 112.542 80.0789C112.465 79.2455 110.971 78.6998 109.212 78.862L39.4153 85.2976C37.6557 85.4598 36.2869 86.2695 36.3635 87.1029C36.44 87.9362 37.9335 88.4823 39.6931 88.3201Z" fill="white"/>
<path d="M81.749 80.5838C79.9971 78.6719 77.5923 78.0276 76.3777 79.1446C75.1632 80.2616 75.5991 82.7166 77.3518 84.6289C78.0415 85.4025 78.9061 85.9993 79.8733 86.3695L87.3983 94.3764L91.0741 90.7591L83.2656 83.2497C82.9798 82.2525 82.4598 81.3384 81.749 80.5838Z" fill="#FFB6B6"/>
<path d="M124.65 82.3656C124.65 82.3656 120.253 78.3368 114.991 81.8543C109.729 85.3718 97.4752 94.369 97.4752 94.369L88.8891 83.7021L82.1232 89.8451C82.1232 89.8451 94.0577 110.902 101.768 106.268C109.479 101.633 126.692 88.4037 125.911 85.6665C125.129 82.9292 124.65 82.3656 124.65 82.3656Z" fill="#088395"/>
<path d="M92.0902 180.64L99.0961 193.717L104.866 186.722L98.2286 177.737L92.0902 180.64Z" fill="#FFB6B6"/>
<path d="M96.6207 191.909L99.585 207.953C99.585 207.953 101.575 213.517 104.773 207.866C107.971 202.214 113.762 190.52 110.433 188.377C107.103 186.234 103.083 184.503 103.083 184.503L96.6207 191.909Z" fill="#2F2E41"/>
<path d="M87.9558 194.881L80.5643 208.208L89.8036 209.319L93.869 198.583L87.9558 194.881Z" fill="#FFB6B6"/>
<path d="M127.131 74.196C127.131 74.196 127.87 81.6 128.978 82.3404C130.087 83.0808 116.038 82.3404 116.038 82.3404L120.109 74.196H127.131Z" fill="#FFB6B6"/>
<path d="M111.981 84.5675L117.152 80.4895H129.796L138.218 87.5233L132.859 112.512L135.446 124.728L102.554 125.839L108.467 114.733C108.467 114.733 101.445 107.329 103.663 102.516C105.88 97.7037 111.981 84.5675 111.981 84.5675Z" fill="#088395"/>
<path d="M105.88 122.877L101.076 125.469C101.076 125.469 75.2055 149.902 77.4229 157.306C79.6404 164.71 94.4233 185.811 94.4233 185.811L101.445 182.109L91.0972 159.527L110.869 139.721L100.256 158.463L85.184 198.027L94.0537 201.729L116.967 155.455C116.967 155.455 135.816 142.498 136.924 134.353C138.033 126.209 135.446 124.728 135.446 124.728L105.88 122.877Z" fill="#2F2E41"/>
<path d="M80.7491 205.061L68.5532 216.537C68.5532 216.537 64.8574 221.35 71.5098 220.98C78.1621 220.609 91.4667 219.129 91.4667 215.056C91.4667 210.984 90.7276 206.542 90.7276 206.542L80.7491 205.061Z" fill="#2F2E41"/>
<path d="M123.435 76.0472C118.74 76.0472 114.935 72.2351 114.935 67.5326C114.935 62.8302 118.74 59.0181 123.435 59.0181C128.129 59.0181 131.935 62.8302 131.935 67.5326C131.935 72.2351 128.129 76.0472 123.435 76.0472Z" fill="#FFB6B6"/>
<path d="M86.5603 101.507L93.5656 122.877C93.7523 123.447 94.2374 123.867 94.8271 123.97L108.224 126.303C109.425 126.513 110.418 125.367 110.043 124.205L103.047 102.545C102.858 101.96 102.356 101.532 101.749 101.44L88.343 99.3964C87.1493 99.2144 86.1836 100.358 86.5603 101.507Z" fill="white"/>
<path d="M108.508 126.698C109.079 126.698 109.62 126.454 110.004 126.011C110.465 125.48 110.611 124.762 110.395 124.092L103.399 102.431C103.165 101.708 102.554 101.188 101.805 101.074L88.3987 99.0306C87.7109 98.9254 87.0306 99.181 86.5806 99.7135C86.1309 100.246 85.9919 100.96 86.2092 101.622L93.2145 122.993C93.4442 123.694 94.0377 124.208 94.7635 124.335L108.161 126.668C108.277 126.688 108.393 126.698 108.508 126.698ZM88.096 99.7479C88.1594 99.7479 88.2234 99.7526 88.2875 99.7623L101.694 101.806C102.165 101.878 102.549 102.204 102.695 102.658L109.673 124.263C109.801 124.659 109.759 125.105 109.513 125.441C109.226 125.834 108.758 126.019 108.287 125.939L102.911 125.002C97.5196 124.063 93.0843 120.222 91.3769 115.014L86.9247 101.432C86.8126 101.09 86.8265 100.709 87.0036 100.395C87.2366 99.983 87.6522 99.7479 88.096 99.7479Z" fill="#3F3D56"/>
<path d="M107.011 118.155C104.422 118.251 102.373 119.667 102.434 121.317C102.495 122.968 104.643 124.227 107.233 124.131C108.268 124.107 109.283 123.834 110.191 123.337L121.156 122.791L120.791 117.643L110.02 118.727C109.077 118.299 108.045 118.102 107.011 118.155Z" fill="#FFB6B6"/>
<path d="M136.185 86.5977C136.185 86.5977 130.272 87.3381 129.533 93.6314C128.794 99.9248 127.685 115.103 127.685 115.103L114.011 114.733L114.292 123.875C114.292 123.875 138.033 128.43 139.511 119.545C140.99 110.661 142.098 88.9558 139.511 87.7768C136.924 86.5977 136.185 86.5977 136.185 86.5977Z" fill="#088395"/>
<path d="M59.3989 27.1778L62.4405 25.7346C61.193 27.4785 60.118 30.2021 59.5425 32.3695C58.5681 30.3506 56.9974 27.8804 55.4426 26.4048L58.6572 27.2332C56.6763 17.5089 49.226 10.5278 40.6943 10.5278L40.5735 10.1765C49.4851 10.1765 57.3764 17.0609 59.3989 27.1778Z" fill="#3F3D56"/>
<path d="M45.3998 41.9945H64.6176C65.4327 41.9945 66.0959 41.3303 66.0959 40.5138C66.0959 39.6973 65.4327 39.033 64.6176 39.033H45.3998C44.5846 39.033 43.9215 39.6973 43.9215 40.5138C43.9215 41.3303 44.5846 41.9945 45.3998 41.9945Z" fill="#088395"/>
<path d="M89.0867 104.811L101.689 105.874C102.007 105.901 102.287 105.664 102.314 105.346C102.341 105.028 102.104 104.747 101.786 104.72L89.1838 103.656C88.8661 103.63 88.5859 103.867 88.5591 104.185C88.5323 104.503 88.7689 104.784 89.0867 104.811Z" fill="#3F3D56"/>
<path d="M90.1954 108.513L102.798 109.576C103.115 109.603 103.396 109.366 103.423 109.048C103.449 108.729 103.213 108.449 102.895 108.422L90.2925 107.358C89.9748 107.331 89.6946 107.568 89.6678 107.887C89.641 108.205 89.8777 108.486 90.1954 108.513Z" fill="#3F3D56"/>
<path d="M91.3041 112.215L103.906 113.278C104.224 113.305 104.504 113.068 104.531 112.75C104.558 112.432 104.321 112.151 104.004 112.124L91.4012 111.06C91.0835 111.034 90.8033 111.271 90.7765 111.589C90.7498 111.907 90.9864 112.188 91.3041 112.215Z" fill="#3F3D56"/>
<path d="M125.71 70.5939L119.763 63.7545L120.754 60.8696L117.562 63.9083L115.914 63.4599C115.914 63.4599 115.929 57.6029 120.598 57.3383C125.266 57.0738 128.616 57.5664 128.616 57.5664C128.616 57.5664 135.291 59.662 135.552 61.268C135.813 62.874 139.553 65.0079 139.553 65.0079C139.553 65.0079 142.798 67.4259 141.281 71.4785C139.764 75.5312 136.303 80.5898 138.699 83.0558C141.095 85.5218 144.481 87.4199 142.831 88.3665C141.182 89.313 138.206 84.8752 135.496 86.6496C132.786 88.4239 128.206 95.5505 123.91 91.8699C119.615 88.1893 118.82 83.9264 118.82 83.9264L125.676 77.14C125.676 77.14 129.829 70.0436 125.71 70.5939Z" fill="#2F2E41"/>
<path d="M31.2048 1.71103H49.8854C50.3563 1.71103 50.7395 1.32718 50.7395 0.855424C50.7395 0.383673 50.3563 0 49.8854 0H31.2047C30.7338 0 30.3508 0.383677 30.3508 0.855428C30.3508 1.32718 30.7338 1.71103 31.2048 1.71103Z" fill="#3F3D56"/>
<path d="M21.1805 10.8387H59.9096C60.3806 10.8387 60.7638 10.4549 60.7638 9.98311C60.7638 9.51136 60.3806 9.12769 59.9096 9.12769H21.1805C20.7096 9.12769 20.3265 9.51136 20.3265 9.98311C20.3265 10.4549 20.7096 10.8387 21.1805 10.8387Z" fill="#3F3D56"/>
</g>
<defs>
<clipPath id="clip0_23_160">
<rect width="182" height="221" fill="white" transform="matrix(-1 0 0 1 182 0)"/>
</clipPath>
</defs>
</svg>
