<svg xmlns="http://www.w3.org/2000/svg" xmlns:xlink="http://www.w3.org/1999/xlink" width="37" zoomAndPan="magnify" viewBox="0 0 27.75 20.999999" height="28" preserveAspectRatio="xMidYMid meet" version="1.0"><defs><filter x="0%" y="0%" width="100%" height="100%" id="1a4a213a2a"><feColorMatrix values="0 0 0 0 1 0 0 0 0 1 0 0 0 0 1 0 0 0 1 0" color-interpolation-filters="sRGB"/></filter><clipPath id="dd77a40fd1"><path d="M 18 0.09375 L 27.503906 0.09375 L 27.503906 10 L 18 10 Z M 18 0.09375 " clip-rule="nonzero"/></clipPath><mask id="76f30a1a03"><g filter="url(#1a4a213a2a)"><rect x="-2.775" width="33.3" fill="#000000" y="-2.1" height="25.199999" fill-opacity="0.32"/></g></mask><clipPath id="c936ed4bb7"><path d="M 0.488281 0.09375 L 8.664062 0.09375 L 8.664062 8.269531 L 0.488281 8.269531 Z M 0.488281 0.09375 " clip-rule="nonzero"/></clipPath><clipPath id="873cf713f7"><path d="M 2.890625 0.492188 C 2.859375 0.453125 2.835938 0.414062 2.824219 0.371094 C 2.800781 0.292969 2.71875 0.25 2.640625 0.277344 C 2.566406 0.300781 2.519531 0.378906 2.546875 0.457031 C 2.589844 0.59375 2.691406 0.707031 2.796875 0.820312 C 2.898438 0.929688 3.011719 1.042969 2.984375 1.234375 C 2.601562 1.800781 2.121094 2.117188 1.429688 1.878906 C 1.375 1.855469 1.34375 1.816406 1.316406 1.765625 C 1.277344 1.691406 1.25 1.605469 1.214844 1.511719 C 1.195312 1.457031 1.175781 1.402344 1.148438 1.347656 C 1.222656 1.222656 1.246094 1.101562 1.230469 0.980469 C 1.222656 0.902344 1.148438 0.84375 1.070312 0.855469 C 0.988281 0.863281 0.933594 0.9375 0.941406 1.015625 C 0.941406 1.023438 0.945312 1.03125 0.945312 1.039062 C 0.882812 0.976562 0.808594 0.921875 0.71875 0.871094 C 0.652344 0.832031 0.5625 0.859375 0.523438 0.929688 C 0.484375 1 0.507812 1.085938 0.578125 1.125 C 0.753906 1.222656 0.839844 1.355469 0.898438 1.492188 C 0.835938 1.496094 0.777344 1.480469 0.714844 1.449219 C 0.640625 1.417969 0.554688 1.445312 0.519531 1.519531 C 0.484375 1.59375 0.515625 1.679688 0.589844 1.714844 C 0.726562 1.78125 0.867188 1.804688 1 1.769531 C 1.0625 1.929688 1.140625 2.058594 1.28125 2.132812 C 1.417969 2.335938 1.476562 2.511719 1.453125 2.667969 C 1.433594 2.824219 1.324219 2.949219 1.152344 3.058594 C 1.136719 3.070312 1.121094 3.078125 1.105469 3.085938 C 1.113281 3.015625 1.101562 2.9375 1.085938 2.859375 C 1.066406 2.78125 0.988281 2.730469 0.910156 2.75 C 0.832031 2.769531 0.78125 2.847656 0.800781 2.925781 C 0.816406 2.984375 0.820312 3.042969 0.816406 3.09375 C 0.78125 3.082031 0.746094 3.066406 0.714844 3.050781 C 0.640625 3.015625 0.554688 3.046875 0.519531 3.117188 C 0.484375 3.191406 0.515625 3.277344 0.589844 3.3125 C 0.71875 3.375 0.851562 3.414062 0.988281 3.410156 C 0.953125 3.464844 0.902344 3.503906 0.855469 3.546875 C 0.761719 3.628906 0.683594 3.726562 0.65625 3.886719 C 0.640625 3.964844 0.695312 4.039062 0.773438 4.050781 C 0.851562 4.066406 0.929688 4.011719 0.941406 3.933594 C 0.960938 3.820312 1.039062 3.773438 1.105469 3.710938 C 1.195312 3.628906 1.277344 3.539062 1.308594 3.386719 C 1.539062 3.523438 1.6875 3.691406 1.75 3.890625 C 1.828125 4.125 1.796875 4.394531 1.691406 4.699219 C 1.636719 4.75 1.589844 4.804688 1.554688 4.859375 C 1.546875 4.863281 1.535156 4.867188 1.527344 4.871094 C 1.386719 4.949219 1.25 4.957031 1.117188 4.929688 C 1.039062 4.914062 0.964844 4.960938 0.945312 5.039062 C 0.929688 5.117188 0.976562 5.195312 1.054688 5.214844 C 1.167969 5.238281 1.277344 5.242188 1.390625 5.222656 C 1.363281 5.332031 1.339844 5.441406 1.320312 5.554688 C 1.3125 5.601562 1.300781 5.652344 1.292969 5.699219 C 1.085938 5.664062 0.90625 5.730469 0.734375 5.8125 C 0.660156 5.847656 0.628906 5.933594 0.664062 6.007812 C 0.699219 6.078125 0.789062 6.109375 0.859375 6.074219 C 0.96875 6.023438 1.078125 5.972656 1.207031 5.980469 C 1.164062 6.085938 1.09375 6.183594 0.992188 6.269531 C 0.933594 6.320312 0.925781 6.410156 0.976562 6.472656 C 1.027344 6.535156 1.117188 6.542969 1.179688 6.492188 C 1.472656 6.25 1.546875 5.929688 1.605469 5.605469 C 1.625 5.5 1.644531 5.390625 1.671875 5.285156 C 1.6875 5.339844 1.699219 5.402344 1.710938 5.464844 C 1.75 5.667969 1.808594 5.882812 2.011719 6.054688 C 2.074219 6.105469 2.164062 6.097656 2.21875 6.035156 C 2.269531 5.976562 2.261719 5.882812 2.199219 5.832031 C 2.117188 5.761719 2.070312 5.683594 2.042969 5.597656 C 2.085938 5.589844 2.128906 5.601562 2.171875 5.628906 C 2.238281 5.671875 2.328125 5.652344 2.371094 5.585938 C 2.417969 5.519531 2.398438 5.429688 2.328125 5.386719 C 2.207031 5.308594 2.09375 5.285156 1.976562 5.3125 C 1.976562 5.308594 1.976562 5.308594 1.976562 5.304688 C 1.949219 5.175781 1.914062 5.054688 1.839844 4.964844 C 1.859375 4.9375 1.882812 4.914062 1.910156 4.890625 L 1.914062 4.886719 C 2.226562 4.597656 2.53125 4.421875 2.839844 4.46875 C 3.015625 4.496094 3.1875 4.597656 3.359375 4.777344 C 3.242188 4.925781 3.226562 5.074219 3.226562 5.226562 C 3.226562 5.339844 3.25 5.453125 3.160156 5.558594 C 3.109375 5.617188 3.113281 5.710938 3.175781 5.761719 C 3.234375 5.8125 3.328125 5.808594 3.378906 5.746094 C 3.5 5.609375 3.519531 5.464844 3.519531 5.3125 C 3.519531 5.210938 3.503906 5.097656 3.566406 4.992188 C 3.671875 5.128906 3.714844 5.292969 3.777344 5.484375 C 3.796875 5.554688 3.824219 5.625 3.851562 5.703125 C 3.851562 5.707031 3.851562 5.707031 3.851562 5.710938 C 3.832031 5.894531 3.773438 6.035156 3.640625 6.105469 C 3.566406 6.144531 3.542969 6.230469 3.578125 6.300781 C 3.617188 6.371094 3.703125 6.398438 3.773438 6.363281 C 3.890625 6.300781 3.980469 6.210938 4.042969 6.09375 C 4.113281 6.214844 4.207031 6.339844 4.324219 6.476562 C 4.375 6.535156 4.46875 6.542969 4.527344 6.488281 C 4.589844 6.433594 4.597656 6.34375 4.542969 6.28125 C 4.527344 6.265625 4.511719 6.25 4.5 6.234375 L 4.578125 6.234375 C 4.660156 6.234375 4.722656 6.167969 4.722656 6.085938 C 4.722656 6.007812 4.660156 5.941406 4.578125 5.941406 L 4.292969 5.941406 C 4.144531 5.695312 4.082031 5.480469 4.019531 5.289062 C 4.054688 5.285156 4.089844 5.289062 4.128906 5.296875 C 4.253906 5.320312 4.394531 5.359375 4.578125 5.359375 C 4.660156 5.359375 4.722656 5.292969 4.722656 5.214844 C 4.722656 5.136719 4.660156 5.070312 4.578125 5.070312 C 4.375 5.070312 4.226562 5.011719 4.101562 5 C 4.035156 4.992188 3.976562 4.996094 3.914062 5.015625 C 3.867188 4.90625 3.804688 4.8125 3.71875 4.722656 C 3.765625 4.480469 3.832031 4.273438 3.921875 4.113281 C 4.007812 3.957031 4.117188 3.847656 4.257812 3.800781 C 4.375 3.761719 4.515625 3.769531 4.675781 3.824219 C 4.683594 3.824219 4.691406 3.828125 4.699219 3.828125 C 4.785156 3.84375 4.871094 3.863281 4.949219 3.882812 C 4.957031 3.925781 4.96875 3.964844 4.988281 4.007812 C 5.039062 4.113281 5.128906 4.195312 5.238281 4.234375 C 5.320312 4.261719 5.414062 4.296875 5.496094 4.324219 C 5.605469 4.363281 5.726562 4.359375 5.832031 4.308594 C 5.867188 4.292969 5.902344 4.269531 5.929688 4.246094 C 5.964844 4.265625 6 4.28125 6.035156 4.300781 C 6.03125 4.339844 6.035156 4.378906 6.042969 4.417969 C 6.066406 4.535156 6.132812 4.636719 6.230469 4.699219 C 6.300781 4.746094 6.382812 4.796875 6.453125 4.847656 C 6.550781 4.914062 6.667969 4.933594 6.785156 4.914062 C 6.796875 4.910156 6.808594 4.90625 6.820312 4.902344 C 6.847656 4.933594 6.878906 4.964844 6.90625 4.996094 C 6.878906 5.046875 6.859375 5.105469 6.855469 5.164062 C 6.84375 5.28125 6.882812 5.398438 6.957031 5.488281 C 7.015625 5.550781 7.074219 5.625 7.128906 5.6875 C 7.207031 5.78125 7.3125 5.835938 7.429688 5.84375 C 7.496094 5.851562 7.5625 5.839844 7.621094 5.820312 C 7.714844 6.09375 7.648438 6.304688 7.644531 6.324219 C 7.535156 6.589844 7.355469 6.710938 7.160156 6.789062 C 7.007812 6.847656 6.851562 6.882812 6.703125 6.925781 C 6.433594 7.011719 6.199219 7.125 6.074219 7.40625 C 5.886719 7.453125 5.742188 7.625 5.742188 7.828125 C 5.742188 8.070312 5.9375 8.265625 6.179688 8.265625 C 6.421875 8.265625 6.617188 8.070312 6.617188 7.828125 C 6.617188 7.664062 6.523438 7.519531 6.386719 7.445312 C 6.445312 7.359375 6.53125 7.304688 6.621094 7.265625 C 6.730469 7.214844 6.855469 7.1875 6.976562 7.152344 C 7.113281 7.113281 7.253906 7.070312 7.382812 7.007812 C 7.355469 7.046875 7.335938 7.078125 7.316406 7.109375 C 7.257812 7.195312 7.21875 7.277344 7.203125 7.417969 C 7.03125 7.476562 6.90625 7.640625 6.90625 7.832031 C 6.90625 8.070312 7.101562 8.265625 7.34375 8.265625 C 7.585938 8.265625 7.78125 8.070312 7.78125 7.832031 C 7.78125 7.644531 7.664062 7.484375 7.496094 7.421875 C 7.511719 7.324219 7.554688 7.273438 7.605469 7.199219 C 7.65625 7.121094 7.71875 7.023438 7.785156 6.867188 C 7.808594 6.90625 7.839844 6.945312 7.875 6.980469 C 7.816406 7.054688 7.78125 7.148438 7.78125 7.25 C 7.78125 7.492188 7.976562 7.6875 8.21875 7.6875 C 8.457031 7.6875 8.652344 7.492188 8.652344 7.25 C 8.652344 7.007812 8.457031 6.8125 8.21875 6.8125 C 8.1875 6.8125 8.160156 6.816406 8.132812 6.824219 C 8 6.71875 7.949219 6.566406 7.929688 6.390625 C 7.957031 6.292969 8.015625 5.996094 7.867188 5.648438 L 7.96875 5.5625 C 8.058594 5.488281 8.113281 5.378906 8.121094 5.261719 C 8.132812 5.144531 8.09375 5.027344 8.019531 4.9375 C 7.964844 4.871094 7.902344 4.800781 7.847656 4.734375 C 7.773438 4.644531 7.664062 4.589844 7.546875 4.582031 C 7.507812 4.578125 7.472656 4.582031 7.433594 4.585938 C 7.382812 4.519531 7.332031 4.449219 7.273438 4.382812 C 7.292969 4.3125 7.300781 4.234375 7.285156 4.160156 C 7.261719 4.046875 7.191406 3.945312 7.09375 3.878906 C 7.023438 3.832031 6.945312 3.78125 6.875 3.730469 C 6.777344 3.667969 6.65625 3.644531 6.542969 3.667969 C 6.5 3.675781 6.460938 3.691406 6.421875 3.710938 C 6.34375 3.667969 6.261719 3.625 6.175781 3.585938 C 6.167969 3.542969 6.15625 3.5 6.136719 3.457031 C 6.085938 3.351562 5.996094 3.269531 5.886719 3.230469 C 5.804688 3.203125 5.714844 3.167969 5.628906 3.140625 C 5.519531 3.101562 5.398438 3.105469 5.292969 3.15625 C 5.246094 3.179688 5.203125 3.210938 5.164062 3.246094 C 5.066406 3.226562 4.964844 3.203125 4.859375 3.183594 C 4.640625 3.011719 4.515625 2.847656 4.488281 2.65625 C 4.464844 2.464844 4.535156 2.253906 4.675781 1.988281 C 4.714844 1.976562 4.75 1.960938 4.78125 1.945312 C 4.828125 1.96875 4.863281 2.007812 4.894531 2.046875 C 4.933594 2.089844 4.972656 2.140625 5.011719 2.183594 C 5.136719 2.324219 5.292969 2.449219 5.597656 2.449219 C 5.675781 2.449219 5.742188 2.382812 5.742188 2.304688 C 5.742188 2.222656 5.675781 2.15625 5.597656 2.15625 C 5.460938 2.15625 5.371094 2.117188 5.304688 2.0625 C 5.34375 2 5.394531 1.949219 5.472656 1.9375 C 5.550781 1.929688 5.605469 1.855469 5.597656 1.777344 C 5.585938 1.695312 5.511719 1.640625 5.433594 1.652344 C 5.292969 1.667969 5.191406 1.742188 5.105469 1.84375 C 5.082031 1.816406 5.054688 1.789062 5.027344 1.765625 C 5.050781 1.734375 5.074219 1.707031 5.097656 1.679688 C 5.214844 1.53125 5.296875 1.359375 5.628906 1.28125 C 5.710938 1.265625 5.757812 1.1875 5.738281 1.109375 C 5.722656 1.027344 5.644531 0.980469 5.566406 1 C 5.339844 1.050781 5.199219 1.132812 5.09375 1.230469 C 5.097656 1.171875 5.117188 1.117188 5.144531 1.0625 C 5.179688 0.988281 5.152344 0.902344 5.082031 0.863281 C 5.011719 0.828125 4.921875 0.855469 4.886719 0.925781 C 4.785156 1.121094 4.769531 1.316406 4.855469 1.511719 C 4.785156 1.601562 4.703125 1.679688 4.539062 1.726562 L 4.535156 1.726562 C 4.074219 1.867188 3.738281 1.875 3.519531 1.722656 C 3.390625 1.628906 3.3125 1.480469 3.269531 1.285156 C 3.277344 1.238281 3.28125 1.199219 3.28125 1.15625 C 3.574219 1.175781 3.851562 1.128906 4.109375 0.988281 L 4.398438 1.0625 C 4.472656 1.082031 4.554688 1.035156 4.574219 0.953125 C 4.589844 0.878906 4.546875 0.796875 4.464844 0.777344 L 4.421875 0.765625 C 4.460938 0.734375 4.5 0.695312 4.539062 0.65625 C 4.59375 0.597656 4.589844 0.503906 4.53125 0.449219 C 4.472656 0.394531 4.382812 0.398438 4.328125 0.457031 C 4.175781 0.617188 4.011719 0.726562 3.839844 0.789062 C 3.867188 0.746094 3.902344 0.703125 3.945312 0.664062 C 4.007812 0.613281 4.015625 0.519531 3.960938 0.457031 C 3.90625 0.398438 3.816406 0.390625 3.753906 0.445312 C 3.621094 0.5625 3.53125 0.703125 3.5 0.863281 C 3.402344 0.871094 3.300781 0.867188 3.195312 0.855469 C 3.171875 0.8125 3.148438 0.777344 3.117188 0.738281 C 3.117188 0.734375 3.121094 0.730469 3.121094 0.726562 C 3.152344 0.554688 3.246094 0.457031 3.355469 0.378906 C 3.417969 0.332031 3.433594 0.242188 3.386719 0.175781 C 3.335938 0.113281 3.246094 0.0976562 3.183594 0.144531 C 3.0625 0.234375 2.957031 0.335938 2.890625 0.488281 Z M 7.339844 7.6875 C 7.421875 7.6875 7.484375 7.753906 7.484375 7.832031 C 7.484375 7.914062 7.421875 7.980469 7.339844 7.980469 C 7.261719 7.980469 7.195312 7.914062 7.195312 7.832031 C 7.195312 7.753906 7.261719 7.6875 7.339844 7.6875 Z M 6.175781 7.6875 L 6.171875 7.6875 C 6.09375 7.6875 6.027344 7.753906 6.027344 7.832031 C 6.027344 7.914062 6.09375 7.980469 6.175781 7.980469 C 6.253906 7.980469 6.320312 7.914062 6.320312 7.832031 C 6.320312 7.753906 6.257812 7.691406 6.175781 7.6875 Z M 8.210938 7.105469 C 8.292969 7.105469 8.359375 7.171875 8.359375 7.25 C 8.359375 7.332031 8.292969 7.398438 8.210938 7.398438 C 8.132812 7.398438 8.066406 7.332031 8.066406 7.25 C 8.066406 7.171875 8.132812 7.105469 8.210938 7.105469 Z M 7.773438 5.339844 L 7.5625 5.523438 C 7.53125 5.546875 7.492188 5.5625 7.449219 5.558594 C 7.410156 5.554688 7.375 5.535156 7.347656 5.503906 L 7.175781 5.300781 C 7.148438 5.273438 7.136719 5.230469 7.140625 5.191406 C 7.144531 5.152344 7.164062 5.113281 7.191406 5.089844 L 7.40625 4.90625 C 7.4375 4.882812 7.476562 4.867188 7.515625 4.871094 C 7.558594 4.875 7.59375 4.894531 7.621094 4.925781 L 7.792969 5.128906 C 7.820312 5.15625 7.832031 5.199219 7.828125 5.238281 C 7.824219 5.277344 7.804688 5.316406 7.773438 5.339844 Z M 7.113281 4.648438 C 7.113281 4.648438 7.054688 4.734375 7.054688 4.734375 C 7.070312 4.753906 7.085938 4.769531 7.101562 4.789062 L 7.171875 4.726562 C 7.152344 4.703125 7.132812 4.675781 7.113281 4.648438 Z M 6.972656 4.332031 L 6.816406 4.566406 C 6.796875 4.597656 6.761719 4.621094 6.722656 4.628906 C 6.683594 4.636719 6.640625 4.628906 6.609375 4.609375 L 6.386719 4.460938 C 6.355469 4.4375 6.332031 4.40625 6.324219 4.363281 C 6.316406 4.324219 6.324219 4.285156 6.34375 4.25 L 6.5 4.019531 C 6.519531 3.984375 6.554688 3.960938 6.59375 3.953125 C 6.632812 3.949219 6.675781 3.953125 6.707031 3.976562 L 6.929688 4.125 C 6.964844 4.144531 6.988281 4.179688 6.992188 4.21875 C 7 4.257812 6.992188 4.300781 6.972656 4.332031 Z M 5.023438 3.515625 C 4.9375 3.5 4.855469 3.484375 4.769531 3.46875 C 4.746094 3.464844 4.722656 3.453125 4.703125 3.4375 C 4.390625 3.195312 4.234375 2.960938 4.199219 2.699219 C 4.171875 2.515625 4.207031 2.316406 4.304688 2.085938 C 3.882812 2.167969 3.570312 2.117188 3.347656 1.960938 C 3.226562 1.875 3.132812 1.757812 3.066406 1.609375 C 2.695312 2.066406 2.246094 2.324219 1.664062 2.238281 C 1.738281 2.410156 1.757812 2.566406 1.738281 2.707031 C 1.710938 2.875 1.628906 3.023438 1.488281 3.15625 C 1.769531 3.332031 1.941406 3.546875 2.023438 3.796875 C 2.082031 3.976562 2.09375 4.179688 2.0625 4.394531 C 2.332031 4.21875 2.609375 4.140625 2.878906 4.183594 C 3.074219 4.214844 3.273438 4.308594 3.46875 4.484375 C 3.601562 3.972656 3.835938 3.636719 4.160156 3.527344 C 4.328125 3.472656 4.527344 3.472656 4.757812 3.546875 C 4.835938 3.5625 4.917969 3.578125 4.996094 3.597656 L 5.023438 3.519531 Z M 5.371094 3.453125 C 5.363281 3.476562 5.242188 3.769531 5.242188 3.769531 C 5.230469 3.808594 5.230469 3.851562 5.246094 3.886719 C 5.265625 3.921875 5.296875 3.949219 5.332031 3.964844 C 5.417969 3.992188 5.507812 4.027344 5.589844 4.054688 C 5.628906 4.070312 5.667969 4.066406 5.703125 4.050781 C 5.742188 4.03125 5.769531 4 5.78125 3.964844 L 5.875 3.699219 C 5.890625 3.664062 5.886719 3.621094 5.871094 3.582031 C 5.851562 3.546875 5.824219 3.519531 5.785156 3.507812 C 5.703125 3.476562 5.613281 3.445312 5.527344 3.414062 C 5.492188 3.402344 5.449219 3.402344 5.414062 3.421875 C 5.398438 3.429688 5.382812 3.441406 5.371094 3.453125 Z M 6.121094 3.886719 L 6.078125 4 C 6.101562 4.011719 6.121094 4.023438 6.140625 4.03125 L 6.210938 3.929688 C 6.179688 3.914062 6.148438 3.898438 6.121094 3.886719 Z M 2.902344 2.304688 C 2.539062 2.304688 2.246094 2.601562 2.246094 2.960938 C 2.246094 3.320312 2.539062 3.617188 2.902344 3.617188 C 3.261719 3.617188 3.554688 3.320312 3.554688 2.960938 C 3.554688 2.601562 3.261719 2.304688 2.902344 2.304688 Z M 2.902344 2.597656 C 3.101562 2.597656 3.265625 2.761719 3.265625 2.960938 C 3.265625 3.160156 3.101562 3.324219 2.902344 3.324219 C 2.699219 3.324219 2.539062 3.160156 2.539062 2.960938 C 2.539062 2.761719 2.699219 2.597656 2.902344 2.597656 Z M 2.902344 2.597656 " clip-rule="evenodd"/></clipPath><linearGradient x1="-0.085001" gradientTransform="matrix(0.145486, 0, 0, 0.145486, 0.502063, 0.122847)" y1="55.995001" x2="56.054997" gradientUnits="userSpaceOnUse" y2="-0.144997" id="ea306c4b88"><stop stop-opacity="1" stop-color="rgb(39.599609%, 55.299377%, 93.699646%)" offset="0"/><stop stop-opacity="1" stop-color="rgb(39.599609%, 55.299377%, 93.699646%)" offset="0.125"/><stop stop-opacity="1" stop-color="rgb(39.604187%, 55.314636%, 93.690491%)" offset="0.140625"/><stop stop-opacity="1" stop-color="rgb(39.649963%, 55.445862%, 93.618774%)" offset="0.148438"/><stop stop-opacity="1" stop-color="rgb(39.729309%, 55.677795%, 93.493652%)" offset="0.15625"/><stop stop-opacity="1" stop-color="rgb(39.808655%, 55.909729%, 93.36853%)" offset="0.164062"/><stop stop-opacity="1" stop-color="rgb(39.888%, 56.140137%, 93.241882%)" offset="0.171875"/><stop stop-opacity="1" stop-color="rgb(39.967346%, 56.37207%, 93.11676%)" offset="0.179688"/><stop stop-opacity="1" stop-color="rgb(40.046692%, 56.604004%, 92.991638%)" offset="0.1875"/><stop stop-opacity="1" stop-color="rgb(40.126038%, 56.834412%, 92.86499%)" offset="0.195313"/><stop stop-opacity="1" stop-color="rgb(40.205383%, 57.066345%, 92.739868%)" offset="0.203125"/><stop stop-opacity="1" stop-color="rgb(40.284729%, 57.298279%, 92.61322%)" offset="0.210938"/><stop stop-opacity="1" stop-color="rgb(40.364075%, 57.528687%, 92.488098%)" offset="0.21875"/><stop stop-opacity="1" stop-color="rgb(40.44342%, 57.76062%, 92.362976%)" offset="0.226563"/><stop stop-opacity="1" stop-color="rgb(40.522766%, 57.992554%, 92.236328%)" offset="0.234375"/><stop stop-opacity="1" stop-color="rgb(40.602112%, 58.222961%, 92.111206%)" offset="0.242188"/><stop stop-opacity="1" stop-color="rgb(40.681458%, 58.454895%, 91.986084%)" offset="0.25"/><stop stop-opacity="1" stop-color="rgb(40.760803%, 58.686829%, 91.859436%)" offset="0.257813"/><stop stop-opacity="1" stop-color="rgb(40.882874%, 58.990479%, 91.691589%)" offset="0.265625"/><stop stop-opacity="1" stop-color="rgb(41.046143%, 59.362793%, 91.482544%)" offset="0.273438"/><stop stop-opacity="1" stop-color="rgb(41.209412%, 59.736633%, 91.271973%)" offset="0.28125"/><stop stop-opacity="1" stop-color="rgb(41.374207%, 60.108948%, 91.062927%)" offset="0.289063"/><stop stop-opacity="1" stop-color="rgb(41.537476%, 60.482788%, 90.853882%)" offset="0.296875"/><stop stop-opacity="1" stop-color="rgb(41.700745%, 60.855103%, 90.644836%)" offset="0.304688"/><stop stop-opacity="1" stop-color="rgb(41.86554%, 61.228943%, 90.434265%)" offset="0.3125"/><stop stop-opacity="1" stop-color="rgb(42.028809%, 61.601257%, 90.22522%)" offset="0.320313"/><stop stop-opacity="1" stop-color="rgb(42.192078%, 61.975098%, 90.016174%)" offset="0.328125"/><stop stop-opacity="1" stop-color="rgb(42.355347%, 62.347412%, 89.807129%)" offset="0.335938"/><stop stop-opacity="1" stop-color="rgb(42.520142%, 62.721252%, 89.596558%)" offset="0.34375"/><stop stop-opacity="1" stop-color="rgb(42.683411%, 63.095093%, 89.387512%)" offset="0.351563"/><stop stop-opacity="1" stop-color="rgb(42.84668%, 63.467407%, 89.178467%)" offset="0.359375"/><stop stop-opacity="1" stop-color="rgb(43.011475%, 63.841248%, 88.969421%)" offset="0.367188"/><stop stop-opacity="1" stop-color="rgb(43.174744%, 64.213562%, 88.760376%)" offset="0.375"/><stop stop-opacity="1" stop-color="rgb(43.338013%, 64.587402%, 88.549805%)" offset="0.382813"/><stop stop-opacity="1" stop-color="rgb(43.501282%, 64.959717%, 88.340759%)" offset="0.390625"/><stop stop-opacity="1" stop-color="rgb(43.666077%, 65.333557%, 88.131714%)" offset="0.398438"/><stop stop-opacity="1" stop-color="rgb(43.829346%, 65.705872%, 87.922668%)" offset="0.40625"/><stop stop-opacity="1" stop-color="rgb(43.992615%, 66.079712%, 87.712097%)" offset="0.414063"/><stop stop-opacity="1" stop-color="rgb(44.15741%, 66.452026%, 87.503052%)" offset="0.421875"/><stop stop-opacity="1" stop-color="rgb(44.320679%, 66.825867%, 87.294006%)" offset="0.429688"/><stop stop-opacity="1" stop-color="rgb(44.483948%, 67.198181%, 87.084961%)" offset="0.4375"/><stop stop-opacity="1" stop-color="rgb(44.647217%, 67.572021%, 86.875916%)" offset="0.445313"/><stop stop-opacity="1" stop-color="rgb(44.812012%, 67.944336%, 86.665344%)" offset="0.453125"/><stop stop-opacity="1" stop-color="rgb(44.975281%, 68.318176%, 86.456299%)" offset="0.460938"/><stop stop-opacity="1" stop-color="rgb(45.158386%, 68.745422%, 86.230469%)" offset="0.464844"/><stop stop-opacity="1" stop-color="rgb(45.26062%, 68.986511%, 86.109924%)" offset="0.46875"/><stop stop-opacity="1" stop-color="rgb(45.367432%, 69.245911%, 85.98175%)" offset="0.472656"/><stop stop-opacity="1" stop-color="rgb(45.475769%, 69.50531%, 85.855103%)" offset="0.476562"/><stop stop-opacity="1" stop-color="rgb(45.584106%, 69.764709%, 85.726929%)" offset="0.480469"/><stop stop-opacity="1" stop-color="rgb(45.692444%, 70.024109%, 85.600281%)" offset="0.484375"/><stop stop-opacity="1" stop-color="rgb(45.799255%, 70.283508%, 85.472107%)" offset="0.488281"/><stop stop-opacity="1" stop-color="rgb(45.907593%, 70.542908%, 85.345459%)" offset="0.492188"/><stop stop-opacity="1" stop-color="rgb(46.01593%, 70.802307%, 85.217285%)" offset="0.496094"/><stop stop-opacity="1" stop-color="rgb(46.124268%, 71.061707%, 85.090637%)" offset="0.5"/><stop stop-opacity="1" stop-color="rgb(46.231079%, 71.31958%, 84.963989%)" offset="0.503906"/><stop stop-opacity="1" stop-color="rgb(46.339417%, 71.578979%, 84.837341%)" offset="0.507812"/><stop stop-opacity="1" stop-color="rgb(46.447754%, 71.838379%, 84.709167%)" offset="0.511719"/><stop stop-opacity="1" stop-color="rgb(46.556091%, 72.097778%, 84.58252%)" offset="0.515625"/><stop stop-opacity="1" stop-color="rgb(46.662903%, 72.357178%, 84.454346%)" offset="0.519531"/><stop stop-opacity="1" stop-color="rgb(46.77124%, 72.616577%, 84.327698%)" offset="0.523438"/><stop stop-opacity="1" stop-color="rgb(46.878052%, 72.875977%, 84.199524%)" offset="0.527344"/><stop stop-opacity="1" stop-color="rgb(46.986389%, 73.135376%, 84.072876%)" offset="0.53125"/><stop stop-opacity="1" stop-color="rgb(47.094727%, 73.394775%, 83.946228%)" offset="0.535156"/><stop stop-opacity="1" stop-color="rgb(47.203064%, 73.654175%, 83.81958%)" offset="0.539063"/><stop stop-opacity="1" stop-color="rgb(47.309875%, 73.913574%, 83.691406%)" offset="0.542969"/><stop stop-opacity="1" stop-color="rgb(47.418213%, 74.172974%, 83.564758%)" offset="0.546875"/><stop stop-opacity="1" stop-color="rgb(47.52655%, 74.432373%, 83.436584%)" offset="0.550781"/><stop stop-opacity="1" stop-color="rgb(47.634888%, 74.691772%, 83.309937%)" offset="0.554688"/><stop stop-opacity="1" stop-color="rgb(47.741699%, 74.951172%, 83.181763%)" offset="0.558594"/><stop stop-opacity="1" stop-color="rgb(47.850037%, 75.210571%, 83.055115%)" offset="0.5625"/><stop stop-opacity="1" stop-color="rgb(47.958374%, 75.469971%, 82.926941%)" offset="0.566406"/><stop stop-opacity="1" stop-color="rgb(48.066711%, 75.72937%, 82.800293%)" offset="0.570313"/><stop stop-opacity="1" stop-color="rgb(48.173523%, 75.98877%, 82.673645%)" offset="0.574219"/><stop stop-opacity="1" stop-color="rgb(48.28186%, 76.248169%, 82.546997%)" offset="0.578125"/><stop stop-opacity="1" stop-color="rgb(48.390198%, 76.506042%, 82.418823%)" offset="0.582031"/><stop stop-opacity="1" stop-color="rgb(48.498535%, 76.765442%, 82.292175%)" offset="0.585938"/><stop stop-opacity="1" stop-color="rgb(48.605347%, 77.024841%, 82.164001%)" offset="0.589844"/><stop stop-opacity="1" stop-color="rgb(48.713684%, 77.284241%, 82.037354%)" offset="0.59375"/><stop stop-opacity="1" stop-color="rgb(48.820496%, 77.54364%, 81.90918%)" offset="0.597656"/><stop stop-opacity="1" stop-color="rgb(48.928833%, 77.80304%, 81.782532%)" offset="0.601562"/><stop stop-opacity="1" stop-color="rgb(49.03717%, 78.062439%, 81.654358%)" offset="0.605469"/><stop stop-opacity="1" stop-color="rgb(49.145508%, 78.321838%, 81.52771%)" offset="0.609375"/><stop stop-opacity="1" stop-color="rgb(49.252319%, 78.581238%, 81.401062%)" offset="0.613281"/><stop stop-opacity="1" stop-color="rgb(49.360657%, 78.840637%, 81.274414%)" offset="0.617188"/><stop stop-opacity="1" stop-color="rgb(49.468994%, 79.100037%, 81.14624%)" offset="0.621094"/><stop stop-opacity="1" stop-color="rgb(49.577332%, 79.359436%, 81.019592%)" offset="0.625"/><stop stop-opacity="1" stop-color="rgb(49.684143%, 79.618835%, 80.891418%)" offset="0.628906"/><stop stop-opacity="1" stop-color="rgb(49.79248%, 79.878235%, 80.764771%)" offset="0.632812"/><stop stop-opacity="1" stop-color="rgb(49.900818%, 80.137634%, 80.636597%)" offset="0.636719"/><stop stop-opacity="1" stop-color="rgb(50.009155%, 80.397034%, 80.509949%)" offset="0.640625"/><stop stop-opacity="1" stop-color="rgb(50.115967%, 80.656433%, 80.383301%)" offset="0.644531"/><stop stop-opacity="1" stop-color="rgb(50.224304%, 80.915833%, 80.256653%)" offset="0.648438"/><stop stop-opacity="1" stop-color="rgb(50.332642%, 81.175232%, 80.128479%)" offset="0.652344"/><stop stop-opacity="1" stop-color="rgb(50.440979%, 81.434631%, 80.001831%)" offset="0.65625"/><stop stop-opacity="1" stop-color="rgb(50.547791%, 81.692505%, 79.873657%)" offset="0.660156"/><stop stop-opacity="1" stop-color="rgb(50.656128%, 81.951904%, 79.747009%)" offset="0.664063"/><stop stop-opacity="1" stop-color="rgb(50.764465%, 82.211304%, 79.618835%)" offset="0.667969"/><stop stop-opacity="1" stop-color="rgb(50.872803%, 82.470703%, 79.492188%)" offset="0.671875"/><stop stop-opacity="1" stop-color="rgb(50.979614%, 82.730103%, 79.364014%)" offset="0.675781"/><stop stop-opacity="1" stop-color="rgb(51.087952%, 82.989502%, 79.237366%)" offset="0.679688"/><stop stop-opacity="1" stop-color="rgb(51.194763%, 83.248901%, 79.110718%)" offset="0.683594"/><stop stop-opacity="1" stop-color="rgb(51.303101%, 83.508301%, 78.98407%)" offset="0.6875"/><stop stop-opacity="1" stop-color="rgb(51.411438%, 83.7677%, 78.855896%)" offset="0.691406"/><stop stop-opacity="1" stop-color="rgb(51.519775%, 84.0271%, 78.729248%)" offset="0.695312"/><stop stop-opacity="1" stop-color="rgb(51.626587%, 84.286499%, 78.601074%)" offset="0.699219"/><stop stop-opacity="1" stop-color="rgb(51.734924%, 84.545898%, 78.474426%)" offset="0.703125"/><stop stop-opacity="1" stop-color="rgb(51.766968%, 84.622192%, 78.436279%)" offset="0.71875"/><stop stop-opacity="1" stop-color="rgb(51.799011%, 84.698486%, 78.399658%)" offset="0.75"/><stop stop-opacity="1" stop-color="rgb(51.799011%, 84.698486%, 78.399658%)" offset="1"/></linearGradient><clipPath id="3d99f435fe"><rect x="0" width="10" y="0" height="10"/></clipPath><clipPath id="87542d99b8"><path d="M 0 0.09375 L 8 0.09375 L 8 8 L 0 8 Z M 0 0.09375 " clip-rule="nonzero"/></clipPath><mask id="8902098089"><g filter="url(#1a4a213a2a)"><rect x="-2.775" width="33.3" fill="#000000" y="-2.1" height="25.199999" fill-opacity="0.32"/></g></mask><clipPath id="09b3cfd28a"><path d="M 0 0.09375 L 6.691406 0.09375 L 6.691406 6.785156 L 0 6.785156 Z M 0 0.09375 " clip-rule="nonzero"/></clipPath><clipPath id="2b50c7c195"><path d="M 4.898438 0.453125 L 4.898438 6.425781 C 4.898438 6.625 5.058594 6.785156 5.257812 6.785156 L 6.332031 6.785156 C 6.53125 6.785156 6.691406 6.625 6.691406 6.425781 L 6.691406 0.453125 C 6.691406 0.253906 6.53125 0.09375 6.332031 0.09375 L 5.257812 0.09375 C 5.058594 0.09375 4.898438 0.253906 4.898438 0.453125 Z M 5.136719 5.945312 L 5.136719 6.425781 C 5.136719 6.492188 5.191406 6.542969 5.257812 6.542969 L 6.332031 6.542969 C 6.398438 6.542969 6.449219 6.492188 6.449219 6.425781 L 6.449219 0.453125 C 6.449219 0.386719 6.398438 0.332031 6.332031 0.332031 L 5.257812 0.332031 C 5.191406 0.332031 5.136719 0.386719 5.136719 0.453125 L 5.136719 0.929688 L 5.375 0.929688 C 5.441406 0.929688 5.496094 0.984375 5.496094 1.050781 C 5.496094 1.113281 5.441406 1.167969 5.375 1.167969 L 5.136719 1.167969 L 5.136719 1.40625 L 5.613281 1.40625 C 5.679688 1.40625 5.734375 1.460938 5.734375 1.527344 C 5.734375 1.59375 5.679688 1.648438 5.613281 1.648438 L 5.136719 1.648438 L 5.136719 1.886719 L 5.375 1.886719 C 5.441406 1.886719 5.496094 1.9375 5.496094 2.003906 C 5.496094 2.070312 5.441406 2.125 5.375 2.125 L 5.136719 2.125 L 5.136719 2.363281 L 5.613281 2.363281 C 5.679688 2.363281 5.734375 2.417969 5.734375 2.484375 C 5.734375 2.546875 5.679688 2.601562 5.613281 2.601562 L 5.136719 2.601562 L 5.136719 2.839844 L 5.375 2.839844 C 5.441406 2.839844 5.496094 2.894531 5.496094 2.960938 C 5.496094 3.027344 5.441406 3.082031 5.375 3.082031 L 5.136719 3.082031 L 5.136719 3.320312 L 5.613281 3.320312 C 5.679688 3.320312 5.734375 3.371094 5.734375 3.4375 C 5.734375 3.503906 5.679688 3.558594 5.613281 3.558594 L 5.136719 3.558594 L 5.136719 3.796875 L 5.375 3.796875 C 5.441406 3.796875 5.496094 3.851562 5.496094 3.917969 C 5.496094 3.980469 5.441406 4.035156 5.375 4.035156 L 5.136719 4.035156 L 5.136719 4.273438 L 5.613281 4.273438 C 5.679688 4.273438 5.734375 4.328125 5.734375 4.394531 C 5.734375 4.460938 5.679688 4.515625 5.613281 4.515625 L 5.136719 4.515625 L 5.136719 4.753906 L 5.375 4.753906 C 5.441406 4.753906 5.496094 4.804688 5.496094 4.871094 C 5.496094 4.9375 5.441406 4.992188 5.375 4.992188 L 5.136719 4.992188 L 5.136719 5.230469 L 5.613281 5.230469 C 5.679688 5.230469 5.734375 5.285156 5.734375 5.351562 C 5.734375 5.414062 5.679688 5.46875 5.613281 5.46875 L 5.136719 5.46875 L 5.136719 5.707031 L 5.375 5.707031 C 5.441406 5.707031 5.496094 5.761719 5.496094 5.828125 C 5.496094 5.894531 5.441406 5.945312 5.375 5.945312 Z M 4.179688 0.570312 L 4.179688 6.304688 L 4.0625 6.304688 C 3.996094 6.304688 3.941406 6.359375 3.941406 6.425781 C 3.941406 6.492188 3.996094 6.542969 4.0625 6.542969 L 4.539062 6.542969 C 4.605469 6.542969 4.660156 6.492188 4.660156 6.425781 C 4.660156 6.359375 4.605469 6.304688 4.539062 6.304688 L 4.421875 6.304688 L 4.421875 0.570312 L 4.539062 0.570312 C 4.605469 0.570312 4.660156 0.519531 4.660156 0.453125 C 4.660156 0.386719 4.605469 0.332031 4.539062 0.332031 L 4.0625 0.332031 C 3.996094 0.332031 3.941406 0.386719 3.941406 0.453125 C 3.941406 0.519531 3.996094 0.570312 4.0625 0.570312 Z M 1.199219 0.910156 L 0.902344 0.710938 C 0.847656 0.675781 0.773438 0.691406 0.738281 0.746094 C 0.699219 0.800781 0.714844 0.875 0.769531 0.910156 L 1.074219 1.113281 L 1.074219 2.175781 L 0.0625 2.738281 C 0.0234375 2.757812 0 2.796875 0 2.839844 L 0 4.035156 C 0 4.078125 0.0234375 4.121094 0.0625 4.140625 L 1.074219 4.703125 L 1.074219 5.761719 L 0.769531 5.964844 C 0.714844 6.003906 0.703125 6.078125 0.738281 6.132812 C 0.773438 6.1875 0.847656 6.203125 0.902344 6.164062 L 1.199219 5.96875 L 2.210938 6.527344 C 2.25 6.550781 2.292969 6.550781 2.328125 6.527344 L 3.339844 5.96875 L 3.636719 6.164062 C 3.691406 6.203125 3.765625 6.1875 3.804688 6.132812 C 3.839844 6.078125 3.824219 6.003906 3.769531 5.964844 L 3.464844 5.761719 L 3.464844 4.695312 L 3.769531 4.492188 C 3.824219 4.457031 3.839844 4.382812 3.804688 4.328125 C 3.765625 4.273438 3.691406 4.257812 3.636719 4.292969 L 3.339844 4.492188 L 2.390625 3.964844 L 2.390625 2.910156 L 3.339844 2.382812 L 3.636719 2.582031 C 3.691406 2.617188 3.765625 2.601562 3.804688 2.546875 C 3.839844 2.492188 3.824219 2.417969 3.769531 2.382812 L 3.464844 2.179688 L 3.464844 1.113281 L 3.769531 0.910156 C 3.824219 0.871094 3.839844 0.796875 3.804688 0.742188 C 3.765625 0.6875 3.691406 0.671875 3.636719 0.707031 L 3.339844 0.90625 L 2.328125 0.347656 C 2.292969 0.324219 2.25 0.324219 2.210938 0.347656 L 1.199219 0.90625 Z M 2.269531 4.171875 L 3.226562 4.703125 L 3.226562 5.757812 L 2.269531 6.285156 L 1.3125 5.757812 L 1.3125 4.703125 Z M 2.867188 5.230469 L 2.867188 5.574219 L 2.214844 5.898438 C 2.15625 5.929688 2.132812 6 2.164062 6.058594 C 2.191406 6.117188 2.265625 6.140625 2.324219 6.113281 L 3.039062 5.753906 C 3.078125 5.734375 3.105469 5.691406 3.105469 5.648438 L 3.105469 5.230469 C 3.105469 5.164062 3.050781 5.109375 2.984375 5.109375 C 2.917969 5.109375 2.867188 5.164062 2.867188 5.230469 Z M 2.269531 4.871094 C 2.070312 4.871094 1.910156 5.03125 1.910156 5.230469 C 1.910156 5.429688 2.070312 5.589844 2.269531 5.589844 C 2.46875 5.589844 2.628906 5.429688 2.628906 5.230469 C 2.628906 5.03125 2.46875 4.871094 2.269531 4.871094 Z M 2.269531 5.109375 C 2.335938 5.109375 2.390625 5.164062 2.390625 5.230469 C 2.390625 5.296875 2.335938 5.351562 2.269531 5.351562 C 2.203125 5.351562 2.148438 5.296875 2.148438 5.230469 C 2.148438 5.164062 2.203125 5.109375 2.269531 5.109375 Z M 1.613281 4.976562 L 2.269531 4.589844 L 2.925781 4.976562 C 2.984375 5.007812 3.058594 4.988281 3.089844 4.933594 C 3.125 4.875 3.105469 4.800781 3.046875 4.769531 L 2.332031 4.351562 C 2.292969 4.328125 2.246094 4.328125 2.210938 4.351562 L 1.492188 4.769531 C 1.4375 4.800781 1.417969 4.875 1.449219 4.933594 C 1.484375 4.988281 1.554688 5.007812 1.613281 4.976562 Z M 1.195312 2.378906 L 2.148438 2.910156 L 2.148438 3.964844 L 1.195312 4.496094 L 0.238281 3.964844 L 0.238281 2.910156 Z M 1.792969 3.4375 L 1.792969 3.730469 L 1.136719 4.113281 C 1.078125 4.144531 1.058594 4.21875 1.09375 4.277344 C 1.125 4.332031 1.199219 4.351562 1.253906 4.320312 L 1.972656 3.902344 C 2.007812 3.878906 2.03125 3.839844 2.03125 3.796875 L 2.03125 3.441406 C 2.03125 3.375 1.976562 3.320312 1.914062 3.320312 C 1.847656 3.320312 1.792969 3.375 1.792969 3.441406 Z M 0.597656 3.796875 L 0.597656 3.148438 L 1.195312 2.800781 L 1.851562 3.183594 C 1.910156 3.214844 1.980469 3.199219 2.015625 3.140625 C 2.046875 3.082031 2.03125 3.007812 1.972656 2.976562 L 1.253906 2.558594 C 1.21875 2.535156 1.171875 2.535156 1.136719 2.558594 L 0.417969 2.976562 C 0.382812 2.996094 0.359375 3.039062 0.359375 3.078125 L 0.359375 3.796875 C 0.359375 3.863281 0.414062 3.914062 0.476562 3.914062 C 0.542969 3.914062 0.597656 3.863281 0.597656 3.796875 Z M 1.195312 3.082031 C 0.996094 3.082031 0.835938 3.242188 0.835938 3.4375 C 0.835938 3.636719 0.996094 3.796875 1.195312 3.796875 C 1.394531 3.796875 1.554688 3.636719 1.554688 3.4375 C 1.554688 3.242188 1.394531 3.082031 1.195312 3.082031 Z M 1.195312 3.320312 C 1.261719 3.320312 1.3125 3.371094 1.3125 3.4375 C 1.3125 3.503906 1.261719 3.558594 1.195312 3.558594 C 1.128906 3.558594 1.074219 3.503906 1.074219 3.4375 C 1.074219 3.371094 1.128906 3.320312 1.195312 3.320312 Z M 2.269531 2.707031 L 1.3125 2.175781 L 1.3125 1.121094 L 2.269531 0.589844 L 3.226562 1.121094 L 3.226562 2.175781 Z M 2.867188 1.289062 L 2.867188 1.992188 L 2.214844 2.316406 C 2.15625 2.34375 2.132812 2.417969 2.164062 2.476562 C 2.191406 2.535156 2.265625 2.558594 2.324219 2.53125 L 3.039062 2.171875 C 3.078125 2.152344 3.105469 2.109375 3.105469 2.066406 L 3.105469 1.289062 C 3.105469 1.222656 3.050781 1.167969 2.984375 1.167969 C 2.917969 1.167969 2.867188 1.222656 2.867188 1.289062 Z M 1.671875 2.003906 L 1.671875 1.300781 L 2.324219 0.976562 C 2.382812 0.949219 2.40625 0.875 2.378906 0.816406 C 2.347656 0.757812 2.277344 0.734375 2.21875 0.765625 L 1.5 1.121094 C 1.460938 1.144531 1.433594 1.183594 1.433594 1.230469 L 1.433594 2.003906 C 1.433594 2.070312 1.488281 2.125 1.554688 2.125 C 1.621094 2.125 1.671875 2.070312 1.671875 2.003906 Z M 2.269531 1.289062 C 2.070312 1.289062 1.910156 1.449219 1.910156 1.648438 C 1.910156 1.84375 2.070312 2.003906 2.269531 2.003906 C 2.46875 2.003906 2.628906 1.84375 2.628906 1.648438 C 2.628906 1.449219 2.46875 1.289062 2.269531 1.289062 Z M 2.269531 1.527344 C 2.335938 1.527344 2.390625 1.582031 2.390625 1.648438 C 2.390625 1.710938 2.335938 1.765625 2.269531 1.765625 C 2.203125 1.765625 2.148438 1.710938 2.148438 1.648438 C 2.148438 1.582031 2.203125 1.527344 2.269531 1.527344 Z M 6.210938 0.453125 C 6.277344 0.453125 6.332031 0.507812 6.332031 0.570312 C 6.332031 0.636719 6.277344 0.691406 6.210938 0.691406 C 6.144531 0.691406 6.09375 0.636719 6.09375 0.570312 C 6.09375 0.507812 6.144531 0.453125 6.210938 0.453125 Z M 6.210938 0.453125 " clip-rule="evenodd"/></clipPath><linearGradient x1="2.454164" gradientTransform="matrix(0.119459, 0, 0, 0.119459, -0.000000000000002641, 0.0937495)" y1="58.454661" x2="58.459841" gradientUnits="userSpaceOnUse" y2="2.46034" id="dd53b473c6"><stop stop-opacity="1" stop-color="rgb(39.599609%, 55.299377%, 93.699646%)" offset="0"/><stop stop-opacity="1" stop-color="rgb(39.599609%, 55.299377%, 93.699646%)" offset="0.0625"/><stop stop-opacity="1" stop-color="rgb(39.599609%, 55.299377%, 93.699646%)" offset="0.09375"/><stop stop-opacity="1" stop-color="rgb(39.619446%, 55.360413%, 93.666077%)" offset="0.109375"/><stop stop-opacity="1" stop-color="rgb(39.697266%, 55.586243%, 93.544006%)" offset="0.125"/><stop stop-opacity="1" stop-color="rgb(39.808655%, 55.912781%, 93.365479%)" offset="0.140625"/><stop stop-opacity="1" stop-color="rgb(39.92157%, 56.239319%, 93.188477%)" offset="0.15625"/><stop stop-opacity="1" stop-color="rgb(40.032959%, 56.565857%, 93.011475%)" offset="0.171875"/><stop stop-opacity="1" stop-color="rgb(40.145874%, 56.892395%, 92.834473%)" offset="0.1875"/><stop stop-opacity="1" stop-color="rgb(40.257263%, 57.218933%, 92.655945%)" offset="0.203125"/><stop stop-opacity="1" stop-color="rgb(40.368652%, 57.546997%, 92.478943%)" offset="0.21875"/><stop stop-opacity="1" stop-color="rgb(40.481567%, 57.873535%, 92.301941%)" offset="0.234375"/><stop stop-opacity="1" stop-color="rgb(40.592957%, 58.200073%, 92.124939%)" offset="0.25"/><stop stop-opacity="1" stop-color="rgb(40.705872%, 58.526611%, 91.946411%)" offset="0.265625"/><stop stop-opacity="1" stop-color="rgb(40.79895%, 58.787537%, 91.802979%)" offset="0.273438"/><stop stop-opacity="1" stop-color="rgb(40.895081%, 59.017944%, 91.674805%)" offset="0.28125"/><stop stop-opacity="1" stop-color="rgb(41.011047%, 59.281921%, 91.52832%)" offset="0.289062"/><stop stop-opacity="1" stop-color="rgb(41.127014%, 59.544373%, 91.38031%)" offset="0.296875"/><stop stop-opacity="1" stop-color="rgb(41.241455%, 59.80835%, 91.2323%)" offset="0.304688"/><stop stop-opacity="1" stop-color="rgb(41.357422%, 60.072327%, 91.08429%)" offset="0.3125"/><stop stop-opacity="1" stop-color="rgb(41.473389%, 60.334778%, 90.936279%)" offset="0.320312"/><stop stop-opacity="1" stop-color="rgb(41.589355%, 60.598755%, 90.788269%)" offset="0.328125"/><stop stop-opacity="1" stop-color="rgb(41.703796%, 60.861206%, 90.640259%)" offset="0.335938"/><stop stop-opacity="1" stop-color="rgb(41.819763%, 61.125183%, 90.492249%)" offset="0.34375"/><stop stop-opacity="1" stop-color="rgb(41.93573%, 61.38916%, 90.345764%)" offset="0.351563"/><stop stop-opacity="1" stop-color="rgb(42.051697%, 61.651611%, 90.197754%)" offset="0.359375"/><stop stop-opacity="1" stop-color="rgb(42.166138%, 61.915588%, 90.049744%)" offset="0.367188"/><stop stop-opacity="1" stop-color="rgb(42.282104%, 62.179565%, 89.901733%)" offset="0.375"/><stop stop-opacity="1" stop-color="rgb(42.398071%, 62.442017%, 89.753723%)" offset="0.382812"/><stop stop-opacity="1" stop-color="rgb(42.514038%, 62.705994%, 89.605713%)" offset="0.390625"/><stop stop-opacity="1" stop-color="rgb(42.628479%, 62.968445%, 89.457703%)" offset="0.398437"/><stop stop-opacity="1" stop-color="rgb(42.744446%, 63.232422%, 89.309692%)" offset="0.40625"/><stop stop-opacity="1" stop-color="rgb(42.860413%, 63.496399%, 89.161682%)" offset="0.414062"/><stop stop-opacity="1" stop-color="rgb(42.976379%, 63.75885%, 89.015198%)" offset="0.421875"/><stop stop-opacity="1" stop-color="rgb(43.09082%, 64.022827%, 88.867188%)" offset="0.429688"/><stop stop-opacity="1" stop-color="rgb(43.206787%, 64.286804%, 88.719177%)" offset="0.4375"/><stop stop-opacity="1" stop-color="rgb(43.322754%, 64.549255%, 88.571167%)" offset="0.445312"/><stop stop-opacity="1" stop-color="rgb(43.437195%, 64.813232%, 88.423157%)" offset="0.453125"/><stop stop-opacity="1" stop-color="rgb(43.553162%, 65.075684%, 88.275146%)" offset="0.460938"/><stop stop-opacity="1" stop-color="rgb(43.669128%, 65.339661%, 88.127136%)" offset="0.46875"/><stop stop-opacity="1" stop-color="rgb(43.785095%, 65.603638%, 87.979126%)" offset="0.476563"/><stop stop-opacity="1" stop-color="rgb(43.899536%, 65.866089%, 87.832642%)" offset="0.484375"/><stop stop-opacity="1" stop-color="rgb(44.015503%, 66.130066%, 87.684631%)" offset="0.492188"/><stop stop-opacity="1" stop-color="rgb(44.13147%, 66.394043%, 87.536621%)" offset="0.499949"/><stop stop-opacity="1" stop-color="rgb(44.189453%, 66.525269%, 87.463379%)" offset="0.5"/><stop stop-opacity="1" stop-color="rgb(44.247437%, 66.656494%, 87.388611%)" offset="0.500051"/><stop stop-opacity="1" stop-color="rgb(44.30542%, 66.789246%, 87.315369%)" offset="0.507812"/><stop stop-opacity="1" stop-color="rgb(44.361877%, 66.920471%, 87.240601%)" offset="0.515625"/><stop stop-opacity="1" stop-color="rgb(44.477844%, 67.182922%, 87.09259%)" offset="0.523438"/><stop stop-opacity="1" stop-color="rgb(44.593811%, 67.446899%, 86.94458%)" offset="0.53125"/><stop stop-opacity="1" stop-color="rgb(44.709778%, 67.710876%, 86.79657%)" offset="0.539062"/><stop stop-opacity="1" stop-color="rgb(44.824219%, 67.973328%, 86.64856%)" offset="0.546875"/><stop stop-opacity="1" stop-color="rgb(44.940186%, 68.237305%, 86.502075%)" offset="0.554688"/><stop stop-opacity="1" stop-color="rgb(45.057678%, 68.507385%, 86.352539%)" offset="0.5625"/><stop stop-opacity="1" stop-color="rgb(45.195007%, 68.829346%, 86.186218%)" offset="0.570313"/><stop stop-opacity="1" stop-color="rgb(45.347595%, 69.195557%, 86.006165%)" offset="0.578125"/><stop stop-opacity="1" stop-color="rgb(45.500183%, 69.561768%, 85.827637%)" offset="0.585938"/><stop stop-opacity="1" stop-color="rgb(45.651245%, 69.927979%, 85.647583%)" offset="0.59375"/><stop stop-opacity="1" stop-color="rgb(45.803833%, 70.294189%, 85.467529%)" offset="0.601563"/><stop stop-opacity="1" stop-color="rgb(45.956421%, 70.6604%, 85.287476%)" offset="0.609375"/><stop stop-opacity="1" stop-color="rgb(46.109009%, 71.026611%, 85.108948%)" offset="0.617188"/><stop stop-opacity="1" stop-color="rgb(46.261597%, 71.392822%, 84.928894%)" offset="0.625"/><stop stop-opacity="1" stop-color="rgb(46.414185%, 71.757507%, 84.74884%)" offset="0.632813"/><stop stop-opacity="1" stop-color="rgb(46.566772%, 72.123718%, 84.568787%)" offset="0.640625"/><stop stop-opacity="1" stop-color="rgb(46.717834%, 72.489929%, 84.390259%)" offset="0.648438"/><stop stop-opacity="1" stop-color="rgb(46.870422%, 72.85614%, 84.210205%)" offset="0.65625"/><stop stop-opacity="1" stop-color="rgb(47.02301%, 73.222351%, 84.030151%)" offset="0.664062"/><stop stop-opacity="1" stop-color="rgb(47.175598%, 73.588562%, 83.850098%)" offset="0.671875"/><stop stop-opacity="1" stop-color="rgb(47.328186%, 73.954773%, 83.67157%)" offset="0.679688"/><stop stop-opacity="1" stop-color="rgb(47.480774%, 74.320984%, 83.491516%)" offset="0.6875"/><stop stop-opacity="1" stop-color="rgb(47.633362%, 74.687195%, 83.311462%)" offset="0.695312"/><stop stop-opacity="1" stop-color="rgb(47.784424%, 75.053406%, 83.131409%)" offset="0.703125"/><stop stop-opacity="1" stop-color="rgb(47.937012%, 75.419617%, 82.952881%)" offset="0.710938"/><stop stop-opacity="1" stop-color="rgb(48.0896%, 75.785828%, 82.772827%)" offset="0.71875"/><stop stop-opacity="1" stop-color="rgb(48.242188%, 76.152039%, 82.592773%)" offset="0.726562"/><stop stop-opacity="1" stop-color="rgb(48.394775%, 76.51825%, 82.41272%)" offset="0.734375"/><stop stop-opacity="1" stop-color="rgb(48.547363%, 76.88446%, 82.234192%)" offset="0.742188"/><stop stop-opacity="1" stop-color="rgb(48.699951%, 77.250671%, 82.054138%)" offset="0.75"/><stop stop-opacity="1" stop-color="rgb(48.852539%, 77.616882%, 81.874084%)" offset="0.757812"/><stop stop-opacity="1" stop-color="rgb(49.003601%, 77.983093%, 81.694031%)" offset="0.765625"/><stop stop-opacity="1" stop-color="rgb(49.156189%, 78.349304%, 81.515503%)" offset="0.773438"/><stop stop-opacity="1" stop-color="rgb(49.308777%, 78.715515%, 81.335449%)" offset="0.78125"/><stop stop-opacity="1" stop-color="rgb(49.461365%, 79.081726%, 81.155396%)" offset="0.789063"/><stop stop-opacity="1" stop-color="rgb(49.613953%, 79.447937%, 80.975342%)" offset="0.796875"/><stop stop-opacity="1" stop-color="rgb(49.766541%, 79.814148%, 80.796814%)" offset="0.804688"/><stop stop-opacity="1" stop-color="rgb(49.919128%, 80.180359%, 80.61676%)" offset="0.8125"/><stop stop-opacity="1" stop-color="rgb(50.07019%, 80.54657%, 80.436707%)" offset="0.820313"/><stop stop-opacity="1" stop-color="rgb(50.222778%, 80.912781%, 80.256653%)" offset="0.828125"/><stop stop-opacity="1" stop-color="rgb(50.375366%, 81.278992%, 80.078125%)" offset="0.835938"/><stop stop-opacity="1" stop-color="rgb(50.527954%, 81.645203%, 79.898071%)" offset="0.84375"/><stop stop-opacity="1" stop-color="rgb(50.680542%, 82.011414%, 79.718018%)" offset="0.851563"/><stop stop-opacity="1" stop-color="rgb(50.83313%, 82.377625%, 79.537964%)" offset="0.859375"/><stop stop-opacity="1" stop-color="rgb(50.985718%, 82.743835%, 79.359436%)" offset="0.867188"/><stop stop-opacity="1" stop-color="rgb(51.13678%, 83.108521%, 79.179382%)" offset="0.875"/><stop stop-opacity="1" stop-color="rgb(51.289368%, 83.474731%, 78.999329%)" offset="0.882812"/><stop stop-opacity="1" stop-color="rgb(51.441956%, 83.840942%, 78.819275%)" offset="0.890625"/><stop stop-opacity="1" stop-color="rgb(51.594543%, 84.207153%, 78.640747%)" offset="0.898438"/><stop stop-opacity="1" stop-color="rgb(51.734924%, 84.544373%, 78.474426%)" offset="0.90625"/><stop stop-opacity="1" stop-color="rgb(51.799011%, 84.698486%, 78.399658%)" offset="0.9375"/><stop stop-opacity="1" stop-color="rgb(51.799011%, 84.698486%, 78.399658%)" offset="1"/></linearGradient><clipPath id="dec844fec0"><rect x="0" width="8" y="0" height="8"/></clipPath><clipPath id="722be2510e"><path d="M 0 13 L 8 13 L 8 20.90625 L 0 20.90625 Z M 0 13 " clip-rule="nonzero"/></clipPath><mask id="d840066728"><g filter="url(#1a4a213a2a)"><rect x="-2.775" width="33.3" fill="#000000" y="-2.1" height="25.199999" fill-opacity="0.32"/></g></mask><clipPath id="b9f700efc5"><path d="M 1 5 L 4 5 L 4 7.265625 L 1 7.265625 Z M 1 5 " clip-rule="nonzero"/></clipPath><clipPath id="d432f0d04c"><path d="M 1 0.578125 L 4 0.578125 L 4 3 L 1 3 Z M 1 0.578125 " clip-rule="nonzero"/></clipPath><clipPath id="da35379bbe"><path d="M 6 2 L 6.691406 2 L 6.691406 4 L 6 4 Z M 6 2 " clip-rule="nonzero"/></clipPath><clipPath id="c52688c43b"><path d="M 6 3 L 6.691406 3 L 6.691406 5 L 6 5 Z M 6 3 " clip-rule="nonzero"/></clipPath><clipPath id="1c41a7f193"><path d="M 6 4 L 6.691406 4 L 6.691406 6 L 6 6 Z M 6 4 " clip-rule="nonzero"/></clipPath><clipPath id="70e6d64f10"><path d="M 1 0.578125 L 5 0.578125 L 5 7.265625 L 1 7.265625 Z M 1 0.578125 " clip-rule="nonzero"/></clipPath><clipPath id="42fc31be67"><path d="M 0 0.578125 L 6.691406 0.578125 L 6.691406 7.265625 L 0 7.265625 Z M 0 0.578125 " clip-rule="nonzero"/></clipPath><clipPath id="5ffa8a3998"><rect x="0" width="8" y="0" height="8"/></clipPath><clipPath id="5dfbe61fac"><path d="M 21 13 L 27 13 L 27 20.90625 L 21 20.90625 Z M 21 13 " clip-rule="nonzero"/></clipPath><mask id="8cc43c35c0"><g filter="url(#1a4a213a2a)"><rect x="-2.775" width="33.3" fill="#000000" y="-2.1" height="25.199999" fill-opacity="0.32"/></g></mask><clipPath id="c6033b4d88"><path d="M 3 6 L 5 6 L 5 7.550781 L 3 7.550781 Z M 3 6 " clip-rule="nonzero"/></clipPath><clipPath id="50a5c57dac"><path d="M 0.644531 0.175781 L 2 0.175781 L 2 2 L 0.644531 2 Z M 0.644531 0.175781 " clip-rule="nonzero"/></clipPath><clipPath id="56d96054bd"><path d="M 0.644531 0.175781 L 3 0.175781 L 3 2 L 0.644531 2 Z M 0.644531 0.175781 " clip-rule="nonzero"/></clipPath><clipPath id="8c3fb4b246"><path d="M 3 0.175781 L 5 0.175781 L 5 2 L 3 2 Z M 3 0.175781 " clip-rule="nonzero"/></clipPath><clipPath id="872c2a2310"><path d="M 4 0.175781 L 5.640625 0.175781 L 5.640625 2 L 4 2 Z M 4 0.175781 " clip-rule="nonzero"/></clipPath><clipPath id="b2e9bbb76a"><rect x="0" width="6" y="0" height="8"/></clipPath></defs><g clip-path="url(#dd77a40fd1)"><g mask="url(#76f30a1a03)"><g transform="matrix(1, 0, 0, 1, 18, 0.00000000000000118)"><g clip-path="url(#3d99f435fe)"><g clip-path="url(#c936ed4bb7)"><g clip-path="url(#873cf713f7)"><path fill="url(#ea306c4b88)" d="M 0.488281 0.0976562 L 0.488281 8.265625 L 8.652344 8.265625 L 8.652344 0.0976562 Z M 0.488281 0.0976562 " fill-rule="nonzero"/></g></g></g></g></g></g><g clip-path="url(#87542d99b8)"><g mask="url(#8902098089)"><g transform="matrix(1, 0, 0, 1, 0, 0.00000000000000118)"><g clip-path="url(#dec844fec0)"><g clip-path="url(#09b3cfd28a)"><g clip-path="url(#2b50c7c195)"><path fill="url(#dd53b473c6)" d="M 0 0.09375 L 0 6.785156 L 6.691406 6.785156 L 6.691406 0.09375 Z M 0 0.09375 " fill-rule="nonzero"/></g></g></g></g></g></g><g clip-path="url(#722be2510e)"><g mask="url(#d840066728)"><g transform="matrix(1, 0, 0, 1, 0, 13)"><g clip-path="url(#5ffa8a3998)"><path fill="#75e1f7" d="M 4.054688 2.207031 L 3.636719 2.238281 L 3.449219 2.496094 C 4.042969 2.738281 4.472656 3.324219 4.472656 4.019531 C 4.472656 4.707031 4.046875 5.292969 3.449219 5.542969 L 3.652344 5.742188 L 4.050781 5.828125 C 4.644531 5.425781 5.011719 4.753906 5.011719 4.019531 C 5.011719 3.277344 4.640625 2.609375 4.054688 2.207031 Z M 4.054688 2.207031 " fill-opacity="1" fill-rule="nonzero"/><g clip-path="url(#b9f700efc5)"><path fill="#75e1f7" d="M 2.847656 5.828125 C 2.351562 6.164062 2 6.71875 1.910156 7.339844 L 2.457031 7.339844 C 2.558594 6.78125 2.9375 6.328125 3.449219 6.113281 L 3.1875 5.796875 Z M 2.847656 5.828125 " fill-opacity="1" fill-rule="nonzero"/></g><g clip-path="url(#d432f0d04c)"><path fill="#75e1f7" d="M 2.453125 0.710938 L 1.90625 0.710938 C 1.984375 1.347656 2.339844 1.863281 2.847656 2.207031 L 3.234375 2.132812 L 3.449219 1.921875 C 2.921875 1.703125 2.546875 1.234375 2.453125 0.710938 Z M 2.453125 0.710938 " fill-opacity="1" fill-rule="nonzero"/></g><g clip-path="url(#da35379bbe)"><path fill="#75e1f7" d="M 6.761719 2.765625 C 6.761719 2.859375 6.730469 2.941406 6.664062 3.003906 C 6.597656 3.070312 6.519531 3.105469 6.425781 3.105469 C 6.332031 3.105469 6.253906 3.070312 6.1875 3.003906 C 6.121094 2.941406 6.085938 2.859375 6.085938 2.765625 C 6.085938 2.671875 6.121094 2.59375 6.1875 2.527344 C 6.253906 2.460938 6.332031 2.429688 6.425781 2.429688 C 6.519531 2.429688 6.597656 2.460938 6.664062 2.527344 C 6.730469 2.59375 6.761719 2.671875 6.761719 2.765625 Z M 6.761719 2.765625 " fill-opacity="1" fill-rule="nonzero"/></g><g clip-path="url(#c52688c43b)"><path fill="#75e1f7" d="M 6.761719 4.050781 C 6.761719 4.144531 6.730469 4.226562 6.664062 4.289062 C 6.597656 4.355469 6.519531 4.390625 6.425781 4.390625 C 6.332031 4.390625 6.253906 4.355469 6.1875 4.289062 C 6.121094 4.226562 6.085938 4.144531 6.085938 4.050781 C 6.085938 3.957031 6.121094 3.878906 6.1875 3.8125 C 6.253906 3.746094 6.332031 3.714844 6.425781 3.714844 C 6.519531 3.714844 6.597656 3.746094 6.664062 3.8125 C 6.730469 3.878906 6.761719 3.957031 6.761719 4.050781 Z M 6.761719 4.050781 " fill-opacity="1" fill-rule="nonzero"/></g><g clip-path="url(#1c41a7f193)"><path fill="#75e1f7" d="M 6.761719 5.269531 C 6.761719 5.363281 6.730469 5.441406 6.664062 5.507812 C 6.597656 5.574219 6.519531 5.605469 6.425781 5.605469 C 6.332031 5.605469 6.253906 5.574219 6.1875 5.507812 C 6.121094 5.441406 6.085938 5.363281 6.085938 5.269531 C 6.085938 5.175781 6.121094 5.097656 6.1875 5.03125 C 6.253906 4.964844 6.332031 4.929688 6.425781 4.929688 C 6.519531 4.929688 6.597656 4.964844 6.664062 5.03125 C 6.730469 5.097656 6.761719 5.175781 6.761719 5.269531 Z M 6.761719 5.269531 " fill-opacity="1" fill-rule="nonzero"/></g><g clip-path="url(#70e6d64f10)"><path fill="#76dded" d="M 3.449219 2.496094 C 2.847656 2.742188 2.429688 3.332031 2.429688 4.019531 C 2.429688 4.703125 2.84375 5.292969 3.449219 5.542969 C 4.28125 5.789062 4.867188 6.511719 4.988281 7.339844 L 4.441406 7.339844 C 4.339844 6.78125 3.949219 6.320312 3.449219 6.113281 C 2.535156 5.84375 1.886719 4.996094 1.886719 4.019531 C 1.886719 3.03125 2.542969 2.191406 3.449219 1.921875 C 3.71875 1.808594 3.960938 1.625 4.136719 1.390625 C 4.300781 1.175781 4.40625 0.976562 4.449219 0.710938 L 4.992188 0.710938 C 4.875 1.582031 4.242188 2.257812 3.449219 2.496094 Z M 3.449219 2.496094 " fill-opacity="1" fill-rule="nonzero"/></g><path fill="#75e1f7" d="M 0.8125 2.765625 C 0.8125 2.859375 0.777344 2.941406 0.710938 3.003906 C 0.648438 3.070312 0.566406 3.105469 0.472656 3.105469 C 0.378906 3.105469 0.300781 3.070312 0.234375 3.003906 C 0.167969 2.941406 0.136719 2.859375 0.136719 2.765625 C 0.136719 2.671875 0.167969 2.59375 0.234375 2.527344 C 0.300781 2.460938 0.378906 2.429688 0.472656 2.429688 C 0.566406 2.429688 0.648438 2.460938 0.710938 2.527344 C 0.777344 2.59375 0.8125 2.671875 0.8125 2.765625 Z M 0.8125 2.765625 " fill-opacity="1" fill-rule="nonzero"/><path fill="#75e1f7" d="M 0.8125 4.050781 C 0.8125 4.144531 0.777344 4.226562 0.710938 4.289062 C 0.648438 4.355469 0.566406 4.390625 0.472656 4.390625 C 0.378906 4.390625 0.300781 4.355469 0.234375 4.289062 C 0.167969 4.226562 0.136719 4.144531 0.136719 4.050781 C 0.136719 3.957031 0.167969 3.878906 0.234375 3.8125 C 0.300781 3.746094 0.378906 3.714844 0.472656 3.714844 C 0.566406 3.714844 0.648438 3.746094 0.710938 3.8125 C 0.777344 3.878906 0.8125 3.957031 0.8125 4.050781 Z M 0.8125 4.050781 " fill-opacity="1" fill-rule="nonzero"/><path fill="#75e1f7" d="M 0.8125 5.269531 C 0.8125 5.363281 0.777344 5.441406 0.710938 5.507812 C 0.648438 5.574219 0.566406 5.605469 0.472656 5.605469 C 0.378906 5.605469 0.300781 5.574219 0.234375 5.507812 C 0.167969 5.441406 0.136719 5.363281 0.136719 5.269531 C 0.136719 5.175781 0.167969 5.097656 0.234375 5.03125 C 0.300781 4.964844 0.378906 4.929688 0.472656 4.929688 C 0.566406 4.929688 0.648438 4.964844 0.710938 5.03125 C 0.777344 5.097656 0.8125 5.175781 0.8125 5.269531 Z M 0.8125 5.269531 " fill-opacity="1" fill-rule="nonzero"/><g clip-path="url(#42fc31be67)"><path fill="#455881" d="M 5.972656 4.1875 C 6.03125 4.382812 6.210938 4.523438 6.425781 4.523438 C 6.6875 4.523438 6.898438 4.3125 6.898438 4.050781 C 6.898438 3.789062 6.6875 3.578125 6.425781 3.578125 C 6.210938 3.578125 6.03125 3.722656 5.972656 3.917969 L 5.144531 3.917969 C 5.136719 3.757812 5.113281 3.597656 5.074219 3.441406 L 5.277344 3.441406 C 5.5 3.441406 5.679688 3.261719 5.679688 3.039062 C 5.679688 2.960938 5.742188 2.902344 5.816406 2.902344 L 5.972656 2.902344 C 6.03125 3.097656 6.210938 3.238281 6.425781 3.238281 C 6.6875 3.238281 6.898438 3.027344 6.898438 2.765625 C 6.898438 2.503906 6.6875 2.292969 6.425781 2.292969 C 6.210938 2.292969 6.03125 2.4375 5.972656 2.632812 L 5.816406 2.632812 C 5.59375 2.632812 5.410156 2.8125 5.410156 3.039062 C 5.410156 3.113281 5.351562 3.171875 5.277344 3.171875 L 4.988281 3.171875 C 4.839844 2.796875 4.59375 2.464844 4.28125 2.210938 C 4.742188 1.839844 5.046875 1.3125 5.125 0.730469 C 5.136719 0.648438 5.074219 0.574219 4.992188 0.574219 L 4.449219 0.574219 C 4.382812 0.574219 4.328125 0.625 4.316406 0.691406 C 4.296875 0.816406 4.257812 0.929688 4.199219 1.042969 L 2.703125 1.042969 C 2.648438 0.929688 2.609375 0.808594 2.585938 0.6875 C 2.574219 0.621094 2.519531 0.574219 2.453125 0.574219 L 1.90625 0.574219 C 1.824219 0.574219 1.761719 0.648438 1.769531 0.726562 C 1.84375 1.3125 2.144531 1.832031 2.617188 2.207031 C 2.300781 2.464844 2.058594 2.796875 1.910156 3.171875 L 1.625 3.171875 C 1.546875 3.171875 1.488281 3.113281 1.488281 3.039062 C 1.488281 2.8125 1.304688 2.632812 1.082031 2.632812 L 0.925781 2.632812 C 0.867188 2.4375 0.6875 2.292969 0.472656 2.292969 C 0.210938 2.292969 0 2.503906 0 2.765625 C 0 3.027344 0.210938 3.238281 0.472656 3.238281 C 0.6875 3.238281 0.867188 3.097656 0.925781 2.902344 L 1.082031 2.902344 C 1.15625 2.902344 1.21875 2.960938 1.21875 3.039062 C 1.21875 3.261719 1.398438 3.441406 1.625 3.441406 L 1.824219 3.441406 C 1.785156 3.597656 1.761719 3.753906 1.753906 3.917969 L 0.925781 3.917969 C 0.867188 3.722656 0.6875 3.578125 0.472656 3.578125 C 0.210938 3.578125 0 3.789062 0 4.050781 C 0 4.3125 0.210938 4.523438 0.472656 4.523438 C 0.6875 4.523438 0.867188 4.382812 0.925781 4.1875 L 1.757812 4.1875 C 1.769531 4.324219 1.789062 4.460938 1.824219 4.59375 L 1.625 4.59375 C 1.398438 4.59375 1.21875 4.773438 1.21875 5 C 1.21875 5.074219 1.15625 5.132812 1.082031 5.132812 L 0.925781 5.132812 C 0.867188 4.9375 0.6875 4.796875 0.472656 4.796875 C 0.210938 4.796875 0 5.007812 0 5.269531 C 0 5.53125 0.210938 5.742188 0.472656 5.742188 C 0.6875 5.742188 0.867188 5.601562 0.925781 5.40625 L 1.082031 5.40625 C 1.304688 5.40625 1.488281 5.222656 1.488281 5 C 1.488281 4.925781 1.546875 4.863281 1.625 4.863281 L 1.910156 4.863281 C 2.058594 5.238281 2.300781 5.570312 2.621094 5.828125 C 2.15625 6.207031 1.859375 6.75 1.777344 7.320312 C 1.765625 7.402344 1.828125 7.476562 1.910156 7.476562 L 2.457031 7.476562 C 2.519531 7.476562 2.578125 7.429688 2.589844 7.363281 C 2.613281 7.242188 2.648438 7.125 2.699219 7.011719 L 4.195312 7.011719 C 4.25 7.125 4.285156 7.242188 4.308594 7.363281 C 4.320312 7.429688 4.378906 7.476562 4.441406 7.476562 C 4.445312 7.476562 4.992188 7.476562 4.988281 7.476562 C 5.070312 7.476562 5.132812 7.402344 5.121094 7.320312 C 5.035156 6.734375 4.734375 6.199219 4.277344 5.828125 C 4.59375 5.574219 4.839844 5.238281 4.988281 4.863281 L 5.277344 4.863281 C 5.351562 4.863281 5.410156 4.925781 5.410156 5 C 5.410156 5.222656 5.59375 5.40625 5.816406 5.40625 L 5.972656 5.40625 C 6.03125 5.601562 6.210938 5.742188 6.425781 5.742188 C 6.6875 5.742188 6.898438 5.53125 6.898438 5.269531 C 6.898438 5.007812 6.6875 4.796875 6.425781 4.796875 C 6.210938 4.796875 6.03125 4.9375 5.972656 5.132812 L 5.816406 5.132812 C 5.742188 5.132812 5.679688 5.074219 5.679688 5 C 5.679688 4.773438 5.5 4.59375 5.277344 4.59375 L 5.074219 4.59375 C 5.109375 4.460938 5.132812 4.324219 5.140625 4.1875 Z M 6.425781 2.5625 C 6.539062 2.5625 6.628906 2.65625 6.628906 2.765625 C 6.628906 2.878906 6.539062 2.96875 6.425781 2.96875 C 6.3125 2.96875 6.222656 2.878906 6.222656 2.765625 C 6.222656 2.65625 6.3125 2.5625 6.425781 2.5625 Z M 0.472656 2.96875 C 0.363281 2.96875 0.269531 2.878906 0.269531 2.765625 C 0.269531 2.65625 0.363281 2.5625 0.472656 2.5625 C 0.585938 2.5625 0.675781 2.65625 0.675781 2.765625 C 0.675781 2.878906 0.585938 2.96875 0.472656 2.96875 Z M 0.472656 5.472656 C 0.363281 5.472656 0.269531 5.382812 0.269531 5.269531 C 0.269531 5.15625 0.363281 5.066406 0.472656 5.066406 C 0.585938 5.066406 0.675781 5.15625 0.675781 5.269531 C 0.675781 5.382812 0.585938 5.472656 0.472656 5.472656 Z M 6.425781 5.066406 C 6.539062 5.066406 6.628906 5.15625 6.628906 5.269531 C 6.628906 5.382812 6.539062 5.472656 6.425781 5.472656 C 6.3125 5.472656 6.222656 5.382812 6.222656 5.269531 C 6.222656 5.15625 6.3125 5.066406 6.425781 5.066406 Z M 6.425781 3.847656 C 6.539062 3.847656 6.628906 3.941406 6.628906 4.050781 C 6.628906 4.164062 6.539062 4.253906 6.425781 4.253906 C 6.3125 4.253906 6.222656 4.164062 6.222656 4.050781 C 6.222656 3.941406 6.3125 3.847656 6.425781 3.847656 Z M 3.449219 1.773438 C 3.21875 1.667969 3.019531 1.511719 2.867188 1.3125 L 4.027344 1.3125 C 3.875 1.511719 3.675781 1.671875 3.449219 1.773438 Z M 2.0625 0.847656 L 2.34375 0.847656 C 2.453125 1.273438 2.730469 1.65625 3.117188 1.902344 C 3.023438 1.941406 2.9375 1.992188 2.847656 2.042969 C 2.4375 1.738281 2.164062 1.320312 2.0625 0.847656 Z M 0.472656 4.253906 C 0.363281 4.253906 0.269531 4.164062 0.269531 4.050781 C 0.269531 3.941406 0.363281 3.847656 0.472656 3.847656 C 0.585938 3.847656 0.675781 3.941406 0.675781 4.050781 C 0.675781 4.164062 0.585938 4.253906 0.472656 4.253906 Z M 2.347656 7.203125 L 2.074219 7.203125 C 2.183594 6.722656 2.464844 6.28125 2.851562 5.992188 C 2.9375 6.046875 3.027344 6.09375 3.117188 6.136719 C 2.730469 6.382812 2.457031 6.761719 2.347656 7.203125 Z M 3.449219 6.261719 C 3.683594 6.367188 3.882812 6.535156 4.035156 6.738281 L 2.859375 6.738281 C 3.019531 6.527344 3.222656 6.363281 3.449219 6.261719 Z M 4.828125 7.203125 L 4.550781 7.203125 C 4.417969 6.679688 4.039062 6.210938 3.5 5.988281 C 3.460938 5.972656 3.214844 5.914062 2.921875 5.714844 C 2.359375 5.332031 2.023438 4.699219 2.023438 4.019531 C 2.023438 3.101562 2.628906 2.304688 3.488281 2.050781 C 3.867188 1.9375 4.417969 1.429688 4.558594 0.847656 L 4.832031 0.847656 C 4.652344 1.664062 4.148438 2.058594 3.398438 2.371094 C 2.800781 2.617188 2.292969 3.25 2.292969 4.019531 C 2.292969 4.320312 2.367188 4.617188 2.515625 4.882812 C 2.734375 5.273438 3.136719 5.589844 3.410156 5.671875 C 4.136719 5.886719 4.667969 6.488281 4.828125 7.203125 Z M 3.449219 5.394531 C 3.234375 5.296875 3.042969 5.148438 2.898438 4.964844 L 4 4.964844 C 3.855469 5.148438 3.664062 5.296875 3.449219 5.394531 Z M 4.175781 3.339844 C 4.21875 3.421875 4.257812 3.527344 4.28125 3.613281 L 2.617188 3.613281 C 2.644531 3.511719 2.679688 3.425781 2.722656 3.339844 Z M 2.722656 4.695312 C 2.679688 4.605469 2.640625 4.511719 2.617188 4.421875 L 4.28125 4.421875 C 4.253906 4.515625 4.222656 4.601562 4.175781 4.695312 Z M 4.328125 3.882812 C 4.335938 3.976562 4.335938 4.058594 4.328125 4.152344 L 2.570312 4.152344 C 2.5625 4.0625 2.5625 3.976562 2.570312 3.882812 Z M 2.898438 3.070312 C 3.042969 2.886719 3.234375 2.742188 3.449219 2.640625 C 3.664062 2.742188 3.855469 2.886719 4 3.070312 Z M 4.046875 5.664062 C 3.960938 5.609375 3.871094 5.5625 3.78125 5.519531 C 4.277344 5.203125 4.605469 4.652344 4.605469 4.019531 C 4.605469 3.386719 4.277344 2.832031 3.78125 2.515625 C 3.875 2.472656 3.964844 2.425781 4.050781 2.371094 C 4.554688 2.75 4.875 3.347656 4.875 4.019531 C 4.875 4.683594 4.558594 5.285156 4.046875 5.664062 Z M 4.046875 5.664062 " fill-opacity="1" fill-rule="nonzero"/></g></g></g></g></g><g clip-path="url(#5dfbe61fac)"><g mask="url(#8cc43c35c0)"><g transform="matrix(1, 0, 0, 1, 21, 13)"><g clip-path="url(#b2e9bbb76a)"><path fill="#6896ea" d="M 3.542969 4.132812 L 3.359375 4.160156 L 3.171875 2.949219 C 3.160156 2.886719 3.1875 2.851562 3.25 2.84375 C 3.308594 2.832031 3.34375 2.859375 3.355469 2.921875 L 3.402344 3.214844 Z M 3.542969 4.132812 " fill-opacity="1" fill-rule="nonzero"/><path fill="#75e1f7" d="M 3.125 2.933594 C 3.125 2.851562 3.167969 2.804688 3.253906 2.800781 C 3.335938 2.792969 3.382812 2.832031 3.398438 2.914062 L 3.585938 4.125 C 3.589844 4.15625 3.578125 4.171875 3.550781 4.175781 L 3.367188 4.207031 C 3.335938 4.210938 3.320312 4.199219 3.316406 4.167969 L 3.125 2.957031 C 3.125 2.949219 3.125 2.941406 3.125 2.933594 Z M 3.492188 4.09375 L 3.3125 2.925781 C 3.304688 2.894531 3.289062 2.882812 3.253906 2.886719 C 3.222656 2.890625 3.210938 2.910156 3.214844 2.941406 L 3.394531 4.109375 Z M 3.492188 4.09375 " fill-opacity="1" fill-rule="nonzero"/><path fill="#6896ea" d="M 2.351562 5.859375 L 2.484375 5.992188 L 3.359375 5.132812 C 3.402344 5.089844 3.402344 5.046875 3.359375 5 C 3.316406 4.957031 3.273438 4.957031 3.226562 5 L 3.015625 5.210938 Z M 2.351562 5.859375 " fill-opacity="1" fill-rule="nonzero"/><path fill="#75e1f7" d="M 2.308594 5.859375 C 2.308594 5.847656 2.3125 5.835938 2.320312 5.828125 L 3.195312 4.96875 C 3.242188 4.925781 3.289062 4.917969 3.347656 4.941406 C 3.402344 4.964844 3.429688 5.007812 3.429688 5.066406 L 3.429688 5.070312 C 3.429688 5.105469 3.417969 5.140625 3.390625 5.164062 L 2.515625 6.023438 C 2.496094 6.046875 2.472656 6.046875 2.453125 6.023438 L 2.320312 5.890625 C 2.3125 5.882812 2.308594 5.871094 2.308594 5.859375 Z M 3.34375 5.066406 C 3.34375 5.054688 3.335938 5.042969 3.328125 5.03125 C 3.304688 5.007812 3.28125 5.007812 3.257812 5.03125 L 2.414062 5.859375 L 2.484375 5.929688 L 3.328125 5.101562 C 3.335938 5.09375 3.34375 5.082031 3.34375 5.066406 Z M 3.34375 5.066406 " fill-opacity="1" fill-rule="nonzero"/><path fill="#455881" d="M 1.726562 5.808594 C 1.660156 5.871094 1.609375 5.949219 1.582031 6.039062 C 1.554688 6.128906 1.546875 6.21875 1.5625 6.3125 C 1.578125 6.40625 1.613281 6.488281 1.671875 6.5625 C 1.730469 6.636719 1.800781 6.695312 1.886719 6.734375 C 1.96875 6.773438 2.058594 6.789062 2.152344 6.785156 C 2.246094 6.78125 2.335938 6.753906 2.414062 6.707031 C 2.496094 6.660156 2.5625 6.597656 2.609375 6.515625 C 2.660156 6.4375 2.6875 6.351562 2.695312 6.257812 C 2.703125 6.164062 2.6875 6.074219 2.648438 5.988281 C 2.613281 5.902344 2.558594 5.828125 2.484375 5.769531 C 2.410156 5.710938 2.328125 5.671875 2.238281 5.652344 C 2.144531 5.636719 2.054688 5.640625 1.964844 5.667969 C 1.871094 5.695312 1.792969 5.742188 1.726562 5.808594 Z M 1.726562 5.808594 " fill-opacity="1" fill-rule="nonzero"/><path fill="#6896ea" d="M 1.726562 5.808594 C 1.554688 5.976562 1.507812 6.171875 1.585938 6.398438 C 1.660156 6.625 1.820312 6.753906 2.058594 6.78125 C 2.1875 6.742188 2.289062 6.667969 2.367188 6.554688 C 2.445312 6.445312 2.476562 6.320312 2.464844 6.1875 C 2.453125 6.050781 2.402344 5.933594 2.308594 5.835938 C 2.214844 5.738281 2.097656 5.683594 1.964844 5.667969 C 1.875 5.691406 1.792969 5.738281 1.726562 5.808594 Z M 1.726562 5.808594 " fill-opacity="1" fill-rule="nonzero"/><path fill="#75e1f7" d="M 1.511719 6.214844 C 1.511719 6.042969 1.570312 5.894531 1.695312 5.777344 C 1.761719 5.707031 1.839844 5.660156 1.933594 5.628906 C 2.023438 5.597656 2.117188 5.589844 2.210938 5.605469 C 2.304688 5.617188 2.394531 5.648438 2.472656 5.703125 C 2.550781 5.757812 2.613281 5.824219 2.664062 5.910156 C 2.710938 5.992188 2.734375 6.082031 2.742188 6.175781 C 2.746094 6.273438 2.734375 6.363281 2.695312 6.453125 C 2.660156 6.539062 2.605469 6.617188 2.53125 6.679688 C 2.460938 6.742188 2.378906 6.785156 2.285156 6.808594 C 2.191406 6.835938 2.097656 6.835938 2.003906 6.820312 C 1.910156 6.800781 1.828125 6.761719 1.75 6.703125 C 1.675781 6.644531 1.617188 6.574219 1.574219 6.488281 C 1.53125 6.402344 1.511719 6.308594 1.511719 6.214844 Z M 1.757812 5.839844 C 1.699219 5.894531 1.65625 5.964844 1.628906 6.039062 C 1.601562 6.117188 1.59375 6.199219 1.601562 6.277344 C 1.613281 6.359375 1.640625 6.433594 1.683594 6.503906 C 1.730469 6.570312 1.789062 6.628906 1.859375 6.667969 C 1.929688 6.710938 2.003906 6.734375 2.085938 6.742188 C 2.167969 6.746094 2.246094 6.734375 2.324219 6.703125 C 2.398438 6.671875 2.464844 6.625 2.519531 6.566406 C 2.574219 6.503906 2.613281 6.433594 2.632812 6.355469 C 2.65625 6.277344 2.660156 6.195312 2.644531 6.117188 C 2.628906 6.035156 2.597656 5.964844 2.546875 5.898438 C 2.496094 5.832031 2.4375 5.78125 2.363281 5.742188 C 2.289062 5.707031 2.210938 5.6875 2.128906 5.6875 C 1.984375 5.6875 1.859375 5.738281 1.757812 5.839844 Z M 1.757812 5.839844 " fill-opacity="1" fill-rule="nonzero"/><path fill="#6896ea" d="M 3.945312 6.433594 L 4.128906 6.386719 L 3.820312 5.199219 C 3.804688 5.140625 3.765625 5.117188 3.707031 5.132812 C 3.644531 5.148438 3.621094 5.1875 3.636719 5.246094 L 3.714844 5.535156 Z M 3.945312 6.433594 " fill-opacity="1" fill-rule="nonzero"/><path fill="#75e1f7" d="M 3.589844 5.222656 C 3.589844 5.140625 3.632812 5.097656 3.710938 5.085938 C 3.792969 5.078125 3.84375 5.109375 3.863281 5.1875 L 4.171875 6.375 C 4.171875 6.386719 4.171875 6.398438 4.164062 6.410156 C 4.160156 6.417969 4.148438 6.425781 4.136719 6.429688 L 3.957031 6.476562 C 3.929688 6.484375 3.910156 6.472656 3.902344 6.445312 L 3.59375 5.257812 C 3.59375 5.246094 3.589844 5.234375 3.589844 5.222656 Z M 4.074219 6.355469 L 3.777344 5.210938 C 3.773438 5.199219 3.765625 5.1875 3.753906 5.179688 C 3.742188 5.175781 3.730469 5.171875 3.714844 5.175781 C 3.683594 5.183594 3.671875 5.203125 3.679688 5.234375 L 3.976562 6.378906 Z M 4.074219 6.355469 " fill-opacity="1" fill-rule="nonzero"/><g clip-path="url(#c6033b4d88)"><path fill="#455881" d="M 3.585938 6.953125 C 3.609375 7.042969 3.652344 7.121094 3.714844 7.191406 C 3.777344 7.261719 3.855469 7.3125 3.941406 7.34375 C 4.03125 7.375 4.121094 7.386719 4.214844 7.375 C 4.308594 7.363281 4.390625 7.328125 4.46875 7.273438 C 4.546875 7.222656 4.605469 7.152344 4.648438 7.070312 C 4.691406 6.984375 4.710938 6.898438 4.710938 6.804688 C 4.710938 6.710938 4.6875 6.621094 4.644531 6.539062 C 4.597656 6.457031 4.539062 6.386719 4.460938 6.335938 C 4.382812 6.28125 4.296875 6.25 4.203125 6.242188 C 4.113281 6.230469 4.019531 6.242188 3.933594 6.273438 C 3.847656 6.308594 3.773438 6.359375 3.710938 6.429688 C 3.648438 6.503906 3.605469 6.582031 3.585938 6.675781 C 3.5625 6.765625 3.5625 6.859375 3.585938 6.953125 Z M 3.585938 6.953125 " fill-opacity="1" fill-rule="nonzero"/><path fill="#6896ea" d="M 3.585938 6.953125 C 3.648438 7.183594 3.792969 7.320312 4.027344 7.367188 C 4.261719 7.414062 4.453125 7.34375 4.597656 7.152344 C 4.628906 7.019531 4.617188 6.894531 4.558594 6.769531 C 4.5 6.648438 4.40625 6.558594 4.285156 6.5 C 4.164062 6.441406 4.035156 6.429688 3.902344 6.460938 C 3.773438 6.496094 3.664062 6.566406 3.585938 6.671875 C 3.5625 6.765625 3.5625 6.859375 3.585938 6.953125 Z M 3.585938 6.953125 " fill-opacity="1" fill-rule="nonzero"/><path fill="#75e1f7" d="M 3.523438 6.808594 C 3.523438 6.703125 3.550781 6.605469 3.601562 6.511719 C 3.648438 6.417969 3.71875 6.34375 3.808594 6.289062 C 3.898438 6.230469 3.996094 6.199219 4.101562 6.191406 C 4.207031 6.1875 4.304688 6.203125 4.402344 6.25 C 4.496094 6.292969 4.574219 6.359375 4.636719 6.445312 C 4.699219 6.53125 4.738281 6.625 4.75 6.730469 C 4.765625 6.832031 4.75 6.933594 4.710938 7.03125 C 4.675781 7.132812 4.613281 7.214844 4.535156 7.28125 C 4.453125 7.347656 4.359375 7.390625 4.257812 7.414062 C 4.152344 7.433594 4.050781 7.425781 3.949219 7.394531 C 3.851562 7.363281 3.765625 7.308594 3.691406 7.230469 C 3.621094 7.152344 3.570312 7.0625 3.542969 6.960938 C 3.53125 6.910156 3.523438 6.859375 3.523438 6.808594 Z M 3.585938 6.953125 Z M 4.667969 6.808594 C 4.667969 6.605469 4.578125 6.457031 4.40625 6.355469 C 4.265625 6.269531 4.117188 6.257812 3.964844 6.3125 C 3.808594 6.367188 3.703125 6.472656 3.644531 6.625 C 3.589844 6.777344 3.601562 6.925781 3.683594 7.070312 C 3.765625 7.210938 3.886719 7.296875 4.046875 7.328125 C 4.207031 7.355469 4.351562 7.316406 4.476562 7.210938 C 4.605469 7.105469 4.667969 6.972656 4.667969 6.808594 Z M 4.667969 6.808594 " fill-opacity="1" fill-rule="nonzero"/></g><path fill="#6896ea" d="M 1.691406 1.304688 L 1.800781 1.15625 L 2.796875 1.871094 C 2.847656 1.910156 2.855469 1.953125 2.816406 2.003906 C 2.78125 2.054688 2.738281 2.0625 2.6875 2.023438 L 2.445312 1.851562 Z M 1.691406 1.304688 " fill-opacity="1" fill-rule="nonzero"/><path fill="#75e1f7" d="M 1.648438 1.304688 C 1.648438 1.296875 1.652344 1.289062 1.65625 1.28125 L 1.765625 1.128906 C 1.785156 1.105469 1.804688 1.101562 1.828125 1.121094 L 2.820312 1.835938 C 2.894531 1.890625 2.90625 1.957031 2.851562 2.027344 C 2.800781 2.101562 2.734375 2.113281 2.660156 2.0625 L 1.667969 1.34375 C 1.652344 1.335938 1.648438 1.320312 1.648438 1.304688 Z M 1.8125 1.21875 L 1.753906 1.296875 L 2.710938 1.988281 C 2.738281 2.007812 2.761719 2.003906 2.78125 1.976562 C 2.800781 1.953125 2.796875 1.929688 2.769531 1.910156 Z M 1.8125 1.21875 " fill-opacity="1" fill-rule="nonzero"/><g clip-path="url(#50a5c57dac)"><path fill="#455881" d="M 1.078125 1.453125 C 1.003906 1.398438 0.945312 1.328125 0.902344 1.246094 C 0.859375 1.160156 0.839844 1.074219 0.84375 0.980469 C 0.84375 0.886719 0.867188 0.796875 0.914062 0.714844 C 0.960938 0.632812 1.019531 0.566406 1.097656 0.515625 C 1.175781 0.464844 1.261719 0.433594 1.355469 0.421875 C 1.449219 0.414062 1.539062 0.425781 1.625 0.460938 C 1.714844 0.496094 1.789062 0.546875 1.847656 0.621094 C 1.910156 0.691406 1.949219 0.773438 1.972656 0.863281 C 1.992188 0.953125 1.988281 1.046875 1.964844 1.136719 C 1.941406 1.226562 1.898438 1.308594 1.835938 1.375 C 1.773438 1.445312 1.695312 1.496094 1.609375 1.527344 C 1.519531 1.558594 1.429688 1.570312 1.335938 1.554688 C 1.242188 1.542969 1.15625 1.507812 1.078125 1.453125 Z M 1.078125 1.453125 " fill-opacity="1" fill-rule="nonzero"/><path fill="#6896ea" d="M 1.078125 1.453125 C 0.886719 1.3125 0.808594 1.125 0.851562 0.890625 C 0.894531 0.65625 1.03125 0.503906 1.261719 0.441406 C 1.394531 0.460938 1.507812 0.519531 1.601562 0.617188 C 1.691406 0.714844 1.742188 0.832031 1.753906 0.96875 C 1.761719 1.101562 1.726562 1.226562 1.648438 1.335938 C 1.570312 1.449219 1.46875 1.519531 1.335938 1.558594 C 1.242188 1.542969 1.15625 1.511719 1.078125 1.453125 Z M 1.078125 1.453125 " fill-opacity="1" fill-rule="nonzero"/></g><g clip-path="url(#56d96054bd)"><path fill="#75e1f7" d="M 0.796875 0.988281 C 0.796875 0.894531 0.820312 0.808594 0.859375 0.722656 C 0.898438 0.640625 0.957031 0.570312 1.027344 0.511719 C 1.097656 0.453125 1.179688 0.414062 1.269531 0.390625 C 1.359375 0.371094 1.453125 0.367188 1.542969 0.386719 C 1.632812 0.40625 1.714844 0.445312 1.789062 0.503906 C 1.863281 0.558594 1.921875 0.628906 1.960938 0.710938 C 2.003906 0.792969 2.027344 0.882812 2.03125 0.972656 C 2.03125 1.066406 2.015625 1.15625 1.976562 1.238281 C 1.9375 1.324219 1.886719 1.398438 1.8125 1.457031 C 1.742188 1.519531 1.664062 1.558594 1.574219 1.585938 C 1.484375 1.609375 1.394531 1.613281 1.304688 1.597656 C 1.210938 1.578125 1.128906 1.542969 1.054688 1.488281 C 0.882812 1.367188 0.796875 1.199219 0.796875 0.988281 Z M 1.941406 0.992188 C 1.941406 0.964844 1.9375 0.933594 1.933594 0.90625 C 1.917969 0.820312 1.886719 0.742188 1.832031 0.671875 C 1.78125 0.601562 1.714844 0.546875 1.632812 0.511719 C 1.554688 0.472656 1.46875 0.457031 1.382812 0.464844 C 1.292969 0.46875 1.210938 0.496094 1.136719 0.542969 C 1.0625 0.589844 1.003906 0.648438 0.957031 0.726562 C 0.914062 0.800781 0.890625 0.882812 0.886719 0.972656 C 0.882812 1.058594 0.902344 1.144531 0.941406 1.222656 C 0.980469 1.300781 1.035156 1.367188 1.105469 1.417969 C 1.222656 1.503906 1.355469 1.535156 1.5 1.511719 C 1.640625 1.488281 1.757812 1.417969 1.839844 1.300781 C 1.90625 1.207031 1.941406 1.105469 1.941406 0.992188 Z M 1.078125 1.453125 Z M 1.078125 1.453125 " fill-opacity="1" fill-rule="nonzero"/></g><g clip-path="url(#8c3fb4b246)"><path fill="#6896ea" d="M 4.632812 0.996094 L 4.742188 1.144531 L 3.757812 1.871094 C 3.707031 1.910156 3.664062 1.902344 3.625 1.851562 C 3.589844 1.804688 3.59375 1.757812 3.644531 1.722656 L 3.882812 1.546875 Z M 4.632812 0.996094 " fill-opacity="1" fill-rule="nonzero"/><path fill="#75e1f7" d="M 3.5625 1.796875 C 3.5625 1.75 3.582031 1.714844 3.617188 1.6875 L 4.605469 0.957031 C 4.628906 0.941406 4.648438 0.945312 4.667969 0.96875 L 4.777344 1.117188 C 4.785156 1.128906 4.789062 1.140625 4.785156 1.152344 C 4.785156 1.164062 4.777344 1.171875 4.769531 1.179688 L 3.78125 1.910156 C 3.738281 1.941406 3.6875 1.945312 3.636719 1.921875 C 3.585938 1.894531 3.5625 1.855469 3.5625 1.796875 Z M 4.621094 1.058594 L 3.671875 1.757812 C 3.644531 1.777344 3.640625 1.800781 3.660156 1.828125 C 3.679688 1.851562 3.703125 1.855469 3.730469 1.835938 L 4.679688 1.136719 Z M 4.621094 1.058594 " fill-opacity="1" fill-rule="nonzero"/></g><g clip-path="url(#872c2a2310)"><path fill="#455881" d="M 4.679688 0.367188 C 4.753906 0.308594 4.839844 0.277344 4.929688 0.261719 C 5.023438 0.246094 5.113281 0.253906 5.203125 0.285156 C 5.292969 0.316406 5.367188 0.363281 5.433594 0.433594 C 5.496094 0.5 5.542969 0.582031 5.566406 0.671875 C 5.59375 0.761719 5.597656 0.851562 5.578125 0.945312 C 5.558594 1.035156 5.519531 1.117188 5.457031 1.191406 C 5.398438 1.261719 5.324219 1.316406 5.238281 1.351562 C 5.152344 1.390625 5.0625 1.402344 4.96875 1.394531 C 4.875 1.386719 4.789062 1.359375 4.710938 1.308594 C 4.632812 1.257812 4.570312 1.191406 4.523438 1.109375 C 4.476562 1.027344 4.449219 0.941406 4.449219 0.847656 C 4.445312 0.753906 4.460938 0.664062 4.503906 0.578125 C 4.542969 0.492188 4.601562 0.421875 4.679688 0.367188 Z M 4.679688 0.367188 " fill-opacity="1" fill-rule="nonzero"/><path fill="#6896ea" d="M 4.679688 0.367188 C 4.871094 0.222656 5.074219 0.210938 5.285156 0.320312 C 5.496094 0.433594 5.597656 0.609375 5.589844 0.847656 C 5.53125 0.96875 5.441406 1.058594 5.316406 1.117188 C 5.195312 1.175781 5.070312 1.1875 4.9375 1.15625 C 4.804688 1.125 4.699219 1.054688 4.617188 0.945312 C 4.535156 0.835938 4.496094 0.714844 4.503906 0.578125 C 4.542969 0.492188 4.601562 0.421875 4.679688 0.367188 Z M 4.679688 0.367188 " fill-opacity="1" fill-rule="nonzero"/><path fill="#75e1f7" d="M 4.402344 0.828125 C 4.402344 0.796875 4.40625 0.765625 4.410156 0.734375 C 4.433594 0.566406 4.515625 0.429688 4.652344 0.332031 C 4.875 0.167969 5.101562 0.15625 5.335938 0.300781 C 5.570312 0.441406 5.667969 0.648438 5.628906 0.917969 C 5.585938 1.1875 5.433594 1.355469 5.167969 1.421875 C 4.898438 1.488281 4.6875 1.410156 4.523438 1.191406 C 4.441406 1.082031 4.402344 0.960938 4.402344 0.828125 Z M 4.707031 0.402344 C 4.589844 0.488281 4.519531 0.601562 4.496094 0.746094 C 4.476562 0.890625 4.507812 1.023438 4.59375 1.140625 C 4.679688 1.257812 4.796875 1.324219 4.941406 1.347656 C 5.082031 1.367188 5.214844 1.335938 5.332031 1.25 C 5.449219 1.164062 5.519531 1.046875 5.539062 0.90625 C 5.5625 0.761719 5.527344 0.628906 5.441406 0.511719 C 5.355469 0.394531 5.242188 0.328125 5.097656 0.304688 C 4.953125 0.28125 4.824219 0.316406 4.707031 0.402344 Z M 4.707031 0.402344 " fill-opacity="1" fill-rule="nonzero"/></g><path fill="#455881" d="M 3.128906 3.257812 C 2.996094 3.257812 2.867188 3.230469 2.742188 3.179688 C 2.617188 3.128906 2.507812 3.054688 2.414062 2.960938 C 2.320312 2.867188 2.246094 2.757812 2.195312 2.632812 C 2.144531 2.507812 2.117188 2.378906 2.117188 2.246094 C 2.117188 2.113281 2.144531 1.984375 2.195312 1.859375 C 2.246094 1.734375 2.320312 1.625 2.414062 1.53125 C 2.507812 1.4375 2.617188 1.363281 2.742188 1.3125 C 2.867188 1.261719 2.996094 1.234375 3.128906 1.234375 C 3.261719 1.234375 3.390625 1.261719 3.515625 1.3125 C 3.640625 1.363281 3.75 1.4375 3.84375 1.53125 C 3.9375 1.625 4.011719 1.734375 4.0625 1.859375 C 4.113281 1.984375 4.140625 2.113281 4.140625 2.246094 C 4.140625 2.378906 4.113281 2.507812 4.0625 2.632812 C 4.011719 2.757812 3.9375 2.867188 3.84375 2.960938 C 3.75 3.054688 3.640625 3.128906 3.515625 3.179688 C 3.390625 3.230469 3.261719 3.257812 3.128906 3.257812 Z M 3.128906 3.257812 " fill-opacity="1" fill-rule="nonzero"/><path fill="#6896ea" d="M 3.128906 3.257812 C 3.050781 3.257812 2.976562 3.25 2.902344 3.230469 C 2.757812 3.066406 2.675781 2.875 2.65625 2.65625 C 2.632812 2.4375 2.679688 2.234375 2.792969 2.046875 C 2.902344 1.855469 3.0625 1.71875 3.261719 1.632812 C 3.464844 1.546875 3.671875 1.527344 3.886719 1.578125 C 4.019531 1.726562 4.097656 1.898438 4.128906 2.09375 C 4.15625 2.292969 4.132812 2.480469 4.050781 2.660156 C 3.96875 2.84375 3.84375 2.988281 3.675781 3.09375 C 3.511719 3.203125 3.328125 3.257812 3.128906 3.257812 Z M 3.128906 3.257812 " fill-opacity="1" fill-rule="nonzero"/><path fill="#75e1f7" d="M 2.074219 2.246094 C 2.074219 2.105469 2.101562 1.972656 2.152344 1.839844 C 2.207031 1.710938 2.28125 1.597656 2.382812 1.5 C 2.480469 1.398438 2.59375 1.324219 2.722656 1.269531 C 2.855469 1.21875 2.988281 1.191406 3.128906 1.191406 C 3.269531 1.191406 3.402344 1.21875 3.53125 1.269531 C 3.660156 1.324219 3.777344 1.398438 3.875 1.5 C 3.972656 1.597656 4.050781 1.710938 4.101562 1.839844 C 4.15625 1.972656 4.183594 2.105469 4.183594 2.246094 C 4.183594 2.386719 4.15625 2.519531 4.101562 2.648438 C 4.050781 2.777344 3.972656 2.894531 3.875 2.992188 C 3.777344 3.089844 3.660156 3.167969 3.53125 3.21875 C 3.402344 3.273438 3.269531 3.300781 3.128906 3.300781 C 2.988281 3.300781 2.855469 3.273438 2.726562 3.21875 C 2.59375 3.167969 2.480469 3.089844 2.382812 2.992188 C 2.285156 2.890625 2.207031 2.777344 2.152344 2.648438 C 2.101562 2.519531 2.074219 2.386719 2.074219 2.246094 Z M 4.09375 2.246094 C 4.09375 1.980469 4 1.75 3.8125 1.5625 C 3.621094 1.375 3.394531 1.277344 3.128906 1.277344 C 2.859375 1.277344 2.632812 1.375 2.445312 1.5625 C 2.257812 1.75 2.160156 1.980469 2.160156 2.246094 C 2.160156 2.511719 2.257812 2.742188 2.445312 2.929688 C 2.632812 3.117188 2.859375 3.210938 3.128906 3.210938 C 3.394531 3.210938 3.621094 3.117188 3.8125 2.929688 C 4 2.738281 4.09375 2.511719 4.09375 2.246094 Z M 4.09375 2.246094 " fill-opacity="1" fill-rule="nonzero"/><path fill="#455881" d="M 3.796875 5.789062 C 3.660156 5.789062 3.53125 5.765625 3.410156 5.710938 C 3.285156 5.660156 3.175781 5.589844 3.082031 5.492188 C 2.984375 5.398438 2.914062 5.289062 2.859375 5.164062 C 2.808594 5.042969 2.785156 4.914062 2.785156 4.777344 C 2.785156 4.644531 2.808594 4.515625 2.863281 4.390625 C 2.914062 4.269531 2.984375 4.160156 3.082031 4.0625 C 3.175781 3.96875 3.285156 3.894531 3.410156 3.84375 C 3.53125 3.792969 3.660156 3.769531 3.796875 3.769531 C 3.929688 3.769531 4.058594 3.792969 4.183594 3.84375 C 4.304688 3.894531 4.414062 3.96875 4.511719 4.0625 C 4.605469 4.160156 4.679688 4.269531 4.730469 4.390625 C 4.78125 4.515625 4.804688 4.644531 4.804688 4.777344 C 4.804688 4.914062 4.78125 5.042969 4.730469 5.164062 C 4.679688 5.289062 4.605469 5.398438 4.511719 5.492188 C 4.414062 5.589844 4.304688 5.660156 4.183594 5.714844 C 4.058594 5.765625 3.929688 5.789062 3.796875 5.789062 Z M 3.796875 5.789062 " fill-opacity="1" fill-rule="nonzero"/><path fill="#6896ea" d="M 3.796875 5.789062 C 3.71875 5.789062 3.644531 5.78125 3.570312 5.765625 C 3.425781 5.601562 3.339844 5.410156 3.320312 5.191406 C 3.300781 4.972656 3.347656 4.769531 3.457031 4.578125 C 3.570312 4.390625 3.726562 4.253906 3.929688 4.167969 C 4.132812 4.078125 4.339844 4.0625 4.554688 4.109375 C 4.683594 4.257812 4.765625 4.429688 4.792969 4.628906 C 4.824219 4.824219 4.796875 5.011719 4.71875 5.195312 C 4.636719 5.375 4.511719 5.519531 4.34375 5.628906 C 4.175781 5.734375 3.992188 5.789062 3.796875 5.789062 Z M 3.796875 5.789062 " fill-opacity="1" fill-rule="nonzero"/><path fill="#75e1f7" d="M 2.738281 4.777344 C 2.738281 4.640625 2.765625 4.503906 2.820312 4.375 C 2.875 4.246094 2.949219 4.132812 3.050781 4.03125 C 3.148438 3.933594 3.261719 3.855469 3.390625 3.804688 C 3.519531 3.75 3.65625 3.722656 3.796875 3.722656 C 3.933594 3.722656 4.070312 3.75 4.199219 3.804688 C 4.328125 3.855469 4.441406 3.933594 4.542969 4.03125 C 4.640625 4.132812 4.71875 4.246094 4.769531 4.375 C 4.824219 4.503906 4.851562 4.636719 4.851562 4.777344 C 4.851562 4.917969 4.824219 5.054688 4.769531 5.183594 C 4.71875 5.3125 4.640625 5.425781 4.542969 5.523438 C 4.441406 5.625 4.328125 5.699219 4.199219 5.753906 C 4.070312 5.808594 3.933594 5.835938 3.796875 5.835938 C 3.65625 5.835938 3.519531 5.808594 3.390625 5.753906 C 3.261719 5.699219 3.148438 5.625 3.050781 5.523438 C 2.949219 5.425781 2.875 5.3125 2.820312 5.183594 C 2.765625 5.054688 2.738281 4.917969 2.738281 4.777344 Z M 4.761719 4.777344 C 4.761719 4.511719 4.667969 4.285156 4.480469 4.09375 C 4.289062 3.90625 4.0625 3.8125 3.796875 3.8125 C 3.527344 3.8125 3.300781 3.90625 3.113281 4.09375 C 2.921875 4.285156 2.828125 4.511719 2.828125 4.777344 C 2.828125 5.046875 2.921875 5.273438 3.113281 5.460938 C 3.300781 5.652344 3.527344 5.746094 3.796875 5.746094 C 4.0625 5.746094 4.289062 5.652344 4.476562 5.460938 C 4.667969 5.273438 4.761719 5.046875 4.761719 4.777344 Z M 4.761719 4.777344 " fill-opacity="1" fill-rule="nonzero"/></g></g></g></g></svg>