<?xml version="1.0" ?><svg data-name="Layer 1" id="Layer_1" viewBox="0 0 64 64" xmlns="http://www.w3.org/2000/svg"><defs><style>
      .cls-1 {
        fill: #f5dd90;
      }

      .cls-2 {
        fill: #a3cef1;
      }

      .cls-3 {
        fill: #6096ba;
      }

      .cls-4 {
        fill: #274c77;
      }
    </style></defs><path class="cls-2" d="M25,37H61V3H9V22.73c1.4-1.11,3.15-1.73,4.97-1.73h22.89c.59,0,1.12,.24,1.51,.63s.63,.92,.63,1.51c0,1.07-.78,1.97-1.84,2.12l-10.44,1.49c-.99,.15-1.72,.99-1.72,1.98v8.27Z"/><polyline class="cls-4" points="24 41 24 61 20 61 18 45 16 61 12 61 12 41"/><circle class="cls-4" cx="18" cy="13" r="6"/><path class="cls-3" d="M36.86,21H13.97c-2.49,0-4.84,1.15-6.35,3.13-2,2.63-4.22,7.2-4.57,14.75-.05,1.15,.88,2.12,2.03,2.12h0c1.05,0,1.91-.81,2.02-1.86,.62-5.94,3.9-12.14,3.9-12.14v14h14v-12.27c0-1,.73-1.84,1.72-1.98l10.44-1.49c1.06-.15,1.84-1.05,1.84-2.12h0c0-1.18-.96-2.14-2.14-2.14Z"/><rect class="cls-1" height="4" width="4" x="53" y="7"/><rect class="cls-1" height="4" width="4" x="53" y="29"/><circle class="cls-1" cx="55" cy="20" r="2"/><path d="M25,13c0-3.86-3.14-7-7-7s-7,3.14-7,7,3.14,7,7,7,7-3.14,7-7Zm-7,5c-2.76,0-5-2.24-5-5s2.24-5,5-5,5,2.24,5,5-2.24,5-5,5Z"/><path d="M61,2H9c-.55,0-1,.45-1,1V22.28c-.43,.38-.83,.79-1.18,1.25-1.97,2.59-4.4,7.34-4.77,15.31-.04,.83,.26,1.62,.83,2.23,.57,.6,1.37,.94,2.2,.94,1.55,0,2.85-1.18,3.02-2.75,.27-2.62,1.1-5.32,1.9-7.47v9.22c0,.55,.45,1,1,1v19c0,.55,.45,1,1,1h4c.5,0,.93-.38,.99-.88l1.01-8.06,1.01,8.06c.06,.5,.49,.88,.99,.88h4c.55,0,1-.45,1-1v-19c.55,0,1-.45,1-1v-3H61c.55,0,1-.45,1-1V3c0-.55-.45-1-1-1ZM23,60h-2.12l-1.89-15.12c-.06-.5-.49-.88-.99-.88s-.93,.38-.99,.88l-1.89,15.12h-2.12v-18h10v18Zm1-31.27v11.27H12v-13c0-.46-.31-.86-.76-.97-.45-.11-.91,.1-1.12,.5-.14,.26-3.37,6.44-4.01,12.5-.06,.55-.5,.96-1.03,.96-.29,0-.55-.11-.75-.32-.2-.21-.3-.47-.28-.75,.35-7.45,2.57-11.83,4.37-14.19,1.31-1.71,3.38-2.74,5.56-2.74h22.89c.63,0,1.14,.51,1.14,1.14,0,.56-.42,1.05-.98,1.13l-10.44,1.49c-1.47,.21-2.58,1.49-2.58,2.97Zm36,7.27H26v-7.27c0-.49,.37-.92,.86-.99l10.44-1.49c1.54-.22,2.7-1.56,2.7-3.11,0-1.73-1.41-3.14-3.14-3.14H13.97c-1.39,0-2.75,.33-3.97,.93V4H60V36Z"/><path d="M53,12h4c.55,0,1-.45,1-1V7c0-.55-.45-1-1-1h-4c-.55,0-1,.45-1,1v4c0,.55,.45,1,1,1Zm1-4h2v2h-2v-2Z"/><path d="M53,34h4c.55,0,1-.45,1-1v-4c0-.55-.45-1-1-1h-4c-.55,0-1,.45-1,1v4c0,.55,.45,1,1,1Zm1-4h2v2h-2v-2Z"/><path d="M55,23c1.65,0,3-1.35,3-3s-1.35-3-3-3-3,1.35-3,3,1.35,3,3,3Zm0-4c.55,0,1,.45,1,1s-.45,1-1,1-1-.45-1-1,.45-1,1-1Z"/><rect height="2" width="6" x="40" y="6"/><rect height="2" width="10" x="40" y="10"/><rect height="2" width="4" x="42" y="17"/><rect height="2" width="8" x="42" y="21"/><rect height="2" width="6" x="40" y="28"/><rect height="2" width="10" x="40" y="32"/></svg>