<?xml version="1.0" ?><svg xmlns="http://www.w3.org/2000/svg" xmlns:xlink="http://www.w3.org/1999/xlink" version="1.1" id="layer_1" viewBox="0 0 32 32" style="enable-background:new 0 0 32 32;" xml:space="preserve"><path d="M5.3623657,14.8947144l-0.8804932,0.4417114l0.8839111,1.7610474l0.8809814-0.4417114  c1.3270874-0.6659546,2.6199341-0.6668701,3.9489136,0l0.8810425,0.4417114l0.8839111-1.7610474l-0.8805542-0.4417114  C9.1813965,13.94104,7.2591553,13.9420166,5.3623657,14.8947144z"/><path d="M5.3623657,10.8673706l-0.8804932,0.442627l0.8843384,1.7611084l0.8805542-0.442688  c1.3299561-0.6678467,2.6209106-0.6669312,3.9489136,0l0.8805542,0.442688l0.8843994-1.7611084l-0.8805542-0.442627  C9.1833496,9.9146118,7.2591553,9.9136963,5.3623657,10.8673706z"/><path d="M16.7183838,12.628418c1.3289795-0.6678467,2.6199341-0.6678467,3.9489136,0l0.8805542,0.442688l0.8843994-1.7611084  l-0.8805542-0.442627c-1.8967896-0.9527588-3.8209229-0.9527588-5.7177124,0l-0.8804932,0.442627l0.8843384,1.7611084  L16.7183838,12.628418z"/><path d="M25.8768921,15.5706787c-0.2955933-0.2955933-0.6208496-0.5518188-0.9656982-0.758728V6.5934448l-0.5419922-0.2758789  c-3.6165161-1.8132324-7.2921753-1.8920898-10.9086914-0.2069702C9.8341675,4.4254761,6.1584473,4.5043335,2.5419922,6.3175659  L2,6.5934448v16.0328979l1.428894-0.7192993c3.0449219-1.5274658,6.0012207-1.6062622,9.0462036-0.2562256  c0.3009977,0.1308556,0.6897182,0.33078,0.9854126,0.4828491c0.2968798-0.1526127,0.6833334-0.3514576,0.9854736-0.4828491  c0.9262695-0.4139404,1.8328247-0.6898193,2.7394409-0.8278198c0.2365112,0.7883301,0.670105,1.5372925,1.2908936,2.1581421  c1.0150146,1.0150146,2.3551636,1.5273438,3.6953735,1.5273438c1.0248413,0,2.0595093-0.3054199,2.9464111-0.8966064  l3.4884644,3.4880981L30,25.7064819l-3.489624-3.4892578C27.8863525,20.1681519,27.678833,17.3726196,25.8768921,15.5706787z   M19.2449951,20.7146606c-0.3026867-0.6161041-0.3966599-1.3162785-0.2857666-1.9807129  c0.1083984-0.6503906,0.4039917-1.2613525,0.9065552-1.763916c0.1675415-0.1675415,0.3449097-0.305481,0.5321045-0.4335938  c0.5124512-0.335083,1.0938721-0.5025635,1.6851196-0.5124512c0.2857666-0.0098267,0.5813599,0.0197144,0.8572998,0.0887451  c0.3449097,0.0787964,0.6799927,0.2167358,0.9854736,0.4039917c0.1970825,0.1281128,0.3843384,0.2759399,0.5617065,0.4533081  c0.1674805,0.1674805,0.305481,0.3448486,0.4237061,0.5321045c0.699646,1.0741577,0.699646,2.4734497,0,3.5474854  c-0.1182251,0.1872559-0.2562256,0.3646851-0.4237061,0.5322266c-0.1971436,0.1970825-0.4138794,0.364563-0.6504517,0.5025635  c-1.2514648,0.7390747-2.8971558,0.5714722-3.9712524-0.5025635C19.5997314,21.3157349,19.3928223,21.0299683,19.2449951,20.7146606  z M14.4459839,19.5222778V7.8252563c2.8479004-1.2711792,5.6464233-1.2711792,8.4943237,0v6.2771606  c-0.8966675-0.1379395-1.8131714-0.0394287-2.6606445,0.2955933c-0.0039062,0.0015259-0.0073853,0.0042725-0.0112915,0.0057983  c-1.4776611-0.4064941-2.9640503-0.2476196-4.4343872,0.4909058l-0.8804932,0.4417114l0.8838501,1.7610474l0.8810425-0.4417114  c0.4003296-0.2007446,0.7973022-0.3334351,1.1931152-0.413147c-0.0019531,0.0027466-0.0047607,0.005249-0.0067139,0.0079956  c-0.5518188,0.7785645-0.8671265,1.6752319-0.9361572,2.6015625C16.1212158,18.9802856,15.2835693,19.2069092,14.4459839,19.5222778  z M12.4750977,19.5222778c-2.828186-1.0544434-5.6760864-1.0544434-8.5042725,0V7.8252563  c2.8577881-1.2810669,5.6464844-1.2810669,8.5042725,0V19.5222778z"/></svg>