<?xml version="1.0" ?><svg viewBox="0 0 512 512" xmlns="http://www.w3.org/2000/svg"><defs><style>.cls-1{fill:#8c8c8c;}.cls-2{fill:#bebebe;}.cls-3{fill:#777;}.cls-4{fill:#00b378;}.cls-5{fill:#f4f4f4;}.cls-6{fill:#ec9090;}.cls-7{fill:#bdecdc;}.cls-8{fill:#a2a2a2;}.cls-9{fill:#d0d0d0;}.cls-10{fill:#dfdfdf;}.cls-11{fill:#0071af;}.cls-12{fill:#cbe2ef;}.cls-13{fill:#006095;}</style></defs><title/><g data-name="/ FILLED_OUTLINE" id="_FILLED_OUTLINE"><path class="cls-1" d="M24,248v16a16.00016,16.00016,0,0,0,16,16H392a16.00016,16.00016,0,0,0,16-16V248Z"/><path class="cls-2" d="M368,24H64A16,16,0,0,0,48,40V248H384V40A16,16,0,0,0,368,24Z"/><path class="cls-3" d="M152,280H391.99976a16.00017,16.00017,0,0,0,16-16V248H275.99634A254.82,254.82,0,0,1,152,280Z"/><circle class="cls-4" cx="216" cy="184" r="80"/><rect class="cls-5" height="56" width="48" x="80" y="56"/><rect class="cls-5" height="64" width="48" x="304" y="48"/><rect class="cls-5" height="16" width="128" x="152" y="64"/><rect class="cls-5" height="16" width="40" x="320" y="144"/><rect class="cls-5" height="16" width="40" x="320" y="184"/><rect class="cls-5" height="16" width="40" x="72" y="144"/><rect class="cls-5" height="16" width="40" x="72" y="184"/><path class="cls-6" d="M490.85742,206.35352A238.25442,238.25442,0,0,0,434.89209,96H456V80H408v48h16V107.83154a222.30241,222.30241,0,0,1,51.19922,101.81494Z"/><path class="cls-6" d="M88,404.16846A222.30241,222.30241,0,0,1,36.80078,302.35352l-15.6582,3.293A238.25257,238.25257,0,0,0,77.10815,416H56v16h48V384H88Z"/><path class="cls-7" d="M232,161.37256V152a16,16,0,0,0-32,0v9.37256a16.00075,16.00075,0,0,0,4.68628,11.31372L216,184l11.31372-11.31372A16.00075,16.00075,0,0,0,232,161.37256Z"/><path class="cls-7" d="M249.98584,201.92871A16.00062,16.00062,0,0,0,238.177,189.54419L216,184l-22.177,5.54419a16.00062,16.00062,0,0,0-11.80884,12.38452L176,232h80Z"/><path class="cls-8" d="M275.99658,248H384V132.32153A257.05863,257.05863,0,0,1,275.99658,248Z"/><path class="cls-9" d="M352,200V184h-.17773q-6.64674,8.291-13.958,16Z"/><path class="cls-10" d="M448,232H144a16,16,0,0,0-16,16V456H464V248A16,16,0,0,0,448,232Z"/><rect class="cls-2" height="48" width="80" x="160" y="264"/><rect class="cls-2" height="48" width="80" x="352" y="264"/><rect class="cls-2" height="16" width="64" x="264" y="280"/><rect class="cls-2" height="16" width="56" x="384" y="344"/><rect class="cls-2" height="16" width="40" x="400" y="376"/><rect class="cls-2" height="16" width="40" x="400" y="408"/><rect class="cls-2" height="16" width="56" x="152" y="344"/><rect class="cls-2" height="16" width="40" x="152" y="376"/><rect class="cls-2" height="16" width="40" x="152" y="408"/><circle class="cls-11" cx="296" cy="408" r="80"/><path class="cls-12" d="M312,385.37256V376a16,16,0,0,0-32,0v9.37256a15.999,15.999,0,0,0,4.68652,11.31372L296,408l11.31348-11.31372A15.999,15.999,0,0,0,312,385.37256Z"/><path class="cls-12" d="M329.98584,425.92871a16.00055,16.00055,0,0,0-11.80908-12.38452L296,408l-22.17676,5.54419a16.00055,16.00055,0,0,0-11.80908,12.38452L256,456h80Z"/><path class="cls-2" d="M104,456v16a16.00016,16.00016,0,0,0,16,16H472a16.00016,16.00016,0,0,0,16-16V456Z"/><path class="cls-8" d="M232.00024,488H472a16.00016,16.00016,0,0,0,16-16V456H355.99658A254.81989,254.81989,0,0,1,232.00024,488Z"/><path class="cls-2" d="M355.99658,456H464V340.32153A257.05863,257.05863,0,0,1,355.99658,456Z"/><path class="cls-8" d="M401.30273,424H432V408H417.86475Q409.94433,416.36207,401.30273,424Z"/><path class="cls-13" d="M355.99658,456h4.0044c.9497-1.26465,1.85449-2.564,2.73-3.885C360.50537,453.43945,358.26514,454.7417,355.99658,456Z"/><path d="M472,448V248a24.0275,24.0275,0,0,0-24-24H392V40a24.0275,24.0275,0,0,0-24-24H64A24.0275,24.0275,0,0,0,40,40V240H16v24a24.0275,24.0275,0,0,0,24,24h80V448H96v24a24.0275,24.0275,0,0,0,24,24H472a24.0275,24.0275,0,0,0,24-24V448ZM448,240a8.00917,8.00917,0,0,1,8,8V448H374.40381a88,88,0,1,0-156.80762,0H136V248a8.00917,8.00917,0,0,1,8-8ZM296,416.24609l20.23633,5.0586a8.0338,8.0338,0,0,1,5.90429,6.19336L326.24121,448H265.75879l4.10059-20.50293a8.034,8.034,0,0,1,5.90429-6.19238Zm-8-30.873V376a8,8,0,0,1,16,0v9.373a7.94368,7.94368,0,0,1-2.34375,5.65625L296,396.68652l-5.65625-5.65722A7.94368,7.94368,0,0,1,288,385.37305Zm32.11719,20.41015-8.46875-2.11718,1.32226-1.32227A23.84338,23.84338,0,0,0,320,385.37305V376a24,24,0,0,0-48,0v9.373a23.84338,23.84338,0,0,0,7.0293,16.9707l1.32226,1.32227-8.46875,2.11718a24.10507,24.10507,0,0,0-17.71289,18.57618L249.44141,448H236.137A71.33108,71.33108,0,0,1,224,408a72,72,0,0,1,144,0,71.33273,71.33273,0,0,1-12.13672,40H342.55859l-4.72851-23.63965A24.1049,24.1049,0,0,0,320.11719,405.7832ZM216,192.24609l20.23633,5.0586a8.0338,8.0338,0,0,1,5.90429,6.19336L246.24121,224H185.75879l4.10059-20.50293a8.034,8.034,0,0,1,5.90429-6.19238Zm-8-30.873V152a8,8,0,0,1,16,0v9.37305a7.94368,7.94368,0,0,1-2.34375,5.65625L216,172.68652l-5.65625-5.65722A7.94368,7.94368,0,0,1,208,161.37305Zm32.11719,20.41015-8.46875-2.11718,1.32226-1.32227A23.84338,23.84338,0,0,0,240,161.37305V152a24,24,0,0,0-48,0v9.37305a23.84338,23.84338,0,0,0,7.0293,16.9707l1.32226,1.32227-8.46875,2.11718a24.10507,24.10507,0,0,0-17.71289,18.57618L169.44141,224H156.137A71.33108,71.33108,0,0,1,144,184a72,72,0,0,1,144,0,71.33273,71.33273,0,0,1-12.13672,40H262.55859l-4.72851-23.63965A24.1049,24.1049,0,0,0,240.11719,181.7832ZM56,40a8.00917,8.00917,0,0,1,8-8H368a8.00917,8.00917,0,0,1,8,8V224H294.40381a87.99409,87.99409,0,1,0-156.42481.76562A24.09815,24.09815,0,0,0,121.37622,240H56ZM40,272a8.00917,8.00917,0,0,1-8-8v-8h88v16ZM480,472a8.00917,8.00917,0,0,1-8,8H120a8.00917,8.00917,0,0,1-8-8v-8H480Z"/><path d="M248,256H152v64h96Zm-16,48H168V272h64Z"/><path d="M440,256H344v64h96Zm-16,48H360V272h64Z"/><rect height="16" width="64" x="264" y="280"/><rect height="16" width="56" x="384" y="344"/><rect height="16" width="40" x="400" y="376"/><rect height="16" width="40" x="400" y="408"/><rect height="16" width="56" x="152" y="344"/><rect height="16" width="40" x="152" y="376"/><rect height="16" width="40" x="152" y="408"/><path d="M136,48H72v72h64Zm-16,56H88V64h32Z"/><rect height="16" width="40" x="72" y="144"/><rect height="16" width="40" x="72" y="184"/><path d="M424,107.83154a222.30241,222.30241,0,0,1,51.19922,101.81494l15.6582-3.293A238.25442,238.25442,0,0,0,434.89209,96H456V80H408v48h16Z"/><path d="M56,432h48V384H88v20.16846A222.30241,222.30241,0,0,1,36.80078,302.35352l-15.6582,3.293A238.25257,238.25257,0,0,0,77.10815,416H56Z"/><path d="M360,40H296v80h64Zm-16,64H312V56h32Z"/><rect height="16" width="40" x="320" y="144"/><rect height="16" width="40" x="320" y="184"/><rect height="16" width="128" x="152" y="64"/></g></svg>