<?xml version="1.0" ?><svg id="Layer_1" style="enable-background:new 0 0 50 50;" version="1.1" viewBox="0 0 50 50" xml:space="preserve" xmlns="http://www.w3.org/2000/svg" xmlns:xlink="http://www.w3.org/1999/xlink"><style type="text/css">
	.st0{fill:#F0C4DB;}
	.st1{fill:#FF9D9C;}
	.st2{fill:#9BEAF9;}
	.st3{fill:#E9F4BC;}
	.st4{fill:#505050;}
	.st5{fill:#FEBECC;}
	.st6{fill:#FFFFFF;}
	.st7{fill:#FDE4A1;}
	.st8{fill:#FEE7B5;}
	.st9{fill:#CDF6FC;}
	.st10{fill:#F2C6DD;}
	.st11{opacity:0.1;}
</style><g><path class="st5" d="M48.88,20.12c-2.04-0.66-4.22-1.03-6.48-1.03c-11.6,0-21,9.4-21,21c0,3.07,0.67,5.98,1.86,8.61h25.62V20.12z"/><g><g><polygon class="st2" points="1.88,12.52 1.87,35.76 1.87,40.73 15.72,40.73 26.54,40.73 40.39,40.73 40.39,35.76 40.39,15.65      40.39,12.52    "/><path class="st3" d="M14.24,25.2L14.24,25.2c-4.1,0-7.42,3.32-7.42,7.42v3.14h14.84v-3.14C21.66,28.52,18.34,25.2,14.24,25.2z"/><path class="st6" d="M9.65,20.61c0-2.53,2.05-4.59,4.59-4.59c2.53,0,4.59,2.05,4.59,4.59c0,2.53-2.05,4.59-4.59,4.59     C11.71,25.2,9.65,23.14,9.65,20.61z"/><polygon class="st6" points="1.88,35.76 1.88,40.72 1.88,40.72 40.38,40.72 40.39,40.72 40.39,35.76    "/><rect class="st6" height="4.63" width="10.82" x="15.72" y="40.72"/><polygon class="st1" points="47.87,2.05 47.87,15.65 36.37,15.65 31.56,20.52 31.56,15.65 26.54,15.65 26.54,2.05    "/></g><g><path class="st4" d="M26.82,35.02c-0.42,0-0.75,0.33-0.75,0.74c0,0.42,0.33,0.76,0.75,0.76c0.41,0,0.75-0.34,0.75-0.76     C27.57,35.35,27.23,35.02,26.82,35.02z"/><path class="st4" d="M47.88,1.3H26.54c-0.41,0-0.75,0.34-0.75,0.75v9.72H1.88c-0.41,0-0.75,0.34-0.75,0.75l0,28.2     c0,0.23,0.11,0.42,0.26,0.56c0,0,0,0,0,0c0,0.01,0.01,0.01,0.01,0.01c0.02,0.02,0.04,0.02,0.06,0.04     c0.05,0.03,0.09,0.06,0.14,0.08c0.09,0.04,0.18,0.06,0.28,0.06h13.09v3.12h-3.74c-0.41,0-0.75,0.34-0.75,0.75     s0.34,0.75,0.75,0.75h19.81c0.41,0,0.75-0.34,0.75-0.75s-0.34-0.75-0.75-0.75h-3.74v-3.12h13.09c0.1,0,0.2-0.02,0.29-0.06     c0.09-0.04,0.18-0.09,0.25-0.16c0,0,0,0,0.01,0c0.05-0.05,0.08-0.11,0.11-0.17c0.01-0.03,0.04-0.05,0.05-0.07     c0.04-0.09,0.06-0.19,0.06-0.3l0-24.32h6.74c0.41,0,0.75-0.34,0.75-0.75V2.05C48.63,1.64,48.29,1.3,47.88,1.3z M25.79,44.6h-9.32     v-3.12h9.32V44.6z M39.64,35.02H28.82c-0.42,0-0.75,0.33-0.75,0.74c0,0.42,0.33,0.76,0.75,0.76h10.82v3.46H2.63v-3.47l22.19,0.01     c0.41,0,0.75-0.34,0.75-0.76c0-0.41-0.34-0.74-0.75-0.74h-2.41v-2.4c0-3.45-2.15-6.4-5.18-7.6c1.41-0.96,2.34-2.58,2.34-4.41     c0-2.94-2.39-5.34-5.34-5.34S8.9,17.67,8.9,20.61c0,1.83,0.93,3.45,2.34,4.41c-3.03,1.2-5.18,4.15-5.18,7.6v2.4H2.63l0-21.74     h23.17v2.37c0,0.41,0.34,0.75,0.75,0.75h4.27v4.12c0,0.3,0.18,0.58,0.46,0.69c0.09,0.04,0.19,0.06,0.29,0.06     c0.2,0,0.39-0.08,0.53-0.22l4.59-4.65h2.95V35.02z M10.4,20.61c0-2.12,1.72-3.84,3.84-3.84s3.84,1.72,3.84,3.84     c0,2.11-1.72,3.84-3.83,3.84c0,0,0,0,0,0s0,0,0,0C12.12,24.44,10.4,22.72,10.4,20.61z M14.24,25.95     C14.24,25.95,14.24,25.95,14.24,25.95c3.68,0,6.67,2.99,6.67,6.67v2.39H7.57v-2.39C7.57,28.94,10.56,25.95,14.24,25.95     C14.24,25.95,14.24,25.95,14.24,25.95z M47.13,14.9H36.37c-0.2,0-0.39,0.08-0.53,0.22l-3.53,3.57v-3.05     c0-0.41-0.34-0.75-0.75-0.75h-4.27V2.8h19.83V14.9z"/><path class="st4" d="M31.03,6.71h12.37c0.41,0,0.75-0.34,0.75-0.75s-0.34-0.75-0.75-0.75H31.03c-0.41,0-0.75,0.34-0.75,0.75     S30.61,6.71,31.03,6.71z"/><path class="st4" d="M31.03,9.78h12.37c0.41,0,0.75-0.34,0.75-0.75s-0.34-0.75-0.75-0.75H31.03c-0.41,0-0.75,0.34-0.75,0.75     S30.61,9.78,31.03,9.78z"/><path class="st4" d="M31.03,12.85h7.93c0.41,0,0.75-0.34,0.75-0.75s-0.34-0.75-0.75-0.75h-7.93c-0.41,0-0.75,0.34-0.75,0.75     S30.61,12.85,31.03,12.85z"/></g></g></g></svg>